<svg id="Livello_1" data-name="Livello 1" xmlns="http://www.w3.org/2000/svg" viewBox="0 0 185.79 209.11"><defs><style>.cls-1{fill:#93a18b;}.cls-2{fill:#bec6b9;}.cls-3{fill:#9fae97;}.cls-4{fill:#829077;}.cls-5{fill:#4254a1;}.cls-6{fill:#261c35;}.cls-7{fill:#4c4691;}.cls-8{fill:#f7c0c0;}.cls-9{fill:#e1e3f3;}.cls-10{fill:#2b2e70;}.cls-11{fill:#575489;}.cls-12,.cls-13{fill:#1e1f42;}.cls-13{opacity:0.5;}.cls-14{fill:#333;}.cls-15{fill:#fff;}.cls-16{fill:#4d4a81;}.cls-17{fill:#f6bbc6;}.cls-18{fill:#303b45;}.cls-19{fill:#5b5b5a;}.cls-20{fill:#353430;}.cls-21{fill:#eaeaea;}.cls-22,.cls-23,.cls-24{fill:none;stroke-miterlimit:10;stroke-width:1.06px;}.cls-22{stroke:#fbc01f;}.cls-23{stroke:#4294ce;}.cls-24{stroke:#fff;}.cls-25{fill:#ebebeb;}.cls-26{fill:#fbc01f;}</style></defs><title>G03_01_05</title><polygon class="cls-1" points="185.79 97.76 185.79 102.51 96.32 155.28 96.32 150.53 185.79 97.76"/><polygon class="cls-2" points="96.32 150.53 96.32 155.28 0.22 99.55 0.22 94.8 96.32 150.53"/><polygon class="cls-3" points="96.1 150.55 0 94.82 0 94.55 90.31 42.65 185.79 97.78 96.25 150.64 96.1 150.55"/><path class="cls-1" d="M132.51,97.5c-4.31-9.41-20.57-16.4-40-16.4-22.7,0-41.11,9.57-41.11,21.37s18.41,21.38,41.11,21.38a76.44,76.44,0,0,0,7.81-.4,11.86,11.86,0,0,1-1.13-5C99.22,108.07,113.55,99.4,132.51,97.5Z" transform="translate(-22.86 -14.25)"/><path class="cls-1" d="M140.32,97.11c-2.67,0-5.28.14-7.81.39a11.9,11.9,0,0,1,1.13,5c0,10.42-14.33,19.09-33.29,21,4.31,9.41,20.56,16.41,40,16.41,22.7,0,41.1-9.57,41.1-21.38S163,97.11,140.32,97.11Z" transform="translate(-22.86 -14.25)"/><path class="cls-4" d="M133.64,102.47a11.9,11.9,0,0,0-1.13-5c-19,1.9-33.29,10.57-33.29,21a11.86,11.86,0,0,0,1.13,5C119.31,121.56,133.64,112.89,133.64,102.47Z" transform="translate(-22.86 -14.25)"/><path class="cls-1" d="M96.17,185.75c0,.13,0,.25,0,.34a1.2,1.2,0,0,1,0,.23.43.43,0,0,1-.06.17l-.12.16a1.47,1.47,0,0,1-.34.23,4.42,4.42,0,0,1-1.41.48,5.13,5.13,0,0,1-1,.09,5.24,5.24,0,0,1-1.87-.32,3.62,3.62,0,0,1-1.43-1,4.09,4.09,0,0,1-.89-1.59,7,7,0,0,1-.32-2.22,6.91,6.91,0,0,1,.35-2.28,4.74,4.74,0,0,1,1-1.68,4,4,0,0,1,1.48-1,5.06,5.06,0,0,1,1.9-.35,5.31,5.31,0,0,1,.81.07,5.19,5.19,0,0,1,.73.19,2.91,2.91,0,0,1,.59.26,1.76,1.76,0,0,1,.37.25A1,1,0,0,1,96,178a.38.38,0,0,1,.06.18,1.59,1.59,0,0,1,0,.26c0,.09,0,.22,0,.36s0,.29,0,.4a1.46,1.46,0,0,1-.05.27.56.56,0,0,1-.1.15.16.16,0,0,1-.12,0,.53.53,0,0,1-.3-.13,3.31,3.31,0,0,0-.46-.31,4,4,0,0,0-.68-.3,2.91,2.91,0,0,0-.94-.14,2.23,2.23,0,0,0-1.88.95,3.39,3.39,0,0,0-.51,1.1,6,6,0,0,0-.17,1.46,5.48,5.48,0,0,0,.19,1.55,2.89,2.89,0,0,0,.52,1.07,2.18,2.18,0,0,0,.82.63,2.67,2.67,0,0,0,1.08.21,3.3,3.3,0,0,0,1-.13,4,4,0,0,0,.68-.29,3.64,3.64,0,0,0,.47-.28.6.6,0,0,1,.28-.12.19.19,0,0,1,.21.15,1.42,1.42,0,0,1,0,.27C96.16,185.42,96.17,185.57,96.17,185.75Z" transform="translate(-22.86 -14.25)"/><path class="cls-1" d="M102,180.7c0,.19,0,.34,0,.46a1.43,1.43,0,0,1,0,.28c0,.07,0,.12-.08.14a.18.18,0,0,1-.13,0l-.14,0-.17-.05-.22-.06a1,1,0,0,0-.26,0,.78.78,0,0,0-.33.07,1.57,1.57,0,0,0-.34.2,3.4,3.4,0,0,0-.36.38,4.41,4.41,0,0,0-.41.58V187a.24.24,0,0,1,0,.14.27.27,0,0,1-.16.09,1.05,1.05,0,0,1-.3.06,3.33,3.33,0,0,1-.48,0,3.18,3.18,0,0,1-.47,0,1,1,0,0,1-.3-.06.27.27,0,0,1-.16-.09.19.19,0,0,1,0-.14v-7a.23.23,0,0,1,0-.14.26.26,0,0,1,.14-.09.83.83,0,0,1,.26-.06l.4,0,.42,0a.7.7,0,0,1,.25.06.33.33,0,0,1,.13.09.23.23,0,0,1,0,.14v.87a5.69,5.69,0,0,1,.51-.65,3.87,3.87,0,0,1,.47-.4,1.42,1.42,0,0,1,.43-.21,2.2,2.2,0,0,1,.44,0h.22l.24,0,.22.06.14.07a.47.47,0,0,1,.06.09.86.86,0,0,1,0,.13c0,.05,0,.14,0,.24S102,180.51,102,180.7Z" transform="translate(-22.86 -14.25)"/><path class="cls-1" d="M105.33,177.69a1.1,1.1,0,0,1-.24.82,1.34,1.34,0,0,1-.9.23,1.29,1.29,0,0,1-.89-.22,1.1,1.1,0,0,1-.23-.79,1.12,1.12,0,0,1,.24-.82,1.28,1.28,0,0,1,.9-.23,1.31,1.31,0,0,1,.89.22A1.05,1.05,0,0,1,105.33,177.69Zm-.14,9.33a.24.24,0,0,1,0,.14.31.31,0,0,1-.16.09,1.13,1.13,0,0,1-.3.06,5.77,5.77,0,0,1-1,0,1.13,1.13,0,0,1-.3-.06.31.31,0,0,1-.16-.09.23.23,0,0,1,0-.14v-7a.23.23,0,0,1,0-.14.4.4,0,0,1,.16-.1,1.67,1.67,0,0,1,.3-.07l.48,0,.48,0a1.67,1.67,0,0,1,.3.07.4.4,0,0,1,.16.1.24.24,0,0,1,0,.14Z" transform="translate(-22.86 -14.25)"/><path class="cls-1" d="M118.23,187a.23.23,0,0,1,0,.14.35.35,0,0,1-.16.09,1,1,0,0,1-.3.06,3.18,3.18,0,0,1-.47,0,3.48,3.48,0,0,1-.49,0,1.13,1.13,0,0,1-.3-.06.31.31,0,0,1-.16-.09.33.33,0,0,1,0-.14v-4.13a2.51,2.51,0,0,0-.07-.64,1.42,1.42,0,0,0-.2-.5,1,1,0,0,0-.34-.32,1.12,1.12,0,0,0-.5-.11,1.19,1.19,0,0,0-.71.27,4.59,4.59,0,0,0-.78.8V187a.24.24,0,0,1,0,.14.27.27,0,0,1-.16.09,1,1,0,0,1-.3.06,5.53,5.53,0,0,1-.94,0,1,1,0,0,1-.3-.06.27.27,0,0,1-.16-.09.19.19,0,0,1-.05-.14v-4.13a2.51,2.51,0,0,0-.07-.64,1.42,1.42,0,0,0-.2-.5,1,1,0,0,0-.34-.32,1.1,1.1,0,0,0-.49-.11,1.2,1.2,0,0,0-.72.27,4.59,4.59,0,0,0-.78.8V187a.23.23,0,0,1,0,.14.31.31,0,0,1-.16.09,1.13,1.13,0,0,1-.3.06,5.77,5.77,0,0,1-1,0,1.13,1.13,0,0,1-.3-.06.31.31,0,0,1-.16-.09.23.23,0,0,1,0-.14v-7a.23.23,0,0,1,0-.14.26.26,0,0,1,.14-.09.77.77,0,0,1,.26-.06l.4,0,.41,0a.77.77,0,0,1,.26.06.33.33,0,0,1,.13.09.33.33,0,0,1,0,.14v.81a4.53,4.53,0,0,1,1.15-.94,2.44,2.44,0,0,1,1.2-.31,3.07,3.07,0,0,1,.77.09,2.23,2.23,0,0,1,.61.25,2.07,2.07,0,0,1,.47.41,2.3,2.3,0,0,1,.33.52,5.43,5.43,0,0,1,.61-.58,3.74,3.74,0,0,1,.59-.39,2.88,2.88,0,0,1,.59-.23,2.4,2.4,0,0,1,.6-.07,2.6,2.6,0,0,1,1.17.23,2.1,2.1,0,0,1,.77.64,2.78,2.78,0,0,1,.42.94,5.24,5.24,0,0,1,.12,1.14Z" transform="translate(-22.86 -14.25)"/><path class="cls-1" d="M122.28,177.69a1.1,1.1,0,0,1-.24.82,1.91,1.91,0,0,1-1.8,0,1.1,1.1,0,0,1-.23-.79,1.12,1.12,0,0,1,.24-.82,1.89,1.89,0,0,1,1.79,0A1.05,1.05,0,0,1,122.28,177.69Zm-.15,9.33a.24.24,0,0,1,0,.14.27.27,0,0,1-.16.09,1,1,0,0,1-.3.06,3.18,3.18,0,0,1-.47,0,3.25,3.25,0,0,1-.48,0,1,1,0,0,1-.3-.06.27.27,0,0,1-.16-.09.24.24,0,0,1,0-.14v-7a.24.24,0,0,1,0-.14.34.34,0,0,1,.16-.1,1.33,1.33,0,0,1,.3-.07l.48,0,.47,0a1.33,1.33,0,0,1,.3.07.34.34,0,0,1,.16.1.24.24,0,0,1,0,.14Z" transform="translate(-22.86 -14.25)"/><path class="cls-1" d="M130.75,187a.24.24,0,0,1-.05.14.27.27,0,0,1-.16.09,1,1,0,0,1-.3.06,3.18,3.18,0,0,1-.47,0,3.4,3.4,0,0,1-.48,0,1,1,0,0,1-.3-.06.31.31,0,0,1-.16-.09.23.23,0,0,1,0-.14v-4a3.19,3.19,0,0,0-.08-.79,1.64,1.64,0,0,0-.21-.5,1,1,0,0,0-.37-.32,1.17,1.17,0,0,0-.52-.11,1.28,1.28,0,0,0-.75.27,4,4,0,0,0-.8.8V187a.24.24,0,0,1,0,.14.27.27,0,0,1-.16.09,1,1,0,0,1-.3.06,3.18,3.18,0,0,1-.47,0,3.25,3.25,0,0,1-.48,0,1,1,0,0,1-.3-.06.27.27,0,0,1-.16-.09.24.24,0,0,1,0-.14v-7a.23.23,0,0,1,0-.14.31.31,0,0,1,.14-.09.91.91,0,0,1,.26-.06l.41,0,.41,0a.7.7,0,0,1,.25.06.27.27,0,0,1,.13.09.23.23,0,0,1,0,.14v.81a4.47,4.47,0,0,1,1.18-.94,2.62,2.62,0,0,1,1.24-.31,2.68,2.68,0,0,1,1.2.23,2.09,2.09,0,0,1,.79.64,2.46,2.46,0,0,1,.43.94,5.38,5.38,0,0,1,.14,1.3Z" transform="translate(-22.86 -14.25)"/><path class="cls-1" d="M138.61,187a.23.23,0,0,1-.07.18.66.66,0,0,1-.25.09l-.5,0-.51,0a.45.45,0,0,1-.22-.09A.23.23,0,0,1,137,187v-.55a3.11,3.11,0,0,1-1,.72,2.9,2.9,0,0,1-1.22.26,3.31,3.31,0,0,1-1-.15,2.42,2.42,0,0,1-.81-.43,1.87,1.87,0,0,1-.52-.71,2.29,2.29,0,0,1-.19-1,2.21,2.21,0,0,1,.24-1.06,1.86,1.86,0,0,1,.71-.74,3.28,3.28,0,0,1,1.17-.43,8,8,0,0,1,1.64-.14h.68v-.43a2.34,2.34,0,0,0-.07-.57,1,1,0,0,0-.22-.41.88.88,0,0,0-.41-.24,1.93,1.93,0,0,0-.63-.08,2.92,2.92,0,0,0-.87.11,4.6,4.6,0,0,0-.69.24l-.49.24a.7.7,0,0,1-.33.11.25.25,0,0,1-.15-.05.5.5,0,0,1-.11-.16,1.26,1.26,0,0,1-.07-.25,3.25,3.25,0,0,1,0-.33,1.29,1.29,0,0,1,0-.38.54.54,0,0,1,.15-.25,1.3,1.3,0,0,1,.38-.25,5,5,0,0,1,.64-.26,5.87,5.87,0,0,1,.8-.19,5.29,5.29,0,0,1,.9-.07,5.24,5.24,0,0,1,1.4.16,2.3,2.3,0,0,1,1,.49,1.89,1.89,0,0,1,.54.85,3.9,3.9,0,0,1,.17,1.25Zm-1.92-3h-.75a3.92,3.92,0,0,0-.82.07,1.69,1.69,0,0,0-.54.21.83.83,0,0,0-.31.34,1,1,0,0,0-.1.46.88.88,0,0,0,.28.69,1.13,1.13,0,0,0,.77.25,1.46,1.46,0,0,0,.76-.22,3.17,3.17,0,0,0,.71-.61Z" transform="translate(-22.86 -14.25)"/><path class="cls-1" d="M142.54,187a.23.23,0,0,1,0,.14.31.31,0,0,1-.16.09,1.13,1.13,0,0,1-.3.06,5.77,5.77,0,0,1-1,0,1.13,1.13,0,0,1-.3-.06.31.31,0,0,1-.16-.09.23.23,0,0,1,0-.14V176.75a.23.23,0,0,1,0-.14.33.33,0,0,1,.16-.11,1.67,1.67,0,0,1,.3-.07l.48,0,.48,0a1.67,1.67,0,0,1,.3.07.33.33,0,0,1,.16.11.23.23,0,0,1,0,.14Z" transform="translate(-22.86 -14.25)"/><path class="cls-1" d="M154.23,184.25a3.21,3.21,0,0,1-.29,1.4,3,3,0,0,1-.81,1,3.34,3.34,0,0,1-1.19.6,4.84,4.84,0,0,1-1.45.21,4.92,4.92,0,0,1-1-.09,6.13,6.13,0,0,1-.8-.21,3.11,3.11,0,0,1-.57-.25,1.77,1.77,0,0,1-.33-.24.53.53,0,0,1-.15-.29,3.56,3.56,0,0,1,0-.55c0-.16,0-.3,0-.41a.92.92,0,0,1,0-.26.27.27,0,0,1,.09-.15.33.33,0,0,1,.14,0,.65.65,0,0,1,.31.13,5.13,5.13,0,0,0,.51.29,5.52,5.52,0,0,0,.74.28,3.44,3.44,0,0,0,1,.13,2.31,2.31,0,0,0,.67-.09,1.38,1.38,0,0,0,.5-.25,1.07,1.07,0,0,0,.32-.41,1.33,1.33,0,0,0,.11-.54.91.91,0,0,0-.19-.59,1.92,1.92,0,0,0-.49-.44c-.2-.12-.43-.24-.68-.36l-.79-.35a8.67,8.67,0,0,1-.79-.43,3.37,3.37,0,0,1-.68-.57A2.58,2.58,0,0,1,148,181a2.76,2.76,0,0,1-.19-1.09,2.9,2.9,0,0,1,.27-1.28,2.6,2.6,0,0,1,.73-.91,3,3,0,0,1,1.08-.54,4.66,4.66,0,0,1,1.31-.18,5.81,5.81,0,0,1,.72.05,5.56,5.56,0,0,1,.67.15,3.28,3.28,0,0,1,.56.21,1.11,1.11,0,0,1,.32.2.35.35,0,0,1,.1.13.46.46,0,0,1,.05.14c0,.06,0,.14,0,.23s0,.2,0,.34a3.79,3.79,0,0,1,0,.38,1.56,1.56,0,0,1,0,.26.35.35,0,0,1-.08.15.22.22,0,0,1-.14,0,.65.65,0,0,1-.27-.11,3.87,3.87,0,0,0-.46-.24,4.29,4.29,0,0,0-.64-.24,2.8,2.8,0,0,0-.79-.1,2,2,0,0,0-.58.08,1.2,1.2,0,0,0-.42.23.84.84,0,0,0-.25.34,1.26,1.26,0,0,0-.08.43,1,1,0,0,0,.18.59,1.72,1.72,0,0,0,.49.43,5.08,5.08,0,0,0,.7.36l.8.36a8.73,8.73,0,0,1,.8.42,3.18,3.18,0,0,1,.69.57,2.56,2.56,0,0,1,.49.79A2.62,2.62,0,0,1,154.23,184.25Z" transform="translate(-22.86 -14.25)"/><path class="cls-1" d="M162.73,183.47a5.51,5.51,0,0,1-.23,1.62,3.67,3.67,0,0,1-.71,1.27,3.33,3.33,0,0,1-1.2.82,4.54,4.54,0,0,1-1.68.29,4.66,4.66,0,0,1-1.62-.26,3,3,0,0,1-1.14-.75,3.16,3.16,0,0,1-.67-1.21,5.86,5.86,0,0,1-.22-1.64,5.22,5.22,0,0,1,.24-1.63,3.45,3.45,0,0,1,.72-1.27,3.07,3.07,0,0,1,1.19-.81,4.26,4.26,0,0,1,1.67-.29,4.69,4.69,0,0,1,1.63.25,2.84,2.84,0,0,1,1.14.75,3,3,0,0,1,.66,1.21A5.54,5.54,0,0,1,162.73,183.47Zm-2,.07a5.61,5.61,0,0,0-.08-.95,2.39,2.39,0,0,0-.28-.75,1.39,1.39,0,0,0-.52-.5,1.69,1.69,0,0,0-.82-.18,1.67,1.67,0,0,0-.76.16,1.36,1.36,0,0,0-.54.47,2.27,2.27,0,0,0-.32.74,4.25,4.25,0,0,0-.1,1,4.74,4.74,0,0,0,.08.95,2.3,2.3,0,0,0,.28.75,1.32,1.32,0,0,0,.52.5,1.67,1.67,0,0,0,.81.18,1.87,1.87,0,0,0,.78-.16,1.49,1.49,0,0,0,.53-.47,2,2,0,0,0,.32-.74A4.87,4.87,0,0,0,160.71,183.54Z" transform="translate(-22.86 -14.25)"/><path class="cls-1" d="M170.9,187a.33.33,0,0,1,0,.14.24.24,0,0,1-.14.09.83.83,0,0,1-.26.06,2.3,2.3,0,0,1-.4,0,2.56,2.56,0,0,1-.42,0,.76.76,0,0,1-.25-.06.22.22,0,0,1-.13-.09.23.23,0,0,1,0-.14v-.8a4.41,4.41,0,0,1-1.18.93,2.63,2.63,0,0,1-1.24.32,2.67,2.67,0,0,1-1.2-.24,2,2,0,0,1-.79-.64,2.46,2.46,0,0,1-.43-.94,5.58,5.58,0,0,1-.13-1.33v-4.27a.23.23,0,0,1,0-.14.34.34,0,0,1,.16-.09,1,1,0,0,1,.3-.06l.47,0,.48,0a1,1,0,0,1,.3.06.34.34,0,0,1,.16.09.24.24,0,0,1,.05.14V184a3.69,3.69,0,0,0,.07.84,1.69,1.69,0,0,0,.21.49,1,1,0,0,0,.37.32,1.08,1.08,0,0,0,.52.11,1.28,1.28,0,0,0,.75-.27,4,4,0,0,0,.81-.8v-4.63a.24.24,0,0,1,.05-.14.3.3,0,0,1,.15-.09,1.13,1.13,0,0,1,.3-.06l.48,0,.48,0a1,1,0,0,1,.29.06.34.34,0,0,1,.16.09.24.24,0,0,1,.05.14Z" transform="translate(-22.86 -14.25)"/><path class="cls-1" d="M177.35,180.7c0,.19,0,.34,0,.46a1.55,1.55,0,0,1,0,.28.21.21,0,0,1-.09.14.16.16,0,0,1-.12,0,.35.35,0,0,1-.14,0l-.18-.05-.22-.06a1,1,0,0,0-.25,0,.78.78,0,0,0-.33.07,1.37,1.37,0,0,0-.34.2,2.7,2.7,0,0,0-.37.38,5.6,5.6,0,0,0-.41.58V187a.19.19,0,0,1-.05.14.27.27,0,0,1-.16.09,1,1,0,0,1-.3.06,3.18,3.18,0,0,1-.47,0,3.33,3.33,0,0,1-.48,0,1.05,1.05,0,0,1-.3-.06.27.27,0,0,1-.16-.09.24.24,0,0,1,0-.14v-7a.33.33,0,0,1,0-.14.31.31,0,0,1,.14-.09.91.91,0,0,1,.26-.06l.41,0,.41,0a.7.7,0,0,1,.25.06.27.27,0,0,1,.13.09.23.23,0,0,1,0,.14v.87a5.66,5.66,0,0,1,.52-.65,3.2,3.2,0,0,1,.46-.4,1.37,1.37,0,0,1,.44-.21,2.1,2.1,0,0,1,.43,0h.22l.24,0,.22.06a.45.45,0,0,1,.14.07.24.24,0,0,1,.06.09.33.33,0,0,1,0,.13,1.34,1.34,0,0,1,0,.24C177.35,180.36,177.35,180.51,177.35,180.7Z" transform="translate(-22.86 -14.25)"/><path class="cls-1" d="M183.61,185.91c0,.14,0,.25,0,.34a1.2,1.2,0,0,1,0,.23.54.54,0,0,1,0,.15.64.64,0,0,1-.12.15,2.38,2.38,0,0,1-.32.22,3.55,3.55,0,0,1-.52.23,4.77,4.77,0,0,1-.63.17,4,4,0,0,1-.7.06,3.91,3.91,0,0,1-1.42-.25,2.74,2.74,0,0,1-1.05-.74,3.23,3.23,0,0,1-.63-1.19,5.31,5.31,0,0,1-.22-1.61,5.72,5.72,0,0,1,.26-1.81,3.52,3.52,0,0,1,.73-1.26,3,3,0,0,1,1.11-.74,4,4,0,0,1,1.41-.25,3.08,3.08,0,0,1,.61.06,2.65,2.65,0,0,1,.57.15,2.45,2.45,0,0,1,.46.21,1.53,1.53,0,0,1,.3.2l.12.15a.44.44,0,0,1,.05.15.75.75,0,0,1,0,.23,2.92,2.92,0,0,1,0,.33,1.86,1.86,0,0,1-.08.64q-.08.18-.21.18a.53.53,0,0,1-.28-.11l-.35-.24a2.39,2.39,0,0,0-.48-.24,1.71,1.71,0,0,0-.67-.11,1.32,1.32,0,0,0-1.18.59,3.05,3.05,0,0,0-.4,1.73,4.25,4.25,0,0,0,.1,1,2.17,2.17,0,0,0,.3.72,1.22,1.22,0,0,0,.5.43,1.54,1.54,0,0,0,.7.15,1.86,1.86,0,0,0,.7-.12,3.05,3.05,0,0,0,.51-.27l.37-.27a.43.43,0,0,1,.25-.12.15.15,0,0,1,.11,0s.06.07.08.14a1.56,1.56,0,0,1,0,.27C183.6,185.6,183.61,185.74,183.61,185.91Z" transform="translate(-22.86 -14.25)"/><path class="cls-1" d="M191.47,183.33a.78.78,0,0,1-.16.53.58.58,0,0,1-.45.18h-4.24a2.86,2.86,0,0,0,.11.8,1.54,1.54,0,0,0,.33.62,1.56,1.56,0,0,0,.6.39,2.49,2.49,0,0,0,.87.13,5,5,0,0,0,.91-.07,5.89,5.89,0,0,0,.67-.17l.47-.16a.94.94,0,0,1,.31-.08.24.24,0,0,1,.12,0,.2.2,0,0,1,.07.1.72.72,0,0,1,0,.2c0,.08,0,.19,0,.32a2.63,2.63,0,0,1,0,.3,1,1,0,0,1,0,.2.53.53,0,0,1-.05.15.76.76,0,0,1-.08.11.93.93,0,0,1-.28.15,4.56,4.56,0,0,1-.58.18,6.64,6.64,0,0,1-.8.16,7.37,7.37,0,0,1-1,.07,5,5,0,0,1-1.63-.24,2.78,2.78,0,0,1-1.17-.71,3.1,3.1,0,0,1-.7-1.2,5.8,5.8,0,0,1-.23-1.71,5.43,5.43,0,0,1,.24-1.67,3.64,3.64,0,0,1,.71-1.27,3.08,3.08,0,0,1,1.12-.79,4.4,4.4,0,0,1,3,0,2.65,2.65,0,0,1,1,.72,2.83,2.83,0,0,1,.59,1.08,4.91,4.91,0,0,1,.19,1.36Zm-1.91-.56a2,2,0,0,0-.33-1.3,1.27,1.27,0,0,0-1.1-.47,1.33,1.33,0,0,0-.65.14,1.22,1.22,0,0,0-.46.38,1.64,1.64,0,0,0-.28.56,2.56,2.56,0,0,0-.12.69Z" transform="translate(-22.86 -14.25)"/><path class="cls-1" d="M198,185.05a2.32,2.32,0,0,1-.22,1,2.2,2.2,0,0,1-.63.76,2.84,2.84,0,0,1-1,.45,4.6,4.6,0,0,1-1.21.16,4.44,4.44,0,0,1-.74-.06,4.66,4.66,0,0,1-.64-.15,3.91,3.91,0,0,1-.47-.18l-.27-.18a.53.53,0,0,1-.13-.26,2.21,2.21,0,0,1-.05-.52,1.84,1.84,0,0,1,0-.36,1,1,0,0,1,0-.22.24.24,0,0,1,.08-.11.21.21,0,0,1,.12,0,.7.7,0,0,1,.25.1,3.92,3.92,0,0,0,.42.22,4.79,4.79,0,0,0,.58.21,2.49,2.49,0,0,0,.76.11,1.73,1.73,0,0,0,.47-.06,1.18,1.18,0,0,0,.36-.15.71.71,0,0,0,.23-.26.86.86,0,0,0,.08-.36.57.57,0,0,0-.15-.4,1.3,1.3,0,0,0-.38-.3,4.61,4.61,0,0,0-.54-.23l-.62-.24a6,6,0,0,1-.62-.31,2.13,2.13,0,0,1-.53-.42,2.07,2.07,0,0,1-.39-.6,2.4,2.4,0,0,1-.14-.85,2.09,2.09,0,0,1,.19-.91,2,2,0,0,1,.57-.72,2.58,2.58,0,0,1,.89-.46,4,4,0,0,1,1.18-.16,4.4,4.4,0,0,1,.64,0,3.91,3.91,0,0,1,.56.12,3.26,3.26,0,0,1,.42.15,1.58,1.58,0,0,1,.25.14.35.35,0,0,1,.1.12.58.58,0,0,1,.05.14c0,.06,0,.12,0,.2a2.82,2.82,0,0,1,0,.31,3.33,3.33,0,0,1,0,.34.87.87,0,0,1,0,.21.19.19,0,0,1-.08.11l-.11,0a.43.43,0,0,1-.21-.08l-.38-.18a3.8,3.8,0,0,0-.51-.17,2.32,2.32,0,0,0-.67-.08,2,2,0,0,0-.46.05.87.87,0,0,0-.32.16.72.72,0,0,0-.19.24.68.68,0,0,0-.06.29.59.59,0,0,0,.15.41,1.5,1.5,0,0,0,.39.28,3.13,3.13,0,0,0,.55.24c.21.07.41.15.62.24a4,4,0,0,1,.63.3,2.07,2.07,0,0,1,.94,1A2,2,0,0,1,198,185.05Z" transform="translate(-22.86 -14.25)"/><path class="cls-3" d="M100.34,203.84a.21.21,0,0,1,0,.12.27.27,0,0,1-.15.09l-.28.06-.43,0-.44,0-.27-.06a.27.27,0,0,1-.15-.09.17.17,0,0,1,0-.12v-8.35a.21.21,0,0,1,0-.13.49.49,0,0,1,.15-.09,1.43,1.43,0,0,1,.28-.05l.43,0,.43,0a1.43,1.43,0,0,1,.28.05.49.49,0,0,1,.15.09.28.28,0,0,1,0,.13Z" transform="translate(-22.86 -14.25)"/><path class="cls-3" d="M108,203.85a.16.16,0,0,1,0,.12.28.28,0,0,1-.14.09,1.2,1.2,0,0,1-.26.05l-.42,0-.42,0a1.2,1.2,0,0,1-.26-.05.28.28,0,0,1-.14-.09.21.21,0,0,1,0-.12v-3.48a3.14,3.14,0,0,0-.06-.69,1.62,1.62,0,0,0-.19-.44.87.87,0,0,0-.32-.28,1.06,1.06,0,0,0-.45-.1,1.17,1.17,0,0,0-.67.24,3.52,3.52,0,0,0-.69.7v4a.21.21,0,0,1,0,.12.28.28,0,0,1-.14.09,1.46,1.46,0,0,1-.27.05l-.41,0-.42,0a1.2,1.2,0,0,1-.26-.05.21.21,0,0,1-.14-.09.17.17,0,0,1,0-.12v-6.09a.21.21,0,0,1,0-.12.19.19,0,0,1,.12-.09l.23-.05.35,0,.37,0a.9.9,0,0,1,.22.05.2.2,0,0,1,.11.09.21.21,0,0,1,0,.12v.7a3.94,3.94,0,0,1,1-.82,2.37,2.37,0,0,1,1.09-.27,2.34,2.34,0,0,1,1,.2,1.75,1.75,0,0,1,.69.56,2.06,2.06,0,0,1,.38.82,4.69,4.69,0,0,1,.12,1.14Z" transform="translate(-22.86 -14.25)"/><path class="cls-3" d="M113.28,195.43c0,.13,0,.24,0,.32a1.27,1.27,0,0,1,0,.18s0,.08-.07.09a.09.09,0,0,1-.07,0l-.11,0-.14-.05-.2-.05a1.19,1.19,0,0,0-.28,0,1,1,0,0,0-.31,0,.53.53,0,0,0-.23.19.84.84,0,0,0-.13.33,3.23,3.23,0,0,0,0,.49v.56h1.12a.21.21,0,0,1,.11,0,.35.35,0,0,1,.09.11.8.8,0,0,1,0,.22,3.22,3.22,0,0,1,0,.33,1.73,1.73,0,0,1-.06.54.24.24,0,0,1-.2.16h-1.12v4.93a.16.16,0,0,1,0,.12.25.25,0,0,1-.13.09,1.46,1.46,0,0,1-.27.05l-.42,0-.41,0a1.46,1.46,0,0,1-.27-.05A.22.22,0,0,1,110,204a.16.16,0,0,1,0-.12v-4.93h-.77c-.09,0-.15-.06-.19-.16a1.43,1.43,0,0,1-.07-.54,2.92,2.92,0,0,1,0-.33.8.8,0,0,1,0-.22.19.19,0,0,1,.08-.11.21.21,0,0,1,.12,0h.76V197a4.43,4.43,0,0,1,.12-1.09,1.91,1.91,0,0,1,.39-.78,1.63,1.63,0,0,1,.67-.47,2.76,2.76,0,0,1,1-.15,2.74,2.74,0,0,1,.5,0,1.85,1.85,0,0,1,.38.1.49.49,0,0,1,.18.09.24.24,0,0,1,.08.13,1,1,0,0,1,0,.22C113.27,195.19,113.28,195.3,113.28,195.43Z" transform="translate(-22.86 -14.25)"/><path class="cls-3" d="M120,200.74a4.51,4.51,0,0,1-.21,1.42,3,3,0,0,1-.62,1.11,2.81,2.81,0,0,1-1,.72,3.9,3.9,0,0,1-1.47.25,4,4,0,0,1-1.41-.22,2.5,2.5,0,0,1-1-.66,2.8,2.8,0,0,1-.59-1.06,4.85,4.85,0,0,1-.19-1.43,4.62,4.62,0,0,1,.21-1.43,3.16,3.16,0,0,1,.62-1.11,2.91,2.91,0,0,1,1-.71,3.81,3.81,0,0,1,1.46-.25,4.13,4.13,0,0,1,1.43.22,2.45,2.45,0,0,1,1,.65,2.66,2.66,0,0,1,.58,1.06A4.86,4.86,0,0,1,120,200.74Zm-1.77.07a4.25,4.25,0,0,0-.08-.83,1.73,1.73,0,0,0-.24-.66,1.19,1.19,0,0,0-.45-.44,1.54,1.54,0,0,0-.72-.15,1.44,1.44,0,0,0-.67.14,1.16,1.16,0,0,0-.47.41,1.94,1.94,0,0,0-.28.65,3.72,3.72,0,0,0-.09.86,4.25,4.25,0,0,0,.08.83,2.15,2.15,0,0,0,.24.66,1.1,1.1,0,0,0,.45.43,1.43,1.43,0,0,0,.71.16,1.59,1.59,0,0,0,.68-.14,1.16,1.16,0,0,0,.47-.41,1.78,1.78,0,0,0,.28-.64A3.88,3.88,0,0,0,118.22,200.81Z" transform="translate(-22.86 -14.25)"/><path class="cls-3" d="M125.26,198.32c0,.17,0,.3,0,.41a1.19,1.19,0,0,1,0,.24.32.32,0,0,1-.07.13.21.21,0,0,1-.12,0l-.12,0-.15-.06-.19-.05-.23,0a.71.71,0,0,0-.28.06,1.19,1.19,0,0,0-.3.18,2,2,0,0,0-.32.33,5.1,5.1,0,0,0-.36.5v3.8a.16.16,0,0,1,0,.12.28.28,0,0,1-.14.09,1.46,1.46,0,0,1-.27.05l-.41,0-.42,0a1.2,1.2,0,0,1-.26-.05.21.21,0,0,1-.14-.09.16.16,0,0,1,0-.12v-6.09a.21.21,0,0,1,0-.12.19.19,0,0,1,.12-.09l.23-.05.35,0,.37,0a.9.9,0,0,1,.22.05.2.2,0,0,1,.11.09.21.21,0,0,1,0,.12v.75a6.06,6.06,0,0,1,.45-.56,2.44,2.44,0,0,1,.4-.35,1.18,1.18,0,0,1,.38-.18,1.31,1.31,0,0,1,.39,0h.19a.76.76,0,0,1,.21,0l.19.05.12.07a.24.24,0,0,1,.06.08.53.53,0,0,1,0,.11c0,.05,0,.12,0,.21Z" transform="translate(-22.86 -14.25)"/><path class="cls-3" d="M136,203.85a.16.16,0,0,1,0,.12.25.25,0,0,1-.13.09l-.26.05-.42,0-.43,0-.26-.05a.28.28,0,0,1-.14-.09.21.21,0,0,1,0-.12v-3.61a2.4,2.4,0,0,0-.06-.56,1.35,1.35,0,0,0-.18-.44.89.89,0,0,0-.3-.28.94.94,0,0,0-.43-.1,1,1,0,0,0-.63.24,4.16,4.16,0,0,0-.68.7v4a.16.16,0,0,1,0,.12.24.24,0,0,1-.14.09,1.33,1.33,0,0,1-.26.05l-.41,0-.42,0a1.2,1.2,0,0,1-.26-.05.21.21,0,0,1-.14-.09.17.17,0,0,1-.05-.12v-3.61a2.43,2.43,0,0,0-.05-.56,1.35,1.35,0,0,0-.18-.44.81.81,0,0,0-.3-.28.94.94,0,0,0-.43-.1,1,1,0,0,0-.63.24,3.79,3.79,0,0,0-.67.7v4a.17.17,0,0,1-.05.12.21.21,0,0,1-.14.09,1.2,1.2,0,0,1-.26.05l-.42,0-.41,0a1.46,1.46,0,0,1-.27-.05.28.28,0,0,1-.14-.09.21.21,0,0,1,0-.12v-6.09a.16.16,0,0,1,0-.12.19.19,0,0,1,.12-.09l.23-.05.35,0,.36,0a1,1,0,0,1,.23.05.2.2,0,0,1,.11.09.21.21,0,0,1,0,.12v.7a4.23,4.23,0,0,1,1-.82,2.22,2.22,0,0,1,1-.27,2.4,2.4,0,0,1,.68.08,1.69,1.69,0,0,1,.53.22,1.76,1.76,0,0,1,.41.35,2.39,2.39,0,0,1,.29.46,6.19,6.19,0,0,1,.53-.51,3.54,3.54,0,0,1,.52-.34,2.07,2.07,0,0,1,.52-.2,2.55,2.55,0,0,1,1.54.14,1.79,1.79,0,0,1,.68.56,2.18,2.18,0,0,1,.36.82,4.09,4.09,0,0,1,.11,1Z" transform="translate(-22.86 -14.25)"/><path class="cls-3" d="M142.91,203.87a.18.18,0,0,1-.07.15.41.41,0,0,1-.22.08,2.31,2.31,0,0,1-.43,0,2.34,2.34,0,0,1-.45,0,.34.34,0,0,1-.2-.08.18.18,0,0,1-.06-.15v-.48a2.73,2.73,0,0,1-.85.63,2.5,2.5,0,0,1-1.07.22,3.21,3.21,0,0,1-.9-.12,2.06,2.06,0,0,1-.7-.38,1.68,1.68,0,0,1-.46-.62,2.06,2.06,0,0,1-.16-.86,2,2,0,0,1,.2-.93,1.68,1.68,0,0,1,.63-.64,2.78,2.78,0,0,1,1-.38,6.83,6.83,0,0,1,1.43-.13h.6v-.37a1.85,1.85,0,0,0-.06-.5A.89.89,0,0,0,141,199a.9.9,0,0,0-.36-.21,1.71,1.71,0,0,0-.55-.07,2.66,2.66,0,0,0-.77.1,3.67,3.67,0,0,0-.59.21l-.44.21a.68.68,0,0,1-.28.1.24.24,0,0,1-.14,0,.38.38,0,0,1-.09-.14.64.64,0,0,1-.06-.22,2.3,2.3,0,0,1,0-.28,1.46,1.46,0,0,1,0-.34.71.71,0,0,1,.13-.22,1.33,1.33,0,0,1,.34-.22,4.37,4.37,0,0,1,.56-.22,4.48,4.48,0,0,1,.7-.17,4.93,4.93,0,0,1,.78-.06,4.43,4.43,0,0,1,1.23.14,2,2,0,0,1,.84.43,1.62,1.62,0,0,1,.48.75,3.43,3.43,0,0,1,.15,1.08Zm-1.69-2.61h-.66a3.62,3.62,0,0,0-.71.06,1.66,1.66,0,0,0-.48.19.77.77,0,0,0-.27.3,1,1,0,0,0-.08.4.78.78,0,0,0,.24.6,1,1,0,0,0,.67.22,1.3,1.3,0,0,0,.67-.19,2.68,2.68,0,0,0,.62-.54Z" transform="translate(-22.86 -14.25)"/><path class="cls-3" d="M150.45,203.85a.21.21,0,0,1,0,.12.28.28,0,0,1-.14.09,1.2,1.2,0,0,1-.26.05l-.42,0-.42,0a1.2,1.2,0,0,1-.26-.05.28.28,0,0,1-.14-.09.16.16,0,0,1,0-.12v-3.48a3.14,3.14,0,0,0-.06-.69,1.62,1.62,0,0,0-.19-.44.87.87,0,0,0-.32-.28,1.06,1.06,0,0,0-.45-.1,1.17,1.17,0,0,0-.67.24,3.52,3.52,0,0,0-.69.7v4a.17.17,0,0,1,0,.12.21.21,0,0,1-.14.09,1.2,1.2,0,0,1-.26.05l-.42,0-.41,0a1.46,1.46,0,0,1-.27-.05.28.28,0,0,1-.14-.09.21.21,0,0,1,0-.12v-6.09a.16.16,0,0,1,0-.12.19.19,0,0,1,.12-.09l.23-.05.35,0,.36,0a.8.8,0,0,1,.22.05.19.19,0,0,1,.12.09.21.21,0,0,1,0,.12v.7a3.94,3.94,0,0,1,1-.82,2.56,2.56,0,0,1,2.14-.07,1.75,1.75,0,0,1,.69.56,2.21,2.21,0,0,1,.38.82,4.69,4.69,0,0,1,.12,1.14Z" transform="translate(-22.86 -14.25)"/><path class="cls-3" d="M155.61,203.25a2.61,2.61,0,0,1,0,.46.55.55,0,0,1-.1.23.5.5,0,0,1-.18.11,1.15,1.15,0,0,1-.28.09,2,2,0,0,1-.35.06,2.42,2.42,0,0,1-.38,0,2.65,2.65,0,0,1-.89-.13,1.39,1.39,0,0,1-.62-.4,1.48,1.48,0,0,1-.36-.68,3.43,3.43,0,0,1-.12-1v-3.12h-.73c-.09,0-.15-.06-.2-.16a1.43,1.43,0,0,1-.07-.54,2.92,2.92,0,0,1,0-.33.8.8,0,0,1,.05-.22.24.24,0,0,1,.08-.11.28.28,0,0,1,.12,0h.73v-1.36a.19.19,0,0,1,0-.12.22.22,0,0,1,.13-.09.9.9,0,0,1,.27-.06h.83a.83.83,0,0,1,.27.06.22.22,0,0,1,.13.09.21.21,0,0,1,.05.12v1.36h1.32a.21.21,0,0,1,.12,0s.06.06.09.11a.8.8,0,0,1,0,.22,3.22,3.22,0,0,1,0,.33,1.73,1.73,0,0,1-.06.54c-.05.1-.11.16-.2.16H154v2.86a1.48,1.48,0,0,0,.15.75.61.61,0,0,0,.56.25l.25,0,.19-.06.15,0,.1,0a.11.11,0,0,1,.08,0s.05,0,.06.09,0,.12,0,.2A2.73,2.73,0,0,1,155.61,203.25Z" transform="translate(-22.86 -14.25)"/><path class="cls-3" d="M161.15,202.13a2.07,2.07,0,0,1-.19.92,2,2,0,0,1-.55.66,2.51,2.51,0,0,1-.84.4,4,4,0,0,1-1.06.13,3.49,3.49,0,0,1-.65-.05,3.86,3.86,0,0,1-.56-.13,2.34,2.34,0,0,1-.41-.16,1.12,1.12,0,0,1-.24-.15.45.45,0,0,1-.11-.23,1.72,1.72,0,0,1,0-.45,2.92,2.92,0,0,1,0-.32.78.78,0,0,1,0-.19.2.2,0,0,1,.07-.1l.1,0a.54.54,0,0,1,.22.08l.37.19a4.23,4.23,0,0,0,.51.19,2.19,2.19,0,0,0,.66.09,1.32,1.32,0,0,0,.41-.05,1,1,0,0,0,.32-.13.63.63,0,0,0,.2-.23.74.74,0,0,0,.07-.31.48.48,0,0,0-.13-.35,1.09,1.09,0,0,0-.33-.26l-.48-.21-.54-.21c-.18-.08-.36-.16-.54-.26a2.84,2.84,0,0,1-.47-.37,1.59,1.59,0,0,1-.33-.53,1.85,1.85,0,0,1-.13-.74,1.91,1.91,0,0,1,.17-.8,1.88,1.88,0,0,1,.49-.63,2.55,2.55,0,0,1,.79-.4,3.29,3.29,0,0,1,1-.14,3.43,3.43,0,0,1,.56,0,3.26,3.26,0,0,1,.49.1l.37.13a.86.86,0,0,1,.21.13.17.17,0,0,1,.09.1.33.33,0,0,1,.05.12,1.41,1.41,0,0,0,0,.18,2,2,0,0,1,0,.26,2.45,2.45,0,0,1,0,.3c0,.08,0,.14,0,.19a.22.22,0,0,1-.07.09.15.15,0,0,1-.09,0,.43.43,0,0,1-.2-.07,2,2,0,0,0-.32-.15,3.33,3.33,0,0,0-.45-.16,2.58,2.58,0,0,0-.59-.07,1.56,1.56,0,0,0-.4,0,.74.74,0,0,0-.28.14.54.54,0,0,0-.16.21.54.54,0,0,0-.06.25.52.52,0,0,0,.13.36,1.3,1.3,0,0,0,.34.25,4.79,4.79,0,0,0,.49.21l.54.2a5.6,5.6,0,0,1,.55.27,1.92,1.92,0,0,1,.48.37,1.56,1.56,0,0,1,.34.52A1.75,1.75,0,0,1,161.15,202.13Z" transform="translate(-22.86 -14.25)"/><path class="cls-3" d="M103.78,218.23a2.79,2.79,0,0,1-.26,1.23,2.54,2.54,0,0,1-.71.88,3.09,3.09,0,0,1-1,.53,4.7,4.7,0,0,1-1.27.17,4.57,4.57,0,0,1-.85-.07,4.9,4.9,0,0,1-.69-.18,3.51,3.51,0,0,1-.5-.22,1.36,1.36,0,0,1-.29-.21.46.46,0,0,1-.13-.26,2,2,0,0,1,0-.48,3.16,3.16,0,0,1,0-.35.75.75,0,0,1,0-.24.23.23,0,0,1,.08-.12.19.19,0,0,1,.12,0,.65.65,0,0,1,.27.11,4.3,4.3,0,0,0,.45.25,3.69,3.69,0,0,0,.65.25,3,3,0,0,0,.88.11,2.12,2.12,0,0,0,.59-.07,1.41,1.41,0,0,0,.44-.23,1,1,0,0,0,.28-.35,1.19,1.19,0,0,0,.09-.47.83.83,0,0,0-.16-.52,1.6,1.6,0,0,0-.43-.38,4.15,4.15,0,0,0-.6-.32l-.69-.31a5.7,5.7,0,0,1-.69-.37,3.19,3.19,0,0,1-.6-.5,2.36,2.36,0,0,1-.42-.69,2.71,2.71,0,0,1,.07-2.06,2.29,2.29,0,0,1,.63-.8,2.66,2.66,0,0,1,1-.48,4.26,4.26,0,0,1,1.15-.16,4.46,4.46,0,0,1,.63.05,5.11,5.11,0,0,1,.59.13,3.69,3.69,0,0,1,.48.19.8.8,0,0,1,.28.17.27.27,0,0,1,.09.11.5.5,0,0,1,0,.13.94.94,0,0,1,0,.2c0,.08,0,.18,0,.3a2.92,2.92,0,0,1,0,.33.75.75,0,0,1,0,.23.32.32,0,0,1-.07.13.21.21,0,0,1-.12,0,.67.67,0,0,1-.24-.1l-.4-.21a4.3,4.3,0,0,0-.55-.2,2.5,2.5,0,0,0-.69-.09,1.64,1.64,0,0,0-.52.07,1,1,0,0,0-.36.19.84.84,0,0,0-.22.31,1,1,0,0,0-.07.38.79.79,0,0,0,.16.5,1.36,1.36,0,0,0,.43.39,4.94,4.94,0,0,0,.61.31l.7.31c.23.11.47.24.69.37a2.72,2.72,0,0,1,.61.5,2.43,2.43,0,0,1,.43.69A2.36,2.36,0,0,1,103.78,218.23Z" transform="translate(-22.86 -14.25)"/><path class="cls-3" d="M110.83,220.65a.21.21,0,0,1,0,.12.19.19,0,0,1-.12.09,1,1,0,0,1-.23,0l-.35,0-.37,0a1,1,0,0,1-.22,0,.2.2,0,0,1-.11-.09.16.16,0,0,1,0-.12V220a3.79,3.79,0,0,1-1,.82,2.33,2.33,0,0,1-1.08.27,2.42,2.42,0,0,1-1.06-.2,1.9,1.9,0,0,1-.69-.56,2.24,2.24,0,0,1-.37-.83,4.8,4.8,0,0,1-.11-1.16v-3.73a.21.21,0,0,1,0-.12.24.24,0,0,1,.14-.09,1.31,1.31,0,0,1,.27,0l.41,0,.42,0a1.33,1.33,0,0,1,.26,0,.24.24,0,0,1,.14.09.16.16,0,0,1,0,.12V218a3.36,3.36,0,0,0,.06.73,1.36,1.36,0,0,0,.19.44.87.87,0,0,0,.32.28,1.08,1.08,0,0,0,.46.1,1.14,1.14,0,0,0,.66-.24,3.83,3.83,0,0,0,.7-.7v-4.05a.21.21,0,0,1,0-.12.24.24,0,0,1,.14-.09,1.2,1.2,0,0,1,.26,0l.42,0,.42,0,.25,0a.24.24,0,0,1,.14.09.16.16,0,0,1,0,.12Z" transform="translate(-22.86 -14.25)"/><path class="cls-3" d="M116.86,218.93a2.08,2.08,0,0,1-.2.92,1.84,1.84,0,0,1-.55.66,2.51,2.51,0,0,1-.84.4,3.92,3.92,0,0,1-1,.13,3.53,3.53,0,0,1-.66,0,3.71,3.71,0,0,1-.55-.13,2.06,2.06,0,0,1-.41-.16.83.83,0,0,1-.24-.15.49.49,0,0,1-.12-.23,1.72,1.72,0,0,1,0-.45,2.92,2.92,0,0,1,0-.32c0-.08,0-.14,0-.19a.29.29,0,0,1,.07-.1l.11,0a.59.59,0,0,1,.22.08l.36.19a4.23,4.23,0,0,0,.51.19,2.29,2.29,0,0,0,.66.09,1.34,1.34,0,0,0,.42,0,1,1,0,0,0,.31-.13.55.55,0,0,0,.2-.23.62.62,0,0,0,.07-.31.48.48,0,0,0-.13-.35,1,1,0,0,0-.33-.26l-.47-.21q-.27-.09-.54-.21a3.36,3.36,0,0,1-.54-.26,2.19,2.19,0,0,1-.48-.37,1.76,1.76,0,0,1-.33-.53,2,2,0,0,1-.13-.74,1.91,1.91,0,0,1,.17-.8,1.89,1.89,0,0,1,.5-.63,2.39,2.39,0,0,1,.78-.4,3.36,3.36,0,0,1,1-.14,3.31,3.31,0,0,1,.55,0,4.67,4.67,0,0,1,.49.1,3.07,3.07,0,0,1,.37.13,1.27,1.27,0,0,1,.22.13.28.28,0,0,1,.09.1.34.34,0,0,1,0,.12.9.9,0,0,1,0,.18,2,2,0,0,1,0,.26,2.45,2.45,0,0,1,0,.3.84.84,0,0,1,0,.19.22.22,0,0,1-.07.09.13.13,0,0,1-.09,0,.4.4,0,0,1-.19-.07l-.33-.15a3.33,3.33,0,0,0-.45-.16,2.49,2.49,0,0,0-.58-.07,1.64,1.64,0,0,0-.41.05.82.82,0,0,0-.28.14.54.54,0,0,0-.16.21.54.54,0,0,0-.06.25.57.57,0,0,0,.13.36,1.21,1.21,0,0,0,.35.25l.48.21.55.2q.27.12.54.27a1.92,1.92,0,0,1,.48.37,1.76,1.76,0,0,1,.35.52A1.93,1.93,0,0,1,116.86,218.93Z" transform="translate(-22.86 -14.25)"/><path class="cls-3" d="M124.29,217.52a5.45,5.45,0,0,1-.18,1.46,3.16,3.16,0,0,1-.51,1.11,2.27,2.27,0,0,1-.83.71,2.58,2.58,0,0,1-1.14.24,1.89,1.89,0,0,1-.49,0,1.69,1.69,0,0,1-.43-.15,3.3,3.3,0,0,1-.42-.27c-.13-.1-.27-.23-.42-.37v2.87a.2.2,0,0,1,0,.13.56.56,0,0,1-.14.09l-.26.06-.42,0-.42,0-.26-.06a.42.42,0,0,1-.14-.09.2.2,0,0,1,0-.13v-8.51a.21.21,0,0,1,0-.12.19.19,0,0,1,.12-.09,1,1,0,0,1,.23,0l.35,0,.34,0a1,1,0,0,1,.23,0,.19.19,0,0,1,.12.09.21.21,0,0,1,0,.12v.71c.18-.18.36-.34.53-.48a3.38,3.38,0,0,1,.52-.35,2.27,2.27,0,0,1,.55-.2,2.35,2.35,0,0,1,.6-.07,2.13,2.13,0,0,1,1.92,1,3.43,3.43,0,0,1,.43,1.07A6,6,0,0,1,124.29,217.52Zm-1.8.12a4.57,4.57,0,0,0,0-.75,2.4,2.4,0,0,0-.2-.64,1.36,1.36,0,0,0-.37-.45.94.94,0,0,0-.57-.16,1,1,0,0,0-.34.05,1.08,1.08,0,0,0-.34.17,1.59,1.59,0,0,0-.36.3,4.87,4.87,0,0,0-.39.45v2a3.91,3.91,0,0,0,.69.71,1.1,1.1,0,0,0,.68.25.94.94,0,0,0,.57-.17,1.23,1.23,0,0,0,.39-.45,2,2,0,0,0,.22-.62A3.39,3.39,0,0,0,122.49,217.64Z" transform="translate(-22.86 -14.25)"/><path class="cls-3" d="M131.29,217.43a.62.62,0,0,1-.14.46.49.49,0,0,1-.38.15h-3.72a2.59,2.59,0,0,0,.1.71,1.41,1.41,0,0,0,.29.54,1.27,1.27,0,0,0,.52.34,2.18,2.18,0,0,0,.76.11,4.74,4.74,0,0,0,.8-.06,5.75,5.75,0,0,0,.59-.14l.41-.15a.83.83,0,0,1,.27-.06l.1,0a.22.22,0,0,1,.07.09.61.61,0,0,1,0,.17c0,.08,0,.17,0,.29s0,.18,0,.25,0,.13,0,.18a.4.4,0,0,1,0,.13.35.35,0,0,1-.08.1.87.87,0,0,1-.24.13,4.27,4.27,0,0,1-.5.16c-.21.05-.44.1-.71.14a7.34,7.34,0,0,1-.85,0,4.39,4.39,0,0,1-1.42-.2,2.62,2.62,0,0,1-1-.62,2.47,2.47,0,0,1-.61-1.06,4.74,4.74,0,0,1-.21-1.49,4.43,4.43,0,0,1,.22-1.46,3,3,0,0,1,.61-1.11,2.73,2.73,0,0,1,1-.69,3.82,3.82,0,0,1,2.61,0,2.36,2.36,0,0,1,.9.63,2.6,2.6,0,0,1,.51.94,4.17,4.17,0,0,1,.16,1.19Zm-1.67-.49a1.7,1.7,0,0,0-.29-1.14,1.1,1.1,0,0,0-1-.42,1.14,1.14,0,0,0-.57.13,1.16,1.16,0,0,0-.4.33,1.51,1.51,0,0,0-.25.49,2.88,2.88,0,0,0-.1.61Z" transform="translate(-22.86 -14.25)"/><path class="cls-3" d="M137.32,219.68a2.63,2.63,0,0,1,0,.3.56.56,0,0,1,0,.2.47.47,0,0,1,0,.14.64.64,0,0,1-.1.13l-.28.19a3.79,3.79,0,0,1-.45.2,3.9,3.9,0,0,1-1.17.2,3.39,3.39,0,0,1-1.24-.22,2.34,2.34,0,0,1-.92-.65,2.79,2.79,0,0,1-.55-1,5.44,5.44,0,0,1,0-3,2.91,2.91,0,0,1,.64-1.1,2.38,2.38,0,0,1,1-.65,3.24,3.24,0,0,1,1.23-.22,3.07,3.07,0,0,1,.53.05,3.65,3.65,0,0,1,.5.13,3.14,3.14,0,0,1,.41.19,1,1,0,0,1,.25.17l.11.13a.39.39,0,0,1,0,.13,1.25,1.25,0,0,1,0,.21,2.36,2.36,0,0,1,0,.29,1.72,1.72,0,0,1-.06.55c0,.11-.11.16-.18.16a.45.45,0,0,1-.25-.09,2.08,2.08,0,0,0-.31-.21,2.33,2.33,0,0,0-.42-.22,1.7,1.7,0,0,0-.59-.09,1.16,1.16,0,0,0-1,.51,2.67,2.67,0,0,0-.36,1.52,3.75,3.75,0,0,0,.09.87,2,2,0,0,0,.26.63,1.2,1.2,0,0,0,.44.37,1.33,1.33,0,0,0,.61.13,1.68,1.68,0,0,0,.62-.1,2.56,2.56,0,0,0,.44-.24,3.78,3.78,0,0,0,.32-.24.38.38,0,0,1,.22-.1.2.2,0,0,1,.11,0,.4.4,0,0,1,.06.13,1.2,1.2,0,0,1,0,.23C137.32,219.41,137.32,219.53,137.32,219.68Z" transform="translate(-22.86 -14.25)"/><path class="cls-3" d="M142.18,220.05a2.43,2.43,0,0,1,0,.46.55.55,0,0,1-.1.23.7.7,0,0,1-.18.12l-.28.09-.35.05a2.42,2.42,0,0,1-.38,0,2.65,2.65,0,0,1-.89-.13,1.39,1.39,0,0,1-.62-.4,1.48,1.48,0,0,1-.36-.68,3.43,3.43,0,0,1-.12-1v-3.12h-.73c-.09,0-.15-.06-.2-.16a1.43,1.43,0,0,1-.07-.54,2.92,2.92,0,0,1,0-.33.9.9,0,0,1,.05-.22.2.2,0,0,1,.09-.11.21.21,0,0,1,.12,0h.72V213a.19.19,0,0,1,0-.12.22.22,0,0,1,.13-.09.9.9,0,0,1,.27-.06h.83a.83.83,0,0,1,.27.06.22.22,0,0,1,.13.09.21.21,0,0,1,.05.12v1.36h1.32a.21.21,0,0,1,.12,0s.06.06.09.11a.9.9,0,0,1,0,.22,2.92,2.92,0,0,1,0,.33,1.67,1.67,0,0,1-.07.54c-.05.1-.11.16-.2.16h-1.33v2.86a1.48,1.48,0,0,0,.15.75.61.61,0,0,0,.56.25l.25,0,.19-.06.15-.05.1,0a.11.11,0,0,1,.08,0s.05.05.06.09,0,.12,0,.2A2.41,2.41,0,0,1,142.18,220.05Z" transform="translate(-22.86 -14.25)"/><path class="cls-3" d="M147.71,218.93a2.07,2.07,0,0,1-.19.92,2,2,0,0,1-.55.66,2.51,2.51,0,0,1-.84.4,4,4,0,0,1-1.06.13,3.49,3.49,0,0,1-.65,0,3.86,3.86,0,0,1-.56-.13,2.34,2.34,0,0,1-.41-.16.83.83,0,0,1-.24-.15.49.49,0,0,1-.11-.23,1.72,1.72,0,0,1,0-.45,2.92,2.92,0,0,1,0-.32.78.78,0,0,1,0-.19.2.2,0,0,1,.07-.1l.1,0a.62.62,0,0,1,.23.08,3.78,3.78,0,0,0,.36.19,4.23,4.23,0,0,0,.51.19,2.19,2.19,0,0,0,.66.09,1.32,1.32,0,0,0,.41,0,1,1,0,0,0,.32-.13.63.63,0,0,0,.2-.23.62.62,0,0,0,.07-.31.48.48,0,0,0-.13-.35,1,1,0,0,0-.33-.26l-.47-.21-.55-.21a4.43,4.43,0,0,1-.54-.26,2.4,2.4,0,0,1-.47-.37,1.59,1.59,0,0,1-.33-.53,1.82,1.82,0,0,1-.13-.74,1.91,1.91,0,0,1,.17-.8,2,2,0,0,1,.49-.63,2.55,2.55,0,0,1,.79-.4,3.33,3.33,0,0,1,1-.14,3.43,3.43,0,0,1,.56,0l.49.1.37.13a.86.86,0,0,1,.21.13.24.24,0,0,1,.1.1.83.83,0,0,1,0,.12c0,.05,0,.11,0,.18a2,2,0,0,1,0,.26,2.45,2.45,0,0,1,0,.3c0,.08,0,.14,0,.19a.22.22,0,0,1-.07.09.15.15,0,0,1-.09,0,.43.43,0,0,1-.2-.07,2,2,0,0,0-.32-.15,3.33,3.33,0,0,0-.45-.16,2.58,2.58,0,0,0-.59-.07,1.56,1.56,0,0,0-.4.05.74.74,0,0,0-.28.14.54.54,0,0,0-.16.21.54.54,0,0,0-.06.25.52.52,0,0,0,.13.36,1.3,1.3,0,0,0,.34.25,4.79,4.79,0,0,0,.49.21l.54.2a5.6,5.6,0,0,1,.55.27,1.92,1.92,0,0,1,.48.37,1.56,1.56,0,0,1,.34.52A1.75,1.75,0,0,1,147.71,218.93Z" transform="translate(-22.86 -14.25)"/><path class="cls-5" d="M84.88,54.58s-3.61,15-5.12,23.06.87,28.9.87,28.9a3,3,0,0,0,2.51,1.25c1.76,0,3.66-24.87,3.66-24.87s3.2-18.29,4.45-18c.29,0,1.72.91,2.76.71,3.56-.68,8.65-3.8,8.45-7.5-.25-4.77-4-5-4-5s-6.53-.51-7.28-.25S84.88,54.58,84.88,54.58Z" transform="translate(-22.86 -14.25)"/><path class="cls-5" d="M93.24,60S92,76.43,93.79,79.7s11.57,13.2,11.57,13.2,2.88.38,2.13-1.63-7.55-14.1-7.55-14.1l2.52-19.07-5.52-6.78Z" transform="translate(-22.86 -14.25)"/><path class="cls-6" d="M81.64,30.94s.69-3.19,3-3.19,17,3.29,18,4.29,8.11,14.5,8.11,19-1.5,20.1-1.5,20.1-2.77.5-3.52-.76-1.51-16.83-1.51-16.83-4-14.57-4-13.82S81.64,30.94,81.64,30.94Z" transform="translate(-22.86 -14.25)"/><path class="cls-6" d="M85.13,30.46l14.75,4.09,2.08,3.7s1.26,17.59.5,19.85-9,.72-12.06.21-5.52-3.73-5.52-3.73L83.33,29.51Z" transform="translate(-22.86 -14.25)"/><path class="cls-6" d="M84.59,39.5s-9.5,10-9.41,4.74,2.88-16.66,2.88-16.66a3.25,3.25,0,0,1,3,0c1.46.85.78,6.87.78,6.87l.22-4.49S89.18,24.38,84.59,39.5Z" transform="translate(-22.86 -14.25)"/><path class="cls-7" d="M105.15,92.6s.77,3.09.52,3.68-1.12,3.43.4,3.72,2.48-1.15,2.63-2.63-1.17-6.07-1.17-6.07Z" transform="translate(-22.86 -14.25)"/><path class="cls-8" d="M81.94,104.53c-.77-.12-.73-.63-1.6-.79.28,3.28.29,2.8.29,2.8.19,2,.84,1.88,2.55,1.35.54-.17.6,0,1.13-3.51C83.48,104.36,82.55,104.62,81.94,104.53Z" transform="translate(-22.86 -14.25)"/><path class="cls-9" d="M79.6,105s1.71,1.71,5.25,1.31c.42-.09.83-1,.86-1.78a4.15,4.15,0,0,0-.12-1.11.7.7,0,0,0-1-.45,4.83,4.83,0,0,1-2.85.81,2.25,2.25,0,0,1-1.84-2h-.34a2.87,2.87,0,0,0-.22,2.42,3.68,3.68,0,0,0,.15.47Z" transform="translate(-22.86 -14.25)"/><path class="cls-8" d="M107.49,91.27a7,7,0,0,0-.74-1.6,7,7,0,0,1-1.9,1.63c-.4.31-1.12-.63-1.52-.5,1.21,1.27,2,2.1,2,2.1S108.24,93.28,107.49,91.27Z" transform="translate(-22.86 -14.25)"/><path class="cls-9" d="M102.67,91.13l1.06,1.6s3.12,1.45,3.9-2.49l-1-2-.35.08s.17,1.94-1.28,2.26a5,5,0,0,1-2.09.15Z" transform="translate(-22.86 -14.25)"/><path class="cls-7" d="M83.51,110.54c.08-1.07.16-2.15.25-3.22a1,1,0,0,0-.05-.5,1.16,1.16,0,0,1-.82.27,8.9,8.9,0,0,1-2.3-.18,4.92,4.92,0,0,1-1.68,3,10.92,10.92,0,0,0-2.19,2.71.68.68,0,0,0-.07.6c.11.24.42.29.68.3a6.89,6.89,0,0,0,3.3-.89A20.56,20.56,0,0,0,83.51,110.54Z" transform="translate(-22.86 -14.25)"/><path class="cls-8" d="M95.56,23.22c0,1.26-.54,2.28-1.2,2.28s-1.21-1-1.21-2.28.54-2.29,1.21-2.29S95.56,22,95.56,23.22Z" transform="translate(-22.86 -14.25)"/><circle class="cls-8" cx="84.22" cy="57.04" r="2.14"/><circle class="cls-8" cx="57.11" cy="13.39" r="2.14"/><path class="cls-10" d="M83.36,30.23l0,0,.26-.14-.19-.63c0-1.63.11-6,.11-6.25a.62.62,0,0,0-.25-.49l-2.4-1.62-.09-.31-.26.14c-.1,0-.1.18-.1.18s-.11,6.55-.12,6.86a.49.49,0,0,0,.06.25h0a.59.59,0,0,0,.19.24L83,30l.26.17c.07.05.12.06.15.05Z" transform="translate(-22.86 -14.25)"/><path class="cls-10" d="M80.65,26.88l2.85,1.53c0,.4,0,.75,0,1l.19.63-.26.14,0,0h0s-.08,0-.15-.05L83,30l-2.33-1.57a.59.59,0,0,1-.19-.24h0a.49.49,0,0,1-.06-.25c0-.07,0-.42,0-.93Z" transform="translate(-22.86 -14.25)"/><path class="cls-10" d="M80.49,21.09s0-.15.1-.18l.26-.14.09.31,0,0-.23.16-.26.14Z" transform="translate(-22.86 -14.25)"/><path class="cls-11" d="M83.21,29.87,80.89,28.3a.62.62,0,0,1-.26-.49c0-.31.12-6.85.12-6.85s0-.31.27-.14l2.58,1.74a.62.62,0,0,1,.25.49c0,.31-.12,6.86-.12,6.86s0,.31-.26.14Z" transform="translate(-22.86 -14.25)"/><polygon class="cls-12" points="60.89 14.72 60.99 9.11 57.89 7.02 57.79 12.63 60.89 14.72"/><path class="cls-12" d="M82.14,28.19c-.11,0-.11.25,0,.44s.26.3.37.24.1-.25,0-.44S82.24,28.13,82.14,28.19Z" transform="translate(-22.86 -14.25)"/><path class="cls-12" d="M82.72,22.24a.09.09,0,0,0,0,.1c0,.05.06.07.08.06s0-.06,0-.1S82.74,22.23,82.72,22.24Z" transform="translate(-22.86 -14.25)"/><path class="cls-12" d="M82.58,22.2s0,0,0,0a.05.05,0,0,0,0,0,0,0,0,0,0,0-.05S82.59,22.19,82.58,22.2Z" transform="translate(-22.86 -14.25)"/><path class="cls-13" d="M82,21.78s0,0,0,0a.07.07,0,0,0,0,.06l.51.35s0,0,0,0a.07.07,0,0,0,0-.06Z" transform="translate(-22.86 -14.25)"/><path class="cls-8" d="M94.86,23A5.9,5.9,0,1,1,89,17.09,5.89,5.89,0,0,1,94.86,23Z" transform="translate(-22.86 -14.25)"/><path class="cls-8" d="M87,24.79l2,6.06h0a3.77,3.77,0,0,0,4.23.44l.64-.34-1.67-6.59Z" transform="translate(-22.86 -14.25)"/><path class="cls-7" d="M89,17.09a5.88,5.88,0,0,0-5.48,3.74,8.48,8.48,0,0,0,3.76.83c.47,0,4.68-.57,4.49-1.31A10.41,10.41,0,0,0,92.79,23a2,2,0,0,1,1.58-1.91l.15,0A5.88,5.88,0,0,0,89,17.09Z" transform="translate(-22.86 -14.25)"/><path class="cls-14" d="M88.4,22.09c-.74,0-1.3.75-1.74.75s-1-.75-1.74-.75c-1.13,0-2,.69-2,1.54s.9,1.53,2,1.53c.74,0,1.3-.75,1.74-.75s1,.75,1.74.75c1.13,0,2-.69,2-1.53S89.53,22.09,88.4,22.09Z" transform="translate(-22.86 -14.25)"/><ellipse class="cls-15" cx="61.82" cy="9.37" rx="0.94" ry="0.67"/><ellipse class="cls-15" cx="65.79" cy="9.37" rx="0.94" ry="0.67"/><path class="cls-6" d="M92.08,32.23s.49-5.94.14-7.87a16.51,16.51,0,0,0-2-4.85c-.59-.84-2.42-2.42-3.61-2a6.84,6.84,0,0,0-3.17,3.27,19.43,19.43,0,0,1,1.19-3.74A8,8,0,0,1,89,14.27c1.78-.16,5.89.68,6.59,2.82.76,2.32,2.56,7,2.41,9.47C97.89,27.76,96.2,31,96.2,31Z" transform="translate(-22.86 -14.25)"/><path class="cls-16" d="M152.18,38c-2.17-1.48-1.71-2.5-2-4.87a7.88,7.88,0,0,0-1.55-4c-2.58-3-7.49-1.29-8.7,0a9.54,9.54,0,0,0-2.14,3.73c-.64,2.29-.34,3.38-2.71,4.52-.82.39-1.7,1-1.7,2,0,.71.56,1.34.56,2.05,0,1.31-1.76,1.9-2.28,3.1-.41.93,0,2-.12,3a8.79,8.79,0,0,1-1,2.53,2.88,2.88,0,0,0-.12,2.61c.6,1,2,1.11,3.12,1s2.37-.47,3.41,0c.84.4,1.39,1.27,2.23,1.68a3.39,3.39,0,0,0,3.37-.57c.08-.06.15-.14.23-.21a3.06,3.06,0,0,0,2.64.57c.9-.28,1.56-1.05,2.46-1.33,1.1-.34,1.26-1.86,2.37-1.54s2.27-8.82,2.46-10.12c.1-.7.74-1.24.85-1.94C153.71,39.26,152.94,38.49,152.18,38Z" transform="translate(-22.86 -14.25)"/><path class="cls-17" d="M128.73,80.48s.64-11.7.36-12.25,3.82-12.68,4.6-15.45a8.18,8.18,0,0,1,.41-1.1l.84.31a6.85,6.85,0,0,1,1.75.77,4.78,4.78,0,0,1,1.72,2.52,8.76,8.76,0,0,1,.37,2c-1.65,2.39-4.24,6.17-4.58,8.07-.92,5.08-2.48,12.9-3.52,15.63C130.19,82.29,128.73,80.48,128.73,80.48Z" transform="translate(-22.86 -14.25)"/><path class="cls-17" d="M156.85,42.2s6,10.8,5.73,15a4.33,4.33,0,0,1-5.86,4.17c-1.95-.78-8.33-14.85-8.33-14.85l.13-3.77a5.1,5.1,0,0,1,4.56,2.08c1.82,2.47,4.29,10.29,4.29,10.29l-2.6-13.55Z" transform="translate(-22.86 -14.25)"/><path class="cls-18" d="M142.66,112.11a11,11,0,0,0-.84,3.34c0,1.23.48,1.57.48,1.57a27.65,27.65,0,0,0,3.16.77c.69,0,1.84,1.14,3.49,1.25s3.76.61,4-.69c.14-.79-1.89-1.54-4.28-3.16a12.76,12.76,0,0,1-2.74-2.62Z" transform="translate(-22.86 -14.25)"/><path class="cls-18" d="M132.51,115.54s.13,1.17,1.17,1.11a3.4,3.4,0,0,0,2-1.17l-.26,4.16s-.59,6.26-2.41,6.91c-1.31.46-1.88-1.17-2.1-2.14a2.7,2.7,0,0,1,0-1.2Z" transform="translate(-22.86 -14.25)"/><path class="cls-18" d="M136,93.92s1-16,.69-17.22S136,69,136,69l14.46-5.34s.8,22,1.14,24.2-5.66,24.75-5.66,24.75a1.89,1.89,0,0,1-1.89,1.19c-1.45-.07-1.36-1.13-1.36-1.13s3.52-22.27,3.52-23.3-1.43-11.94-1.43-11.94S142.69,87.72,142,92.2s-6.37,23.28-6.37,23.28-.39,1.76-1.7,2-1.56-1.24-1.56-1.24Z" transform="translate(-22.86 -14.25)"/><path class="cls-19" d="M152,88.35l-4.21,19.21-5-.86,2.67-15.6-1-11.2-2.53,14.45L137,112.11l-4.46-.83,3.28-18.46.76-16a12,12,0,0,1-.4-9.76c0-1,.92.17.92.17l14.25-2.61.69,4Z" transform="translate(-22.86 -14.25)"/><path class="cls-18" d="M143.13,112.18l2.79.39a12.76,12.76,0,0,0,2.74,2.62c.56.38,1.1.71,1.6,1a.26.26,0,0,1,0,.15c0,.36-.49.5-.85.53a13.07,13.07,0,0,1-5.19-1.13,2.65,2.65,0,0,1-1.17-.68,2.07,2.07,0,0,1-.4-1.18A2.41,2.41,0,0,1,143.13,112.18Z" transform="translate(-22.86 -14.25)"/><path class="cls-18" d="M134.84,118.52a20.58,20.58,0,0,1-.79,2.45c-.12.3-.3.64-.62.71a.78.78,0,0,1-.74-.3,2.44,2.44,0,0,1-.46-1.31,12.91,12.91,0,0,1,.16-4.16c.13-.63.38-1.34,1-1.54a2,2,0,0,1,1.57.38,1.57,1.57,0,0,1,.63.54c.15.29,0,.58-.1.88C135.27,117,135.05,117.74,134.84,118.52Z" transform="translate(-22.86 -14.25)"/><path class="cls-19" d="M142.54,43.57s4.84-1.18,7.19-.59.44,4.3.63,5.08c0,.13,3.73,4.74,3.76,5.93.09,3.22-3.07,4.48-3.07,4.48l2.42,9.64s-11.88,4.56-14.79,3.11c-3.1-1.55-3.35-3.31-3.25-4.17.06-.51,2.23-4.65,2.21-5.17L135.87,51.1a5.57,5.57,0,0,1,2.32-4.39Z" transform="translate(-22.86 -14.25)"/><path class="cls-17" d="M157.68,41a2.11,2.11,0,1,1-2.1-2.1A2.11,2.11,0,0,1,157.68,41Z" transform="translate(-22.86 -14.25)"/><path class="cls-17" d="M132.26,81.65a2.11,2.11,0,1,1-2.1-2.1A2.11,2.11,0,0,1,132.26,81.65Z" transform="translate(-22.86 -14.25)"/><path class="cls-19" d="M133.87,52.23l-.18.55Z" transform="translate(-22.86 -14.25)"/><path class="cls-19" d="M137.22,59.59a3.91,3.91,0,0,0-1.81-2.1,6.19,6.19,0,0,0-1.72-.62c-.28-.1-1,0-1.31-.09-.08.18,1.78-5.28,1.72-5.1a10.12,10.12,0,0,1,5.28-5.63c2.2-.87,7.5,2,7.5,2,.58,1.37-6.65,7.23-6.65,7.23s-.62.82-1.45,2C138.73,56.62,137.22,59.59,137.22,59.59Z" transform="translate(-22.86 -14.25)"/><path class="cls-19" d="M128.87,80.64a1.42,1.42,0,0,1-.14-.16A1.42,1.42,0,0,0,128.87,80.64Z" transform="translate(-22.86 -14.25)"/><path class="cls-19" d="M148.52,42.72a5.1,5.1,0,0,1,4.56,2.08,10.64,10.64,0,0,1,1,1.78c1.14,2.55,2.78,7,2.78,7l-4,2-.19-.36c-2.15-4.09-4.25-8.71-4.25-8.71Z" transform="translate(-22.86 -14.25)"/><path class="cls-17" d="M144.22,43.56s-2.1.58-2.29,1.07,1.36-.47,3,.75A15,15,0,0,1,148,48.83s1.55-1,1.5-4.15S144.22,43.56,144.22,43.56Z" transform="translate(-22.86 -14.25)"/><path class="cls-17" d="M148.17,39.93l.19,4.84-.47.08a3.67,3.67,0,0,1-4.09.42h0c-.36-.2.47-1.89,0-1.31l.43-4.41Z" transform="translate(-22.86 -14.25)"/><polygon class="cls-19" points="124.05 30.69 123.14 32.9 120.16 33.31 118.57 30.3 120.56 28.12 121.08 27.98 121.01 28.65 124.05 30.69"/><polygon class="cls-20" points="124.43 33.62 122.99 33.19 124.05 30.69 124.43 33.62"/><polygon class="cls-19" points="125.09 35.49 128.15 31.36 126 27.42 125.39 27.64 125.09 35.49"/><circle class="cls-21" cx="122.38" cy="31.34" r="0.82"/><line class="cls-22" x1="126.66" y1="36.77" x2="129.46" y2="36.24"/><line class="cls-23" x1="126.66" y1="36.77" x2="127.58" y2="36.59"/><line class="cls-24" x1="128.54" y1="36.41" x2="129.46" y2="36.24"/><path class="cls-25" d="M152.77,65.48l.7,2.63s-9.06,4.8-14.79,3.11c-3.32-1-3.35-3.31-3.25-4.17a5.65,5.65,0,0,1,.31-1.14s1.06,1.53,4.71,2C144.64,68.53,152.77,65.48,152.77,65.48Z" transform="translate(-22.86 -14.25)"/><path class="cls-25" d="M150.24,67.19l1-.28S146.57,52.5,141.17,47.7c-.64-.57-3.17-1.48-3.83-.94a5.32,5.32,0,0,0-.8.87,8.91,8.91,0,0,1,5.3,2.89C145.24,54.12,150.24,67.19,150.24,67.19Z" transform="translate(-22.86 -14.25)"/><path class="cls-10" d="M153.24,44.88l-.05,0-.27-.11.13-.65c-.19-1.63-.69-6-.72-6.23a.61.61,0,0,1,.2-.51l2.24-1.85.06-.32.27.11c.1,0,.12.18.12.18S156,42,156,42.31a.55.55,0,0,1,0,.26h0a.54.54,0,0,1-.17.25l-2.16,1.79-.24.2a.23.23,0,0,1-.16.07Z" transform="translate(-22.86 -14.25)"/><path class="cls-10" d="M155.63,41.27l-2.7,1.81c0,.39.09.74.12,1l-.13.65.27.11.05,0h0a.23.23,0,0,0,.16-.07l.24-.2,2.16-1.79a.54.54,0,0,0,.17-.25h0a.55.55,0,0,0,0-.26c0-.07,0-.42-.11-.93Z" transform="translate(-22.86 -14.25)"/><path class="cls-10" d="M155.22,35.48s0-.15-.12-.18l-.27-.11-.06.32,0,0,.25.14.27.11Z" transform="translate(-22.86 -14.25)"/><path class="cls-11" d="M153.36,44.5l2.17-1.79a.61.61,0,0,0,.2-.51c0-.31-.79-6.83-.79-6.83s0-.31-.27-.11l-2.41,2a.63.63,0,0,0-.21.51c0,.31.8,6.83.8,6.83s0,.31.27.11Z" transform="translate(-22.86 -14.25)"/><polygon class="cls-12" points="129.88 29.41 129.23 23.82 132.12 21.43 132.76 27.02 129.88 29.41"/><path class="cls-12" d="M154.27,42.72c.11,0,.13.24,0,.44s-.23.32-.34.28-.13-.24,0-.44S154.16,42.67,154.27,42.72Z" transform="translate(-22.86 -14.25)"/><path class="cls-12" d="M153.1,36.84s0,.06,0,.11-.06.07-.08.06,0-.06,0-.1S153.08,36.83,153.1,36.84Z" transform="translate(-22.86 -14.25)"/><path class="cls-12" d="M153.24,36.78a0,0,0,0,1,0,0l0,0a0,0,0,0,1,0,0A.05.05,0,0,1,153.24,36.78Z" transform="translate(-22.86 -14.25)"/><path class="cls-13" d="M153.81,36.31s0,0,0,0a.06.06,0,0,1,0,.07l-.48.39s0,0,0,0a0,0,0,0,1,0-.06Z" transform="translate(-22.86 -14.25)"/><path class="cls-17" d="M153.11,36.26a5.7,5.7,0,1,1-5.7-5.7A5.7,5.7,0,0,1,153.11,36.26Z" transform="translate(-22.86 -14.25)"/><path class="cls-16" d="M152,34.93a1.47,1.47,0,0,0,.74-.5v0c1.1-2.75-2.62-4.34-6.17-4-3.14.24-4.9,2.76-4.9,5.91,0,1.4,2.09.23,2,.75-.17.78,0,3,1.37,3-.82-.94.61-2.35,1-2.63C148.55,35.34,149.89,35.75,152,34.93Z" transform="translate(-22.86 -14.25)"/><path class="cls-17" d="M143.77,36.44a1.37,1.37,0,1,1-1.32-1.73A1.57,1.57,0,0,1,143.77,36.44Z" transform="translate(-22.86 -14.25)"/><path class="cls-26" d="M146.62,30.35a3.85,3.85,0,0,1,1,.13,3.12,3.12,0,0,0-1.54-.42,3.2,3.2,0,0,0-3.17,2.85A4,4,0,0,1,146.62,30.35Z" transform="translate(-22.86 -14.25)"/></svg>