<?xml version="1.0" encoding="utf-8"?>
<!-- Generator: Adobe Illustrator 23.0.3, SVG Export Plug-In . SVG Version: 6.00 Build 0)  -->
<svg version="1.1" id="Livello_1" xmlns="http://www.w3.org/2000/svg" xmlns:xlink="http://www.w3.org/1999/xlink" x="0px" y="0px"
	 viewBox="0 0 145.7 145.7" style="enable-background:new 0 0 145.7 145.7;" xml:space="preserve">
<style type="text/css">
	.st0{fill:#F5AD20;}
	.st1{fill:#F4C4A4;}
	.st2{opacity:0.2;fill:#5B5B5A;enable-background:new    ;}
	.st3{fill:#F8AC1A;}
	.st4{fill:#FFFFFF;}
	.st5{fill:#BDBCBC;}
	.st6{fill:#E0E0E0;}
	.st7{fill:#9A9B9C;}
	.st8{fill:none;stroke:#4E7A92;stroke-width:2;stroke-miterlimit:10;}
	.st9{fill:#626261;}
	.st10{fill:#FCD6B7;}
	.st11{fill:#5B5B5A;}
	.st12{fill:none;stroke:#F5AD1F;stroke-width:2;stroke-miterlimit:10;}
	.st13{opacity:0.4;fill:#3C3C3B;enable-background:new    ;}
	.st14{fill:none;}
	.st15{fill:#4E7A92;}
	.st16{fill:none;stroke:#EAEAEA;stroke-width:4;stroke-miterlimit:10;}
</style>
<title>G03_03</title>
<g id="Mobile">
	<circle class="st0" cx="72.9" cy="72.9" r="70.9"/>
	<path class="st1" d="M63.5,85.7L63.2,83c-0.1-0.7-0.8-1.2-1.5-1.1L61.1,78c-0.1-0.7-0.8-1.3-1.5-1.2c0,0,0,0,0,0h-0.2l-0.5-3.5
		c-0.2-1.2-1.3-2-2.5-1.9c0,0,0,0,0,0l-11.1,1.6c-0.2,0-0.4,0.1-0.6,0.2l-10,5.4L33.9,81l16.7,12.6c0.3-0.5,0.8-0.8,1.3-0.9l8.1-1.2
		c1.4-0.2,2.4-1.5,2.2-2.9l-0.1-0.9c0-0.2,0.1-0.5,0.4-0.5C63.2,87.1,63.6,86.4,63.5,85.7z"/>
	<path class="st2" d="M109.9,102.6c-0.1-0.1-0.3-0.3-0.4-0.4c-0.1-0.1-0.1-0.2-0.1-0.4l-1.5-7.3l-0.5-2.3c-0.1-0.6-0.5-1.2-1-1.6
		l-2.1-1.6V48.6c0-1.4-1.1-2.6-2.6-2.6c0,0,0,0,0,0H90.6v-0.7c0-0.6-0.4-1-1-1h-5.1v-0.4c0-2.8-2.3-5-5-5c-2.8,0-5,2.3-5,5v0.4h-5.2
		c-0.6,0-1,0.4-1,1v0.7h-11c-1.4,0-2.6,1.1-2.6,2.5c0,0,0,0,0,0v39l-0.7,0.1c-0.2,0-0.4,0.1-0.5,0.2l-9.1,4.9l-2.9,1.6
		c-0.4,0.2-0.7,0.6-0.8,1.1l-2.8,14.2c0,0.2,0,0.4,0,0.5l1.9,10.2l-0.4,2.5l-2.6-0.5l-0.8,4.5l-0.6-0.1l-0.9,4L39,134l7,3.8l5.9,1.4
		l1.2-9.2l-1.2-0.2l0.8-4.5l-1.9-0.3c1.3-1.7,1.8-2.3,2.4-3.3c1.5-2.4,2.7-4.9,3.5-7.6l0.6-2.3h36.4l0.9,3.5l-2.1,0.5l3.1,23.6
		l20.8-11.9L109.9,102.6z M81.2,43.1v0.7h-3.5v-0.7c0-0.9,0.8-1.7,1.7-1.7c0,0,0,0,0,0c0.5,0,0.9,0.2,1.2,0.5
		C81,42.2,81.2,42.6,81.2,43.1z"/>
	<path class="st3" d="M45.9,15.5h59c1.9,0,3.4,1.5,3.4,3.4v80.3c0,1.9-1.5,3.4-3.4,3.4h-59c-1.9,0-3.4-1.5-3.4-3.4V18.9
		C42.5,17,44.1,15.5,45.9,15.5z"/>
	<rect x="45.5" y="18.9" class="st4" width="60" height="80.3"/>
	<path class="st5" d="M82.1,12.7c0-3.7-3-6.7-6.7-6.7c-3.7,0-6.7,3-6.7,6.7v2.8h13.4V12.7z M73.1,11.5c0-1.3,1-2.3,2.3-2.3
		c1.3,0,2.3,1,2.3,2.3l0,0v0.9h-4.6L73.1,11.5z"/>
	<rect x="73.2" y="12.5" class="st5" width="4.6" height="0.2"/>
	<path class="st6" d="M82.1,12.7c0-3.7-3-6.7-6.7-6.7c-3.7,0-6.7,3-6.7,6.7v0.2c0-3.7,3-6.7,6.7-6.7c3.7,0,6.7,3,6.7,6.7V12.7
		L82.1,12.7z"/>
	<path class="st7" d="M82.1,12.9v2.6H68.8v-2.8h13.4V12.9z"/>
	<path class="st5" d="M64.3,13.3h22.2c2.1,0,3.7,1.7,3.7,3.7v1.5c0,2.1-1.7,3.7-3.7,3.7H64.3c-2.1,0-3.7-1.7-3.7-3.7V17
		C60.6,14.9,62.3,13.3,64.3,13.3z"/>
	<path class="st6" d="M89,13.2H61.9c-0.7,0-1.3,0.6-1.3,1.3v0v0.2c0-0.7,0.6-1.3,1.3-1.3c0,0,0,0,0,0H89c0.7,0,1.3,0.6,1.3,1.3v-0.2
		C90.3,13.8,89.7,13.3,89,13.2C89,13.3,89,13.2,89,13.2z"/>
	<path class="st7" d="M89,20.6H61.9c-0.7,0-1.3-0.6-1.3-1.3c0,0,0,0,0,0v1.6c0,0.7,0.6,1.3,1.3,1.3c0,0,0,0,0,0H89
		c0.7,0,1.3-0.6,1.3-1.3v-1.6C90.3,20,89.7,20.6,89,20.6z"/>
	<path class="st6" d="M87.4,15.5h-24c-0.2,0-0.3-0.2-0.3-0.3l0,0c0-0.2,0.1-0.3,0.3-0.3l0,0h24c0.2,0,0.3,0.1,0.3,0.3l0,0
		C87.8,15.4,87.6,15.5,87.4,15.5z"/>
	<path class="st6" d="M87.4,17.6h-24c-0.2,0-0.3-0.1-0.3-0.3v0l0,0c0-0.2,0.1-0.3,0.3-0.3h24c0.2,0,0.3,0.2,0.3,0.3l0,0
		C87.8,17.4,87.6,17.6,87.4,17.6z"/>
	<path class="st6" d="M87.4,19.6h-24c-0.2,0-0.3-0.1-0.3-0.3v0l0,0c0-0.2,0.1-0.3,0.3-0.3l0,0h24c0.2,0,0.3,0.1,0.3,0.3l0,0
		C87.8,19.4,87.6,19.6,87.4,19.6z"/>
	<path class="st7" d="M63.4,14.6h24.1c0.2,0,0.3,0.1,0.3,0.3V15c0,0.2-0.1,0.3-0.3,0.3H63.4c-0.2,0-0.3-0.1-0.3-0.3v-0.1
		C63.2,14.7,63.3,14.6,63.4,14.6z"/>
	<path class="st7" d="M87.4,17.3h-24c-0.2,0-0.3-0.1-0.3-0.3v0l0,0c0-0.2,0.1-0.3,0.3-0.3h24c0.2,0,0.3,0.2,0.3,0.3l0,0
		C87.8,17.1,87.6,17.3,87.4,17.3z"/>
	<path class="st7" d="M87.4,19.3h-24c-0.2,0-0.3-0.1-0.3-0.3v0l0,0c0-0.2,0.1-0.3,0.3-0.3h24c0.2,0,0.3,0.2,0.3,0.3l0,0
		C87.8,19.2,87.6,19.3,87.4,19.3z"/>
	<line class="st8" x1="88.1" y1="36.3" x2="75.6" y2="36.3"/>
	<line class="st8" x1="81.5" y1="44.3" x2="75.8" y2="44.3"/>
	<line class="st8" x1="96.1" y1="44.3" x2="83.6" y2="44.3"/>
	<line class="st8" x1="100" y1="44.3" x2="97.6" y2="44.3"/>
	<line class="st8" x1="83.5" y1="51.7" x2="75.8" y2="51.7"/>
	<line class="st8" x1="93.8" y1="51.7" x2="85.5" y2="51.7"/>
	<line class="st8" x1="78.5" y1="58.3" x2="75.8" y2="58.3"/>
	<line class="st8" x1="93.1" y1="58.3" x2="80.6" y2="58.3"/>
	<line class="st8" x1="100" y1="58.3" x2="94.6" y2="58.3"/>
	<line class="st8" x1="77.4" y1="65.6" x2="75.7" y2="65.6"/>
	<path class="st9" d="M66.5,27.1v2.3h-1.1v-5.7h1.7c0.5,0,1,0.1,1.3,0.4c0.3,0.3,0.5,0.8,0.5,1.2c0,0.5-0.3,1-0.8,1.3
		c0.3,0.1,0.5,0.2,0.6,0.5c0.1,0.3,0.2,0.6,0.2,0.9v0.4c0,0.2,0,0.3,0.1,0.5c0,0.1,0.1,0.3,0.2,0.4v0.1h-1.1
		c-0.1-0.1-0.2-0.3-0.2-0.4c0-0.2,0-0.4,0-0.6V28c0-0.2,0-0.5-0.2-0.7c-0.1-0.2-0.3-0.2-0.5-0.2H66.5z M66.5,26.2h0.6
		c0.2,0,0.4-0.1,0.5-0.2c0.1-0.2,0.2-0.4,0.2-0.6c0-0.2-0.1-0.5-0.2-0.6c-0.1-0.2-0.3-0.3-0.5-0.2h-0.6V26.2z"/>
	<path class="st9" d="M71.4,29.5c-0.5,0-1-0.2-1.3-0.6c-0.3-0.4-0.5-1-0.5-1.5v-0.2c0-0.6,0.1-1.1,0.4-1.6c0.3-0.4,0.8-0.6,1.3-0.6
		c0.4,0,0.9,0.2,1.1,0.5c0.3,0.4,0.4,0.9,0.4,1.4v0.6h-2.1c0,0.3,0.1,0.5,0.2,0.7c0.1,0.2,0.3,0.3,0.6,0.3c0.2,0,0.4,0,0.6-0.1
		c0.2-0.1,0.3-0.1,0.5-0.2l0.3,0.7c-0.2,0.2-0.4,0.3-0.6,0.3C71.9,29.4,71.7,29.5,71.4,29.5z M71.3,25.9c-0.2,0-0.3,0.1-0.4,0.2
		c-0.1,0.2-0.2,0.4-0.2,0.7h1v-0.1c0-0.2,0-0.4-0.1-0.6C71.6,26,71.4,25.9,71.3,25.9z"/>
	<path class="st9" d="M76.8,27.4c0,0.5-0.1,1.1-0.4,1.5c-0.2,0.3-0.6,0.6-1,0.6c-0.2,0-0.3,0-0.5-0.1c-0.1-0.1-0.3-0.2-0.4-0.3v2
		h-1.1v-5.9h1v0.4c0.1-0.2,0.2-0.3,0.4-0.4c0.2-0.1,0.3-0.1,0.5-0.1c0.4,0,0.8,0.2,1.1,0.6C76.7,26.2,76.8,26.7,76.8,27.4L76.8,27.4
		z M75.7,27.3c0-0.3,0-0.7-0.1-1c-0.1-0.2-0.2-0.4-0.5-0.4c-0.1,0-0.2,0-0.3,0.1c-0.1,0.1-0.2,0.2-0.2,0.3v2c0,0.1,0.1,0.2,0.2,0.2
		c0.1,0.1,0.2,0.1,0.3,0.1c0.2,0,0.4-0.1,0.5-0.3C75.6,28,75.7,27.7,75.7,27.3L75.7,27.3z"/>
	<path class="st9" d="M77.2,27.2c0-0.6,0.1-1.1,0.4-1.5c0.3-0.4,0.8-0.6,1.3-0.6c0.5,0,1,0.2,1.3,0.6c0.3,0.5,0.5,1,0.5,1.5v0.1
		c0,0.6-0.1,1.1-0.5,1.6c-0.6,0.7-1.6,0.8-2.4,0.2c-0.1-0.1-0.1-0.1-0.2-0.2c-0.3-0.5-0.5-1-0.5-1.6V27.2z M78.3,27.3
		c0,0.3,0,0.6,0.1,0.9c0.1,0.2,0.3,0.4,0.5,0.3c0.2,0,0.4-0.1,0.5-0.3c0.1-0.3,0.2-0.6,0.1-0.9v-0.1c0-0.3,0-0.6-0.1-0.9
		c-0.1-0.3-0.4-0.4-0.7-0.3c-0.2,0.1-0.3,0.2-0.3,0.3C78.3,26.6,78.3,26.9,78.3,27.3L78.3,27.3z"/>
	<path class="st9" d="M83.3,26.1h-0.3c-0.1,0-0.2,0-0.3,0.1c-0.1,0.1-0.1,0.2-0.2,0.3v2.9h-1.1v-4.2h1v0.6c0.1-0.2,0.2-0.4,0.3-0.5
		c0.1-0.1,0.3-0.2,0.4-0.2h0.1h0.1L83.3,26.1z"/>
	<path class="st9" d="M85.1,24.1v1h0.6v0.8h-0.6v2.2c0,0.1,0,0.3,0.1,0.4c0,0.1,0.1,0.1,0.2,0.1h0.1h0.1l0.1,0.8
		c-0.1,0-0.2,0.1-0.3,0.1c-0.1,0-0.2,0-0.3,0c-0.3,0-0.6-0.1-0.8-0.3c-0.2-0.3-0.3-0.6-0.3-1v-2.2h-0.5v-0.8H84v-1L85.1,24.1z"/>
	<path class="st9" d="M46.7,38.3v-2.8h0.9c0.3,0,0.5,0.1,0.7,0.3c0.2,0.2,0.3,0.5,0.3,0.8v0.5c0,0.3-0.1,0.6-0.3,0.9
		c-0.2,0.2-0.4,0.3-0.7,0.3L46.7,38.3z M47.3,35.9v2h0.3c0.1,0,0.3-0.1,0.3-0.2c0.1-0.2,0.1-0.4,0.1-0.5v-0.5c0-0.2,0-0.4-0.1-0.5
		c-0.1-0.1-0.2-0.2-0.3-0.2L47.3,35.9z"/>
	<path class="st9" d="M50,38.3c0,0,0-0.1,0-0.2c0-0.1,0-0.1,0-0.2c0,0.1-0.1,0.2-0.2,0.3c-0.1,0.1-0.2,0.1-0.3,0.1
		c-0.2,0-0.3-0.1-0.4-0.2c-0.1-0.1-0.2-0.3-0.2-0.5c0-0.2,0.1-0.4,0.2-0.5c0.2-0.1,0.4-0.2,0.6-0.2h0.1v-0.2c0-0.1,0-0.2-0.1-0.2
		c0-0.1-0.1-0.1-0.2-0.1c-0.1,0-0.1,0-0.2,0.1c0,0.1-0.1,0.1,0,0.2h-0.5l0,0c0-0.2,0.1-0.4,0.2-0.5c0.2-0.1,0.4-0.2,0.6-0.2
		c0.2,0,0.4,0.1,0.5,0.2c0.1,0.1,0.2,0.3,0.2,0.5v0.9c0,0.1,0,0.2,0,0.3c0,0.1,0,0.2,0.1,0.3L50,38.3z M49.6,38
		c0.1,0,0.3-0.1,0.3-0.2v-0.3h-0.2c-0.1,0-0.2,0-0.2,0.1c0,0.1-0.1,0.1-0.1,0.2c0,0.1,0,0.1,0,0.2C49.5,37.9,49.6,38,49.6,38z"/>
	<path class="st9" d="M51.5,35.7v0.5h0.3v0.4h-0.3v1.1c0,0.1,0,0.1,0,0.2c0,0,0.1,0.1,0.1,0h0.1h0.1v0.4h-0.1h-0.2
		c-0.2,0-0.3,0-0.4-0.2c-0.1-0.2-0.2-0.3-0.1-0.5v-1h-0.3v-0.4h0.3v-0.5L51.5,35.7z"/>
	<path class="st9" d="M52.9,38.4c-0.3,0-0.5-0.1-0.7-0.3c-0.2-0.2-0.2-0.5-0.2-0.7v-0.1c0-0.3,0.1-0.6,0.2-0.8
		c0.1-0.2,0.4-0.3,0.6-0.3c0.2,0,0.4,0.1,0.6,0.3c0.1,0.2,0.2,0.5,0.2,0.7v0.3h-1.1c0,0.1,0,0.3,0.1,0.4c0.1,0.1,0.2,0.1,0.3,0.1
		c0.1,0,0.2,0,0.3,0c0.1,0,0.2-0.1,0.2-0.1l0.1,0.3c-0.1,0.1-0.2,0.1-0.3,0.2C53.1,38.3,53,38.4,52.9,38.4z M52.9,36.6
		c-0.1,0-0.2,0-0.2,0.1c0,0.1-0.1,0.2-0.1,0.3h0.5l0,0c0-0.1,0-0.2,0-0.3C53.1,36.7,53,36.6,52.9,36.6
		C52.9,36.6,52.9,36.6,52.9,36.6L52.9,36.6z"/>
	<path class="st9" d="M48,44.6c0-0.1,0-0.2-0.1-0.3c-0.1-0.1-0.2-0.1-0.3-0.2c-0.2-0.1-0.5-0.2-0.7-0.3c-0.2-0.1-0.2-0.3-0.2-0.5
		c0-0.2,0.1-0.4,0.3-0.6c0.2-0.1,0.4-0.2,0.6-0.2c0.2,0,0.5,0.1,0.7,0.2c0.2,0.2,0.3,0.4,0.2,0.6h-0.6c0-0.1,0-0.2-0.1-0.3
		c-0.1-0.1-0.2-0.1-0.3-0.1c-0.1,0-0.2,0-0.3,0.1c-0.1,0.1-0.1,0.2-0.1,0.3c0,0.1,0,0.2,0.1,0.2c0.1,0.1,0.2,0.2,0.3,0.2
		c0.2,0.1,0.4,0.2,0.6,0.3c0.1,0.1,0.2,0.4,0.2,0.6c0,0.2-0.1,0.4-0.2,0.6c-0.2,0.1-0.4,0.2-0.7,0.2c-0.2,0-0.5-0.1-0.7-0.2
		c-0.2-0.2-0.3-0.4-0.3-0.7h0.5c0,0.1,0,0.3,0.1,0.4c0.1,0.1,0.2,0.1,0.3,0.1c0.1,0,0.2,0,0.3-0.1C47.9,44.8,48,44.7,48,44.6z"/>
	<path class="st9" d="M49.9,45c-0.1,0.1-0.1,0.2-0.2,0.3c-0.2,0.2-0.6,0.1-0.8-0.1c-0.1-0.2-0.2-0.5-0.2-0.7v-1.2h0.5v1.2
		c0,0.1,0,0.3,0.1,0.4c0,0.1,0.1,0.1,0.2,0.1c0.1,0,0.1,0,0.2,0c0,0,0.1-0.1,0.1-0.1v-1.6h0.6v2.1H50L49.9,45z"/>
	<path class="st9" d="M52.5,44.3c0,0.3,0,0.5-0.2,0.8c-0.1,0.2-0.3,0.3-0.5,0.3c-0.1,0-0.2,0-0.3-0.1c-0.1-0.1-0.1-0.1-0.2-0.2v0.2
		h-0.5v-3h0.5v1.1c0-0.1,0.1-0.1,0.2-0.2c0.1,0,0.2-0.1,0.2-0.1c0.2,0,0.4,0.1,0.5,0.3C52.5,43.7,52.5,44,52.5,44.3L52.5,44.3z
		 M51.9,44.3c0-0.2,0-0.3-0.1-0.5c0-0.1-0.1-0.2-0.2-0.2c-0.1,0-0.1,0-0.2,0c0,0-0.1,0.1-0.1,0.1v1c0,0,0.1,0.1,0.1,0.1
		c0.1,0,0.1,0,0.2,0c0.1,0,0.2-0.1,0.2-0.2C51.9,44.6,51.9,44.4,51.9,44.3L51.9,44.3z"/>
	<path class="st9" d="M53.4,43.2v2.2c0,0.2-0.1,0.4-0.2,0.6c-0.1,0.1-0.3,0.2-0.5,0.2h-0.1h-0.1v-0.4h0.1h0.1c0.1,0,0.1,0,0.1-0.1
		c0-0.1,0-0.2,0-0.3v-2.2H53.4z M53.4,42.7h-0.5v-0.4h0.5V42.7z"/>
	<path class="st9" d="M54.5,45.4c-0.3,0-0.5-0.1-0.7-0.3c-0.2-0.2-0.2-0.5-0.2-0.7v-0.1c0-0.3,0.1-0.6,0.2-0.8
		c0.1-0.2,0.4-0.3,0.6-0.3c0.2,0,0.4,0.1,0.6,0.3c0.1,0.2,0.2,0.5,0.2,0.7v0.3h-1.1c0,0.1,0,0.3,0.1,0.4c0.1,0.1,0.2,0.1,0.3,0.1
		c0.1,0,0.2,0,0.3,0c0.1,0,0.2-0.1,0.2-0.1l0.2,0.3c-0.1,0.1-0.2,0.1-0.3,0.2C54.8,45.4,54.7,45.4,54.5,45.4z M54.5,43.6
		c-0.1,0-0.2,0-0.2,0.1c-0.1,0.1-0.1,0.2-0.1,0.3h0.5l0,0c0-0.1,0-0.2-0.1-0.3C54.7,43.7,54.6,43.6,54.5,43.6
		C54.5,43.6,54.5,43.6,54.5,43.6L54.5,43.6z"/>
	<path class="st9" d="M56.3,44.9c0.1,0,0.1,0,0.2-0.1c0-0.1,0.1-0.2,0.1-0.2h0.5c0,0.4-0.3,0.7-0.7,0.7c0,0,0,0-0.1,0
		c-0.3,0-0.5-0.1-0.6-0.3c-0.2-0.2-0.2-0.5-0.2-0.8l0,0c0-0.3,0.1-0.5,0.2-0.8c0.1-0.2,0.4-0.3,0.6-0.3c0.2,0,0.4,0.1,0.5,0.2
		c0.1,0.2,0.2,0.4,0.2,0.6h-0.5c0-0.1,0-0.2-0.1-0.3c0-0.1-0.1-0.1-0.2-0.1c-0.1,0-0.2,0.1-0.2,0.2C56,43.9,56,44.1,56,44.3l0,0
		c0,0.2,0,0.3,0.1,0.5C56.1,44.8,56.2,44.9,56.3,44.9z"/>
	<path class="st9" d="M58,42.7v0.5h0.3v0.4H58v1.1c0,0.1,0,0.1,0,0.2c0,0,0.1,0.1,0.1,0h0.1h0.1v0.4h-0.2H58c-0.2,0-0.3,0-0.4-0.2
		c-0.1-0.2-0.2-0.3-0.1-0.5v-1h-0.3v-0.4h0.3v-0.5L58,42.7z"/>
	<path class="st9" d="M48.7,51.3c0,0.3-0.1,0.6-0.3,0.8c-0.2,0.2-0.5,0.3-0.8,0.3c-0.3,0-0.5-0.1-0.8-0.3c-0.2-0.2-0.3-0.5-0.3-0.8
		v-0.8c0-0.3,0.1-0.6,0.3-0.8c0.2-0.2,0.5-0.3,0.8-0.3c0.3,0,0.5,0.1,0.8,0.3c0.2,0.2,0.3,0.5,0.3,0.8V51.3z M48.2,50.5
		c0-0.2,0-0.3-0.1-0.5c-0.2-0.2-0.5-0.2-0.7,0c0,0,0,0,0,0c-0.1,0.1-0.1,0.3-0.1,0.5v0.8c0,0.2,0,0.3,0.1,0.5c0.2,0.2,0.5,0.2,0.7,0
		c0,0,0,0,0,0c0.1-0.1,0.1-0.3,0.1-0.5V50.5z"/>
	<path class="st9" d="M49.2,52.3v-1.7h-0.3v-0.4h0.3V50c0-0.2,0.1-0.4,0.2-0.5c0.1-0.1,0.3-0.2,0.5-0.2H50h0.2v0.4h-0.1H50
		c-0.1,0-0.1,0-0.2,0.1c0,0.1-0.1,0.1-0.1,0.2v0.2h0.3v0.4h-0.3v1.7L49.2,52.3z"/>
	<path class="st9" d="M50.4,52.3v-1.7h-0.3v-0.4h0.3v-0.2c0-0.2,0.1-0.4,0.2-0.6c0.2-0.2,0.4-0.2,0.6-0.2h0.3l0.3,0.1l-0.1,0.4
		l-0.2-0.1c-0.1,0-0.2,0-0.2,0c-0.1,0-0.2,0-0.2,0.1C51,49.9,51,50,51,50.1v0.2h0.3v0.4H51v1.7L50.4,52.3z M52.1,52.3h-0.6v-2.1h0.6
		V52.3z"/>
	<path class="st9" d="M53.3,51.9c0.1,0,0.1,0,0.2-0.1c0.1-0.1,0.1-0.2,0.1-0.2H54c0,0.4-0.3,0.7-0.7,0.7c0,0,0,0-0.1,0
		c-0.3,0-0.5-0.1-0.6-0.3c-0.2-0.2-0.2-0.5-0.2-0.8l0,0c0-0.3,0.1-0.5,0.2-0.8c0.1-0.2,0.4-0.3,0.6-0.3c0.2,0,0.4,0.1,0.5,0.2
		C54,50.6,54,50.8,54,51h-0.5c0-0.1,0-0.2-0.1-0.3c0-0.1-0.1-0.1-0.2-0.1c-0.1,0-0.2,0.1-0.2,0.2C53,50.9,53,51.1,53,51.3l0,0
		c0,0.2,0,0.3,0.1,0.5C53.1,51.8,53.2,51.9,53.3,51.9z"/>
	<path class="st9" d="M55.1,52.4c-0.3,0-0.5-0.1-0.7-0.3c-0.2-0.2-0.2-0.5-0.2-0.7v-0.1c0-0.3,0.1-0.6,0.2-0.8
		c0.1-0.2,0.4-0.3,0.6-0.3c0.2,0,0.4,0.1,0.6,0.3c0.1,0.2,0.2,0.5,0.2,0.7v0.3h-1.1c0,0.1,0,0.3,0.1,0.4c0.1,0.1,0.2,0.2,0.3,0.1
		c0.1,0,0.2,0,0.3,0c0.1,0,0.2-0.1,0.2-0.1l0.2,0.3c-0.1,0.1-0.2,0.1-0.3,0.2C55.4,52.4,55.2,52.4,55.1,52.4z M55.1,50.6
		c-0.1,0-0.2,0-0.2,0.1c-0.1,0.1-0.1,0.2-0.1,0.3h0.5l0,0c0-0.1,0-0.2-0.1-0.3C55.3,50.7,55.2,50.6,55.1,50.6
		C55.1,50.6,55.1,50.6,55.1,50.6L55.1,50.6z"/>
	<path class="st9" d="M57.1,50.7h-0.2c-0.1,0-0.1,0-0.2,0c0,0-0.1,0.1-0.1,0.1v1.5h-0.5v-2.1h0.5v0.3c0-0.1,0.1-0.2,0.2-0.3
		c0.1-0.1,0.1-0.1,0.2-0.1h0.1h0.1L57.1,50.7z"/>
	<path class="st9" d="M48,58.7h-0.7l-0.2,0.6h-0.6l0.8-2.8h0.6l0.8,2.8h-0.6L48,58.7z M47.4,58.3h0.5l-0.2-0.9l0,0L47.4,58.3z"/>
	<path class="st9" d="M49.7,58.9c0.1,0,0.1,0,0.2-0.1c0-0.1,0.1-0.1,0-0.2h0.5c0,0.2-0.1,0.4-0.2,0.5c-0.3,0.3-0.9,0.3-1.2-0.1
		c0,0,0,0,0,0c-0.2-0.2-0.2-0.5-0.2-0.8l0,0c0-0.3,0.1-0.5,0.2-0.8c0.1-0.2,0.4-0.3,0.6-0.3c0.2,0,0.4,0.1,0.5,0.2
		c0.1,0.2,0.2,0.4,0.2,0.6h-0.5c0-0.1,0-0.2-0.1-0.3c0-0.1-0.1-0.1-0.2-0.1c-0.1,0-0.2,0.1-0.2,0.2c-0.1,0.2-0.1,0.3-0.1,0.5l0,0
		c0,0.2,0,0.3,0.1,0.5C49.5,58.9,49.6,58.9,49.7,58.9z"/>
	<path class="st9" d="M51.5,58.9c0.1,0,0.1,0,0.2-0.1c0-0.1,0.1-0.2,0.1-0.2h0.5c0,0.2-0.1,0.4-0.2,0.5c-0.1,0.1-0.3,0.2-0.5,0.2
		c-0.3,0-0.5-0.1-0.6-0.3c-0.2-0.2-0.2-0.5-0.2-0.8l0,0c0-0.3,0.1-0.5,0.2-0.8c0.1-0.2,0.4-0.3,0.6-0.3c0.2,0,0.4,0.1,0.5,0.2
		c0.1,0.2,0.2,0.4,0.2,0.6h-0.5c0-0.1,0-0.2-0.1-0.3c0-0.1-0.1-0.1-0.2-0.1c-0.1,0-0.2,0.1-0.2,0.2c-0.1,0.2-0.1,0.3-0.1,0.5l0,0
		c0,0.2,0,0.3,0.1,0.5C51.3,58.8,51.4,58.9,51.5,58.9z"/>
	<path class="st9" d="M52.4,58.3c0-0.3,0.1-0.5,0.2-0.8c0.1-0.2,0.4-0.3,0.6-0.3c0.2,0,0.5,0.1,0.6,0.3c0.2,0.2,0.2,0.5,0.2,0.8l0,0
		c0,0.3-0.1,0.5-0.2,0.8c-0.3,0.4-0.8,0.4-1.2,0.1c0,0-0.1-0.1-0.1-0.1C52.5,58.8,52.4,58.5,52.4,58.3z M53,58.3
		c0,0.2,0,0.3,0.1,0.5c0,0.1,0.1,0.2,0.3,0.2c0.1,0,0.2-0.1,0.2-0.2c0.1-0.2,0.1-0.3,0.1-0.5l0,0c0-0.2,0-0.3-0.1-0.5
		c0-0.1-0.1-0.2-0.2-0.2c-0.1,0-0.2,0.1-0.3,0.2C53,57.9,53,58.1,53,58.3z"/>
	<path class="st9" d="M55.6,59c-0.1,0.1-0.1,0.2-0.2,0.3c-0.1,0.1-0.2,0.1-0.3,0.1c-0.2,0-0.3-0.1-0.5-0.2c-0.1-0.2-0.2-0.5-0.2-0.7
		v-1.2H55v1.2c0,0.1,0,0.3,0,0.4c0,0.1,0.1,0.1,0.2,0.1c0.1,0,0.1,0,0.2,0c0,0,0.1-0.1,0.1-0.1v-1.6H56v2.1h-0.5L55.6,59z"/>
	<path class="st9" d="M56.9,57.2v0.3c0.1-0.1,0.1-0.2,0.2-0.2c0.2-0.2,0.6-0.1,0.7,0.1C58,57.6,58,57.8,58,58v1.3h-0.5V58
		c0-0.1,0-0.2-0.1-0.3c0-0.1-0.1-0.1-0.2-0.1c-0.1,0-0.1,0-0.2,0c-0.1,0-0.1,0.1-0.1,0.1v1.6h-0.5v-2.1H56.9z"/>
	<path class="st9" d="M59,56.7v0.5h0.3v0.4H59v1.1c0,0.1,0,0.1,0,0.2c0,0,0.1,0,0.1,0h0.1h0.1v0.4h-0.2H59c-0.2,0-0.3,0-0.4-0.2
		c-0.1-0.2-0.2-0.3-0.1-0.5v-1h-0.3v-0.4h0.3v-0.5L59,56.7z"/>
	<path class="st9" d="M48,65.7h-0.7l-0.2,0.6h-0.6l0.8-2.8h0.6l0.8,2.8h-0.6L48,65.7z M47.4,65.3h0.5l-0.2-0.9l0,0L47.4,65.3z"/>
	<path class="st9" d="M49.8,65.8c0-0.1,0-0.1-0.1-0.2c-0.1-0.1-0.2-0.1-0.3-0.2c-0.2-0.1-0.3-0.1-0.5-0.3c-0.1-0.1-0.2-0.2-0.2-0.4
		c0-0.2,0.1-0.3,0.2-0.4c0.2-0.1,0.4-0.2,0.5-0.2c0.2,0,0.4,0.1,0.6,0.2c0.1,0.1,0.2,0.3,0.2,0.5h-0.5c0-0.1,0-0.1-0.1-0.2
		c0-0.1-0.1-0.1-0.2-0.1c-0.1,0-0.1,0-0.2,0.1c0,0-0.1,0.1-0.1,0.2c0,0.1,0,0.1,0.1,0.2c0.1,0.1,0.2,0.1,0.3,0.2
		c0.2,0.1,0.4,0.1,0.5,0.3c0.1,0.1,0.2,0.3,0.2,0.4c0,0.2-0.1,0.3-0.2,0.4c-0.2,0.1-0.4,0.2-0.6,0.2c-0.2,0-0.4-0.1-0.6-0.2
		c-0.1-0.1-0.2-0.3-0.2-0.5h0.5c0,0.1,0,0.2,0.1,0.3c0.1,0.1,0.1,0.1,0.2,0.1c0.1,0,0.1,0,0.2-0.1C49.8,65.9,49.8,65.8,49.8,65.8z"
		/>
	<path class="st9" d="M51.6,65.8c0-0.1,0-0.1-0.1-0.2c-0.1-0.1-0.2-0.1-0.3-0.2c-0.2-0.1-0.3-0.1-0.5-0.3c-0.1-0.1-0.2-0.2-0.2-0.4
		c0-0.2,0.1-0.3,0.2-0.4c0.2-0.1,0.3-0.2,0.5-0.2c0.2,0,0.4,0.1,0.6,0.2c0.1,0.1,0.2,0.3,0.2,0.5h-0.5c0-0.1,0-0.1-0.1-0.2
		c0-0.1-0.1-0.1-0.2-0.1c-0.1,0-0.1,0-0.2,0.1c0,0-0.1,0.1-0.1,0.2c0,0.1,0,0.1,0.1,0.2c0.1,0.1,0.2,0.1,0.3,0.2
		c0.2,0.1,0.4,0.1,0.5,0.3c0.1,0.1,0.2,0.3,0.2,0.4c0,0.2-0.1,0.3-0.2,0.4c-0.2,0.1-0.4,0.2-0.6,0.2c-0.2,0-0.4-0.1-0.6-0.2
		c-0.1-0.1-0.2-0.3-0.2-0.5h0.5c0,0.1,0,0.2,0.1,0.3c0.1,0.1,0.1,0.1,0.2,0.1c0.1,0,0.1,0,0.2-0.1C51.6,65.9,51.6,65.8,51.6,65.8z"
		/>
	<path class="st9" d="M53.2,66.4c-0.3,0-0.5-0.1-0.7-0.3c-0.2-0.2-0.2-0.5-0.2-0.7v-0.1c0-0.3,0.1-0.5,0.2-0.8
		c0.1-0.2,0.4-0.3,0.6-0.3c0.2,0,0.4,0.1,0.6,0.3c0.1,0.2,0.2,0.5,0.2,0.7v0.3h-1.1c0,0.1,0,0.3,0.1,0.4c0.1,0.1,0.2,0.2,0.3,0.1
		c0.1,0,0.2,0,0.3,0c0.1,0,0.2-0.1,0.2-0.1l0.1,0.3c-0.1,0.1-0.2,0.1-0.3,0.2C53.5,66.4,53.4,66.4,53.2,66.4z M53.2,64.6
		c-0.1,0-0.2,0-0.2,0.1c0,0.1-0.1,0.2-0.1,0.3h0.5l0,0c0-0.1,0-0.2,0-0.3C53.4,64.7,53.3,64.6,53.2,64.6
		C53.2,64.6,53.2,64.6,53.2,64.6L53.2,64.6z"/>
	<path class="st9" d="M55.2,65.8c0-0.1,0-0.1-0.1-0.2c-0.1-0.1-0.2-0.1-0.3-0.2c-0.2-0.1-0.3-0.2-0.5-0.3c-0.1-0.1-0.2-0.2-0.2-0.4
		c0-0.2,0.1-0.3,0.2-0.4c0.2-0.1,0.4-0.2,0.5-0.2c0.2,0,0.4,0.1,0.6,0.2c0.1,0.1,0.2,0.3,0.2,0.5h-0.5c0-0.1,0-0.1-0.1-0.2
		c0-0.1-0.1-0.1-0.2-0.1c-0.1,0-0.1,0-0.2,0.1c0,0-0.1,0.1-0.1,0.2c0,0.1,0,0.1,0.1,0.2c0.1,0.1,0.2,0.1,0.3,0.2
		c0.2,0.1,0.4,0.1,0.5,0.3c0.1,0.1,0.2,0.3,0.2,0.4c0,0.2-0.1,0.3-0.2,0.4c-0.2,0.1-0.4,0.2-0.6,0.2c-0.2,0-0.4-0.1-0.6-0.2
		c-0.1-0.1-0.2-0.3-0.2-0.5h0.5c0,0.1,0,0.2,0.1,0.3c0.1,0.1,0.1,0.1,0.2,0.1c0.1,0,0.1,0,0.2-0.1C55.2,65.9,55.2,65.8,55.2,65.8z"
		/>
	<path class="st9" d="M56.9,65.8c0-0.1,0-0.1-0.1-0.2c-0.1-0.1-0.2-0.1-0.3-0.2c-0.2-0.1-0.3-0.1-0.5-0.3c-0.1-0.1-0.2-0.2-0.2-0.4
		c0-0.2,0.1-0.3,0.2-0.4c0.2-0.1,0.3-0.2,0.5-0.2c0.2,0,0.4,0.1,0.6,0.2c0.1,0.1,0.2,0.3,0.2,0.5h-0.5c0-0.1,0-0.1-0.1-0.2
		c0-0.1-0.1-0.1-0.2-0.1c-0.1,0-0.1,0-0.2,0.1c0,0-0.1,0.1-0.1,0.2c0,0.1,0,0.1,0.1,0.2c0.1,0.1,0.2,0.1,0.3,0.2
		c0.2,0.1,0.4,0.1,0.5,0.3c0.1,0.1,0.2,0.3,0.2,0.4c0,0.2-0.1,0.3-0.2,0.4c-0.2,0.1-0.4,0.2-0.6,0.2c-0.2,0-0.4-0.1-0.6-0.2
		c-0.1-0.1-0.2-0.3-0.2-0.5h0.5c0,0.1,0,0.2,0.1,0.3c0.1,0,0.1,0.1,0.2,0.1c0.1,0,0.2,0,0.2-0.1C56.9,65.9,56.9,65.8,56.9,65.8z"/>
	<path class="st9" d="M58.3,64.2v0.3c0.1-0.1,0.1-0.2,0.2-0.2c0.1-0.1,0.2-0.1,0.3-0.1c0.1,0,0.2,0,0.3,0.1c0.1,0.1,0.2,0.2,0.2,0.3
		c0-0.1,0.1-0.2,0.2-0.3c0.1-0.1,0.2-0.1,0.3-0.1c0.2,0,0.3,0.1,0.4,0.2c0.1,0.2,0.2,0.4,0.2,0.7v1.3h-0.6v-1.2c0-0.1,0-0.2,0-0.4
		c0-0.1-0.1-0.1-0.2-0.1c0,0-0.1,0-0.2,0c0,0-0.1,0.1-0.1,0.1c0,0,0,0.1,0,0.1v1.4h-0.5v-1.2c0-0.1,0-0.3-0.1-0.4
		c0-0.1-0.1-0.1-0.2-0.1c0,0-0.1,0-0.2,0c0,0-0.1,0.1-0.1,0.1v1.6h-0.5v-2.1H58.3z"/>
	<path class="st9" d="M61.5,66.4c-0.3,0-0.5-0.1-0.7-0.3c-0.2-0.2-0.2-0.5-0.2-0.7v-0.1c0-0.3,0.1-0.6,0.2-0.8
		c0.1-0.2,0.4-0.3,0.6-0.3c0.2,0,0.4,0.1,0.6,0.3c0.1,0.2,0.2,0.5,0.2,0.7v0.3h-1.1c0,0.1,0,0.3,0.1,0.4c0.1,0.1,0.2,0.2,0.3,0.1
		c0.1,0,0.2,0,0.3,0c0.1,0,0.2-0.1,0.2-0.1l0.1,0.3c-0.1,0.1-0.2,0.1-0.3,0.2C61.8,66.4,61.7,66.4,61.5,66.4z M61.5,64.6
		c-0.1,0-0.2,0-0.2,0.1c0,0.1-0.1,0.2-0.1,0.3h0.5l0,0c0-0.1,0-0.2,0-0.3C61.8,64.7,61.7,64.6,61.5,64.6
		C61.5,64.6,61.5,64.6,61.5,64.6L61.5,64.6z"/>
	<path class="st9" d="M63.1,64.2v0.3c0.1-0.1,0.1-0.2,0.2-0.2c0.1-0.1,0.2-0.1,0.3-0.1c0.2,0,0.3,0.1,0.4,0.2
		c0.1,0.2,0.2,0.4,0.2,0.7v1.3h-0.5V65c0-0.1,0-0.2-0.1-0.3c0-0.1-0.1-0.1-0.2-0.1c-0.1,0-0.1,0-0.2,0c-0.1,0-0.1,0.1-0.1,0.1v1.6
		h-0.6v-2.1H63.1z"/>
	<path class="st9" d="M65.2,63.7v0.5h0.3v0.4h-0.3v1.1c0,0.1,0,0.1,0,0.2c0,0,0.1,0,0.1,0h0.1h0.1v0.4h-0.2h-0.2
		c-0.2,0-0.3,0-0.4-0.2c-0.1-0.2-0.2-0.3-0.1-0.5v-1h-0.3v-0.4h0.3v-0.5H65.2z"/>
	<path class="st9" d="M66.6,65.2c0-0.3,0.1-0.5,0.2-0.8c0.1-0.2,0.4-0.3,0.6-0.3c0.2,0,0.5,0.1,0.6,0.3c0.2,0.2,0.2,0.5,0.2,0.8l0,0
		c0,0.3-0.1,0.5-0.2,0.8c-0.2,0.2-0.4,0.3-0.6,0.3c-0.3,0-0.5-0.1-0.6-0.3C66.7,65.8,66.6,65.5,66.6,65.2z M67.2,65.2
		c0,0.2,0,0.3,0.1,0.5c0,0.1,0.1,0.2,0.3,0.2c0.1,0,0.2-0.1,0.2-0.2c0.1-0.2,0.1-0.3,0.1-0.5l0,0c0-0.2,0-0.3-0.1-0.5
		c0-0.1-0.1-0.2-0.2-0.2c-0.1,0-0.2,0.1-0.3,0.2C67.2,64.9,67.1,65.1,67.2,65.2z"/>
	<path class="st9" d="M68.8,66.3v-1.7h-0.3v-0.4h0.3V64c0-0.2,0.1-0.4,0.2-0.6c0.1-0.1,0.3-0.2,0.5-0.2h0.1h0.1v0.4h-0.1h-0.1
		c-0.1,0-0.1,0-0.2,0.1c0,0.1-0.1,0.1-0.1,0.2v0.2h0.3v0.4h-0.4v1.7L68.8,66.3z"/>
	<path class="st9" d="M70.5,64.6h-0.6v-0.5h0.6L70.5,64.6z M70.5,66.3h-0.6v-0.5h0.6L70.5,66.3z"/>
	<path class="st9" d="M46.6,73.7c0-0.2,0-0.4,0.1-0.6c0.1-0.1,0.2-0.3,0.3-0.3l0,0v0.1c-0.1,0.1-0.1,0.2-0.2,0.3
		c-0.1,0.2-0.1,0.4-0.1,0.5l0,0c0,0.2,0,0.4,0.1,0.5c0,0.1,0.1,0.2,0.2,0.3v0.1l0,0c-0.1-0.1-0.2-0.2-0.3-0.3
		C46.6,74.2,46.6,74,46.6,73.7z"/>
	<path class="st9" d="M47.5,74.1C47.6,74.2,47.6,74.2,47.5,74.1c0.1,0,0.1,0,0.2-0.1v-0.2h-0.1c0,0-0.1,0-0.1,0c0,0,0,0.1,0,0.1
		C47.4,74,47.4,74.1,47.5,74.1C47.5,74.1,47.5,74.1,47.5,74.1z"/>
	<path class="st9" d="M48.6,73.8c0,0.2,0,0.4-0.1,0.6c-0.1,0.1-0.2,0.3-0.3,0.3l0,0v-0.1c0.1-0.1,0.1-0.2,0.2-0.3
		c0.1-0.2,0.1-0.4,0.1-0.5l0,0c0-0.2,0-0.4-0.1-0.5c0-0.1-0.1-0.2-0.2-0.3v-0.1l0,0c0.1,0.1,0.2,0.2,0.3,0.3
		C48.5,73.3,48.6,73.6,48.6,73.8z"/>
	<path class="st9" d="M49.5,73v0.3h0.2v0.2h-0.2V74c0,0,0,0.1,0,0.1c0,0,0,0,0.1,0h0.1v0.2h-0.1h-0.1c-0.1,0-0.2,0-0.2-0.1
		c-0.1-0.1-0.1-0.2-0.1-0.3v-0.5h-0.1v-0.2h0.1V73H49.5z"/>
	<path class="st9" d="M50.1,73.4c0,0,0.1-0.1,0.1-0.1c0,0,0.1,0,0.1,0c0.1,0,0.2,0,0.2,0.1c0.1,0.1,0.1,0.2,0.1,0.3v0.6h-0.3v-0.7
		c0-0.1,0-0.1,0-0.2c0,0-0.1,0-0.1,0h-0.1h-0.1v0.8h-0.3v-1.5h0.3L50.1,73.4z"/>
	<path class="st9" d="M51.2,74.3c-0.1,0-0.2-0.1-0.3-0.1c-0.1-0.1-0.1-0.2-0.1-0.4l0,0c0-0.1,0-0.3,0.1-0.4c0.1-0.1,0.2-0.2,0.3-0.2
		c0.1,0,0.2,0,0.3,0.1c0.1,0.1,0.1,0.2,0.1,0.3v0.1h-0.5c0,0.1,0,0.1,0,0.2c0,0,0.1,0.1,0.1,0.1h0.1l0.1-0.1l0.1,0.2l-0.2,0.1
		C51.3,74.4,51.3,74.4,51.2,74.3z M51.2,73.5C51.2,73.5,51.1,73.5,51.2,73.5c-0.1,0.1-0.1,0.2-0.1,0.2h0.3l0,0c0,0,0-0.1,0-0.2
		C51.4,73.5,51.2,73.5,51.2,73.5L51.2,73.5z"/>
	<path class="st9" d="M52.7,73.5L52.7,73.5h-0.2c0,0,0,0,0,0.1v0.7h-0.3v-1h0.3v0.2c0,0,0-0.1,0.1-0.1c0,0,0.1,0,0.1,0h0.1
		L52.7,73.5z"/>
	<path class="st9" d="M53.2,74.3c-0.1,0-0.2,0-0.3-0.1c-0.1-0.1-0.1-0.2-0.1-0.4l0,0c0-0.1,0-0.3,0.1-0.4c0.1-0.1,0.2-0.2,0.3-0.2
		c0.1,0,0.2,0,0.3,0.1c0.1,0.1,0.1,0.2,0.1,0.3v0.1H53c0,0.1,0,0.1,0,0.2c0,0,0.1,0.1,0.1,0.1h0.1l0.1-0.1l0.1,0.2l-0.2,0.1
		C53.3,74.4,53.2,74.4,53.2,74.3z M53.2,73.5c0,0-0.1,0-0.1,0.1c0,0.1,0,0.1,0,0.2h0.3l0,0c0,0,0-0.1,0-0.2
		C53.3,73.5,53.3,73.4,53.2,73.5C53.2,73.5,53.2,73.5,53.2,73.5L53.2,73.5z"/>
	<path class="st9" d="M54,74.3h-0.3v-1.5H54V74.3z"/>
	<path class="st9" d="M54.5,73h-0.3v-0.2h0.3V73z M54.5,74.3h-0.3v-1.1h0.3V74.3z"/>
	<path class="st9" d="M55.2,74.3C55.2,74.3,55.2,74.3,55.2,74.3c0-0.1,0-0.1,0-0.2C55.2,74.2,55.1,74.3,55.2,74.3
		c-0.1,0-0.2,0-0.2,0c-0.1,0-0.2,0-0.2-0.1c-0.1-0.1-0.1-0.2-0.1-0.2c0-0.1,0-0.2,0.1-0.2c0.1-0.1,0.2-0.1,0.3-0.1h0.1v-0.1
		c0,0,0-0.1,0-0.1c0,0-0.1,0-0.1,0c0,0-0.1,0-0.1,0c0,0,0,0.1,0,0.1h-0.3c0-0.1,0-0.2,0.1-0.2c0.1-0.1,0.2-0.1,0.3-0.1
		c0.1,0,0.2,0,0.3,0.1c0.1,0.1,0.1,0.2,0.1,0.3V74c0,0,0,0.1,0,0.1v0.1L55.2,74.3z M55,74.1C55,74.2,55,74.2,55,74.1
		c0.1,0,0.1,0,0.2-0.1v-0.2H55c0,0-0.1,0-0.1,0c0,0,0,0.1,0,0.1C54.9,74,54.9,74.1,55,74.1C54.9,74.1,55,74.1,55,74.1z"/>
	<path class="st9" d="M56.4,73.8c0,0.1,0,0.3-0.1,0.4c-0.1,0.1-0.2,0.1-0.3,0.1c0,0-0.1,0-0.1,0c0,0-0.1-0.1-0.1-0.1v0.1h-0.2v-1.6
		h0.3v0.6c0,0,0.1-0.1,0.1-0.1c0,0,0.1,0,0.1,0c0.1,0,0.2,0.1,0.3,0.2C56.5,73.6,56.5,73.7,56.4,73.8L56.4,73.8z M56.2,73.8
		c0-0.1,0-0.2,0-0.3c0-0.1-0.1-0.1-0.1-0.1H56l-0.1,0.1V74c0,0,0,0.1,0.1,0.1H56c0.1,0,0.1,0,0.1-0.1C56.2,74,56.2,73.9,56.2,73.8
		L56.2,73.8z"/>
	<path class="st9" d="M56.9,73h-0.3v-0.2h0.3V73z M56.9,74.3h-0.3v-1.1h0.3V74.3z"/>
	<path class="st9" d="M57.3,74.3h-0.3v-1.5h0.3V74.3z"/>
	<path class="st9" d="M57.8,73h-0.3v-0.2h0.3V73z M57.8,74.3h-0.3v-1.1h0.3V74.3z"/>
	<path class="st9" d="M58.3,73v0.3h0.1v0.2h-0.1V74c0,0,0,0.1,0,0.1l0,0h0.1v0.2h-0.1h-0.1c-0.1,0-0.1,0-0.2-0.1
		C58,74.1,58,74.1,58,74v-0.5h-0.1v-0.2H58V73H58.3z"/>
	<path class="st9" d="M59,73.9L59,73.9l0.2-0.6h0.3l-0.4,1.2c0,0.1-0.1,0.1-0.1,0.2c-0.1,0.1-0.1,0.1-0.2,0.1h-0.1h-0.1v-0.2h0
		c0,0,0.1,0,0.1,0c0,0,0-0.1,0-0.1v-0.1l-0.3-1.1h0.5L59,73.9z"/>
	<path class="st9" d="M60,73.8c0-0.1,0-0.3,0.1-0.4c0.2-0.2,0.4-0.2,0.6,0c0,0,0,0,0,0c0.1,0.1,0.1,0.3,0.1,0.4l0,0
		c0,0.1,0,0.3-0.1,0.4c-0.2,0.2-0.4,0.2-0.6,0c0,0,0,0,0,0C60,74.1,60,73.9,60,73.8z M60.2,73.8c0,0.1,0,0.2,0,0.2
		c0,0.1,0.1,0.1,0.1,0.1c0.1,0,0.1-0.1,0.1-0.1c0-0.1,0-0.2,0-0.2l0,0c0-0.1,0-0.2,0-0.2c0-0.1-0.1-0.1-0.1-0.1
		c-0.1,0-0.1,0.1-0.1,0.1C60.2,73.6,60.2,73.7,60.2,73.8z"/>
	<path class="st9" d="M61,74.3v-0.9h-0.1v-0.2H61v-0.1c0-0.1,0-0.2,0.1-0.3c0.1-0.1,0.2-0.1,0.3-0.1h0.1h0.1V73h-0.1
		c0,0-0.1,0-0.1,0c0,0,0,0.1,0,0.1v0.1h0.2v0.2h-0.2v0.9L61,74.3z"/>
	<path class="st9" d="M62.4,73v0.3h0.2v0.2h-0.2V74c0,0,0,0.1,0,0.1c0,0,0,0,0.1,0h0.1v0.2h-0.1h-0.1c-0.1,0-0.1,0-0.2-0.1
		C62.1,74.1,62,74.1,62,74v-0.5h-0.1v-0.2H62V73H62.4z"/>
	<path class="st9" d="M62.9,73.4c0,0,0.1-0.1,0.1-0.1c0,0,0.1,0,0.1,0c0.1,0,0.2,0,0.2,0.1c0.1,0.1,0.1,0.2,0.1,0.3v0.6h-0.3v-0.7
		c0-0.1,0-0.1,0-0.2c0,0-0.1,0-0.1,0H63c0,0,0,0-0.1,0v0.8h-0.3v-1.5h0.2V73.4z"/>
	<path class="st9" d="M64.1,74.3c-0.1,0-0.2,0-0.3-0.1c-0.1-0.1-0.1-0.2-0.1-0.4l0,0c0-0.1,0-0.3,0.1-0.4c0.1-0.2,0.4-0.2,0.5-0.1
		c0,0,0,0,0.1,0.1c0.1,0.1,0.1,0.2,0.1,0.3v0.1h-0.5c0,0.1,0,0.1,0.1,0.2c0,0,0.1,0.1,0.1,0.1h0.1l0.1-0.1l0.1,0.2l-0.2,0.1
		C64.2,74.4,64.1,74.4,64.1,74.3z M64.1,73.5c0,0-0.1,0-0.1,0.1c0,0.1,0,0.1,0,0.2h0.3l0,0c0,0,0-0.1,0-0.2
		C64.2,73.5,64.2,73.4,64.1,73.5C64.1,73.4,64,73.5,64.1,73.5L64.1,73.5z"/>
	<path class="st9" d="M65.5,74C65.5,74,65.5,74,65.5,74l-0.2-0.1c-0.1,0-0.2-0.1-0.3-0.1C65,73.7,65,73.7,65,73.6
		c0-0.1,0-0.2,0.1-0.2c0.1-0.1,0.2-0.1,0.3-0.1c0.1,0,0.2,0,0.3,0.1c0.1,0.1,0.1,0.1,0.1,0.2h-0.3c0,0,0-0.1,0-0.1c0,0-0.1,0-0.1,0
		c0,0-0.1,0-0.1,0c0,0,0,0,0,0.1c0,0,0,0.1,0,0.1l0.1,0.1c0.1,0,0.2,0.1,0.3,0.1c0.1,0.1,0.1,0.1,0.1,0.2c0,0.1,0,0.2-0.1,0.2
		c-0.1,0.1-0.2,0.1-0.3,0.1c-0.1,0-0.2,0-0.3-0.1C65,74.2,65,74.1,65,74h0.3c0,0,0,0.1,0,0.1c0,0,0.1,0,0.1,0
		C65.4,74.2,65.4,74.2,65.5,74C65.5,74.1,65.5,74.1,65.5,74z"/>
	<path class="st9" d="M65.9,73.8c0-0.1,0-0.3,0.1-0.4c0.1-0.1,0.2-0.2,0.3-0.2c0.1,0,0.2,0.1,0.3,0.2c0.1,0.1,0.1,0.3,0.1,0.4l0,0
		c0,0.1,0,0.3-0.1,0.4c-0.2,0.2-0.4,0.2-0.6,0c0,0,0,0,0,0C65.9,74.1,65.8,73.9,65.9,73.8z M66.1,73.8c0,0.1,0,0.2,0,0.2
		c0,0.1,0.1,0.1,0.1,0.1c0.1,0,0.1-0.1,0.1-0.1c0-0.1,0-0.2,0-0.2l0,0c0-0.1,0-0.2,0-0.2c0-0.1-0.1-0.1-0.1-0.1
		c-0.1,0-0.1,0.1-0.1,0.1C66.1,73.6,66.1,73.7,66.1,73.8z"/>
	<path class="st9" d="M67.4,74.2c0,0.1-0.1,0.1-0.1,0.1c0,0-0.1,0-0.1,0c-0.1,0-0.2,0-0.2-0.1c0-0.1,0-0.2,0-0.3v-0.6h0.3v0.6
		c0,0.1,0,0.1,0,0.2c0,0,0.1,0,0.1,0L67.4,74.2c-0.1-0.1-0.1-0.1,0-0.1v-0.8h0.3v1.1h-0.2L67.4,74.2z"/>
	<path class="st9" d="M68.3,73.5L68.3,73.5h-0.2c0,0,0,0-0.1,0.1v0.7h-0.3v-1h0.3v0.2c0,0,0-0.1,0.1-0.1c0,0,0.1,0,0.1,0h0.1
		L68.3,73.5z"/>
	<path class="st9" d="M68.8,74.1C68.9,74.2,68.9,74.2,68.8,74.1c0.1,0,0.1-0.1,0.1-0.1h0.3c0,0.1,0,0.2-0.1,0.3
		c-0.1,0.1-0.2,0.1-0.3,0.1c-0.1,0-0.2-0.1-0.3-0.2c-0.1-0.1-0.1-0.2-0.1-0.4l0,0c0-0.1,0-0.3,0.1-0.4c0.1-0.1,0.2-0.2,0.3-0.2
		c0.1,0,0.2,0,0.3,0.1c0.1,0.1,0.1,0.2,0.1,0.3h-0.3c0,0,0-0.1,0-0.1c0,0-0.1,0-0.1,0c-0.1,0-0.1,0-0.1,0.1c0,0.1,0,0.2,0,0.2l0,0
		c0,0.1,0,0.2,0,0.2C68.8,74.2,68.8,74.2,68.8,74.1z"/>
	<path class="st9" d="M69.8,74.3c-0.1,0-0.2,0-0.3-0.1c-0.1-0.1-0.1-0.2-0.1-0.4l0,0c0-0.1,0-0.3,0.1-0.4c0.1-0.1,0.2-0.2,0.3-0.2
		c0.1,0,0.2,0,0.3,0.1c0.1,0.1,0.1,0.2,0.1,0.3v0.1h-0.5c0,0.1,0,0.1,0,0.2c0,0,0.1,0.1,0.1,0.1h0.1l0.1-0.1l0.1,0.2
		c0,0-0.1,0.1-0.2,0.1C69.9,74.4,69.8,74.4,69.8,74.3z M69.8,73.5C69.7,73.5,69.7,73.5,69.8,73.5c-0.1,0.1-0.1,0.2-0.1,0.2h0.3l0,0
		c0,0,0-0.1,0-0.2C69.9,73.5,69.8,73.4,69.8,73.5C69.8,73.5,69.8,73.5,69.8,73.5L69.8,73.5z"/>
	<path class="st9" d="M71.2,74.3L71.2,74.3c0-0.1,0-0.1,0-0.2C71.2,74.2,71.2,74.3,71.2,74.3c-0.1,0-0.2,0-0.2,0
		c-0.1,0-0.2,0-0.2-0.1c-0.1-0.1-0.1-0.2-0.1-0.2c0-0.1,0-0.2,0.1-0.2c0.1-0.1,0.2-0.1,0.3-0.1h0.1v-0.1c0,0,0-0.1,0-0.1
		c0,0-0.1,0-0.1,0c0,0,0,0-0.1,0c0,0,0,0.1,0,0.1h-0.3c0-0.1,0-0.2,0.1-0.2c0.1-0.1,0.2-0.1,0.3-0.1c0.1,0,0.2,0,0.3,0.1
		c0.1,0.1,0.1,0.2,0.1,0.3V74c0,0,0,0.1,0,0.1c0,0,0,0.1,0,0.1L71.2,74.3z M71,74.1c0,0,0.1,0,0.1,0c0,0,0,0,0.1-0.1v-0.2h-0.1
		c0,0-0.1,0-0.1,0C70.9,74,70.9,74,71,74.1C71,74.1,71,74.1,71,74.1z"/>
	<path class="st9" d="M71.9,73.3v0.2c0,0,0.1-0.1,0.1-0.1c0,0,0.1,0,0.1,0c0.1,0,0.2,0,0.2,0.1c0.1,0.1,0.1,0.2,0.1,0.3v0.6h-0.3
		v-0.6c0-0.1,0-0.1,0-0.2c0,0-0.1,0-0.1,0H72l-0.1,0.1v0.8h-0.3v-1.1H71.9z"/>
	<path class="st9" d="M72.6,73.8c0-0.1,0-0.3,0.1-0.4c0.1-0.1,0.2-0.2,0.3-0.2c0,0,0.1,0,0.1,0c0,0,0.1,0.1,0.1,0.1v-0.5h0.3v1.5
		h-0.2v-0.1c0,0-0.1,0.1-0.1,0.1c0,0-0.1,0-0.1,0c-0.1,0-0.2-0.1-0.3-0.1C72.6,74.1,72.6,73.9,72.6,73.8L72.6,73.8z M72.9,73.8
		c0,0.1,0,0.1,0,0.2c0,0.1,0.1,0.1,0.1,0.1c0,0,0,0,0.1,0c0,0,0.1,0,0.1-0.1v-0.5c0,0,0-0.1-0.1-0.1c0,0,0,0-0.1,0
		c-0.1,0-0.1,0-0.1,0.1C72.8,73.7,72.8,73.8,72.9,73.8L72.9,73.8z"/>
	<path class="st9" d="M46.6,81.7c0-0.2,0-0.4,0.1-0.6c0.1-0.1,0.2-0.3,0.3-0.3l0,0v0.1c-0.1,0.1-0.1,0.2-0.2,0.3
		c-0.1,0.2-0.1,0.4-0.1,0.5l0,0c0,0.2,0,0.4,0.1,0.5c0,0.1,0.1,0.2,0.2,0.3v0.1l0,0c-0.1-0.1-0.2-0.2-0.3-0.3
		C46.6,82.2,46.6,82,46.6,81.7z"/>
	<path class="st9" d="M48,81.8c0,0.1,0,0.3-0.1,0.4c-0.1,0.1-0.2,0.1-0.3,0.1c0,0-0.1,0-0.1,0c0,0-0.1-0.1-0.1-0.1v0.1h-0.2v-1.6
		h0.3v0.6c0,0,0.1-0.1,0.1-0.1c0,0,0.1,0,0.1,0c0.1,0,0.2,0.1,0.3,0.2C48,81.6,48.1,81.7,48,81.8L48,81.8z M47.8,81.8
		c0-0.1,0-0.2,0-0.3c0-0.1-0.1-0.1-0.1-0.1h-0.1c0,0,0,0,0,0.1V82c0,0,0,0,0,0.1h0.1c0,0,0.1,0,0.1-0.1C47.8,82,47.8,81.9,47.8,81.8
		L47.8,81.8z"/>
	<path class="st9" d="M48.6,81.8c0,0.2,0,0.4-0.1,0.6c-0.1,0.1-0.2,0.3-0.3,0.3l0,0l0-0.1c0.1-0.1,0.1-0.2,0.2-0.3
		c0.1-0.2,0.1-0.4,0.1-0.5l0,0c0-0.2,0-0.4-0.1-0.5c0-0.1-0.1-0.2-0.2-0.3l0-0.1l0,0c0.1,0.1,0.2,0.2,0.3,0.3
		C48.6,81.3,48.6,81.6,48.6,81.8z"/>
	<path class="st9" d="M49.6,81v0.3h0.2v0.2h-0.2V82c0,0,0,0.1,0,0.1c0,0,0,0,0.1,0h0.1v0.2h-0.1h-0.1c-0.1,0-0.2,0-0.2-0.1
		c-0.1-0.1-0.1-0.2-0.1-0.3v-0.5h-0.1v-0.2h0.1V81H49.6z"/>
	<path class="st9" d="M50.1,81.4c0,0,0.1-0.1,0.1-0.1c0,0,0.1,0,0.1,0c0.1,0,0.2,0,0.2,0.1c0.1,0.1,0.1,0.2,0.1,0.3v0.6h-0.3v-0.7
		c0-0.1,0-0.1,0-0.2c0,0-0.1,0-0.1,0h-0.1h-0.1v0.8h-0.3v-1.5h0.3L50.1,81.4z"/>
	<path class="st9" d="M51.3,82.3c-0.1,0-0.3,0-0.3-0.1c-0.1-0.1-0.1-0.2-0.1-0.4l0,0c0-0.1,0-0.3,0.1-0.4c0.1-0.1,0.2-0.2,0.3-0.2
		c0.1,0,0.2,0,0.3,0.1c0.1,0.1,0.1,0.2,0.1,0.3v0.1h-0.5c0,0.1,0,0.1,0,0.2c0,0,0.1,0.1,0.1,0.1h0.1l0.1-0.1l0.1,0.2l-0.2,0.1
		C51.4,82.4,51.3,82.4,51.3,82.3z M51.3,81.5C51.2,81.5,51.2,81.5,51.3,81.5c-0.1,0.1-0.1,0.2-0.1,0.2h0.3l0,0c0,0,0-0.1,0-0.2
		C51.4,81.5,51.3,81.5,51.3,81.5L51.3,81.5z"/>
	<path class="st9" d="M52.5,82.1C52.6,82.2,52.6,82.2,52.5,82.1c0.1,0,0.1,0,0.2-0.1v-0.2h-0.1c0,0-0.1,0-0.1,0c0,0,0,0.1,0,0.1
		C52.5,82,52.5,82.1,52.5,82.1C52.5,82.1,52.5,82.1,52.5,82.1z"/>
	<path class="st9" d="M53.5,82.1C53.6,82.2,53.6,82.2,53.5,82.1c0.1,0,0.1-0.1,0.1-0.1h0.3c0,0.1,0,0.2-0.1,0.3
		c-0.1,0.1-0.2,0.1-0.3,0.1c-0.1,0-0.2,0-0.3-0.2c-0.1-0.1-0.1-0.2-0.1-0.4l0,0c0-0.1,0-0.3,0.1-0.4c0.1-0.2,0.4-0.2,0.6,0
		c0,0,0,0,0,0c0.1,0.1,0.1,0.2,0.1,0.3h-0.3c0,0,0-0.1,0-0.1c0,0-0.1,0-0.1,0c-0.1,0-0.1,0-0.1,0.1c0,0.1,0,0.2,0,0.2l0,0
		C53.4,82,53.4,82.1,53.5,82.1C53.5,82.2,53.5,82.2,53.5,82.1z"/>
	<path class="st9" d="M54.4,82.1C54.5,82.2,54.5,82.2,54.4,82.1c0.1,0,0.1-0.1,0.1-0.1h0.3c0,0.2-0.1,0.4-0.3,0.4c0,0,0,0,0,0
		c-0.1,0-0.2,0-0.3-0.2C54,82.1,54,82,54,81.9l0,0c0-0.1,0-0.3,0.1-0.4c0.1-0.2,0.4-0.2,0.6,0c0,0,0,0,0,0c0.1,0.1,0.1,0.2,0.1,0.3
		h-0.3c0,0,0-0.1,0-0.1c0,0-0.1,0-0.1,0c-0.1,0-0.1,0-0.1,0.1c0,0.1,0,0.2,0,0.2l0,0c0,0.1,0,0.2,0,0.2
		C54.4,82.2,54.4,82.2,54.4,82.1z"/>
	<path class="st9" d="M55.5,82.2c0,0-0.1,0.1-0.1,0.1c0,0-0.1,0-0.1,0c-0.1,0-0.2,0-0.2-0.1c-0.1-0.1-0.1-0.2-0.1-0.3v-0.6h0.3v0.6
		c0,0.1,0,0.1,0,0.2c0,0,0.1,0,0.1,0h0.1c0,0,0,0,0.1-0.1v-0.8h0.3v1.1h-0.2L55.5,82.2z"/>
	<path class="st9" d="M56.4,81.5L56.4,81.5h-0.2c0,0,0,0,0,0.1v0.7h-0.3v-1h0.3v0.2c0,0,0-0.1,0.1-0.1c0,0,0.1,0,0.1,0h0.1
		L56.4,81.5z"/>
	<path class="st9" d="M56.9,82.1C56.9,82.2,56.9,82.2,56.9,82.1c0.1,0,0.1,0,0.2-0.1v-0.2h-0.1c0,0-0.1,0-0.1,0c0,0,0,0.1,0,0.1
		C56.8,82,56.8,82.1,56.9,82.1C56.8,82.1,56.9,82.2,56.9,82.1L56.9,82.1z"/>
	<path class="st9" d="M57.9,82.1C57.9,82.2,58,82.2,57.9,82.1c0.1,0,0.1-0.1,0.1-0.1h0.3c0,0.1,0,0.2-0.1,0.3
		c-0.1,0.1-0.2,0.1-0.3,0.1c-0.1,0-0.2,0-0.3-0.2c-0.1-0.1-0.1-0.2-0.1-0.4l0,0c0-0.1,0-0.3,0.1-0.4c0.1-0.2,0.4-0.2,0.6,0
		c0,0,0,0,0,0c0.1,0.1,0.1,0.2,0.1,0.3H58c0,0,0-0.1,0-0.1c0,0-0.1,0-0.1,0c-0.1,0-0.1,0-0.1,0.1c0,0.1,0,0.2,0,0.2l0,0
		c0,0.1,0,0.2,0,0.2C57.8,82.2,57.9,82.2,57.9,82.1z"/>
	<path class="st9" d="M58.7,81.9L58.7,81.9l0.2-0.6h0.3l-0.4,1.2c0,0.1-0.1,0.1-0.1,0.2c-0.1,0.1-0.1,0.1-0.2,0.1h-0.1h-0.1v-0.2
		l0,0c0,0,0.1,0,0.1,0c0,0,0-0.1,0-0.1v-0.1l-0.3-1.1h0.3L58.7,81.9z"/>
	<path class="st9" d="M59.7,81.8c0-0.1,0-0.3,0.1-0.4c0.1-0.1,0.2-0.2,0.3-0.2c0.1,0,0.2,0.1,0.3,0.2c0.1,0.1,0.1,0.3,0.1,0.4l0,0
		c0,0.1,0,0.3-0.1,0.4c-0.2,0.2-0.4,0.2-0.6,0c0,0,0,0,0,0C59.7,82.1,59.7,81.9,59.7,81.8z M60,81.8c0,0.1,0,0.2,0,0.2
		c0,0.1,0.1,0.1,0.1,0.1c0.1,0,0.1-0.1,0.1-0.1c0-0.1,0-0.2,0-0.2l0,0c0-0.1,0-0.2,0-0.2c0-0.1-0.1-0.1-0.2-0.1c0,0-0.1,0-0.1,0.1
		C60,81.6,60,81.7,60,81.8z"/>
	<path class="st9" d="M60.8,82.3v-0.9h-0.1v-0.2h0.1v-0.1c0-0.1,0.1-0.2,0.1-0.2c0.1-0.1,0.2-0.1,0.3-0.1h0.1h0.1V81h-0.1
		c0,0-0.1,0-0.1,0c0,0,0,0.1,0,0.1v0.1h0.2v0.2h-0.2v0.9L60.8,82.3z"/>
	<path class="st9" d="M62.1,81v0.3h0.1v0.2h-0.1V82c0,0,0,0.1,0,0.1c0,0,0,0,0.1,0h0.1v0.2h-0.1h-0.1c-0.1,0-0.1,0-0.2-0.1
		c-0.1-0.1-0.1-0.2-0.1-0.3v-0.5h-0.1v-0.2h0.1V81H62.1z"/>
	<path class="st9" d="M62.7,81.4c0,0,0.1-0.1,0.1-0.1c0,0,0.1,0,0.1,0c0.1,0,0.2,0,0.2,0.1c0.1,0.1,0.1,0.2,0.1,0.3v0.6h-0.3v-0.7
		c0-0.1,0-0.1,0-0.2c0,0-0.1,0-0.1,0h-0.1c0,0,0,0-0.1,0v0.8h-0.3v-1.5h0.3L62.7,81.4z"/>
	<path class="st9" d="M63.8,82.3c-0.1,0-0.2,0-0.3-0.1c-0.1-0.1-0.1-0.2-0.1-0.4l0,0c0-0.1,0-0.3,0.1-0.4c0.1-0.2,0.4-0.2,0.5-0.1
		c0,0,0,0,0.1,0.1c0.1,0.1,0.1,0.2,0.1,0.3v0.1h-0.5c0,0.1,0,0.1,0.1,0.2c0,0,0.1,0.1,0.1,0.1H64l0.1-0.1l0.1,0.2L64,82.4
		C63.9,82.4,63.9,82.4,63.8,82.3z M63.8,81.5C63.7,81.5,63.7,81.5,63.8,81.5c-0.1,0.1-0.1,0.2-0.1,0.2h0.2l0,0c0,0,0-0.1,0-0.2
		C63.9,81.5,63.8,81.5,63.8,81.5C63.8,81.5,63.8,81.5,63.8,81.5L63.8,81.5z"/>
	<path class="st9" d="M65,81h-0.3v-0.2H65V81z M65,82.3h-0.3v-1.1H65V82.3z"/>
	<path class="st9" d="M65.5,81.3v0.2c0,0,0.1-0.1,0.1-0.1c0,0,0.1,0,0.1,0c0.1,0,0.2,0,0.2,0.1c0.1,0.1,0.1,0.2,0.1,0.3v0.6h-0.3
		v-0.6c0-0.1,0-0.1,0-0.2c0,0-0.1,0-0.1,0h-0.1c0,0,0,0-0.1,0.1v0.8h-0.3v-1.1H65.5z"/>
	<path class="st9" d="M66.3,82.3v-0.9h-0.1v-0.2h0.1v-0.1c0-0.1,0-0.2,0.1-0.3c0.1-0.1,0.2-0.1,0.3-0.1h0.1h0.1V81h-0.1
		c0,0-0.1,0-0.1,0c0,0,0,0.1,0,0.1v0.1h0.2v0.2h-0.2v0.9L66.3,82.3z"/>
	<path class="st9" d="M66.8,81.8c0-0.1,0-0.3,0.1-0.4c0.1-0.1,0.2-0.2,0.3-0.2c0.1,0,0.2,0,0.3,0.2c0.1,0.1,0.1,0.3,0.1,0.4l0,0
		c0,0.1,0,0.3-0.1,0.4c-0.1,0.1-0.2,0.2-0.3,0.2c-0.1,0-0.2-0.1-0.3-0.2C66.8,82.1,66.8,81.9,66.8,81.8z M67.1,81.8
		c0,0.1,0,0.2,0,0.2c0,0.1,0.1,0.1,0.1,0.1c0.1,0,0.1,0,0.1-0.1c0-0.1,0-0.2,0-0.2l0,0c0-0.1,0-0.2,0-0.2c0-0.1-0.1-0.1-0.1-0.1
		c-0.1,0-0.1,0-0.1,0.1C67.1,81.6,67.1,81.7,67.1,81.8z"/>
	<path class="st9" d="M68.3,81.5L68.3,81.5h-0.2c0,0,0,0,0,0.1v0.7h-0.3v-1h0.3v0.2c0,0,0-0.1,0.1-0.1c0,0,0.1,0,0.1,0h0.1
		L68.3,81.5z"/>
	<path class="st9" d="M68.7,81.3v0.1c0,0,0.1-0.1,0.1-0.1c0,0,0.1,0,0.1,0c0,0,0.1,0,0.2,0c0,0,0.1,0.1,0.1,0.1
		c0-0.1,0.1-0.1,0.1-0.1c0,0,0.1,0,0.1,0c0.1,0,0.2,0,0.2,0.1c0.1,0.1,0.1,0.2,0.1,0.3v0.6h-0.3v-0.7c0-0.1,0-0.1,0-0.2
		c0,0-0.1,0-0.1,0c0,0-0.1,0-0.1,0c0,0,0,0-0.1,0.1v0.8H69v-0.6c0-0.1,0-0.1,0-0.2c0,0-0.1,0-0.1,0h-0.1c0,0,0,0,0,0.1v0.8h-0.3
		v-1.1H68.7z"/>
	<path class="st9" d="M70.5,82.3C70.5,82.3,70.5,82.3,70.5,82.3c0-0.1,0-0.1,0-0.2C70.4,82.2,70.4,82.3,70.5,82.3
		c-0.1,0-0.2,0-0.2,0c-0.1,0-0.2,0-0.2-0.1c-0.1-0.1-0.1-0.2-0.1-0.2c0-0.1,0-0.2,0.1-0.2c0.1-0.1,0.2-0.1,0.3-0.1h0.1v-0.1
		c0,0,0-0.1,0-0.1c0,0-0.1,0-0.1,0c0,0-0.1,0-0.1,0c0,0,0,0.1,0,0.1h-0.4c0-0.1,0-0.2,0.1-0.2c0.1-0.1,0.2-0.1,0.3-0.1
		c0.1,0,0.2,0,0.3,0.1c0.1,0.1,0.1,0.2,0.1,0.3V82c0,0,0,0.1,0,0.1v0.1L70.5,82.3z M70.3,82.1C70.3,82.2,70.3,82.2,70.3,82.1
		c0.1,0,0.1,0,0.2-0.1v-0.2h-0.1c0,0-0.1,0-0.1,0c0,0,0,0.1,0,0.1C70.2,82,70.2,82.1,70.3,82.1C70.2,82.1,70.2,82.1,70.3,82.1z"/>
	<path class="st9" d="M71.2,81v0.3h0.1v0.2h-0.1V82c0,0,0,0.1,0,0.1l0,0h0.1v0.2h-0.1h-0.1c-0.1,0-0.1,0-0.2-0.1c0-0.1,0-0.1,0-0.2
		v-0.5h-0.1v-0.2h0.1V81H71.2z"/>
	<path class="st9" d="M71.8,81h-0.3v-0.2h0.3V81z M71.8,82.3h-0.3v-1.1h0.3V82.3z"/>
	<path class="st9" d="M71.9,81.8c0-0.1,0-0.3,0.1-0.4c0.1-0.1,0.2-0.2,0.3-0.2c0.1,0,0.2,0,0.3,0.2c0.1,0.1,0.1,0.3,0.1,0.4l0,0
		c0,0.1,0,0.3-0.1,0.4c-0.1,0.1-0.2,0.2-0.3,0.2c-0.1,0-0.3-0.1-0.3-0.2C71.9,82.1,71.9,81.9,71.9,81.8L71.9,81.8z M72.2,81.8
		c0,0.1,0,0.2,0,0.2c0,0.1,0.1,0.1,0.1,0.1c0.1,0,0.1,0,0.1-0.1c0-0.1,0-0.2,0-0.2l0,0c0-0.1,0-0.2,0-0.2c0-0.1-0.1-0.1-0.1-0.1
		c-0.1,0-0.1,0-0.1,0.1C72.2,81.6,72.2,81.7,72.2,81.8z"/>
	<path class="st9" d="M73.2,81.3v0.2c0,0,0.1-0.1,0.1-0.1c0,0,0.1,0,0.1,0c0.1,0,0.2,0,0.2,0.1c0.1,0.1,0.1,0.2,0.1,0.3v0.6h-0.3
		v-0.6c0-0.1,0-0.1,0-0.2c0,0-0.1,0-0.1,0h-0.1l-0.1,0.1v0.8h-0.3v-1.1H73.2z"/>
	<path class="st10" d="M57.6,79c1-1.3,0.8-3.2-0.5-4.2c-1.3-1-3.2-0.8-4.2,0.5l-7.9,9.1c-0.6,0.7-1.6,0.9-2.4,0.4l-3.9-2.1
		c-1.1-0.6-2-1.4-2.7-2.4l-1.3-1.8l-3.3,1.7c-0.5,0.3-0.8,0.7-0.9,1.2l-3.2,15.7c0,0.2,0,0.4,0,0.6l2.1,11.3l-1.1,7.5l12.9-1.7
		c1.8-2.6,2.5-3.2,3.3-4.5c1.7-2.6,3-5.4,3.8-8.4l2.1-8c0-0.2,0.1-0.3,0.2-0.4l0.8-5.6L57.6,79z"/>
	<rect x="32.8" y="106.7" transform="matrix(0.1709 -0.9853 0.9853 0.1709 -84.7872 130.7358)" class="st6" width="5" height="18"/>
	<path class="st11" d="M24.5,116.2l-1.5,7c5.6,5.6,12.1,10.2,19.3,13.6l2.2-17.1L24.5,116.2z"/>
	<line class="st12" x1="23.9" y1="118.8" x2="44.1" y2="122.4"/>
	<line class="st12" x1="23.4" y1="121.1" x2="43.8" y2="124.7"/>
	<line class="st12" x1="23" y1="123.3" x2="43.5" y2="127"/>
	<path class="st13" d="M37.7,118.6l1.5,0.2l1-5l3.4-2l-1.8,2.3l2.1,0.4l-0.9,5l1.4,0.2l-2.2,17.1c-2.5-1.2-4.9-2.5-7.2-4L37.7,118.6
		z"/>
	<path class="st14" d="M85.1,84.2l-0.8,1c-0.1,0.2-0.1,0.4,0.1,0.5c0,0,0,0,0,0l3.9,2.3h0.1l2.1,0.9c0.1,0.1,0.2,0.1,0.3,0l1.8-1.3
		c0.1-0.1,0.1-0.1,0.1-0.2l0.6-3.1c0-0.2-0.1-0.4-0.3-0.4c0,0,0,0-0.1,0h-0.5l0.2,0.8l-0.2-0.8l-7.1,0.3
		C85.2,84.1,85.1,84.1,85.1,84.2z"/>
	
		<rect x="96.5" y="108.5" transform="matrix(0.9775 -0.2112 0.2112 0.9775 -21.2468 24.7927)" class="st6" width="17.9" height="6.7"/>
	<path class="st10" d="M108.4,72.6c-0.1-0.1-0.2-0.2-0.4-0.3l-18.7-3.2c-0.7-0.1-1.5,0.4-1.6,1.1c0,0.2,0,0.4,0,0.6l0.6,2.7
		c0,0.1,0,0.2,0,0.2l2.2-0.1l13.1,5.2l2.4,4.8l-1.8,3.3l-1.1,2l0.4,0.3c0.2,0.1,0.2,0.4,0.1,0.5c0,0,0,0-0.1,0.1l-2.4,2
		c-0.1,0-0.2,0.1-0.3,0h-0.4c1.2,4.8,5.4,8.8,10.1,10.5c0-0.1,0.1-0.3,0.1-0.4l4-7.2l1.3-2.3c0.3-0.6,0.4-1.4,0.3-2.1l-0.9-4.4
		L108.4,72.6z"/>
	<path class="st11" d="M119.6,126.9l-3.6-14.1L96.4,117l3.6,21.7C107.2,138.2,112.6,129.6,119.6,126.9z"/>
	<path class="st1" d="M92.6,82.2l3.7,3.4c-0.1-0.2,8,4,8,4l3.1-5.6l-2.6-5.2l-14.1-5.6l-2.4,0.1C88.3,73.6,92.6,82.2,92.6,82.2z"/>
	<path class="st15" d="M112.9,89.7l-30.3-23l-2.9,3.7L110,93.6c0.7,0.5,1.6,0.4,2.1-0.3c0,0,0,0,0-0.1l1.1-1.6
		C113.7,91.1,113.5,90.2,112.9,89.7z"/>
	<polygon class="st10" points="79.8,70.4 77.1,65.8 82.7,66.7 	"/>
	<polygon class="st15" points="77.1,65.8 78.2,67.6 79.2,66.1 	"/>
	<line class="st12" x1="96.6" y1="119.3" x2="116.6" y2="115"/>
	<line class="st12" x1="96.9" y1="121.6" x2="117.2" y2="117.2"/>
	<line class="st12" x1="97.3" y1="123.8" x2="117.8" y2="119.4"/>
	<path class="st10" d="M100.5,91.9l-1.8-0.1c-0.1,0-0.2-0.1-0.3-0.2l-1.1-1.9v-0.1l-0.9-2.7l-2-5.7l-2.2-4.7
		c-0.7-1.4-2.2-2.2-3.8-1.9l-0.8,0.2c-1.5,0.9-2.1,2.8-1.3,4.3l1,1.8l1.4,5.3l0.9,8.9c0,0.2,0.1,0.3,0.1,0.5l1.8,5.6
		c0.1,0.4,0.4,0.8,0.7,1.1l3.3,3.3c0.2,0.2,0.3,0.4,0.4,0.6l1.1,4l14.6-3.1l-0.9-4.2c0-0.2,0-0.4,0-0.6
		C105.9,100.6,101.7,96.6,100.5,91.9z"/>
	<path class="st13" d="M101.3,115.9l-0.7,0.2l-1.2-6.4l-0.7,0.2l-0.5-2.2l-2.3-1.4l1.1,4l-1,0.2l1.4,6.3l-1,0.2l3.6,21.7
		c2.3-0.1,4.5-0.4,6.8-0.7L101.3,115.9z"/>
	<circle class="st16" cx="72.9" cy="72.9" r="70.9"/>
</g>
</svg>
