<?xml version="1.0" encoding="utf-8"?>
<!-- Generator: Adobe Illustrator 23.0.3, SVG Export Plug-In . SVG Version: 6.00 Build 0)  -->
<svg version="1.1" id="Livello_1" xmlns="http://www.w3.org/2000/svg" xmlns:xlink="http://www.w3.org/1999/xlink" x="0px" y="0px"
	 viewBox="0 0 185.79 181.4" style="enable-background:new 0 0 185.79 181.4;" xml:space="preserve">
<style type="text/css">
	.st0{fill:#93A18B;}
	.st1{fill:#BEC6B9;}
	.st2{fill:#9FAE97;}
	.st3{fill:#5B5B5A;}
	.st4{fill:#F6BBC6;}
	.st5{fill:#303B45;}
	.st6{fill:#4D4471;}
	.st7{fill:#353430;}
	.st8{fill:#EAEAEA;}
	.st9{fill:none;stroke:#FBC01F;stroke-width:1.12;stroke-miterlimit:10;}
	.st10{fill:none;stroke:#4294CE;stroke-width:1.12;stroke-miterlimit:10;}
	.st11{fill:none;stroke:#FFFFFF;stroke-width:1.12;stroke-miterlimit:10;}
	.st12{fill:#EBEBEB;}
	.st13{fill-rule:evenodd;clip-rule:evenodd;fill:#5B5B5A;}
	.st14{fill:#4D4A81;}
	.st15{fill-rule:evenodd;clip-rule:evenodd;fill:#6A6766;}
	.st16{fill-rule:evenodd;clip-rule:evenodd;fill:#353230;}
	.st17{fill-rule:evenodd;clip-rule:evenodd;fill:#8A8B8C;}
	.st18{fill-rule:evenodd;clip-rule:evenodd;fill:#AFAFB1;}
	.st19{fill-rule:evenodd;clip-rule:evenodd;fill:#377D84;}
	.st20{fill-rule:evenodd;clip-rule:evenodd;fill:#48ABB4;}
	.st21{fill-rule:evenodd;clip-rule:evenodd;fill:#ABABAB;}
	.st22{fill-rule:evenodd;clip-rule:evenodd;fill:#969696;}
	.st23{fill-rule:evenodd;clip-rule:evenodd;fill:#CDCBCB;}
	.st24{fill-rule:evenodd;clip-rule:evenodd;fill:#F6BBC6;}
	.st25{fill-rule:evenodd;clip-rule:evenodd;fill:#1F3446;}
	.st26{fill:#F9B233;}
	.st27{fill-rule:evenodd;clip-rule:evenodd;fill:#353430;}
	.st28{fill-rule:evenodd;clip-rule:evenodd;fill:#808081;}
	.st29{fill-rule:evenodd;clip-rule:evenodd;fill:#36393B;}
	.st30{fill-rule:evenodd;clip-rule:evenodd;fill:#66411D;}
	.st31{fill-rule:evenodd;clip-rule:evenodd;fill:#946335;}
	.st32{fill-rule:evenodd;clip-rule:evenodd;fill:#492E16;}
	.st33{fill-rule:evenodd;clip-rule:evenodd;fill:#4D4A81;}
	.st34{fill-rule:evenodd;clip-rule:evenodd;fill:#0A0B0B;}
	.st35{fill-rule:evenodd;clip-rule:evenodd;fill:#1F1F20;}
	.st36{fill-rule:evenodd;clip-rule:evenodd;fill:#2F2F60;}
	.st37{fill:#EF7967;}
	.st38{fill-rule:evenodd;clip-rule:evenodd;fill:#F8FCFC;}
	.st39{fill-rule:evenodd;clip-rule:evenodd;fill:#E4ECED;}
	.st40{fill:#3C3C3B;}
	.st41{fill:#4E4D4C;}
	.st42{fill:#95C11F;}
	.st43{opacity:0.2;}
	.st44{fill:#FFFFFF;}
	.st45{fill:#D9D9D9;}
	.st46{fill:#FCEA10;}
</style>
<title>G03_17</title>
<g>
	<polygon class="st0" points="185.79,123.88 185.79,128.62 96.32,181.4 96.32,176.65 	"/>
	<polygon class="st1" points="96.32,176.65 96.32,181.4 0.22,125.67 0.22,120.92 	"/>
	<polygon class="st2" points="96.1,176.67 0,120.94 0,120.67 90.31,68.77 185.79,123.89 96.25,176.76 	"/>
	<ellipse class="st0" cx="90.23" cy="121.17" rx="65.41" ry="34.02"/>
</g>
<g id="Livello_3">
	<path class="st3" d="M73.7,42.5c0,0-1,14.81-0.85,24.05c0.11,8.49,5.36,25.23,5.36,25.23l1.25,0.15l-0.1,6.08
		c0.65,0.92,1.71,1.46,2.84,1.42c0.64,0,1.52-6.93,1.52-6.93h1l-2.6-23.13c0,0,0-14.67,1.44-14.39c0.32,0.06-0.71,0.17,0.45,0
		c4-0.77,9.77-4.29,9.55-8.47c-0.28-5.39-4.54-5.67-4.54-5.67s-7.37-0.62-8.23-0.34S73.7,42.5,73.7,42.5z"/>
	<path class="st3" d="M83.15,48.5c0,0,1.44,21.1,3.43,24.79c1.33,2.47,4.68,19.21,4.68,19.21h1l0.46,3c0,0,4.48,2.27,3.63,0
		c-0.16-1.21-0.23-2.42-0.2-3.64l1.36-0.81l-3-22.81l-1-22l-6.24-7.66L83.15,48.5z"/>
	<path class="st3" d="M69.12,15.16c0,0,1.7-3.12,4.26-3.12s19.24,3.71,20.41,4.85s9.16,16.37,9.16,21.48s-1.7,22.69-1.7,22.69
		s-3.12,0.57-4-0.85s-1.7-19-1.7-19s-4.54-16.45-4.54-15.6S69.12,15.16,69.12,15.16z"/>
	<path class="st3" d="M73.99,15.1l16.65,4.62l2.35,4.18c0,0,1.42,19.86,0.57,22.41S83.35,50,79.94,49.43s-6.24-7.09-6.24-7.09
		l-1.74-28.32L73.99,15.1z"/>
	<path class="st3" d="M69.12,15.16c0,0-4.71,8.55-5,14.51s1.07,18.91,1.07,18.91c1.02,0.65,2.3,0.75,3.41,0.28
		c1.7-0.85,1.13-16.73,2-18.72s6.19-14.47,6.19-14.47S74.79,11.75,69.12,15.16z"/>
	<circle class="st4" cx="78.32" cy="6.66" r="6.65"/>
	<path class="st4" d="M76.12,8.7l2.27,6.8l0,0c1.34,1.13,3.23,1.33,4.77,0.5l0.72-0.39l-1.89-7.4L76.12,8.7z"/>
	<path class="st5" d="M81.61,92.4c-0.87-0.14-1.14-0.27-2.13-0.45c-0.09,3.47-0.09,6.09-0.09,6.09c0.22,2.32,1,2.12,2.88,1.52
		c0.62-0.19,0.88-3.06,1.47-7C83.03,92.56,82.31,92.51,81.61,92.4z"/>
	<path class="st5" d="M83.67,102.56c0.09-1.22-0.84-2.43-0.75-3.65c0.05-0.18,0.05-0.37,0-0.55c-0.26,0.21-0.59,0.32-0.92,0.3
		c-0.87,0.05-1.75-0.02-2.6-0.2c-0.06,1.32-2,3.39-2.93,4.35c-0.98,0.88-1.81,1.92-2.47,3.06c-0.13,0.21-0.16,0.46-0.08,0.69
		c0.13,0.26,0.47,0.32,0.77,0.33c1.3-0.01,2.58-0.36,3.72-1C80.23,104.88,81.98,103.77,83.67,102.56z"/>
	<path class="st4" d="M85.79,6.92c0,1.43-0.6,2.58-1.35,2.58s-1.36-1.15-1.36-2.58s0.61-2.58,1.36-2.58S85.79,5.5,85.79,6.92z"/>
	<path class="st6" d="M78.32,0c-2.73,0.01-5.19,1.68-6.19,4.22c1.32,0.64,2.78,0.97,4.25,0.95c0.53,0,5.28-0.65,5.08-1.48
		c0.25,1.05,0.64,2.06,1.17,3c0.01-1.06,0.76-1.97,1.79-2.19h0.17C83.68,1.81,81.16,0.01,78.32,0z"/>
	<circle class="st4" cx="98.78" cy="61.2" r="2.42"/>
	<circle class="st4" cx="67.14" cy="50.25" r="2.42"/>
	<polygon class="st3" points="79.83,15.34 80.82,17.73 84.04,18.17 85.77,14.91 83.61,12.56 83.13,12.43 83.24,13.06 	"/>
	<polygon class="st7" points="79.42,18.51 80.98,18.04 79.83,15.34 	"/>
	<polygon class="st3" points="79.66,16.68 76.43,16.29 76.43,13.03 77.67,13.47 	"/>
	<circle class="st8" cx="81.65" cy="16.04" r="0.89"/>
	<line class="st9" x1="77.42" y1="22.86" x2="74.39" y2="22.29"/>
	<line class="st10" x1="77.42" y1="22.86" x2="76.42" y2="22.67"/>
	<line class="st11" x1="75.39" y1="22.48" x2="74.39" y2="22.29"/>
	<path class="st12" d="M73.51,39.29l0.28,3.05c0,0,9.76,5.16,16,3.36c3.6-1.06,4.08-2.4,4.08-2.67c0-0.64,0.1-3.12,0-3.45
		c-1.69,1.45-3.78,2.35-6,2.59C83.32,42.8,73.51,39.29,73.51,39.29z"/>
	<path class="st12" d="M77.25,41.35l-1.06-0.31c0,0,2.37-18.74,8.22-23.94c0.69-0.61,3.33-2.2,4.23-2c0.79,0.13,1.55,0.36,2.28,0.68
		c-2.22,0.34-4.24,1.44-5.73,3.12C81.52,22.84,77.25,41.35,77.25,41.35z"/>
	<path class="st5" d="M94.51,92.07c-0.67,0-1.52,0.66-2.3,0.62c0.58,3.42,1.07,6,1.07,6c0.6,2.25,1.73,1.2,3.06,0.33
		c0.43-0.27,0.09-3.13-0.2-7.12C95.6,92.01,95.06,92.07,94.51,92.07z"/>
	<path class="st5" d="M92.01,104.15c-0.51,0.94,1.38,3.16,2.37,3.55c0.46,0.02,0.91-0.09,1.31-0.32c1.09-0.59,2.03-1.4,2.78-2.39
		c0.33-0.59,0.13-1.12,0-1.79c-0.38-1.16-0.84-2.29-1.4-3.38c-0.34-1.12-0.59-2.26-0.76-3.42h-3.45
		C92.86,96.4,93.49,101.38,92.01,104.15z"/>
	<path class="st13" d="M121.65,58.88c-1.89,1.11-3.62,1.59-5.45,2.81v2.42c2-1.75,3.55-2.17,5.8-3.6L121.65,58.88z"/>
	<path class="st13" d="M116.38,58.2c-0.2,1.17-0.24,2.35-0.12,3.53c-0.64,0.39-1.25,1-1.91,1.32c0.17-1.51,0.46-3,0.85-4.46
		L116.38,58.2z"/>
	<path class="st14" d="M112.26,53.5c0,0.71,0.51,1.36,0.48,2.07c-0.06,1.31-0.63,10.51,0.52,10.4s1,1.41,2,2
		c0.83,0.44,1.34,1.33,2.16,1.77c0.87,0.4,1.87,0.37,2.71-0.07c0.07,0.08,0.12,0.17,0.19,0.25c0.77,0.95,2,1.4,3.2,1.18
		c0.9-0.24,1.6-1,2.5-1.23c1.12-0.3,2.26,0.23,3.36,0.59s2.48,0.51,3.25-0.35c0.53-0.76,0.67-1.72,0.37-2.59
		c-0.3-0.86-0.47-1.76-0.5-2.67c0.07-1,0.67-2,0.45-3c-0.29-1.28-1.9-2.18-1.66-3.47c0.13-0.7,0.79-1.21,0.92-1.91
		c0.18-0.9-0.56-1.7-1.3-2.25c-2.12-1.56-1.62-2.56-1.82-4.94c-0.16-1.44-0.63-2.83-1.4-4.06c-0.95-1.51-5.45-4.15-8.55-1.64
		c-1.08,0.98-1.87,2.24-2.27,3.64c-0.74,2.27-0.47,3.36-2.89,4.41C113.19,51.95,112.3,52.56,112.26,53.5z"/>
	<polygon class="st15" points="109.28,83.39 109.6,90.23 109.26,99.74 107.45,98.7 107.47,82.34 	"/>
	<polygon class="st16" points="109.28,83.39 111.05,82.36 111.03,98.71 109.26,99.74 	"/>
	<polygon class="st17" points="124.04,91.95 124.36,98.79 124.02,117.05 122.21,116 122.23,90.9 	"/>
	<polygon class="st18" points="124.04,91.95 125.81,90.92 125.79,116.02 124.02,117.05 	"/>
	<polygon class="st17" points="98.12,89.92 98.44,96.76 98.1,115.02 96.29,113.98 96.31,88.88 	"/>
	<polygon class="st18" points="98.12,89.92 99.89,88.89 99.87,113.99 98.1,115.02 	"/>
	<polygon class="st17" points="112.88,98.48 113.2,105.32 112.86,123.58 111.05,122.54 111.07,97.43 	"/>
	<polygon class="st18" points="112.88,98.48 114.65,97.45 114.63,122.55 112.86,123.58 	"/>
	<polygon class="st19" points="111.06,99.08 109.62,98.25 109.61,97.14 111.06,97.97 	"/>
	<path class="st17" d="M127.58,85.86c0.01-0.17,0.01-0.35,0-0.52l-1.41-0.84c0.01,0.21,0.01,0.41,0,0.62c0,0.03,0,0.06,0,0.09
		c-0.03,0.2-0.07,0.39-0.13,0.58c0,0,0,0,0,0.06c-0.06,0.21-0.14,0.43-0.23,0.63l0,0c-0.09,0.21-0.2,0.42-0.31,0.63l0,0
		c-0.12,0.2-0.24,0.39-0.38,0.58v0.05l-0.39,0.47l-0.09,0.09c-0.11,0.11-0.22,0.21-0.34,0.31l-0.15,0.14
		c-0.16,0.13-0.33,0.24-0.5,0.35l1.43,0.84c0.18-0.1,0.35-0.22,0.51-0.35l0.15-0.14l0.24-0.2c0.03-0.04,0.06-0.08,0.1-0.11l0.09-0.1
		l0.1-0.1l0.21-0.27l0.08-0.1l0,0l0.07-0.09l0.16-0.23c0-0.08,0.09-0.15,0.14-0.23l0,0c0-0.06,0.07-0.12,0.1-0.19l0.12-0.22
		l0.09-0.21l0,0l0,0c0.04-0.08,0.07-0.16,0.1-0.24c0.03-0.08,0.06-0.17,0.09-0.25c0.01-0.04,0.01-0.09,0-0.13c0,0,0,0,0-0.05v-0.09
		c0-0.1,0-0.21,0.07-0.31v-0.18c0,0,0-0.07,0-0.1C127.5,85.98,127.53,85.91,127.58,85.86z"/>
	<polygon class="st17" points="127.61,85.34 126.17,84.5 126.13,69.52 127.57,70.36 	"/>
	<polygon class="st20" points="127.57,70.36 126.13,69.52 127.09,68.96 128.53,69.8 	"/>
	<polygon class="st20" points="123.51,89.12 109.61,97.14 111.06,97.97 124.95,89.95 	"/>
	<path class="st18" d="M128.53,69.8l-1,0.56v15c-0.1,1.88-1.1,3.59-2.67,4.62l-13.89,8v1.1l13.89-8c2.14-1.4,3.49-3.73,3.62-6.28
		L128.53,69.8z"/>
	<path class="st17" d="M115.17,79.28c0.01-0.17,0.01-0.35,0-0.52l-1.38-0.84c0.01,0.2,0.01,0.41,0,0.61c0,0,0,0.07,0,0.1
		c0,0.19-0.08,0.39-0.14,0.58c0,0,0,0,0,0.06c-0.07,0.21-0.15,0.42-0.24,0.63l0,0c-0.1,0.21-0.2,0.42-0.32,0.62l0,0
		c-0.11,0.2-0.24,0.39-0.37,0.57l0,0c-0.12,0.17-0.25,0.32-0.39,0.47l-0.09,0.1l-0.33,0.31l-0.16,0.14
		c-0.16,0.13-0.32,0.25-0.5,0.35l1.44,0.83c0.18-0.1,0.34-0.21,0.5-0.34c0.05-0.05,0.1-0.1,0.16-0.14l0.23-0.21l0.1-0.1l0.09-0.1
		l0.1-0.11l0.22-0.26l0.07-0.1v-0.05l0.07-0.09l0.15-0.24l0.14-0.22l0,0l0.11-0.19c0-0.07,0.07-0.15,0.11-0.23s0.07-0.13,0.1-0.2
		l0,0l0,0l0.1-0.24l0.09-0.25v-0.13l0,0V80c0-0.11,0.05-0.21,0.07-0.31c0-0.06,0-0.12,0-0.18c0,0,0-0.07,0-0.1
		S115.16,79.31,115.17,79.28z"/>
	<polygon class="st17" points="115.2,78.76 113.77,77.92 113.72,62.94 115.16,63.77 	"/>
	<polygon class="st20" points="115.16,63.77 113.72,62.94 114.69,62.38 116.13,63.22 	"/>
	<polygon class="st20" points="111.1,82.53 97.21,90.56 98.65,91.39 112.54,83.37 	"/>
	<path class="st18" d="M116.13,63.22l-1,0.55v15c-0.1,1.87-1.09,3.59-2.66,4.61l-13.89,8v1.12l13.89-8
		c2.14-1.39,3.49-3.73,3.63-6.28L116.13,63.22z"/>
	<path class="st21" d="M127.12,91.2c0.01,0.06,0.01,0.11,0,0.17l0,0c-0.02,0.06-0.05,0.11-0.09,0.16l0,0
		c-0.04,0.05-0.08,0.11-0.13,0.15c-0.04,0.03-0.08,0.06-0.12,0.08c-0.03,0.03-0.06,0.06-0.1,0.08l-13.48,7.83v2.15L126.67,94l0,0
		l0.09-0.06l0.11-0.09l0,0l0.11-0.11l0,0l0,0l0,0c0-0.03,0-0.07,0-0.1l0,0l0,0c0-0.02,0-0.04,0-0.06c0-0.03,0-0.07,0-0.1l0,0l0,0
		L127.12,91.2z"/>
	<path class="st22" d="M112.63,99.92h-0.08c-0.19,0.04-0.39,0.06-0.59,0.07l0,0c-0.21-0.01-0.42-0.03-0.62-0.07l0,0
		c-0.2-0.04-0.38-0.11-0.56-0.21l-15.62-9c-0.28-0.13-0.47-0.39-0.5-0.7v2.15c0.03,0.31,0.22,0.58,0.5,0.71l15.62,9
		c0.08,0.05,0.16,0.09,0.25,0.12l0.21,0.07h0.1l0,0l0,0h0.17h0.17h0.53h0.22h0.1h0.08h0.15c0.13-0.04,0.25-0.1,0.37-0.17v-2.15
		C112.97,99.82,112.8,99.88,112.63,99.92z"/>
	<path class="st23" d="M126.62,90.5c0.39,0.13,0.59,0.55,0.46,0.94c-0.07,0.22-0.24,0.39-0.46,0.46l-13.48,7.83
		c-0.76,0.38-1.65,0.38-2.41,0l-15.62-9c-0.39-0.13-0.59-0.55-0.46-0.94c0.07-0.22,0.24-0.39,0.46-0.46l13.47-7.83
		c0.76-0.38,1.66-0.38,2.42,0L126.62,90.5z"/>
	<path class="st21" d="M129.86,72.95v8.39c0.01,0.09,0.01,0.17,0,0.26l0,0c-0.02,0.07-0.04,0.14-0.07,0.21l0,0
		c-0.02,0.04-0.04,0.08-0.07,0.12c-0.05,0.07-0.12,0.13-0.19,0.18l1.86-1.09c0.08-0.04,0.14-0.1,0.19-0.18l0,0
		c0.02-0.02,0.04-0.05,0.05-0.08l0,0V80.7c0,0,0-0.05,0-0.07s0,0,0-0.06l0,0l0,0l0,0c0-0.02,0-0.04,0-0.06v-0.05c0,0,0,0,0-0.06
		v-0.06l0,0v-8.39L129.86,72.95z"/>
	<path class="st22" d="M128.65,70.86l-15.61-9c-0.67-0.38-1.22-0.07-1.22,0.7v8.39c0.04,0.85,0.49,1.62,1.2,2.09l15.62,9
		c0.67,0.39,1.21,0.08,1.21-0.69v-8.39C129.81,72.11,129.36,71.33,128.65,70.86z"/>
	<path class="st13" d="M122.36,60.66c3.35,1.93,5.19,4,4.1,4.65s-4.69-0.43-8-2.36s-5.18-4-4.09-4.65S119.01,58.73,122.36,60.66z"/>
	<path class="st24" d="M122.37,53.14c-0.28,1-1.48,3.32-0.64,6.09l-6.17,3.16l0.51-2.58c0.71-1.78,0.97-3.71,0.75-5.62L122.37,53.14
		z"/>
	<path class="st13" d="M121.79,58.5c0.2,0.56-0.12,1.3,0.12,1.74c0.59,1.12,1.89,1.68,3,2.5c2.84,2.13,0.11,7.45-1.75,11
		c-0.82,1.5-1.33,3.16-1.5,4.86c-0.17,0.8-0.13,1.63,0.13,2.4c4.73,12.37-10.12,19.94-12.58,11.16c-0.7-2.5-0.31-6.07,2.06-11.46
		c0.82-1.85,0.31-3.23,0.33-4.16s-0.66-2.24-1.16-4.29c-0.78-1.34-1.1-2.89-0.9-4.43c0.25-1.77,1.52-3.8,2.58-6
		c0.42-1.08,1-2.09,1.72-3c0.49-0.49,1.65-0.4,2.59-0.63c-0.16,1.06-0.14,2.13,0.07,3.18C117.15,60.91,120.29,59.5,121.79,58.5z"/>
	<path class="st24" d="M94.2,95.07c-0.85,5.63-0.7,11.26-1.24,17.1l2.3,2.74c2.15-8.67,4.56-13.27,4.9-18.33
		c0.19-3,0.36-4.84,0.55-6.28C101.22,85.25,94.84,90.81,94.2,95.07z"/>
	<path class="st24" d="M99.79,92.06c-0.37,2.66,0.17,4.06-0.13,6c-0.85,5.63-0.7,11.25-1.23,17.1l2.3,2.74
		c2.14-8.67,4.56-13.27,4.89-18.34c0.18-2.67,0.33-4.48,0.5-5.86C107.79,81.14,100.41,86.5,99.79,92.06z"/>
	<path class="st13" d="M123.2,87.5c-0.18,2.39-0.86,5.19-2.77,6.73c-3.37,2.7-9.83,1.86-14.81,5.58c-4.5-2-9.88-4.94-12.13-6.72
		c0.6-1.47,1.1-2.93,2.6-3.82c2.54-1.52,12-7.11,14.43-7.36c0.22-0.32,0.41-0.65,0.58-1l-0.07-0.06c1.18-2.67,0-5.89-0.65-8.49
		c-0.81-1.4-1.16-3.03-1-4.64c0.24-1.76,1.38-3.81,2.44-6c0.58-1.17,1.33-2.26,2.22-3.22c0.46-0.3,1.01-0.44,1.56-0.39
		c-0.92,0.88-2.06,4.47-2.18,7.05c2.87-1.13,6.69-3.22,8-4.63c0.32-0.34,0.41,0,0.63-0.23c1.37,1,1.61,1.49,2.79,2.37
		c0.29,0.22,0.53,0.49,0.73,0.79c-0.57-0.66-1.54-0.83-2.3-0.4c-2.24,0.81-2.6,4.3-2.46,7.34c0.09,2.08,0.72,3.55,2.46,3.63
		c-0.85,2-1.52,3.83-1.32,5c0.39,2.39,1.57,4.7,1.27,8.39C123.23,87.5,123.22,87.5,123.2,87.5z"/>
	<path class="st25" d="M101.7,95.14c3.32,1.91,5.13,4,4.06,4.6s-4.64-0.42-8-2.34s-5.13-4-4.06-4.6S98.38,93.22,101.7,95.14z"/>
	<circle class="st26" cx="120.54" cy="49.33" r="4.88"/>
	<path class="st4" d="M112.57,50.31c-0.62,3.25,1.51,6.4,4.77,7.02c3.25,0.62,6.4-1.51,7.02-4.77c0.62-3.25-1.51-6.4-4.77-7.02
		c-0.01,0-0.01,0-0.02,0C116.32,44.93,113.19,47.06,112.57,50.31z"/>
	<path class="st14" d="M113.91,49.5c-0.38-0.19-0.63-0.57-0.65-1c1.69-2.85,5.37-3.8,8.22-2.11c2.12,1.25,3.26,3.68,2.87,6.11
		c-0.05,0.26-0.12,0.51-0.21,0.76c-0.27,0-0.53-0.06-0.78-0.17c-0.56-0.26-1.81-1-1.24-1.63c-0.28,0.31-0.39,0.81-0.41,2.2
		C120.18,49.99,115.98,50.76,113.91,49.5z"/>
	<path class="st4" d="M121.79,52.25c-0.19,0.99,0.45,1.95,1.45,2.15c0.99,0.19,1.95-0.45,2.15-1.45s-0.45-1.95-1.45-2.15
		c-0.01,0-0.01,0-0.02,0C122.93,50.62,121.98,51.26,121.79,52.25z"/>
	<path class="st5" d="M100.86,114.26c0.48,1.12,0.78,2.3,0.89,3.51c0,1.3-0.51,1.65-0.51,1.65c-1.09,0.34-2.2,0.61-3.33,0.82
		c-0.72,0-1.93,1.19-3.67,1.31s-4,0.65-4.2-0.72c-0.15-0.83,2-1.62,4.51-3.33c1.09-0.77,2.06-1.7,2.88-2.75L100.86,114.26z"/>
	<path class="st5" d="M100.17,108.57c0.38,3.53,0.68,6.23,0.68,6.23s0.09,1.13-1.43,1.2c-0.87,0.06-1.68-0.44-2-1.25
		c0,0-0.62-2.55-1.49-6.21L100.17,108.57z"/>
	<path class="st5" d="M105.07,110.81c0.38,3.53,0.77,6.27,0.77,6.27s0,1.09-1.51,1.16c-0.87,0.04-1.64-0.57-1.8-1.43
		c0,0-0.82-2.37-1.68-6H105.07z"/>
	<path class="st5" d="M105.79,116.88c0,0-0.14,1.23-1.23,1.16c-0.81-0.16-1.54-0.59-2.06-1.23c0,0,0.41,1-0.54,4.2
		c-0.53,1.79-1.57,6.76,0.35,7.44c1.37,0.49,3.28-1.11,3.51-2.13c0.09-0.41,0.49-4.89,0.43-5.31
		C106.07,119.57,105.79,116.88,105.79,116.88z"/>
	<path class="st27" d="M121.46,59.14c-1.89,1.11-3.1,1-4.93,2.18l-0.57,3.05c2.09-1.43,4-2.44,6.12-4L121.46,59.14z"/>
	<path class="st27" d="M116.19,58.5c-0.12,0.61,0.19,1.15,0.34,2.86c-0.63,0.39-1.72,1.63-2.37,2c0.19-1.77,0.63-3.5,1.31-5.14
		L116.19,58.5z"/>
	<path class="st13" d="M121.92,58.5c-1.89,1.12-3.62,1.59-5.45,2.81l-0.05,2.43c2-1.75,3.55-2.17,5.8-3.6L121.92,58.5z"/>
	<path class="st13" d="M116.65,57.79c-0.2,1.17-0.24,2.35-0.12,3.53c-0.63,0.39-1.25,1-1.91,1.31c0.18-1.5,0.46-3,0.85-4.46
		L116.65,57.79z"/>
	<circle class="st8" cx="117.48" cy="61.83" r="0.68"/>
	
		<ellipse transform="matrix(0.6658 -0.7462 0.7462 0.6658 -6.9521 106.6319)" class="st8" cx="115.55" cy="61.08" rx="0.68" ry="0.52"/>
	<path class="st12" d="M112.08,82.78l-1-0.3c0,0,4.89-15.16,10.58-20.21c0.67-0.6,1.83-1.16,2.53-0.59c0.32,0.23,0.62,0.48,0.9,0.76
		c0,0-1.48,0-4.14,2.79C117.35,69.02,112.08,82.78,112.08,82.78z"/>
	<path class="st12" d="M123.08,83.04c0,0-1.22-0.34-2.25-0.5c-2.65-0.41-10.47-0.59-10.47-0.59l0.88-3.23c0,0,7,1,9.39,1
		c0.55,0.01,1.1-0.04,1.63-0.16L123.08,83.04z"/>
	<polygon class="st18" points="48.82,84.92 51.11,83.58 51.05,109.47 48.76,110.81 	"/>
	<polygon class="st17" points="48.82,84.92 48.76,110.81 46.52,109.51 46.58,83.62 	"/>
	<polygon class="st28" points="140.66,101.95 142.96,100.62 142.9,126.51 140.6,127.84 	"/>
	<polygon class="st29" points="140.66,101.95 140.6,127.84 138.36,126.55 138.42,100.66 	"/>
	<polygon class="st28" points="109.35,117.39 111.65,116.05 111.59,144.44 109.29,145.78 	"/>
	<polygon class="st29" points="109.35,117.39 109.29,145.78 107.05,144.49 107.11,116.1 	"/>
	<polygon class="st30" points="111.77,121.24 148.73,100.47 148.71,104.83 112.25,126.02 	"/>
	<path class="st31" d="M148.73,100.5l-36.46,21.19L44.16,82.34l36.45-21.18L148.73,100.5z"/>
	<path class="st32" d="M112.27,121.66v4.36c-22.72-13.1-45.43-26.21-68.13-39.32v-4.36l0,0L112.27,121.66z"/>
	<path class="st33" d="M60.14,121.34c4.12-0.94,7.28-5.3,12.07-8.72l4.24-2.12c0.28-4.39,0-5.8-2.07-6.5
		c-3.83-1.32-10.39,2.12-15.4,4.57L60.14,121.34z"/>
	<path class="st34" d="M69.79,130.5l-3.07,2.34c0,2.82,0,4.21,1.13,4.94c1.33,0.9,3.57,0.18,4.93-0.44l0.36-1.1
		c1.31-0.18,1,0.21,2.43-0.57c2.36-1.31,5.84-3.34,6.3-5.68c0.12-0.6-0.34-1.69-1-1.58l-6.85,1.19L69.79,130.5z"/>
	<path class="st33" d="M65.34,112.22l1.11,21.57l0,0c-0.03,0.17,0.05,0.34,0.2,0.42c0.72,0.42,3.12-0.28,5.34-1.57
		c0.79-0.43,1.52-0.96,2.18-1.57l0.82-0.56l1.24-23.75L65.34,112.22z"/>
	<path class="st35" d="M77.17,134.73l-3.16,2.22c-0.09,2.82-0.15,4.2,0.91,5c1.29,0.95,3.56,0.33,5-0.24l0.41-1.07
		c1.86-0.18,1.35,0.1,3.24-0.88c2.29-1.18,5.07-2.86,5.57-4.93c0.14-0.59-0.27-1.69-0.88-1.61l-6.73,0.81L77.17,134.73z"/>
	<path class="st33" d="M72.65,111.03c0.14,2,0.25,3.89,0.31,5.84l0.65,21.25l0,0c0.01,0.13,0.09,0.25,0.21,0.3
		c0.72,0.42,3.11-0.28,5.34-1.57s3.34-2.55,2.8-3l0.12-23.23C82.21,105.78,72.73,106.78,72.65,111.03z"/>
	<polygon class="st18" points="61.01,95.22 63.31,93.88 63.25,124.77 60.95,126.1 	"/>
	<polygon class="st17" points="61.01,95.22 60.95,126.1 58.72,124.81 58.77,93.92 	"/>
	<polygon class="st29" points="49.61,118.08 49.94,124.93 49.59,143.19 47.78,142.14 47.8,117.04 	"/>
	<polygon class="st28" points="49.61,118.08 51.39,117.06 51.36,142.16 49.59,143.19 	"/>
	<polygon class="st29" points="64.37,126.64 64.69,133.49 64.35,151.74 62.54,150.7 62.56,125.6 	"/>
	<polygon class="st28" points="64.37,126.64 66.14,125.61 66.12,150.71 64.35,151.74 	"/>
	<path class="st28" d="M74.28,120.31l-14.9,8.6c-0.17,0.1-0.35,0.18-0.53,0.24h-0.1c-0.15,0.05-0.31,0.09-0.47,0.11l0,0
		c-0.15,0.02-0.31,0.02-0.46,0l0,0c-0.15-0.03-0.29-0.08-0.42-0.15l0,0l1.55,0.89l0,0l0.15,0.07l0.15,0.06h0.1h0.06h0.18h0.4h0.25
		h0.11h0.1l0.13-0.05c0.14-0.06,0.27-0.12,0.4-0.2l14.81-8.68L74.28,120.31z"/>
	<path class="st28" d="M75.79,121.2l-14.89,8.6c-1.58,0.92-2.87,0.18-2.88-1.64V112.1l-1,0.59v16.07c0,2.48,1.76,3.47,3.91,2.23
		l14.9-8.6L75.79,121.2z"/>
	<path class="st28" d="M64.62,114.6l-14.9,8.6c-0.17,0.1-0.35,0.18-0.53,0.25h-0.1c-0.15,0.05-0.31,0.08-0.47,0.1l0,0
		c-0.15,0.02-0.31,0.02-0.46,0l0,0c-0.15-0.03-0.29-0.09-0.42-0.16l0,0l1.55,0.9l0,0l0.15,0.07l0.15,0.05h0.1h0.06h0.17h0.41
		l0.25-0.06h0.11h0.1h0.12c0.14-0.06,0.27-0.12,0.4-0.2l14.9-8.6L64.62,114.6z"/>
	<path class="st28" d="M66.16,115.5l-14.9,8.6c-1.58,0.91-2.87,0.18-2.87-1.64l-0.05-16.07l-1,0.6v16.07c0,2.47,1.77,3.47,3.92,2.23
		l14.9-8.6V115.5z"/>
	<polygon class="st15" points="60.77,111.55 61.1,118.39 60.75,127.9 58.94,126.86 58.97,110.51 	"/>
	<polygon class="st16" points="60.77,111.55 62.55,110.52 62.52,126.87 60.75,127.9 	"/>
	<polygon class="st29" points="75.53,120.11 75.86,126.95 75.51,145.21 73.7,144.17 73.73,119.07 	"/>
	<polygon class="st28" points="75.53,120.11 77.31,119.08 77.28,144.18 75.51,145.21 	"/>
	<path class="st21" d="M78.62,119.36c0.01,0.06,0.01,0.11,0,0.17l0,0c-0.02,0.06-0.05,0.11-0.08,0.16l0,0
		c-0.04,0.05-0.09,0.1-0.14,0.15l-0.11,0.09L78.18,120l-13.47,7.83v2.16l13.47-7.83l0,0c0.03-0.02,0.06-0.04,0.09-0.07l0.12-0.08
		l0,0l0.11-0.12l0,0l0,0c0,0,0,0,0-0.05c0.01-0.03,0.01-0.07,0-0.1l0,0l0,0c0,0,0,0,0-0.06s0-0.07,0-0.1l0,0L78.62,119.36z"/>
	<path class="st22" d="M64.13,128.08h-0.08c-0.19,0.04-0.39,0.07-0.59,0.07l0,0c-0.21,0-0.42-0.02-0.63-0.07l0,0
		c-0.19-0.04-0.38-0.11-0.55-0.21l-15.62-9c-0.29-0.12-0.48-0.39-0.5-0.7v2.16c0.03,0.31,0.22,0.57,0.5,0.7l15.62,9l0.24,0.12
		l0.21,0.07h0.11h0.07h0.17h0.17h0.34h0.19c0.07,0.01,0.15,0.01,0.22,0h0.09h0.08h0.15c0.13-0.04,0.25-0.09,0.37-0.16v-2.16
		C64.51,127.99,64.32,128.05,64.13,128.08z"/>
	<path class="st23" d="M78.11,118.65c0.39,0.13,0.59,0.55,0.46,0.94c-0.07,0.22-0.24,0.39-0.46,0.46l-13.47,7.83
		c-0.76,0.39-1.65,0.39-2.41,0l-15.62-9c-0.39-0.13-0.59-0.55-0.46-0.94c0.07-0.22,0.24-0.39,0.46-0.46l13.47-7.82
		c0.76-0.39,1.65-0.39,2.41,0L78.11,118.65z"/>
	<path class="st33" d="M52.46,109.74l-2.67,1.45c-0.95,4.32-0.41,7.4,1.58,9.48c2.87,3,8.83,5.25,14.38,4
		c4.12-0.94,7.28-5.3,12.07-8.72l4.24-2.16c0.29-4.39,0-5.81-2.07-6.5c-3.83-1.32-10.39,2.12-15.4,4.57L52.46,109.74z"/>
	<path class="st24" d="M68.79,75.69C69.2,75.15,69.87,75,71,74.01c0.76-0.82,1.36-1,1.71-0.87s0.49,0.33,0,1.07l-1.27,1.58L73,75.68
		l0.88-0.32l1.91-2c0.58-0.67,0.88-0.23,1.53,0.48c0.94,0.87-0.34,2.21-1.49,3.84c-1.17,1.28-0.94,1.52-2.63,1.7l-2.63,0.28l-1,1.53
		l-2.78-1.88c0.4-0.41,0.77-0.85,1.1-1.32C68.37,77.09,68.26,76.41,68.79,75.69z"/>
	<path class="st36" d="M61.91,90.28l5.18-12.09c1.29-0.59,3.63,1.26,3.93,2.2c-1.21,5.8-2.79,11.51-4.73,17.11
		c-0.77,1.89-1.68,2-3.59,1.34C59.4,97.7,60.68,93.5,61.91,90.28z"/>
	<path class="st36" d="M62.45,81.05c4.8,2.77,7.42,5.74,5.87,6.65s-6.71-0.61-11.5-3.38s-7.42-5.74-5.86-6.65
		S57.66,78.28,62.45,81.05z"/>
	<path class="st24" d="M54.67,71.5c0.62,5.22,0.71,4.13-0.56,9.39l6.78,3.17c-0.57-7.39,0.23-8.12,2.3-15.17L54.67,71.5z"/>
	<circle class="st4" cx="60.81" cy="71.3" r="7.26"/>
	<path class="st37" d="M65.6,73.42c-0.06-0.83-0.78-1.46-1.61-1.4c-0.24,0.02-0.48,0.09-0.69,0.22c-0.58,0.53-0.78,1.35-0.51,2.09
		c0.27,0.72,0.68,1.38,1.21,1.94c-2.31,1.54-4.8,2.8-7.41,3.73l-3.25-4.71c-0.53-0.68-0.94-1.45-1.22-2.27
		c-0.4-2.35,0.14-4.77,1.51-6.73c1.76-2,4.27-3.19,6.94-3.27c2.13-0.17,4.71,1.3,6.09,3C68.47,68.17,66.45,71.07,65.6,73.42z"/>
	<path class="st38" d="M54.64,77.97c1.83,1.17,4.08,1.45,6.14,0.79l0.56,1.68c-1.66,2.31-7.33,2.16-7.2-0.67L54.64,77.97z"/>
	<path class="st36" d="M54.1,79.59c-1.25-0.58-1.56-2.11-2.77-2c-0.41,0.1-0.8,0.28-1.15,0.52c-1.43,0.75-2.51,3-2.83,5.5
		c-1.09,8.56,2.77,9.74,2.33,20.23c-0.08,1.95-0.64,7.46-1.15,11.12c0.32,1.52,1.87,2.92,3.48,4l0.67-7.16l0.79,8.11
		c1.12,1.09,2.46,1.94,3.93,2.47c2.85,1.31,10.57,3,10.51-0.35c-0.08-4.75-1-9.6-0.59-15.35c0.57-8.44,2.59-16.43,1.83-18.28
		c-0.66-1.96-1.9-3.67-3.56-4.9c-1.92-1.34-2.51-2-4.35-3.31C57.66,81.92,54.48,80.74,54.1,79.59z"/>
	<path class="st24" d="M78.42,96.5c1.25-0.91,2.3-2.07,3.09-3.4c0.45-0.71,1.08-1.29,1.81-1.7c1-0.6,3.43-0.2,5.49-0.55
		c0.81-0.19,1.61,0.31,1.8,1.12c0.03,0.12,0.04,0.24,0.04,0.36c0.11,1.25-1.4,2-2.47,3c-0.8,0.8-1.72,1.47-2.72,2
		c-0.86,0.45-2,0.72-2.85,1.17l-2.13,1.55l-1.92-3.34l0.06-0.06L78.42,96.5z"/>
	<path class="st36" d="M68.92,101.66l10.71-6.67c1.45,0.95,2.62,2.27,3.38,3.83c-4.77,4.06-9.78,7.82-15,11.27
		c-1.77,1-2.54,0.55-3.66-1.13C62.41,106.02,65.96,103.5,68.92,101.66z"/>
	<path class="st36" d="M67.31,84.98c1.64,1.42,1.76,1.8,2.11,2.81c1.05,3.08,0.57,9.45,0.65,14.71c-0.23,4.33,0.73,6.94-3.53,7.29
		c-2,0.27-2.56-0.47-3-2.44l-2.52-12.74C60.4,87.16,65.09,83.98,67.31,84.98z"/>
	<path class="st21" d="M62.25,110.04v8.39c0.01,0.09,0.01,0.18,0,0.27l0,0c-0.01,0.07-0.03,0.14-0.07,0.21l0,0l-0.07,0.11
		c-0.05,0.07-0.11,0.14-0.19,0.18l1.87-1.07c0.07-0.05,0.14-0.12,0.19-0.19l0,0c0-0.03,0-0.05,0-0.08l0,0c0-0.02,0-0.04,0-0.06
		v-0.06c0,0,0,0,0-0.07l0,0l0,0l0,0l0,0v-0.18l0,0v-8.39L62.25,110.04z"/>
	<path class="st23" d="M61.51,108.33L61.51,108.33c0.07,0.08,0.14,0.16,0.2,0.24l0,0c0.07,0.09,0.12,0.18,0.18,0.27l0,0
		c0.05,0.09,0.1,0.18,0.14,0.28l0,0c0,0.1,0.08,0.2,0.11,0.3l0,0c0,0.1,0,0.2,0.07,0.3l0,0c0,0.1,0,0.2,0,0.29l1.87-1.08v-0.06
		c0-0.02,0-0.03,0-0.05v-0.06c0,0,0,0,0-0.06v-0.06l0,0l0,0c0-0.02,0-0.05,0-0.07v-0.07c0,0,0,0,0-0.06l0,0l0,0v-0.06v-0.06
		c0-0.02,0-0.04,0-0.06v-0.06l0,0l0,0v-0.06v-0.06c0.01-0.02,0.01-0.05,0-0.07c0-0.03,0-0.05,0-0.08l0,0l0,0l-0.09-0.14l-0.4-0.29
		l0,0l-0.06-0.07v-0.06v-0.06c0,0,0,0-0.05,0l0,0l0,0l0,0l0,0h-0.06l0,0l0,0l0,0l0,0h-0.06l0,0h-0.05l0,0l-15.61-9l0,0l0,0h-0.05
		l0,0h-0.5h-0.08h-0.09l-1.87,1.08c0.06-0.03,0.12-0.05,0.18-0.06l0,0c0.07-0.02,0.14-0.02,0.21,0l0,0c0.07-0.01,0.15-0.01,0.22,0
		l0,0c0.09,0.02,0.17,0.06,0.24,0.11l15.62,9l0.24,0.17l0,0L61.51,108.33z"/>
	<path class="st22" d="M61.05,107.95l-15.62-9c-0.67-0.39-1.21-0.07-1.21,0.69v8.39c0.05,0.85,0.5,1.63,1.21,2.09l15.61,9
		c0.67,0.38,1.22,0.07,1.22-0.7v-8.39C62.21,109.18,61.76,108.41,61.05,107.95z"/>
	<path class="st29" d="M57.02,128.76v-16.07l-1.54-0.89v16.07c-0.02,0.65,0.14,1.29,0.47,1.85c0.17,0.26,0.4,0.49,0.67,0.65
		l1.54,0.89C57.35,130.7,56.92,129.74,57.02,128.76z"/>
	<polygon class="st23" points="56.97,112.69 55.43,111.8 56.46,111.2 58.01,112.09 	"/>
	<path class="st28" d="M60.93,129.8c-1.58,0.92-2.87,0.18-2.88-1.64V112.1l-1,0.59v16.07c0,2.48,1.76,3.47,3.91,2.23L60.93,129.8z"
		/>
	<path class="st29" d="M47.35,123.06v-16.07l-1.55-0.9l-0.01,16.07c-0.03,0.65,0.14,1.29,0.47,1.85c0.17,0.27,0.4,0.49,0.67,0.65
		l1.54,0.9C47.68,124.99,47.25,124.03,47.35,123.06z"/>
	<polygon class="st23" points="47.31,106.99 45.77,106.09 46.8,105.49 48.34,106.39 	"/>
	<path class="st28" d="M51.26,124.1c-1.58,0.91-2.87,0.18-2.87-1.64l-0.05-16.07l-1,0.6v16.07c0,2.47,1.77,3.47,3.92,2.23V124.1z"/>
	<path class="st24" d="M122.57,64.61c-1.59,3.4,0.27,11.7,0.95,15.72l3,0.62c0-0.2,0.61-0.63,0.62-0.84
		c0.2-4.19,0.74-10.4,0.07-14.14c-0.28-1.55-1.29-2.78-2.44-2.74C123.85,63.3,123.03,63.82,122.57,64.61z"/>
	<polygon class="st39" points="110.07,69.9 97.96,63.12 103.92,77.14 116.02,83.92 	"/>
	<circle class="st4" cx="112.85" cy="76.93" r="2.83"/>
	<circle class="st4" cx="101.25" cy="69.47" r="2.83"/>
	<path class="st24" d="M125.16,77.71c-3.48-0.78-6.47-1.31-10.19-2.08c-0.06,0.88-0.08,1.77-0.05,2.65
		c3.09,1.19,5.79,2.39,9.14,3.37c1.78,0.52,2.72-0.32,3-1.25S126.95,78.12,125.16,77.71z"/>
	<path class="st13" d="M122.37,64.5c-0.77,1.64-0.83,5.14-0.53,8l6.12-0.33c-0.03-2.06-0.22-4.12-0.57-6.15
		c-0.29-1.59-1.4-3.15-2.58-3.11C123.79,63.03,122.89,63.62,122.37,64.5z"/>
	<path class="st40" d="M102.05,93.71v-1.49c0.33-0.2,11.86-4.77,12.19-4.58l8.21,3c0,1,0.18,2.89-0.53,3.31l-10.46,6.17
		c-0.34,0.19-0.76,0.19-1.1,0l-7.77-4.53C101.87,95.17,102.05,94.39,102.05,93.71z"/>
	<path class="st41" d="M102.59,91.28l10.57-6.07c0.33-0.19,0.75-0.19,1.08,0l7.67,4.43c0.52,0.3,0.69,0.96,0.39,1.48
		c-0.09,0.16-0.23,0.3-0.39,0.39l-10.46,6.17c-0.34,0.2-0.76,0.2-1.1,0l-7.77-4.52c-0.52-0.31-0.69-0.98-0.38-1.49
		C102.29,91.51,102.43,91.37,102.59,91.28z"/>
	<polygon class="st42" points="103.42,92.05 107.84,89.52 115.25,93.87 110.83,96.4 	"/>
	<g class="st43">
		<polygon class="st44" points="103.42,92.05 107.84,89.52 109.23,90.33 109.22,95.45 		"/>
	</g>
	<polygon class="st40" points="111.86,89.5 110.38,88.62 110.38,88.52 111.19,88.16 112.64,88.92 112.64,89.02 	"/>
	<polygon class="st45" points="111.86,89.41 110.38,88.52 111.19,88.06 112.64,88.92 	"/>
	<polygon class="st40" points="113.95,90.72 112.47,89.84 112.47,89.75 113.27,89.38 114.73,90.14 114.73,90.24 	"/>
	<polygon class="st45" points="113.95,90.63 112.47,89.75 113.27,89.29 114.73,90.14 	"/>
	<polygon class="st40" points="115.98,91.93 114.5,91.05 114.5,90.95 115.3,90.59 116.76,91.35 116.76,91.45 	"/>
	<polygon class="st45" points="115.98,91.84 114.5,90.95 115.3,90.5 116.76,91.35 	"/>
	<polygon class="st40" points="113.4,88.68 111.92,87.8 111.92,87.7 112.73,87.34 114.19,88.1 114.19,88.2 	"/>
	<polygon class="st45" points="113.4,88.59 111.92,87.7 112.73,87.25 114.19,88.1 	"/>
	<polygon class="st40" points="115.49,89.91 114.01,89.02 114.01,88.93 114.81,88.56 116.27,89.33 116.27,89.42 	"/>
	<polygon class="st45" points="115.49,89.81 114.01,88.93 114.81,88.47 116.27,89.33 	"/>
	<polygon class="st40" points="117.52,91.11 116.04,90.23 116.04,90.14 116.84,89.77 118.3,90.53 118.3,90.63 	"/>
	<polygon class="st45" points="117.52,91.02 116.04,90.14 116.84,89.68 118.3,90.53 	"/>
	<polygon class="st42" points="106.68,97.2 108.04,98 108.07,97.2 106.71,96.4 	"/>
	<polygon class="st46" points="108.42,98.2 109.78,99 109.81,98.2 108.44,97.4 	"/>
</g>
</svg>
