<svg xmlns="http://www.w3.org/2000/svg" xmlns:xlink="http://www.w3.org/1999/xlink" viewBox="0 0 149.8 145.65"><defs><style>.cls-1,.cls-10,.cls-4{fill:none;}.cls-1,.cls-3{opacity:0.8;}.cls-2{clip-path:url(#clip-path);}.cls-3{fill:#f5ad1f;}.cls-11,.cls-12,.cls-13,.cls-14,.cls-15,.cls-16,.cls-17,.cls-18,.cls-5,.cls-6,.cls-7,.cls-9{stroke:#f5ad20;stroke-width:1.19px;}.cls-5{fill:url(#linear-gradient);}.cls-6{fill:url(#linear-gradient-2);}.cls-7{fill:url(#linear-gradient-3);}.cls-8{fill:url(#linear-gradient-4);}.cls-9{fill:url(#linear-gradient-5);}.cls-10{stroke:#eaeaea;stroke-miterlimit:10;stroke-width:3.92px;}.cls-11{fill:url(#linear-gradient-6);}.cls-12{fill:url(#linear-gradient-7);}.cls-13{fill:url(#linear-gradient-8);}.cls-14{fill:url(#linear-gradient-9);}.cls-15{fill:url(#linear-gradient-10);}.cls-16{fill:url(#linear-gradient-11);}.cls-17{fill:url(#linear-gradient-12);}.cls-18{fill:url(#linear-gradient-13);}</style><clipPath id="clip-path" transform="translate(-0.98 -5.13)"><circle class="cls-1" cx="77.95" cy="77.95" r="70.87"/></clipPath><linearGradient id="linear-gradient" x1="-27.69" y1="122.54" x2="122.54" y2="-27.69" gradientUnits="userSpaceOnUse"><stop offset="0" stop-color="#fff"/><stop offset="1" stop-color="#ebebeb"/></linearGradient><linearGradient id="linear-gradient-2" x1="-47.38" y1="102.86" x2="102.86" y2="-47.38" xlink:href="#linear-gradient"/><linearGradient id="linear-gradient-3" x1="-2784.24" y1="1354.2" x2="-2646.88" y2="1216.85" gradientTransform="matrix(0, -0.35, -0.35, 0, 456.44, -857.17)" xlink:href="#linear-gradient"/><linearGradient id="linear-gradient-4" x1="-23.08" y1="127.16" x2="127.16" y2="-23.08" xlink:href="#linear-gradient"/><linearGradient id="linear-gradient-5" x1="-2741.06" y1="1347.71" x2="-2629.1" y2="1235.74" gradientTransform="matrix(0, -0.35, -0.35, 0, 456.44, -857.17)" xlink:href="#linear-gradient"/><linearGradient id="linear-gradient-6" x1="-2584.92" y1="1341.28" x2="-2447.57" y2="1203.93" gradientTransform="matrix(0, -0.35, -0.35, 0, 527.19, -857.17)" xlink:href="#linear-gradient"/><linearGradient id="linear-gradient-7" x1="-2858.16" y1="1480.11" x2="-2720.81" y2="1342.75" gradientTransform="matrix(0, -0.35, -0.35, 0, 527.19, -857.17)" xlink:href="#linear-gradient"/><linearGradient id="linear-gradient-8" x1="-2852.22" y1="1348.7" x2="-2714.86" y2="1211.34" gradientTransform="matrix(0, -0.35, -0.35, 0, 527.19, -857.17)" xlink:href="#linear-gradient"/><linearGradient id="linear-gradient-9" x1="-2613.88" y1="1449.68" x2="-2476.52" y2="1312.33" gradientTransform="matrix(0, -0.35, -0.35, 0, 527.19, -857.17)" xlink:href="#linear-gradient"/><linearGradient id="linear-gradient-10" x1="-2824.49" y1="1439.07" x2="-2687.13" y2="1301.71" gradientTransform="matrix(0, -0.35, -0.35, 0, 597.79, -857.17)" xlink:href="#linear-gradient"/><linearGradient id="linear-gradient-11" x1="-2580.19" y1="1408.65" x2="-2442.84" y2="1271.3" gradientTransform="matrix(0, -0.35, -0.35, 0, 597.79, -857.17)" xlink:href="#linear-gradient"/><linearGradient id="linear-gradient-12" x1="-2716.87" y1="1409.33" x2="-2579.52" y2="1271.97" gradientTransform="matrix(0, -0.35, -0.35, 0, 597.79, -857.17)" xlink:href="#linear-gradient"/><linearGradient id="linear-gradient-13" x1="-2672.56" y1="1316.29" x2="-2535.2" y2="1178.93" gradientTransform="matrix(0, -0.35, -0.35, 0, 597.79, -857.17)" xlink:href="#linear-gradient"/></defs><title>G03_13_05</title><g id="Mobile"><g class="cls-2"><circle class="cls-3" cx="76.97" cy="72.83" r="70.87"/><path class="cls-4" d="M1,133a3.93,3.93,0,0,1,1.85.41v-.1A4.32,4.32,0,0,0,1,133Z" transform="translate(-0.98 -5.13)"/><path class="cls-4" d="M2.83,23v-.1A4.19,4.19,0,0,1,1,23.31,4.32,4.32,0,0,0,2.83,23Z" transform="translate(-0.98 -5.13)"/><path class="cls-4" d="M1,36.07a3.93,3.93,0,0,1,1.85.41v-.1A4.32,4.32,0,0,0,1,36.07Z" transform="translate(-0.98 -5.13)"/><path class="cls-4" d="M2.83,120v-.1a3.93,3.93,0,0,1-1.85.41A4.32,4.32,0,0,0,2.83,120Z" transform="translate(-0.98 -5.13)"/><path class="cls-5" d="M18.61,85.55c3.48-3.48,3.48-11.28,0-14.75a3.68,3.68,0,0,0-2.87-1,3.56,3.56,0,0,1,2.66,1c3.48,3.47,3.48,11.27,0,14.75a3.6,3.6,0,0,1-2.66,1A3.68,3.68,0,0,0,18.61,85.55Z" transform="translate(-0.98 -5.13)"/><path class="cls-6" d="M35.77,19.86a3.24,3.24,0,0,0,.43-.74A3.24,3.24,0,0,1,35.77,19.86Z" transform="translate(-0.98 -5.13)"/><path class="cls-7" d="M2.83,99.27v3.38l.81-.23S3.25,101.14,2.83,99.27Z" transform="translate(-0.98 -5.13)"/><path class="cls-8" d="M2.83,99.27v3.38l.81-.23S3.25,101.14,2.83,99.27Z" transform="translate(-0.98 -5.13)"/><path class="cls-9" d="M6.52,84.55c2.79,0,6.39,1.93,9.22,2a3.6,3.6,0,0,0,2.66-1c3.48-3.48,3.48-11.28,0-14.75a3.56,3.56,0,0,0-2.66-1c-2.83.07-6.43,2-9.22,2Z" transform="translate(-0.98 -5.13)"/><path class="cls-10" d="M122,22.45c-1.66-1.32-3.38-2.57-5.15-3.73a3.27,3.27,0,0,0,.85,1.48A9,9,0,0,0,122,22.45Z" transform="translate(-0.98 -5.13)"/><path class="cls-11" d="M100.83,37.07c-3.48-3.48-11.28,3.47-14.76,0s-3.48-11.28,0-14.76,11.28,3.48,14.76,0c2.18-2.18,2-7,1.33-11a71.11,71.11,0,0,0-51.32,1.14c-.49,3.7-.47,7.87,1.5,9.84,3.48,3.48,11.28-3.48,14.76,0s3.48,11.28,0,14.76-11.28-3.48-14.76,0c-4,4,0,16.86,0,16.86s12.89-4,16.87,0c3.47,3.48-3.48,11.28,0,14.76s11.27,3.48,14.75,0-3.48-11.28,0-14.76c4-4,16.87,0,16.87,0S104.8,41,100.83,37.07Z" transform="translate(-0.98 -5.13)"/><path class="cls-12" d="M50.78,143.41c-.42-3.57-.33-7.48,1.56-9.37,3.48-3.48,11.28,3.48,14.76,0s3.48-11.28,0-14.76-11.28,3.48-14.76,0c-4-4,0-16.86,0-16.86s-12.89-4-16.86,0c-3.48,3.48,3.47,11.28,0,14.75s-11.28,3.48-14.76,0,3.48-11.27,0-14.75c-2-2-6.12-2-9.81-1.51A71.05,71.05,0,0,0,50.78,143.41Z" transform="translate(-0.98 -5.13)"/><path class="cls-13" d="M100.83,134c-3.48-3.48-11.28,3.48-14.76,0s-3.48-11.28,0-14.76,11.28,3.48,14.76,0c4-4,0-16.86,0-16.86s-12.89,4-16.87,0c-3.48-3.48,3.48-11.28,0-14.76s-11.28-3.48-14.75,0,3.47,11.28,0,14.76c-4,4-16.87,0-16.87,0s-4,12.89,0,16.86c3.48,3.48,11.28-3.48,14.76,0s3.48,11.28,0,14.76-11.28-3.48-14.76,0c-1.89,1.89-2,5.8-1.56,9.37a71,71,0,0,0,51.45,1.14C102.81,140.69,102.92,136.13,100.83,134Z" transform="translate(-0.98 -5.13)"/><path class="cls-14" d="M20.72,53.93c3.48-3.48-3.48-11.28,0-14.75s11.28-3.48,14.76,0-3.48,11.27,0,14.75c4,4,16.86,0,16.86,0s-4-12.89,0-16.86c3.48-3.48,11.28,3.47,14.76,0s3.48-11.28,0-14.76-11.28,3.48-14.76,0c-2-2-2-6.14-1.5-9.84a71,71,0,0,0-40.07,43C14.49,55.92,18.73,55.92,20.72,53.93Z" transform="translate(-0.98 -5.13)"/><path class="cls-15" d="M132.45,102.42c-3.48,3.48,3.48,11.28,0,14.75s-11.28,3.48-14.76,0,3.48-11.27,0-14.75c-4-4-16.86,0-16.86,0s4,12.89,0,16.86c-3.48,3.48-11.28-3.48-14.76,0s-3.48,11.28,0,14.76,11.28-3.48,14.76,0c2.09,2.09,2,6.65,1.4,10.51a71.07,71.07,0,0,0,42.62-43.21C140.73,100.54,134.9,100,132.45,102.42Z" transform="translate(-0.98 -5.13)"/><path class="cls-16" d="M100.83,22.31c-3.48,3.48-11.28-3.48-14.76,0s-3.48,11.28,0,14.76,11.28-3.48,14.76,0c4,4,0,16.86,0,16.86s12.89,4,16.86,0c3.48-3.48-3.48-11.28,0-14.75s11.28-3.48,14.76,0-3.48,11.27,0,14.75c2.48,2.48,8.42,1.87,12.54,1a70.93,70.93,0,0,0-23-32.53,9,9,0,0,1-4.3-2.25,3.27,3.27,0,0,1-.85-1.48,70.87,70.87,0,0,0-14.68-7.39C102.79,15.28,103,20.13,100.83,22.31Z" transform="translate(-0.98 -5.13)"/><path class="cls-17" d="M132.45,53.93c-3.48-3.48,3.48-11.28,0-14.75s-11.28-3.48-14.76,0,3.48,11.27,0,14.75c-4,4-16.86,0-16.86,0s-4,12.89,0,16.87c3.47,3.47,11.27-3.48,14.75,0s3.48,11.27,0,14.75-11.28-3.48-14.75,0c-4,4,0,16.87,0,16.87s12.89-4,16.86,0c3.48,3.48-3.48,11.28,0,14.75s11.28,3.48,14.76,0-3.48-11.27,0-14.75c2.45-2.45,8.28-1.88,12.4-1.08A70.76,70.76,0,0,0,148.47,85c-3.77-1.9-10.69,3.82-13.91.6-3.48-3.48-3.48-11.28,0-14.75,3.23-3.23,10.18,2.53,13.94.58A70.2,70.2,0,0,0,145,55C140.87,55.8,134.93,56.41,132.45,53.93Z" transform="translate(-0.98 -5.13)"/><path class="cls-18" d="M134.56,70.8c-3.48,3.47-3.48,11.27,0,14.75,3.22,3.22,10.14-2.5,13.91-.6.23-2.3.35-4.64.35-7s-.12-4.4-.32-6.57C144.74,73.33,137.79,67.57,134.56,70.8Z" transform="translate(-0.98 -5.13)"/></g><circle class="cls-10" cx="76.97" cy="72.83" r="70.87"/></g></svg>