<svg id="Livello_1" data-name="Livello 1" xmlns="http://www.w3.org/2000/svg" xmlns:xlink="http://www.w3.org/1999/xlink" viewBox="0 0 188.58 171.74"><defs><style>.cls-1{fill:none;}.cls-2{fill:#93a18b;}.cls-3{fill:#bec6b9;}.cls-4{fill:#9fae97;}.cls-5{isolation:isolate;}.cls-6{clip-path:url(#clip-path);}.cls-7{fill:#464545;}.cls-8{fill:#444443;}.cls-9{fill:#414142;}.cls-10{fill:#40403f;}.cls-11{fill:#3e3e3d;}.cls-12{fill:#3d3d3b;}.cls-13{fill:#3b3a3a;}.cls-14{fill:#393938;}.cls-15{fill:#383736;}.cls-16{fill:#353535;}.cls-17{fill:#343433;}.cls-18{fill:#333332;}.cls-19{fill:#313131;}.cls-20{fill:#2e2f2f;}.cls-21{fill:#2d2e2d;}.cls-22{fill:#2f2f2e;}.cls-23{clip-path:url(#clip-path-2);}.cls-24{clip-path:url(#clip-path-3);}.cls-25{fill:#a2bfbf;}.cls-26{fill:#9ebab9;}.cls-27{fill:#9bb6b4;}.cls-28{fill:#95b1af;}.cls-29{fill:#91acab;}.cls-30{fill:#8da7a7;}.cls-31{fill:#89a3a1;}.cls-32{fill:#879f9d;}.cls-33{fill:#819998;}.cls-34{fill:#7d9494;}.cls-35{fill:#4b4b4a;}.cls-36{clip-path:url(#clip-path-4);}.cls-37{clip-path:url(#clip-path-5);}.cls-38{fill:#6a7d7b;}.cls-39{fill:#6d8180;}.cls-40{fill:#b0cecc;}.cls-41{fill:#009fe3;}.cls-42{clip-path:url(#clip-path-6);}.cls-43{fill:#6d8280;}.cls-44{fill:#728686;}.cls-45{fill:#758b89;}.cls-46{fill:#7a8f8f;}.cls-47{fill:#b3b7b7;}.cls-48{fill:#261c35;}.cls-49{fill:#434342;}.cls-50{fill:#dce0e0;}.cls-51{fill:#36a9e1;}.cls-52{fill:#c4cfdb;}.cls-53{fill:#e5effb;}.cls-54{fill:#48515c;}.cls-55{fill:#888e9e;}.cls-56{fill:#48515d;}.cls-57{fill:#606470;}.cls-58{fill:#2f343c;}.cls-59{fill:#3c3c3b;}.cls-60{fill:#dadada;}.cls-61{fill:#f6f6f6;}.cls-62{fill:#c6c6c6;}.cls-63{fill:#1d1d1b;}</style><clipPath id="clip-path" transform="translate(-21.63 -33.04)"><path class="cls-1" d="M80.84,68.29l1.28-.74a.35.35,0,0,1-.17-.27L80.68,68A.34.34,0,0,0,80.84,68.29Z"/></clipPath><clipPath id="clip-path-2" transform="translate(-21.63 -33.04)"><path class="cls-1" d="M82.07,43.08l-1.27.74a.11.11,0,0,0,0,.1L82,43.18A.11.11,0,0,1,82.07,43.08Z"/></clipPath><clipPath id="clip-path-3" transform="translate(-21.63 -33.04)"><path class="cls-1" d="M82.07,43.08l-1.27.74a.09.09,0,0,1,.11,0l1.28-.74A.11.11,0,0,0,82.07,43.08Z"/></clipPath><clipPath id="clip-path-4" transform="translate(-21.63 -33.04)"><path class="cls-1" d="M115.86,88.46l1.28-.74s-.07,0-.12,0l-1.27.74A.11.11,0,0,0,115.86,88.46Z"/></clipPath><clipPath id="clip-path-5" transform="translate(-21.63 -33.04)"><path class="cls-1" d="M115.86,88.46l1.28-.74a.11.11,0,0,0,0-.1l-1.27.74A.11.11,0,0,1,115.86,88.46Z"/></clipPath><clipPath id="clip-path-6" transform="translate(-21.63 -33.04)"><path class="cls-1" d="M116,64.26l1.27-.74a.36.36,0,0,0-.16-.28l-1.27.74A.36.36,0,0,1,116,64.26Z"/></clipPath></defs><title>G03_01_03</title><polygon class="cls-2" points="188.58 55.11 188.58 59.86 99.11 112.64 99.11 107.89 188.58 55.11"/><polygon class="cls-3" points="99.11 107.89 99.11 112.64 3.01 56.9 3.01 52.16 99.11 107.89"/><polygon class="cls-4" points="98.89 107.9 2.79 52.17 2.79 51.91 93.1 0 188.58 55.13 99.04 107.99 98.89 107.9"/><g class="cls-5"><g class="cls-6"><g class="cls-5"><path class="cls-7" d="M80.84,68.29l1.28-.74-.06,0-1.27.74,0,0" transform="translate(-21.63 -33.04)"/><path class="cls-8" d="M80.79,68.25l1.27-.74v0l-1.28.74,0,0" transform="translate(-21.63 -33.04)"/><path class="cls-9" d="M80.77,68.23l1.28-.74h0l-1.27.74h0" transform="translate(-21.63 -33.04)"/><path class="cls-10" d="M80.76,68.22,82,67.48v0l-1.27.74v0" transform="translate(-21.63 -33.04)"/><path class="cls-11" d="M80.75,68.2,82,67.46h0l-1.27.74h0" transform="translate(-21.63 -33.04)"/><path class="cls-12" d="M80.74,68.19,82,67.45h0l-1.27.74h0" transform="translate(-21.63 -33.04)"/><path class="cls-13" d="M80.73,68.18,82,67.44v0l-1.28.74v0" transform="translate(-21.63 -33.04)"/><path class="cls-14" d="M80.72,68.16,82,67.42h0l-1.28.74h0" transform="translate(-21.63 -33.04)"/><path class="cls-15" d="M80.71,68.15,82,67.41v0l-1.27.74v0" transform="translate(-21.63 -33.04)"/><path class="cls-16" d="M80.71,68.13,82,67.39h0l-1.28.74h0" transform="translate(-21.63 -33.04)"/><path class="cls-17" d="M80.7,68.12,82,67.38v0l-1.27.74v0" transform="translate(-21.63 -33.04)"/><path class="cls-18" d="M80.7,68.1,82,67.36h0l-1.28.74h0" transform="translate(-21.63 -33.04)"/><path class="cls-19" d="M80.69,68.09,82,67.35v0l-1.27.74v0" transform="translate(-21.63 -33.04)"/><path class="cls-20" d="M80.69,68.07,82,67.33v0l-1.28.74v0" transform="translate(-21.63 -33.04)"/><path class="cls-21" d="M80.68,68.05,82,67.31s0,0,0,0L80.68,68v0" transform="translate(-21.63 -33.04)"/></g></g></g><polygon class="cls-22" points="59.05 34.98 60.33 34.24 60.4 10.14 59.12 10.88 59.05 34.98"/><g class="cls-5"><g class="cls-23"><g class="cls-5"><path class="cls-21" d="M80.75,43.92,82,43.18a.11.11,0,0,1,0-.1l-1.27.74a.11.11,0,0,0,0,.1" transform="translate(-21.63 -33.04)"/></g></g></g><g class="cls-5"><g class="cls-24"><g class="cls-5"><path class="cls-25" d="M80.91,43.83l1.28-.74h0l-1.27.74h0" transform="translate(-21.63 -33.04)"/><path class="cls-26" d="M80.89,43.82l1.27-.74h0l-1.27.74h0" transform="translate(-21.63 -33.04)"/><path class="cls-27" d="M80.87,43.81l1.27-.74h0l-1.27.74h0" transform="translate(-21.63 -33.04)"/><path class="cls-28" d="M80.86,43.81l1.27-.74h0l-1.28.74h0" transform="translate(-21.63 -33.04)"/><polyline class="cls-29" points="59.22 10.77 60.49 10.03 60.48 10.03 59.21 10.77 59.22 10.77"/><polyline class="cls-30" points="59.21 10.77 60.48 10.03 60.47 10.03 59.2 10.77 59.21 10.77"/><polyline class="cls-31" points="59.2 10.77 60.47 10.03 60.46 10.03 59.19 10.77 59.2 10.77"/><polyline class="cls-32" points="59.19 10.77 60.46 10.03 60.45 10.04 59.18 10.78 59.19 10.77"/><polyline class="cls-33" points="59.18 10.78 60.45 10.04 60.44 10.04 59.17 10.78 59.18 10.78"/><polyline class="cls-34" points="59.17 10.78 60.44 10.04 60.44 10.04 59.17 10.78 59.17 10.78"/></g></g></g><polygon class="cls-35" points="94.12 55.41 95.39 54.67 60.49 34.52 59.22 35.26 94.12 55.41"/><g class="cls-5"><g class="cls-36"><g class="cls-5"><polyline class="cls-16" points="94.24 55.42 95.51 54.68 95.51 54.68 94.24 55.42 94.24 55.42"/><polyline class="cls-15" points="94.24 55.42 95.51 54.68 95.5 54.68 94.23 55.42 94.24 55.42"/><polyline class="cls-14" points="94.23 55.42 95.5 54.68 95.49 54.69 94.22 55.43 94.23 55.42"/><polyline class="cls-13" points="94.22 55.43 95.49 54.69 95.48 54.69 94.21 55.43 94.22 55.43"/><polyline class="cls-12" points="94.21 55.43 95.48 54.69 95.47 54.69 94.2 55.43 94.21 55.43"/><polyline class="cls-11" points="94.2 55.43 95.47 54.69 95.46 54.69 94.19 55.43 94.2 55.43"/><path class="cls-10" d="M115.82,88.47l1.27-.74h0l-1.28.74h0" transform="translate(-21.63 -33.04)"/><path class="cls-9" d="M115.8,88.47l1.28-.74h0l-1.27.74h0" transform="translate(-21.63 -33.04)"/><path class="cls-8" d="M115.79,88.46l1.27-.74h0l-1.27.74h0" transform="translate(-21.63 -33.04)"/><path class="cls-7" d="M115.77,88.46l1.27-.74h0l-1.27.74h0" transform="translate(-21.63 -33.04)"/></g></g></g><g class="cls-5"><g class="cls-37"><g class="cls-5"><path class="cls-38" d="M115.86,88.46l1.28-.74a.11.11,0,0,0,0-.1l-1.27.74a.11.11,0,0,1,0,.1" transform="translate(-21.63 -33.04)"/></g></g></g><polygon class="cls-39" points="94.28 55.32 95.56 54.58 95.63 30.48 94.35 31.23 94.28 55.32"/><polygon class="cls-40" points="94.19 30.94 95.46 30.2 60.56 10.05 59.28 10.79 94.19 30.94"/><path class="cls-41" d="M80.91,43.83c-.09,0-.16,0-.16.09L80.68,68a.34.34,0,0,0,.16.27l34.91,20.16c.09,0,.16,0,.16-.09l.07-24.1a.36.36,0,0,0-.16-.28Z" transform="translate(-21.63 -33.04)"/><g class="cls-5"><g class="cls-42"><g class="cls-5"><path class="cls-38" d="M116,64.26l1.27-.74v0l-1.27.74v0" transform="translate(-21.63 -33.04)"/><path class="cls-43" d="M116,64.23l1.27-.74v0l-1.28.74v0" transform="translate(-21.63 -33.04)"/><path class="cls-44" d="M116,64.21l1.28-.74v0l-1.27.74v0" transform="translate(-21.63 -33.04)"/><path class="cls-45" d="M116,64.19l1.27-.74v0l-1.28.74v0" transform="translate(-21.63 -33.04)"/><path class="cls-46" d="M116,64.17l1.28-.74h0l-1.27.74h0" transform="translate(-21.63 -33.04)"/><path class="cls-34" d="M116,64.16l1.27-.74v0l-1.28.74v0" transform="translate(-21.63 -33.04)"/><path class="cls-33" d="M116,64.14l1.28-.74h0l-1.27.74h0" transform="translate(-21.63 -33.04)"/><path class="cls-32" d="M116,64.13l1.27-.74h0l-1.27.74h0" transform="translate(-21.63 -33.04)"/><path class="cls-31" d="M115.94,64.12l1.27-.74v0l-1.27.74v0" transform="translate(-21.63 -33.04)"/><path class="cls-30" d="M115.93,64.1l1.27-.74h0l-1.28.74h0" transform="translate(-21.63 -33.04)"/><path class="cls-29" d="M115.92,64.09l1.28-.74v0l-1.28.74v0" transform="translate(-21.63 -33.04)"/><path class="cls-28" d="M115.91,64.07l1.28-.74h0l-1.28.74h0" transform="translate(-21.63 -33.04)"/><path class="cls-27" d="M115.9,64.06l1.28-.74,0,0-1.27.74v0" transform="translate(-21.63 -33.04)"/><path class="cls-26" d="M115.89,64l1.27-.74,0,0-1.27.74,0,0" transform="translate(-21.63 -33.04)"/><path class="cls-25" d="M115.87,64l1.27-.74,0,0-1.27.74.05,0" transform="translate(-21.63 -33.04)"/></g></g></g><path class="cls-47" d="M119.15,64.27v0s0,0,0,0l0-.17s0-.05,0-.07v0l0-.11a.29.29,0,0,0,0-.09.14.14,0,0,0,0-.06.31.31,0,0,0,0-.08.25.25,0,0,1,0-.07,1,1,0,0,0,0-.1.64.64,0,0,1,0-.07l0,0a1.46,1.46,0,0,0-.07-.19h0v0l-.06-.15,0-.05,0-.07,0-.06-.08-.13,0,0h0l-.11-.18,0,0,0-.06-.06-.09,0-.05-.06-.08,0-.06,0-.06-.08-.1,0,0,0,0-.14-.15,0,0,0,0-.29-.26-.06,0L117.1,61,82.19,40.88l-.26-.13h0l-.05,0-.15,0,0,0h0l-.09,0H81l-.06,0-.06,0h0l-.11,0h0l-1.27.74h0l.13-.07h0l.11,0h0l.15,0h.34l.09,0,.09,0,.14.05.09,0,.26.13,34.9,20.15.33.22,0,0,.29.26.07.07.14.15.08.09a.39.39,0,0,1,.08.1l.1.12.06.08.1.14,0,.06.13.22,0,0,.1.19,0,.06a2,2,0,0,1,.1.21v0c0,.08.07.16.09.23l0,.07a1.09,1.09,0,0,1,0,.17l0,.08a.83.83,0,0,1,0,.15l0,.11s0,.08,0,.11l0,.17a.28.28,0,0,0,0,.09c0,.12,0,.24,0,.36l-.07,24.1a1.46,1.46,0,0,1-.6,1.33l1.27-.74a1.46,1.46,0,0,0,.61-1.33l.07-24.1A2.19,2.19,0,0,0,119.15,64.27Z" transform="translate(-21.63 -33.04)"/><path class="cls-48" d="M115.82,61.77a4.58,4.58,0,0,1,2.08,3.6l-.07,24.1c0,1.32-.94,1.85-2.09,1.19L80.84,70.5a4.55,4.55,0,0,1-2.08-3.6l.07-24.09c0-1.32.94-1.85,2.09-1.19ZM80.68,68a.34.34,0,0,0,.16.27l34.91,20.16c.09,0,.16,0,.16-.09l.07-24.1a.36.36,0,0,0-.16-.28L80.91,43.83c-.09,0-.16,0-.16.09L80.68,68" transform="translate(-21.63 -33.04)"/><polygon class="cls-20" points="90.51 56.55 90.5 58.02 59.67 40.22 59.67 38.75 90.51 56.55"/><polygon class="cls-49" points="91.4 56.03 91.4 57.5 90.5 58.02 90.51 56.55 91.4 56.03"/><polygon class="cls-35" points="91.4 56.03 90.51 56.55 59.67 38.75 60.57 38.23 91.4 56.03"/><path class="cls-50" d="M114.67,90l-1.64-1-.9.52L81.3,71.79l.9-.52L79.84,69.9a4.7,4.7,0,0,0-4.23,0L54.85,82a1.3,1.3,0,0,0,0,2.45L89.7,104.53a4.7,4.7,0,0,0,4.23,0l20.76-12.06A1.3,1.3,0,0,0,114.67,90Z" transform="translate(-21.63 -33.04)"/><path class="cls-47" d="M66.52,78.22l11.53-6.7a1.79,1.79,0,0,1,.58-.18h.21a2,2,0,0,1,.42,0l.1,0a.67.67,0,0,1,.18.07l.09,0,32,18.48c.38.22.43.56.14.81a.5.5,0,0,1-.14.1l-11.53,6.71a1.46,1.46,0,0,1-.58.17h-.1a1.87,1.87,0,0,1-.53,0l-.1,0a1.31,1.31,0,0,1-.27-.12l-32-18.47a.58.58,0,0,1-.32-.46.37.37,0,0,1,.08-.24l0-.06A.83.83,0,0,1,66.52,78.22Z" transform="translate(-21.63 -33.04)"/><path class="cls-35" d="M72.05,81.51l0,0L74,80.41c.1-.06.1-.15,0-.2l-1.74-1a.39.39,0,0,0-.35,0L70,80.29c-.1,0-.11.14,0,.2l1.74,1a.11.11,0,0,0,.08,0h.09l.14,0" transform="translate(-21.63 -33.04)"/><path class="cls-35" d="M74.75,83.11a.2.2,0,0,0,.08,0L76.69,82a.12.12,0,0,0,.07-.07.06.06,0,0,0,0-.06,0,0,0,0,0,0,0,.12.12,0,0,0,0,0l-1.74-1a.36.36,0,0,0-.35,0l-1.86,1.08c-.09,0-.1.13,0,.18l0,0,1.74,1,.08,0a.38.38,0,0,0,.15,0h0" transform="translate(-21.63 -33.04)"/><path class="cls-35" d="M77.23,84.66a.39.39,0,0,0,.35,0l1.86-1.08c.09-.06.1-.15,0-.2l-1.74-1a.43.43,0,0,0-.35,0l-1.86,1.08c-.09.06-.1.15,0,.21l1.74,1" transform="translate(-21.63 -33.04)"/><path class="cls-35" d="M103.58,88.61c.1,0,.1-.14,0-.2l-1.74-1a.39.39,0,0,0-.35,0l-1.5.88c-.1,0-.1.14,0,.2l1.74,1a.36.36,0,0,0,.35,0l1.5-.88" transform="translate(-21.63 -33.04)"/><path class="cls-35" d="M104.24,89l-1.5.87c-.1.06-.1.15,0,.2l1.74,1a.39.39,0,0,0,.35,0l1.51-.87c.09-.06.1-.15,0-.2l-1.74-1a.39.39,0,0,0-.35,0" transform="translate(-21.63 -33.04)"/><path class="cls-35" d="M92.78,85.36c.1-.06.1-.15,0-.2l-1.74-1a.39.39,0,0,0-.35,0L89.19,85c-.1.06-.1.15,0,.2l1.74,1a.37.37,0,0,0,.34,0l1.51-.87" transform="translate(-21.63 -33.04)"/><path class="cls-35" d="M93.44,85.74l-1.5.87c-.1.06-.11.15,0,.21l1.74,1a.39.39,0,0,0,.35,0l1.5-.88a.11.11,0,0,0,0-.2l-1.74-1a.36.36,0,0,0-.35,0" transform="translate(-21.63 -33.04)"/><path class="cls-35" d="M90,83.77c.09,0,.1-.14,0-.2l-1.74-1a.36.36,0,0,0-.35,0l-1.5.88c-.1,0-.1.14,0,.2l1.74,1a.36.36,0,0,0,.35,0L90,83.77" transform="translate(-21.63 -33.04)"/><path class="cls-35" d="M87.29,82.19c.1-.06.1-.15,0-.2l-1.74-1a.39.39,0,0,0-.35,0l-1.51.87c-.09.06-.1.15,0,.2l1.74,1a.39.39,0,0,0,.35,0l1.5-.87" transform="translate(-21.63 -33.04)"/><path class="cls-35" d="M84.55,80.61c.1-.06.1-.15,0-.21l-1.75-1a.39.39,0,0,0-.35,0l-1.5.88c-.1,0-.1.14,0,.2l1.74,1a.36.36,0,0,0,.35,0l1.51-.87" transform="translate(-21.63 -33.04)"/><path class="cls-35" d="M81.27,81.67l-1.51.87c-.09.06-.1.15,0,.2l1.74,1a.39.39,0,0,0,.35,0l1.5-.87c.1-.06.1-.15,0-.2l-1.74-1a.39.39,0,0,0-.35,0" transform="translate(-21.63 -33.04)"/><path class="cls-35" d="M82.51,84.13c-.1.05-.1.14,0,.2l1.74,1a.36.36,0,0,0,.35,0l1.51-.87c.09-.06.1-.15,0-.21l-1.74-1a.39.39,0,0,0-.35,0l-1.5.88" transform="translate(-21.63 -33.04)"/><path class="cls-35" d="M85.25,85.71c-.1.06-.1.15,0,.2l1.75,1a.39.39,0,0,0,.35,0l1.5-.87c.1-.06.1-.15,0-.2l-1.75-1a.38.38,0,0,0-.26,0,.2.2,0,0,0-.08,0l-1.51.87" transform="translate(-21.63 -33.04)"/><path class="cls-35" d="M88,87.29c-.1.06-.11.15,0,.21l1.74,1a.39.39,0,0,0,.35,0l1.5-.88c.1-.05.1-.14,0-.2l-1.74-1a.36.36,0,0,0-.35,0l-1.5.87" transform="translate(-21.63 -33.04)"/><path class="cls-35" d="M90.74,88.88c-.1.06-.1.15,0,.2l1.74,1a.39.39,0,0,0,.35,0l1.51-.87c.09-.06.1-.15,0-.2l-1.74-1a.43.43,0,0,0-.35,0l-1.5.88" transform="translate(-21.63 -33.04)"/><path class="cls-35" d="M93.43,90.51a.11.11,0,0,0,0,.16l1.74,1,0,0a.32.32,0,0,0,.14,0l.13,0,0,0,1.51-.87c.09-.06.1-.15,0-.21l-1.74-1a.39.39,0,0,0-.35,0l-1.5.88-.06,0" transform="translate(-21.63 -33.04)"/><path class="cls-35" d="M96.76,89.4l1.51-.87c.09-.06.1-.15,0-.21l-1.74-1a.39.39,0,0,0-.35,0l-1.5.88a.11.11,0,0,0,0,.2l1.74,1a.36.36,0,0,0,.35,0" transform="translate(-21.63 -33.04)"/><path class="cls-35" d="M97.42,89.78c-.09.06-.1.15,0,.2l1.74,1a.37.37,0,0,0,.34,0l1.51-.87c.1-.06.1-.15,0-.2l-1.74-1a.39.39,0,0,0-.35,0l-1.51.87" transform="translate(-21.63 -33.04)"/><path class="cls-35" d="M100.84,87a.12.12,0,0,0,.07-.13.13.13,0,0,0-.06-.07l-1.74-1a.36.36,0,0,0-.27,0,.11.11,0,0,0-.08,0l-1.51.87c-.07,0-.09.11-.06.16s0,0,.06,0l1.74,1a.39.39,0,0,0,.35,0l1.5-.87" transform="translate(-21.63 -33.04)"/><path class="cls-35" d="M98.1,85.45c.09-.06.1-.15,0-.21l-1.74-1a.43.43,0,0,0-.35,0l-1.5.88c-.1.06-.1.15,0,.2l1.74,1a.36.36,0,0,0,.35,0l1.51-.87" transform="translate(-21.63 -33.04)"/><path class="cls-35" d="M95.35,83.86a.11.11,0,0,0,0-.2l-1.74-1a.36.36,0,0,0-.35,0l-1.5.87c-.1.06-.11.15,0,.21l1.74,1a.43.43,0,0,0,.35,0l1.5-.88" transform="translate(-21.63 -33.04)"/><path class="cls-35" d="M92.66,82.23s0-.11,0-.15l-1.74-1,0,0a.45.45,0,0,0-.23,0l-.09,0L89,82a.12.12,0,0,0,0,0s0,.11,0,.15l1.74,1a.4.4,0,0,0,.22,0,.33.33,0,0,0,.13,0l1.5-.87s0,0,0,0" transform="translate(-21.63 -33.04)"/><path class="cls-35" d="M89.86,80.69c.1,0,.11-.14,0-.2l-1.74-1a.36.36,0,0,0-.35,0l-1.5.87c-.1.06-.1.15,0,.21l1.74,1a.36.36,0,0,0,.35,0l1.5-.88" transform="translate(-21.63 -33.04)"/><path class="cls-35" d="M87.12,79.11c.1-.06.1-.15,0-.2l-1.74-1a.39.39,0,0,0-.35,0l-1.51.87c-.1.06-.1.15,0,.2l1.74,1a.39.39,0,0,0,.35,0l1.5-.87" transform="translate(-21.63 -33.04)"/><path class="cls-35" d="M84.41,77.5a.09.09,0,0,0,0-.13s0,0-.06-.05l-1.74-1a.39.39,0,0,0-.35,0l-1.5.88c-.1,0-.1.14,0,.2l1.75,1a.34.34,0,0,0,.34,0l1.51-.87,0,0" transform="translate(-21.63 -33.04)"/><path class="cls-35" d="M81.63,75.94c.1,0,.11-.15,0-.2l-1.74-1a.39.39,0,0,0-.35,0l-1.5.87c-.1.06-.1.15,0,.2l1.74,1,0,0a.42.42,0,0,0,.31,0l1.5-.88" transform="translate(-21.63 -33.04)"/><path class="cls-35" d="M80.07,77.81a.39.39,0,0,0-.35,0l-1.5.87c-.1.06-.11.15,0,.21l1.74,1a.39.39,0,0,0,.35,0L81.8,79c.1,0,.11-.15,0-.2l-1.74-1" transform="translate(-21.63 -33.04)"/><path class="cls-35" d="M78.52,80.08,77,81c-.1.06-.1.15,0,.2l1.74,1a.41.41,0,0,0,.36,0l1.5-.87c.1-.06.1-.15,0-.21l-1.74-1a.43.43,0,0,0-.35,0" transform="translate(-21.63 -33.04)"/><path class="cls-35" d="M88.2,91a.39.39,0,0,0,.35,0l1.86-1.08c.1,0,.1-.14,0-.2l-.69-.39-1-.61-1-.58-1.74-1-1-.58-1.74-1L80.45,84a.41.41,0,0,0-.36,0L78.24,85a.11.11,0,0,0,0,.2L81,86.83l1.74,1,1,.58,1.74,1,1,.58,1.06.61.68.4" transform="translate(-21.63 -33.04)"/><path class="cls-35" d="M91,92.58a.39.39,0,0,0,.35,0l1.85-1.08c.1-.06.1-.15,0-.2l-1.74-1a.39.39,0,0,0-.35,0l-1.86,1.07c-.1.06-.1.15,0,.21l1.74,1" transform="translate(-21.63 -33.04)"/><path class="cls-35" d="M93.69,94.17a.39.39,0,0,0,.35,0l1.86-1.08c.09-.06.1-.15,0-.2l-1.74-1a.39.39,0,0,0-.35,0L92,93c-.1.06-.1.15,0,.2l1.74,1" transform="translate(-21.63 -33.04)"/><path class="cls-35" d="M96.43,95.75a.36.36,0,0,0,.35,0l1.86-1.07c.1-.06.1-.15,0-.21l-1.74-1a.39.39,0,0,0-.35,0L94.7,94.54c-.1.06-.1.15,0,.21l1.74,1" transform="translate(-21.63 -33.04)"/><path class="cls-35" d="M101.39,96.25c.09-.06.1-.15,0-.2l-1.74-1a.39.39,0,0,0-.35,0l-1.86,1.08c-.09.05-.1.14,0,.2l1.74,1a.36.36,0,0,0,.35,0l1.86-1.08" transform="translate(-21.63 -33.04)"/><path class="cls-35" d="M104,94.76a.11.11,0,0,0,0-.2L98.2,91.24a.33.33,0,0,0-.29,0l-1.56.91c-.08,0-.09.13,0,.17l5.75,3.32a.39.39,0,0,0,.35,0l1.51-.88" transform="translate(-21.63 -33.04)"/><path class="cls-35" d="M106.5,93.28c.08,0,.1-.13,0-.18s0,0,0,0l-2.74-1.59-.48-.27L102,90.49a.36.36,0,0,0-.35,0l-1.5.88a.12.12,0,0,0-.07.07s0,.09.06.13l.92.53.34.2.48.27,2.74,1.59a.43.43,0,0,0,.23,0,.25.25,0,0,0,.12,0l1.51-.87" transform="translate(-21.63 -33.04)"/><path class="cls-35" d="M109.08,91.78a.11.11,0,0,0,0-.2l-1.73-1a.36.36,0,0,0-.35,0l-1.51.88c-.1.05-.09.14,0,.2l1.73,1a.39.39,0,0,0,.35,0l1.52-.88" transform="translate(-21.63 -33.04)"/><path class="cls-35" d="M109.31,89.43a.43.43,0,0,0-.35,0L108,90c-.1.06-.1.15,0,.2l1.73,1a.36.36,0,0,0,.35,0l.92-.53c.1-.06.1-.15,0-.21l-1.73-1" transform="translate(-21.63 -33.04)"/><path class="cls-35" d="M106.56,87.85a.39.39,0,0,0-.35,0l-.91.53c-.1.06-.1.15,0,.21l1.74,1a.39.39,0,0,0,.35,0l.92-.54c.09,0,.1-.14,0-.2l-1.74-1" transform="translate(-21.63 -33.04)"/><path class="cls-35" d="M103.82,86.26a.39.39,0,0,0-.35,0l-.92.53c-.09.06-.1.15,0,.2l1.74,1a.39.39,0,0,0,.35,0l.91-.53c.1-.06.1-.15,0-.2l-1.74-1" transform="translate(-21.63 -33.04)"/><path class="cls-35" d="M101.08,84.68a.43.43,0,0,0-.35,0l-.92.54c-.1,0-.1.14,0,.2l1.74,1a.36.36,0,0,0,.35,0l.92-.53c.1-.06.1-.15,0-.21l-1.74-1" transform="translate(-21.63 -33.04)"/><path class="cls-35" d="M98.33,83.1a.36.36,0,0,0-.35,0l-.91.53c-.1.06-.1.15,0,.2l1.74,1a.39.39,0,0,0,.35,0l.91-.53c.1,0,.11-.15,0-.2l-1.74-1" transform="translate(-21.63 -33.04)"/><path class="cls-35" d="M95.37,81.48a.2.2,0,0,0-.13,0l-.92.53,0,0c-.06.06-.06.13,0,.18l1.74,1h0a.45.45,0,0,0,.28,0l0,0,.92-.53.06,0,0,0a.1.1,0,0,0-.07-.1l-1.74-1-.08,0a.33.33,0,0,0-.14,0" transform="translate(-21.63 -33.04)"/><path class="cls-35" d="M92.84,79.93a.36.36,0,0,0-.35,0l-.91.53c-.1.06-.1.15,0,.21l1.74,1s0,0,.08,0h.19l.08,0,.92-.54a.12.12,0,0,0,.07-.13.15.15,0,0,0-.07-.07l-1.74-1" transform="translate(-21.63 -33.04)"/><path class="cls-35" d="M89.93,78.3a.35.35,0,0,0-.18,0l-.92.53c-.09.06-.1.15,0,.2l1.74,1,.08,0h.19l.08,0,.91-.53c.1-.06.11-.15,0-.2l-1.74-1a.47.47,0,0,0-.17,0" transform="translate(-21.63 -33.04)"/><path class="cls-35" d="M87.36,76.76a.39.39,0,0,0-.35,0l-.92.54c-.1,0-.1.14,0,.2l1.75,1a.34.34,0,0,0,.34,0l.92-.53c.1-.06.1-.15,0-.21l-1.74-1" transform="translate(-21.63 -33.04)"/><path class="cls-35" d="M84.61,75.17a.39.39,0,0,0-.35,0l-.91.53c-.1.06-.1.15,0,.2l1.74,1a.39.39,0,0,0,.35,0l.92-.53a.11.11,0,0,0,0-.2l-1.74-1" transform="translate(-21.63 -33.04)"/><path class="cls-35" d="M81.87,73.59a.43.43,0,0,0-.35,0l-.92.54a.11.11,0,0,0,0,.2l1.74,1a.39.39,0,0,0,.35,0l.91-.53c.1-.06.1-.15,0-.2l-1.74-1" transform="translate(-21.63 -33.04)"/><path class="cls-35" d="M77.86,72.55c-.1,0-.1.14,0,.2l1.73,1a.43.43,0,0,0,.35,0l.92-.54c.1,0,.1-.14,0-.2l-1.73-1a.36.36,0,0,0-.35,0l-.92.54" transform="translate(-21.63 -33.04)"/><path class="cls-35" d="M75.3,74c-.1.06-.1.15,0,.2l1.73,1a.36.36,0,0,0,.35,0l1.51-.87c.1-.06.1-.15,0-.21l-1.73-1a.43.43,0,0,0-.35,0L75.3,74" transform="translate(-21.63 -33.04)"/><path class="cls-35" d="M72.73,75.53c-.1,0-.1.14,0,.2l1.5.86.24.14,2.75,1.59a.39.39,0,0,0,.35,0l1.5-.87c.1-.06.1-.15,0-.2l-2.75-1.59-.24-.14-1.5-.86a.36.36,0,0,0-.35,0l-1.5.88" transform="translate(-21.63 -33.04)"/><path class="cls-35" d="M70.15,77a.18.18,0,0,0-.07.09.09.09,0,0,0,.06.08l5.75,3.32a.36.36,0,0,0,.35,0l1.51-.88c.07,0,.09-.1,0-.15s0,0,0,0L72,76.11l-.1,0a.44.44,0,0,0-.16,0l0,0-1.56.9" transform="translate(-21.63 -33.04)"/><path class="cls-35" d="M67.26,78.7c-.08,0-.1.13,0,.18a.05.05,0,0,0,0,0l1.74,1a.31.31,0,0,0,.17,0,.32.32,0,0,0,.14,0l0,0,1.85-1.07.06,0s0-.12-.05-.16l-1.74-1a.11.11,0,0,0-.08,0,.41.41,0,0,0-.27,0L67.26,78.7" transform="translate(-21.63 -33.04)"/><path class="cls-47" d="M115.55,91.34a.28.28,0,0,0,0,.09.24.24,0,0,0,0,.08l0,.09,0,.07,0,.09a.43.43,0,0,1,0,.07l-.07.1,0,.06a.86.86,0,0,1-.13.14s0,0,0,.05l-.09.07-.08.07-.11.07-.11.08L93.93,104.53l-.29.14-.08,0-.23.09-.09,0-.15,0-.12,0-.17,0-.11,0-.34.05h-1l-.15,0H91l-.16,0-.12,0-.19,0-.1,0-.32-.11-.05,0a2.93,2.93,0,0,1-.4-.19L54.86,84.42a1.73,1.73,0,0,1-.82-.9,1,1,0,0,1-.06-.34v1.48a1.5,1.5,0,0,0,.88,1.23L89.7,106a3.73,3.73,0,0,0,.4.2h0l.32.11h0l.08,0,.18.05h.13l.16,0h1.31l.34,0h0l.1,0,.16,0,.12,0,.15,0h0l0,0,.24-.09.08,0,.28-.15,20.76-12.06,0,0,.08-.06.1-.07.09-.06.09-.08h0l0,0,.13-.13s0,0,0,0,0,0,0,0l.07-.11,0,0v0l0-.1s0,0,0,0v0a.29.29,0,0,0,0-.09.14.14,0,0,0,0-.06v0a.28.28,0,0,0,0-.09.13.13,0,0,0,0-.06v-1.5S115.55,91.31,115.55,91.34Z" transform="translate(-21.63 -33.04)"/><path class="cls-35" d="M111.57,94.71c.19-.1.34,0,.34.2a.71.71,0,0,1-.34.57l-1.71,1c-.19.11-.34,0-.34-.19a.74.74,0,0,1,.34-.58Z" transform="translate(-21.63 -33.04)"/><path class="cls-35" d="M108.2,96.66c.18-.11.33,0,.33.19a.74.74,0,0,1-.33.58l-1.72,1c-.18.11-.33,0-.33-.19a.76.76,0,0,1,.33-.58Z" transform="translate(-21.63 -33.04)"/><path class="cls-14" d="M113.73,93.39c.21-.12.39,0,.39.22a.84.84,0,0,1-.38.66c-.21.12-.38,0-.39-.22A.86.86,0,0,1,113.73,93.39Z" transform="translate(-21.63 -33.04)"/><path class="cls-51" d="M80.91,43.83c-.09,0-.16,0-.16.09L80.68,68a.34.34,0,0,0,.16.27l7.64,4.41c.09,0,21-12.35,21-12.35Z" transform="translate(-21.63 -33.04)"/><path class="cls-47" d="M87,92.43c.37.21.37.55,0,.76l-5.93,3.44a1.46,1.46,0,0,1-1.32,0L67.47,89.55c-.36-.21-.37-.55,0-.76l5.92-3.44a1.46,1.46,0,0,1,1.32,0Z" transform="translate(-21.63 -33.04)"/><path class="cls-52" d="M164.12,62.75,142.85,50.56a2.53,2.53,0,0,0-2.95.28l-13,7.27V70.82l24,12.35h0l10.62-7.56a2.58,2.58,0,0,0,3.86-2.21l0-8.41A2.55,2.55,0,0,0,164.12,62.75Z" transform="translate(-21.63 -33.04)"/><polygon class="cls-52" points="128.42 36.84 141.85 29.31 121.28 17.57 107.84 25.1 128.42 36.84"/><polygon class="cls-52" points="129.16 50.19 142.76 42.36 122.02 30.91 108.59 38.45 129.16 50.19"/><path class="cls-53" d="M150.89,70.33,129.62,58.14a2.57,2.57,0,0,0-3.85,2.21l0,8.41A2.57,2.57,0,0,0,127,71L148.29,83.2A2.57,2.57,0,0,0,152.14,81l0-8.41A2.57,2.57,0,0,0,150.89,70.33Z" transform="translate(-21.63 -33.04)"/><polygon class="cls-54" points="130.56 41.93 104.15 26.74 104.15 27.2 130.56 42.36 130.56 41.93"/><polygon class="cls-48" points="128.85 43.63 118.45 37.69 118.44 37.91 128.85 43.83 128.85 43.63"/><polygon class="cls-48" points="128.85 45.4 118.45 39.45 118.44 39.69 128.85 45.61 128.85 45.4"/><polygon class="cls-48" points="128.85 47.17 118.45 41.23 118.44 41.47 128.85 47.39 128.85 47.17"/><polygon class="cls-48" points="128.85 48.95 118.45 43 118.44 43.24 128.85 49.16 128.85 48.95"/><path class="cls-55" d="M135,73.57a4.39,4.39,0,0,1-2.2-.67A10.59,10.59,0,0,1,128,64.6a4.1,4.1,0,0,1,.77-2.59,2.5,2.5,0,0,1,2-1,4.39,4.39,0,0,1,2.2.67A10.59,10.59,0,0,1,137.78,70C137.78,72.17,136.67,73.57,135,73.57Z" transform="translate(-21.63 -33.04)"/><path class="cls-56" d="M130.79,61.26a4.28,4.28,0,0,1,2.09.64A10.34,10.34,0,0,1,137.56,70c0,2.12-1.05,3.35-2.59,3.35a4.28,4.28,0,0,1-2.09-.64,10.35,10.35,0,0,1-4.69-8.12c0-2.11,1.06-3.34,2.6-3.34m0-.42h0a2.72,2.72,0,0,0-2.21,1,4.35,4.35,0,0,0-.81,2.73,10.84,10.84,0,0,0,4.9,8.49,4.63,4.63,0,0,0,2.3.69c1.83,0,3-1.48,3-3.77a10.85,10.85,0,0,0-4.9-8.48,4.63,4.63,0,0,0-2.3-.69Z" transform="translate(-21.63 -33.04)"/><path class="cls-57" d="M136,69.1c0,2-1.39,2.77-3.1,1.79a6.86,6.86,0,0,1-3.1-5.37c0-2,1.39-2.77,3.1-1.79A6.86,6.86,0,0,1,136,69.1Z" transform="translate(-21.63 -33.04)"/><path class="cls-58" d="M134.94,68.5c0,1.31-.93,1.84-2.06,1.18a4.53,4.53,0,0,1-2.06-3.56c0-1.31.92-1.84,2.06-1.19A4.59,4.59,0,0,1,134.94,68.5Z" transform="translate(-21.63 -33.04)"/><path class="cls-54" d="M140.94,70.69h-.21a.23.23,0,0,0-.1.21v.57a.74.74,0,0,0,.33.57l.49.28a.22.22,0,0,0,.23,0h.21a.23.23,0,0,0,.1-.21v-.56a.76.76,0,0,0-.33-.58l-.49-.28A.22.22,0,0,0,140.94,70.69Z" transform="translate(-21.63 -33.04)"/><path class="cls-55" d="M140.63,71v.57a.74.74,0,0,0,.33.57l.49.28c.18.11.33,0,.33-.19v-.56a.73.73,0,0,0-.33-.58l-.49-.28C140.78,70.73,140.63,70.81,140.63,71Z" transform="translate(-21.63 -33.04)"/><path class="cls-54" d="M143.55,73.93h-.21a.25.25,0,0,0-.1.22v.56a.73.73,0,0,0,.33.57l.49.28a.22.22,0,0,0,.23,0h.21a.25.25,0,0,0,.1-.22v-.56a.73.73,0,0,0-.33-.57l-.49-.28A.22.22,0,0,0,143.55,73.93Z" transform="translate(-21.63 -33.04)"/><path class="cls-55" d="M143.24,74.27v.56a.73.73,0,0,0,.33.57l.49.28c.18.11.33,0,.33-.19v-.56a.73.73,0,0,0-.33-.57l-.49-.28C143.39,74,143.24,74.06,143.24,74.27Z" transform="translate(-21.63 -33.04)"/><path class="cls-54" d="M141.51,74.57h-.2a.23.23,0,0,0-.1.21v.57a.74.74,0,0,0,.33.57l.49.28a.22.22,0,0,0,.23,0h.21a.2.2,0,0,0,.09-.21v-.56a.73.73,0,0,0-.33-.57l-.49-.29A.26.26,0,0,0,141.51,74.57Z" transform="translate(-21.63 -33.04)"/><path class="cls-55" d="M141.21,74.9v.57a.74.74,0,0,0,.33.57l.49.28c.18.11.33,0,.33-.19v-.56A.73.73,0,0,0,142,75l-.49-.29C141.36,74.61,141.21,74.69,141.21,74.9Z" transform="translate(-21.63 -33.04)"/><path class="cls-54" d="M144.58,78.13h-.21a.25.25,0,0,0-.1.22V79a.73.73,0,0,0,.33.57l.49.29a.24.24,0,0,0,.23,0h.21a.23.23,0,0,0,.1-.21V79a.74.74,0,0,0-.33-.57l-.49-.28A.2.2,0,0,0,144.58,78.13Z" transform="translate(-21.63 -33.04)"/><path class="cls-55" d="M144.27,78.46V79a.73.73,0,0,0,.33.57l.49.29c.18.1.33,0,.33-.19v-.57a.74.74,0,0,0-.33-.57l-.49-.28C144.42,78.16,144.27,78.25,144.27,78.46Z" transform="translate(-21.63 -33.04)"/><polygon class="cls-55" points="138.9 29.86 127.78 1.52 127.99 1.42 139.49 29.62 138.9 29.86"/><circle class="cls-55" cx="127.86" cy="1.45" r="0.31"/><ellipse class="cls-55" cx="160.86" cy="62.84" rx="0.33" ry="0.24" transform="translate(-33.27 21.48) rotate(-18.58)"/><path class="cls-54" d="M156.23,76.06h.21a.25.25,0,0,1,.1.22V77a.73.73,0,0,1-.33.57l-.49.29a.24.24,0,0,1-.23,0h-.21a.25.25,0,0,1-.1-.22v-.56a.73.73,0,0,1,.33-.57l.49-.28A.22.22,0,0,1,156.23,76.06Z" transform="translate(-21.63 -33.04)"/><path class="cls-55" d="M156.54,76.4V77a.73.73,0,0,1-.33.57l-.49.29c-.18.1-.33,0-.33-.2v-.56a.73.73,0,0,1,.33-.57l.49-.28C156.39,76.1,156.54,76.19,156.54,76.4Z" transform="translate(-21.63 -33.04)"/><path class="cls-54" d="M154.65,76.93h.21a.25.25,0,0,1,.1.22v.56a.73.73,0,0,1-.33.57l-.49.28a.22.22,0,0,1-.23,0h-.21a.25.25,0,0,1-.1-.22v-.56a.73.73,0,0,1,.33-.57l.49-.28A.22.22,0,0,1,154.65,76.93Z" transform="translate(-21.63 -33.04)"/><path class="cls-55" d="M155,77.27v.56a.73.73,0,0,1-.33.57l-.49.28c-.18.11-.33,0-.33-.19v-.56a.73.73,0,0,1,.33-.57l.49-.28C154.81,77,155,77.06,155,77.27Z" transform="translate(-21.63 -33.04)"/><path class="cls-54" d="M157.81,75.15H158a.25.25,0,0,1,.1.22v.56a.73.73,0,0,1-.33.57l-.49.29a.24.24,0,0,1-.23,0h-.21a.25.25,0,0,1-.1-.22V76a.73.73,0,0,1,.33-.57l.49-.28A.22.22,0,0,1,157.81,75.15Z" transform="translate(-21.63 -33.04)"/><path class="cls-55" d="M158.12,75.49v.56a.73.73,0,0,1-.33.57l-.49.29c-.18.1-.33,0-.33-.2v-.56a.74.74,0,0,1,.33-.57l.49-.28C158,75.19,158.12,75.28,158.12,75.49Z" transform="translate(-21.63 -33.04)"/><path class="cls-54" d="M149,66.66c-.83-.47-1.55-.36-1.92.21l3.44,2,.25-.11A4.72,4.72,0,0,0,149,66.66Z" transform="translate(-21.63 -33.04)"/><path class="cls-55" d="M148.71,66.77a1.4,1.4,0,0,0-1.79,0l3.56,2A4.68,4.68,0,0,0,148.71,66.77Z" transform="translate(-21.63 -33.04)"/><path class="cls-54" d="M144.7,64.11c-.82-.48-1.54-.36-1.92.21l3.45,2,.25-.11A4.63,4.63,0,0,0,144.7,64.11Z" transform="translate(-21.63 -33.04)"/><path class="cls-55" d="M144.45,64.22a1.4,1.4,0,0,0-1.78,0l3.56,2A4.69,4.69,0,0,0,144.45,64.22Z" transform="translate(-21.63 -33.04)"/><polygon class="cls-59" points="130.52 41.93 143.78 34.32 143.78 34.78 130.52 42.36 130.52 41.93"/><polygon class="cls-53" points="111.02 89.91 111.02 91.22 84.63 75.92 84.63 74.61 111.02 89.91"/><polygon class="cls-60" points="146.83 68.72 146.83 70.02 111.06 91.25 111.02 91.22 111.02 89.91 111.06 89.94 146.83 68.72"/><polygon class="cls-61" points="111.02 89.91 84.63 74.61 84.63 74.54 120.61 53.58 146.83 68.72 111.06 89.94 111.02 89.91"/><polygon id="_Tracciato_" data-name="&lt;Tracciato&gt;" class="cls-48" points="114.1 58.63 113.79 58.78 138.28 73.03 138.67 72.82 114.1 58.63"/><polygon class="cls-62" points="119.76 75.13 102.5 65.14 111.98 59.6 129.18 69.53 119.76 75.13"/><polygon class="cls-35" points="116.67 75.05 117.02 74.86 109.55 70.55 109.24 70.73 116.67 75.05"/><polygon class="cls-35" points="125.57 80.24 125.96 80.02 118.88 75.94 118.53 76.14 125.57 80.24"/><polygon class="cls-35" points="101.39 65.83 101.08 65.98 107.38 69.65 107.69 69.47 101.39 65.83"/><polygon class="cls-35" points="107.95 71.45 115.38 75.78 115.73 75.58 108.27 71.27 107.95 71.45"/><polygon class="cls-35" points="100.09 66.55 99.78 66.7 106.09 70.37 106.4 70.2 100.09 66.55"/><polygon class="cls-35" points="124.27 80.95 124.67 80.74 117.6 76.66 117.24 76.86 124.27 80.95"/><polygon class="cls-35" points="98.89 67.2 98.58 67.34 104.92 71.03 105.23 70.86 98.89 67.2"/><polygon class="cls-35" points="123.07 81.6 123.46 81.39 116.42 77.32 116.07 77.52 123.07 81.6"/><polygon class="cls-35" points="106.78 72.11 114.21 76.44 114.56 76.24 107.09 71.94 106.78 72.11"/><polygon class="cls-35" points="105.49 72.84 112.92 77.17 113.27 76.97 105.81 72.66 105.49 72.84"/><polygon class="cls-35" points="121.58 82.2 121.97 81.99 115.14 78.05 114.78 78.25 121.58 82.2"/><polygon class="cls-35" points="97.39 67.8 97.09 67.95 103.64 71.76 103.95 71.58 97.39 67.8"/><polygon class="cls-35" points="96.15 68.57 95.84 68.72 102.33 72.49 102.64 72.32 96.15 68.57"/><polygon class="cls-35" points="104.19 73.57 111.62 77.9 111.97 77.7 104.51 73.39 104.19 73.57"/><polygon class="cls-35" points="120.34 82.97 120.73 82.76 113.84 78.78 113.48 78.98 120.34 82.97"/><polygon class="cls-35" points="119.04 83.69 119.43 83.47 112.55 79.5 112.2 79.7 119.04 83.69"/><polygon class="cls-35" points="94.86 69.28 94.55 69.43 101.05 73.22 101.36 73.04 94.86 69.28"/><polygon class="cls-35" points="102.91 74.3 110.34 78.62 110.69 78.43 103.22 74.12 102.91 74.3"/><polygon class="cls-35" points="117.84 84.33 118.23 84.12 111.38 80.17 111.02 80.37 117.84 84.33"/><polygon class="cls-35" points="93.65 69.93 93.34 70.08 99.87 73.88 100.19 73.7 93.65 69.93"/><polygon class="cls-35" points="101.73 74.96 109.16 79.29 109.51 79.09 102.05 74.78 101.73 74.96"/><polygon class="cls-35" points="92.55 70.73 92.24 70.88 98.62 74.59 98.93 74.41 92.55 70.73"/><polygon class="cls-35" points="100.48 75.67 107.91 79.99 108.26 79.8 100.79 75.49 100.48 75.67"/><polygon class="cls-35" points="116.73 85.13 117.13 84.92 110.12 80.87 109.77 81.08 116.73 85.13"/><polygon class="cls-35" points="91.36 71.57 91.05 71.72 97.28 75.34 97.59 75.17 91.36 71.57"/><polygon class="cls-35" points="115.55 85.97 115.94 85.76 108.78 81.63 108.43 81.83 115.55 85.97"/><polygon class="cls-35" points="99.14 76.42 106.57 80.75 106.92 80.55 99.46 76.24 99.14 76.42"/><polygon class="cls-35" points="97.86 77.15 105.29 81.47 105.64 81.28 98.17 76.97 97.86 77.15"/><polygon class="cls-35" points="90.06 72.29 89.76 72.43 96 76.06 96.31 75.89 90.06 72.29"/><polygon class="cls-35" points="114.25 86.69 114.64 86.47 107.5 82.35 107.14 82.55 114.25 86.69"/><polygon class="cls-35" points="96.68 77.81 104.11 82.13 104.46 81.94 97 77.63 96.68 77.81"/><polygon class="cls-35" points="88.86 72.93 88.55 73.08 94.82 76.73 95.13 76.55 88.86 72.93"/><polygon class="cls-35" points="113.05 87.33 113.44 87.12 106.33 83.02 105.97 83.22 113.05 87.33"/><polygon class="cls-35" points="111.94 88.13 112.33 87.92 105.07 83.72 104.71 83.92 111.94 88.13"/><polygon class="cls-35" points="95.74 78.34 95.42 78.52 102.86 82.84 103.2 82.65 95.74 78.34"/><polygon class="cls-35" points="87.76 73.73 87.45 73.88 93.57 77.44 93.88 77.26 87.76 73.73"/><polygon class="cls-35" points="135.97 74.02 129.6 70.35 129.25 70.55 135.57 74.23 135.97 74.02"/><polygon class="cls-35" points="134.28 74.95 134.67 74.74 128.32 71.07 127.96 71.27 134.28 74.95"/><polygon class="cls-35" points="133.08 75.6 133.47 75.38 127.15 71.73 126.79 71.94 133.08 75.6"/><polygon class="cls-35" points="131.58 76.2 131.97 75.99 125.86 72.46 125.5 72.66 131.58 76.2"/><polygon class="cls-35" points="130.34 76.97 130.73 76.75 124.56 73.19 124.2 73.39 130.34 76.97"/><polygon class="cls-35" points="129.04 77.69 129.44 77.47 123.28 73.92 122.92 74.12 129.04 77.69"/><polygon class="cls-35" points="127.84 78.33 128.23 78.12 122.1 74.58 121.74 74.78 127.84 78.33"/><polygon id="_Tracciato_2" data-name="&lt;Tracciato&gt;" class="cls-48" points="120.1 54.63 119.79 54.78 144.29 69.03 144.68 68.82 120.1 54.63"/><path class="cls-63" d="M138.25,91.5c-.1-.38.13-.73.67-1.07L142,92.24c.38-.25.54-.51.47-.78a1.25,1.25,0,0,0-.64-.66,2.22,2.22,0,0,0-.93-.34,1.25,1.25,0,0,0-.71.12l-.83-.49a3.42,3.42,0,0,1,1.24-.18,4.26,4.26,0,0,1,1.72.57,2.15,2.15,0,0,1,1.09,1.13c.12.43-.07.8-.56,1.12a2.9,2.9,0,0,1-1.88.41,4,4,0,0,1-1.79-.56A1.87,1.87,0,0,1,138.25,91.5Zm4.89-1L142.37,89l1.21.69.36,1.35Zm-2.42,2.06a1.83,1.83,0,0,0,.83-.1l-2.2-1.28a.43.43,0,0,0-.2.5c0,.19.24.38.58.58A2.2,2.2,0,0,0,140.72,92.6Z" transform="translate(-21.63 -33.04)"/><path class="cls-63" d="M148.53,94.12l.78.46-3,2.09-.8-.47.38-.26a2.85,2.85,0,0,1-1.63-.4,1.88,1.88,0,0,1-1-1,1.08,1.08,0,0,1,.56-1.26,2.93,2.93,0,0,1,1.87-.47,3.6,3.6,0,0,1,1.56.47c.57.33.86.69.88,1.08Zm1.47,0a3.24,3.24,0,0,1-1.35-.41,2.54,2.54,0,0,1-.68-.52,2.34,2.34,0,0,0-.59-.48,2.3,2.3,0,0,0-.83-.21l-.1-.52a3.75,3.75,0,0,1,1.43.39,2.42,2.42,0,0,1,.69.56,2.29,2.29,0,0,0,.58.44,1.49,1.49,0,0,0,.79.19Zm-4-.67a2,2,0,0,0-1.29.37c-.4.27-.56.56-.47.86a.92.92,0,0,0,.47.52,2.35,2.35,0,0,0,1,.32,2,2,0,0,0,1.31-.35c.38-.26.51-.55.41-.88a1,1,0,0,0-.53-.58A2,2,0,0,0,146,93.43Z" transform="translate(-21.63 -33.04)"/><path class="cls-63" d="M150.63,95.78a4.2,4.2,0,0,1,1.87.57,2.21,2.21,0,0,1,1.18,1.4,4.15,4.15,0,0,1,2.24.58A2.25,2.25,0,0,1,157,99.47c.15.41,0,.8-.53,1.19l-3.31-1.94c-.37.28-.51.56-.41.85a1.38,1.38,0,0,0,.7.73,2.36,2.36,0,0,0,1,.37,1.1,1.1,0,0,0,.71-.16l.91.53a2.67,2.67,0,0,1-1.25.23,4.1,4.1,0,0,1-1.83-.6,2.16,2.16,0,0,1-1.21-1.5,4.62,4.62,0,0,1-2.34-.59,2.22,2.22,0,0,1-1.09-1.17,1,1,0,0,1,.48-1.22A2.81,2.81,0,0,1,150.63,95.78Zm.39.6a2,2,0,0,0-1.33.32c-.35.26-.49.54-.39.86a1.25,1.25,0,0,0,.61.67,2.44,2.44,0,0,0,1.09.32,2,2,0,0,0,1.27-.34.75.75,0,0,0,.35-.9,1.19,1.19,0,0,0-.59-.62A2.33,2.33,0,0,0,151,96.38Zm5.51,1.49a3.43,3.43,0,0,1-1.37-.42,2.34,2.34,0,0,1-.7-.54,2.53,2.53,0,0,0-.62-.49,2.15,2.15,0,0,0-.84-.22l-.12-.54a3.72,3.72,0,0,1,1.45.4,2.43,2.43,0,0,1,.71.58,2.47,2.47,0,0,0,.61.45,1.56,1.56,0,0,0,.8.2Zm-2.1.45a1.73,1.73,0,0,0-.81.12l2.32,1.35a.45.45,0,0,0,.14-.55,1.29,1.29,0,0,0-.64-.6A2.22,2.22,0,0,0,154.43,98.32Z" transform="translate(-21.63 -33.04)"/><path class="cls-63" d="M156.9,102.54a.89.89,0,0,1,.3-1l.91.54a.51.51,0,0,0-.2.62,1.49,1.49,0,0,0,.71.71,2.29,2.29,0,0,0,1,.32,1.72,1.72,0,0,0,1.25-.37.81.81,0,0,0,.33-1,1.39,1.39,0,0,0-.63-.65,2.24,2.24,0,0,0-.9-.31,1.31,1.31,0,0,0-.71.11l-.92-.53a2.25,2.25,0,0,1,1.23-.23,4.21,4.21,0,0,1,1.79.62,2.52,2.52,0,0,1,1.17,1.2,1.06,1.06,0,0,1-.4,1.28,2.68,2.68,0,0,1-1.88.48,4.13,4.13,0,0,1-1.85-.58A2.62,2.62,0,0,1,156.9,102.54Zm6.7-.6a3.28,3.28,0,0,1-1.4-.43,2.56,2.56,0,0,1-.73-.55,2.66,2.66,0,0,0-.64-.51,2.3,2.3,0,0,0-.86-.23l-.15-.56a3.76,3.76,0,0,1,1.48.41,2.6,2.6,0,0,1,.74.6,2.7,2.7,0,0,0,.63.46,1.45,1.45,0,0,0,.82.2Z" transform="translate(-21.63 -33.04)"/><path class="cls-2" d="M31.2,149.05a7.74,7.74,0,0,1-.31,2.25A4.57,4.57,0,0,1,30,153,4,4,0,0,1,28.43,154a5.72,5.72,0,0,1-2.11.36,6.16,6.16,0,0,1-2.06-.31,3.54,3.54,0,0,1-1.46-.94,4.09,4.09,0,0,1-.88-1.61,8.27,8.27,0,0,1-.29-2.31,7.24,7.24,0,0,1,.31-2.21,4.48,4.48,0,0,1,.93-1.66,4.08,4.08,0,0,1,1.53-1.06,5.68,5.68,0,0,1,2.11-.37,6.27,6.27,0,0,1,2,.31,3.54,3.54,0,0,1,1.47.94,4.09,4.09,0,0,1,.89,1.59A7.78,7.78,0,0,1,31.2,149.05Zm-2.16.11a8.1,8.1,0,0,0-.12-1.45,3.31,3.31,0,0,0-.43-1.12,2.06,2.06,0,0,0-.8-.72,2.87,2.87,0,0,0-1.25-.25,2.57,2.57,0,0,0-1.27.29,2.39,2.39,0,0,0-.82.76,3.44,3.44,0,0,0-.44,1.11,7.36,7.36,0,0,0-.13,1.35,8.35,8.35,0,0,0,.13,1.49,3.16,3.16,0,0,0,.42,1.13,1.9,1.9,0,0,0,.8.71,2.88,2.88,0,0,0,1.26.25,2.67,2.67,0,0,0,1.26-.28,2.33,2.33,0,0,0,.82-.77,3.07,3.07,0,0,0,.44-1.13A6.71,6.71,0,0,0,29,149.16Z" transform="translate(-21.63 -33.04)"/><path class="cls-2" d="M39.82,150.37a6.24,6.24,0,0,1-.2,1.68,3.71,3.71,0,0,1-.58,1.27,2.63,2.63,0,0,1-.95.8,2.9,2.9,0,0,1-1.31.28,2.29,2.29,0,0,1-1.05-.24,3.08,3.08,0,0,1-.47-.3,4.51,4.51,0,0,1-.48-.42v3.28a.24.24,0,0,1-.05.14.33.33,0,0,1-.16.11,1.67,1.67,0,0,1-.3.07l-.48,0-.48,0A1.67,1.67,0,0,1,33,157a.38.38,0,0,1-.16-.11.23.23,0,0,1,0-.14V147a.23.23,0,0,1,0-.14.28.28,0,0,1,.13-.1,1.33,1.33,0,0,1,.26-.05,4,4,0,0,1,.8,0l.26.05a.28.28,0,0,1,.13.1.23.23,0,0,1,0,.14v.82a6,6,0,0,1,.6-.55,3.3,3.3,0,0,1,.6-.4,2.41,2.41,0,0,1,.63-.24,3,3,0,0,1,.69-.08,2.63,2.63,0,0,1,1.3.3,2.5,2.5,0,0,1,.88.83,3.73,3.73,0,0,1,.5,1.22A6.94,6.94,0,0,1,39.82,150.37Zm-2,.14a5.73,5.73,0,0,0-.07-.85,2.24,2.24,0,0,0-.23-.73,1.28,1.28,0,0,0-.42-.52,1.11,1.11,0,0,0-.65-.19,1.32,1.32,0,0,0-.39.06,1.4,1.4,0,0,0-.39.19,3.07,3.07,0,0,0-.41.35,4.1,4.1,0,0,0-.44.52v2.3a4.69,4.69,0,0,0,.78.81,1.29,1.29,0,0,0,.79.28,1.16,1.16,0,0,0,.65-.19,1.49,1.49,0,0,0,.44-.52,2.59,2.59,0,0,0,.25-.71A3.63,3.63,0,0,0,37.78,150.51Z" transform="translate(-21.63 -33.04)"/><path class="cls-2" d="M47.83,150.27a.73.73,0,0,1-.16.53.59.59,0,0,1-.44.17H43a2.9,2.9,0,0,0,.1.81,1.5,1.5,0,0,0,.34.62,1.45,1.45,0,0,0,.59.39,2.75,2.75,0,0,0,.87.13,4.81,4.81,0,0,0,.91-.08,6.91,6.91,0,0,0,.68-.16l.47-.16a.84.84,0,0,1,.3-.08.21.21,0,0,1,.12,0,.21.21,0,0,1,.08.1.69.69,0,0,1,0,.2,2.92,2.92,0,0,1,0,.32,2.53,2.53,0,0,1,0,.29,1.25,1.25,0,0,1,0,.21.38.38,0,0,1,0,.14.42.42,0,0,1-.08.12,1.17,1.17,0,0,1-.28.15,4.9,4.9,0,0,1-.57.18c-.24.06-.51.11-.81.16a7.32,7.32,0,0,1-1,.06,5.34,5.34,0,0,1-1.63-.23,3,3,0,0,1-1.16-.71,2.84,2.84,0,0,1-.7-1.21,5.42,5.42,0,0,1-.23-1.7,5.5,5.5,0,0,1,.24-1.68,3.51,3.51,0,0,1,.7-1.26,3,3,0,0,1,1.12-.79,3.73,3.73,0,0,1,1.49-.28,4,4,0,0,1,1.5.26,2.7,2.7,0,0,1,1,.72,2.81,2.81,0,0,1,.58,1.08,4.52,4.52,0,0,1,.19,1.36Zm-1.91-.56a2,2,0,0,0-.33-1.3,1.27,1.27,0,0,0-1.1-.48,1.48,1.48,0,0,0-.65.14,1.42,1.42,0,0,0-.46.38,1.9,1.9,0,0,0-.28.57,2.49,2.49,0,0,0-.11.69Z" transform="translate(-21.63 -33.04)"/><path class="cls-2" d="M56.1,154a.2.2,0,0,1,0,.13.4.4,0,0,1-.16.1,1,1,0,0,1-.3.06l-.47,0-.48,0a1,1,0,0,1-.3-.06.34.34,0,0,1-.16-.1.21.21,0,0,1,0-.13v-4a3.42,3.42,0,0,0-.07-.8,1.47,1.47,0,0,0-.22-.49.86.86,0,0,0-.36-.32,1.08,1.08,0,0,0-.52-.12,1.28,1.28,0,0,0-.76.28,4.19,4.19,0,0,0-.79.79V154a.21.21,0,0,1-.05.13.4.4,0,0,1-.16.1,1.13,1.13,0,0,1-.3.06l-.48,0-.47,0a1.13,1.13,0,0,1-.31-.06.49.49,0,0,1-.16-.1.2.2,0,0,1,0-.13v-7a.23.23,0,0,1,0-.14.27.27,0,0,1,.14-.1,1.2,1.2,0,0,1,.26-.05,2.36,2.36,0,0,1,.4,0,2.56,2.56,0,0,1,.42,0l.25.05a.34.34,0,0,1,.13.1.33.33,0,0,1,0,.14v.8a4.23,4.23,0,0,1,1.17-.93,2.67,2.67,0,0,1,1.25-.32,2.73,2.73,0,0,1,1.2.24,2.15,2.15,0,0,1,.79.63,2.66,2.66,0,0,1,.43,1,5.34,5.34,0,0,1,.13,1.29Z" transform="translate(-21.63 -33.04)"/><path class="cls-2" d="M67.76,151.19a3.1,3.1,0,0,1-.3,1.4,2.71,2.71,0,0,1-.8,1,3.62,3.62,0,0,1-1.19.61,5.24,5.24,0,0,1-1.45.2,5.77,5.77,0,0,1-1-.08,6.13,6.13,0,0,1-.8-.21,4,4,0,0,1-.57-.25,1.27,1.27,0,0,1-.33-.24.57.57,0,0,1-.15-.29,2.62,2.62,0,0,1,0-.55c0-.16,0-.3,0-.41a.77.77,0,0,1,.06-.26.27.27,0,0,1,.09-.15.21.21,0,0,1,.14,0,.59.59,0,0,1,.3.13c.14.08.31.18.52.28a4.08,4.08,0,0,0,.74.29,3.81,3.81,0,0,0,1,.13,2.31,2.31,0,0,0,.67-.09,1.48,1.48,0,0,0,.5-.26,1.13,1.13,0,0,0,.32-.4,1.37,1.37,0,0,0,.11-.54,1,1,0,0,0-.19-.59,1.9,1.9,0,0,0-.49-.44,4.81,4.81,0,0,0-.68-.36l-.79-.36a6,6,0,0,1-.79-.42,3.12,3.12,0,0,1-.68-.57,2.52,2.52,0,0,1-.49-.79,2.71,2.71,0,0,1-.19-1.08,2.87,2.87,0,0,1,.27-1.28,2.52,2.52,0,0,1,.73-.91,2.94,2.94,0,0,1,1.07-.55,4.78,4.78,0,0,1,1.32-.18,4.37,4.37,0,0,1,.72.06,3.45,3.45,0,0,1,.67.15,3.64,3.64,0,0,1,.56.21,1.76,1.76,0,0,1,.32.19.53.53,0,0,1,.1.14.38.38,0,0,1,0,.14c0,.06,0,.14,0,.23v.34c0,.15,0,.27,0,.38a1.59,1.59,0,0,1,0,.26.35.35,0,0,1-.07.15.21.21,0,0,1-.14,0,.53.53,0,0,1-.27-.11l-.47-.24a5,5,0,0,0-.63-.23,2.8,2.8,0,0,0-.79-.1,1.69,1.69,0,0,0-.58.08,1.19,1.19,0,0,0-.42.22.94.94,0,0,0-.25.35,1.06,1.06,0,0,0-.08.43,1,1,0,0,0,.18.58,1.75,1.75,0,0,0,.49.44,5.08,5.08,0,0,0,.7.36l.8.36a7.69,7.69,0,0,1,.8.42,3.18,3.18,0,0,1,.69.57,2.58,2.58,0,0,1,.49.78A2.68,2.68,0,0,1,67.76,151.19Z" transform="translate(-21.63 -33.04)"/><path class="cls-2" d="M76.26,150.4A5.53,5.53,0,0,1,76,152a3.41,3.41,0,0,1-.72,1.26,3,3,0,0,1-1.19.82,4.35,4.35,0,0,1-1.68.29,4.44,4.44,0,0,1-1.62-.26,2.84,2.84,0,0,1-1.14-.75,3.09,3.09,0,0,1-.67-1.21,5.47,5.47,0,0,1-.22-1.64,5.31,5.31,0,0,1,.24-1.63,3.53,3.53,0,0,1,.71-1.26,3.21,3.21,0,0,1,1.2-.82,4.45,4.45,0,0,1,1.67-.29,4.68,4.68,0,0,1,1.63.26,2.85,2.85,0,0,1,1.13.74,3,3,0,0,1,.67,1.21A5.54,5.54,0,0,1,76.26,150.4Zm-2,.08a4.72,4.72,0,0,0-.09-.95,2.08,2.08,0,0,0-.27-.75,1.38,1.38,0,0,0-.52-.5,1.69,1.69,0,0,0-.82-.18,1.64,1.64,0,0,0-.76.16,1.29,1.29,0,0,0-.54.47,2.18,2.18,0,0,0-.32.74,4.22,4.22,0,0,0-.11,1,4.72,4.72,0,0,0,.09.95,2.3,2.3,0,0,0,.28.75,1.39,1.39,0,0,0,.52.5,1.8,1.8,0,0,0,.81.17,1.68,1.68,0,0,0,.77-.16,1.33,1.33,0,0,0,.54-.46,2.27,2.27,0,0,0,.32-.74A4.87,4.87,0,0,0,74.24,150.48Z" transform="translate(-21.63 -33.04)"/><path class="cls-2" d="M84.42,154a.28.28,0,0,1,0,.13.39.39,0,0,1-.14.1.83.83,0,0,1-.26.06l-.4,0-.42,0a.7.7,0,0,1-.25-.06.32.32,0,0,1-.14-.1.28.28,0,0,1,0-.13v-.81a4.28,4.28,0,0,1-1.17.94,2.62,2.62,0,0,1-1.24.31,2.9,2.9,0,0,1-1.21-.23,2.17,2.17,0,0,1-.79-.64,2.7,2.7,0,0,1-.43-.94,6.26,6.26,0,0,1-.12-1.34V147a.23.23,0,0,1,0-.14.34.34,0,0,1,.16-.1,1.54,1.54,0,0,1,.3-.05,3.25,3.25,0,0,1,.47,0,3.4,3.4,0,0,1,.48,0l.3.05a.34.34,0,0,1,.16.1.24.24,0,0,1,0,.14v3.94a3.54,3.54,0,0,0,.07.83,1.51,1.51,0,0,0,.21.5,1,1,0,0,0,.37.32,1.21,1.21,0,0,0,.52.11,1.28,1.28,0,0,0,.75-.27,4.31,4.31,0,0,0,.81-.8V147a.33.33,0,0,1,0-.14.34.34,0,0,1,.16-.1l.3-.05a3.33,3.33,0,0,1,.48,0,3.18,3.18,0,0,1,.47,0,1.54,1.54,0,0,1,.3.05.4.4,0,0,1,.16.1.23.23,0,0,1,0,.14Z" transform="translate(-21.63 -33.04)"/><path class="cls-2" d="M90.88,147.64c0,.18,0,.34,0,.46a.94.94,0,0,1,0,.28.24.24,0,0,1-.08.14.17.17,0,0,1-.13,0l-.14,0-.17-.06-.22-.06-.26,0a1,1,0,0,0-.32.06,1.57,1.57,0,0,0-.34.21,2.24,2.24,0,0,0-.37.38,5.36,5.36,0,0,0-.41.57V154a.21.21,0,0,1-.05.13.34.34,0,0,1-.16.1,1,1,0,0,1-.3.06l-.47,0-.48,0a1,1,0,0,1-.3-.06.34.34,0,0,1-.16-.1.21.21,0,0,1,0-.13v-7a.23.23,0,0,1,0-.14.32.32,0,0,1,.14-.1l.26-.05a2.36,2.36,0,0,1,.4,0,2.56,2.56,0,0,1,.42,0,1.09,1.09,0,0,1,.25.05.28.28,0,0,1,.13.1.23.23,0,0,1,0,.14v.87a4.21,4.21,0,0,1,.52-.65,2.67,2.67,0,0,1,.46-.4,1.42,1.42,0,0,1,.43-.21,1.72,1.72,0,0,1,.44-.06h.22l.24,0a1,1,0,0,1,.22.07.37.37,0,0,1,.14.07.24.24,0,0,1,.06.09.68.68,0,0,1,0,.13c0,.05,0,.13,0,.24S90.88,147.45,90.88,147.64Z" transform="translate(-21.63 -33.04)"/><path class="cls-2" d="M97.14,152.85a3.11,3.11,0,0,1,0,.34.75.75,0,0,1,0,.23,1.55,1.55,0,0,1,0,.15.52.52,0,0,1-.13.15,1.86,1.86,0,0,1-.32.22,4.08,4.08,0,0,1-.51.23,3.62,3.62,0,0,1-.63.16,4,4,0,0,1-.7.06,3.76,3.76,0,0,1-1.43-.25,2.66,2.66,0,0,1-1-.73,3.44,3.44,0,0,1-.64-1.2,5.54,5.54,0,0,1-.21-1.6,5.67,5.67,0,0,1,.26-1.81,3.52,3.52,0,0,1,.73-1.26,2.81,2.81,0,0,1,1.11-.75,4,4,0,0,1,1.41-.24,4.05,4.05,0,0,1,1.17.2c.18.07.33.14.47.21a1.48,1.48,0,0,1,.3.21l.12.14a.53.53,0,0,1,0,.15c0,.07,0,.14,0,.24a3.22,3.22,0,0,1,0,.33,1.86,1.86,0,0,1-.07.63c-.06.13-.12.19-.21.19a.5.5,0,0,1-.28-.11,2.65,2.65,0,0,0-.35-.24,3.57,3.57,0,0,0-.48-.25,2,2,0,0,0-.68-.11,1.34,1.34,0,0,0-1.17.59,3.07,3.07,0,0,0-.4,1.73,4.28,4.28,0,0,0,.1,1,2.14,2.14,0,0,0,.3.72,1.29,1.29,0,0,0,.5.43,1.54,1.54,0,0,0,.7.14,1.86,1.86,0,0,0,.7-.12,3.05,3.05,0,0,0,.51-.27l.37-.27a.41.41,0,0,1,.25-.12.21.21,0,0,1,.11,0,.35.35,0,0,1,.08.15c0,.07,0,.16,0,.27S97.14,152.68,97.14,152.85Z" transform="translate(-21.63 -33.04)"/><path class="cls-2" d="M105,150.27a.73.73,0,0,1-.16.53.57.57,0,0,1-.44.17h-4.24a2.88,2.88,0,0,0,.11.81,1.61,1.61,0,0,0,.33.62,1.49,1.49,0,0,0,.6.39,2.75,2.75,0,0,0,.87.13,4.78,4.78,0,0,0,.9-.08,6.29,6.29,0,0,0,.68-.16l.47-.16a.94.94,0,0,1,.31-.08.2.2,0,0,1,.11,0,.21.21,0,0,1,.08.1.46.46,0,0,1,0,.2,2.58,2.58,0,0,1,0,.32c0,.11,0,.21,0,.29s0,.15,0,.21a.72.72,0,0,1,0,.14l-.08.12a1.87,1.87,0,0,1-.28.15,4.56,4.56,0,0,1-.58.18c-.23.06-.5.11-.8.16a7.54,7.54,0,0,1-1,.06,5.3,5.3,0,0,1-1.63-.23,3,3,0,0,1-1.17-.71,3,3,0,0,1-.7-1.21,5.73,5.73,0,0,1-.23-1.7,5.5,5.5,0,0,1,.24-1.68,3.53,3.53,0,0,1,.71-1.26,2.89,2.89,0,0,1,1.12-.79,3.7,3.7,0,0,1,1.49-.28,3.9,3.9,0,0,1,1.49.26,2.55,2.55,0,0,1,1,.72,2.83,2.83,0,0,1,.59,1.08A4.86,4.86,0,0,1,105,150Zm-1.9-.56a2.09,2.09,0,0,0-.33-1.3,1.29,1.29,0,0,0-1.1-.48,1.45,1.45,0,0,0-.65.14,1.32,1.32,0,0,0-.46.38,1.7,1.7,0,0,0-.29.57,2.93,2.93,0,0,0-.11.69Z" transform="translate(-21.63 -33.04)"/><path class="cls-4" d="M37.35,162.91a3,3,0,0,1,0,.34,1,1,0,0,1,0,.23.25.25,0,0,1-.09.13.21.21,0,0,1-.11,0H34.87v7.13a.21.21,0,0,1,0,.12.27.27,0,0,1-.15.09,1.31,1.31,0,0,1-.27,0,2.82,2.82,0,0,1-.44,0,2.75,2.75,0,0,1-.43,0,1.43,1.43,0,0,1-.28,0,.24.24,0,0,1-.14-.09.21.21,0,0,1,0-.12v-7.13H30.85a.21.21,0,0,1-.12,0,.32.32,0,0,1-.08-.13,1,1,0,0,1,0-.23,3,3,0,0,1,0-.34,3.11,3.11,0,0,1,0-.34.89.89,0,0,1,0-.23.32.32,0,0,1,.08-.13.21.21,0,0,1,.12,0h6.23a.2.2,0,0,1,.11,0,.25.25,0,0,1,.09.13.89.89,0,0,1,0,.23A3.11,3.11,0,0,1,37.35,162.91Z" transform="translate(-21.63 -33.04)"/><path class="cls-4" d="M42.8,170.71a1.14,1.14,0,0,1-.09.19.39.39,0,0,1-.18.1,1,1,0,0,1-.34.05h-1l-.33,0-.22,0a.52.52,0,0,1-.15-.07.27.27,0,0,1-.08-.1.64.64,0,0,1-.06-.14l-2.63-7.84a1.84,1.84,0,0,1-.1-.39.23.23,0,0,1,.07-.22.47.47,0,0,1,.29-.09H39a.94.94,0,0,1,.28,0,.22.22,0,0,1,.13.1,1.47,1.47,0,0,1,.07.17l2.15,6.82h0l2.11-6.79a.61.61,0,0,1,.07-.18.33.33,0,0,1,.14-.12,1.41,1.41,0,0,1,.29,0h.5a3.33,3.33,0,0,1,.49,0,.34.34,0,0,1,.24.09.29.29,0,0,1,0,.23,2.69,2.69,0,0,1-.11.38Z" transform="translate(-21.63 -33.04)"/><path class="cls-4" d="M46.77,172.79a.53.53,0,0,1-.08.15l-.16.09-.24.05h-.38l-.46,0a.85.85,0,0,1-.27-.09.18.18,0,0,1-.1-.14.39.39,0,0,1,0-.2l4.08-11.48a.42.42,0,0,1,.09-.14.27.27,0,0,1,.15-.09,1,1,0,0,1,.25-.06h.37l.46,0a.65.65,0,0,1,.26.09.19.19,0,0,1,.11.14.79.79,0,0,1,0,.2Z" transform="translate(-21.63 -33.04)"/><path class="cls-4" d="M58.59,170.79a.51.51,0,0,1,0,.13.26.26,0,0,1-.13.08,1.54,1.54,0,0,1-.3.05h-1a1.19,1.19,0,0,1-.27-.05.27.27,0,0,1-.14-.1.46.46,0,0,1-.07-.14l-.79-2c-.1-.23-.19-.42-.28-.6a2.17,2.17,0,0,0-.31-.43,1.1,1.1,0,0,0-.38-.27,1.6,1.6,0,0,0-.51-.08h-.56v3.37a.21.21,0,0,1,0,.12.24.24,0,0,1-.14.09,1.43,1.43,0,0,1-.28,0,2.69,2.69,0,0,1-.43,0,2.82,2.82,0,0,1-.44,0,1.31,1.31,0,0,1-.27,0,.27.27,0,0,1-.15-.09.19.19,0,0,1,0-.12v-8a.55.55,0,0,1,.15-.43.57.57,0,0,1,.38-.13h2.87l.41,0a4,4,0,0,1,1,.26,2.35,2.35,0,0,1,.72.49,2,2,0,0,1,.46.7,2.66,2.66,0,0,1,.16.93,2.55,2.55,0,0,1-.12.81,2,2,0,0,1-.33.66,2.36,2.36,0,0,1-.54.5,3.07,3.07,0,0,1-.73.34,1.76,1.76,0,0,1,.37.23,1.72,1.72,0,0,1,.33.33,3.73,3.73,0,0,1,.29.44q.14.26.27.57l.74,1.74c.07.18.12.3.14.38A.81.81,0,0,1,58.59,170.79Zm-2.31-6a1.34,1.34,0,0,0-.2-.74,1.06,1.06,0,0,0-.65-.42,1.42,1.42,0,0,0-.31-.06l-.48,0h-.81v2.51h.91a2.22,2.22,0,0,0,.67-.09,1.22,1.22,0,0,0,.48-.26,1,1,0,0,0,.29-.4A1.46,1.46,0,0,0,56.28,164.79Z" transform="translate(-21.63 -33.04)"/><path class="cls-4" d="M65,170.81a.21.21,0,0,1-.07.15.51.51,0,0,1-.22.08,2.5,2.5,0,0,1-.43,0,2.57,2.57,0,0,1-.45,0,.42.42,0,0,1-.2-.08.2.2,0,0,1-.06-.15v-.48a2.86,2.86,0,0,1-.85.62,2.54,2.54,0,0,1-1.07.23,2.84,2.84,0,0,1-.9-.13,2,2,0,0,1-.7-.37,1.76,1.76,0,0,1-.46-.62,2.09,2.09,0,0,1-.17-.86,1.94,1.94,0,0,1,.21-.93,1.75,1.75,0,0,1,.62-.65,3.12,3.12,0,0,1,1-.38,7.56,7.56,0,0,1,1.43-.12h.6v-.37a1.85,1.85,0,0,0-.06-.5.78.78,0,0,0-.19-.36.72.72,0,0,0-.36-.21,1.75,1.75,0,0,0-.55-.07,3,3,0,0,0-.77.09,5.87,5.87,0,0,0-.6.22,3.47,3.47,0,0,0-.43.21.68.68,0,0,1-.28.09.23.23,0,0,1-.14,0,.34.34,0,0,1-.09-.14.64.64,0,0,1-.06-.22,2.48,2.48,0,0,1,0-.29,1.42,1.42,0,0,1,0-.33.61.61,0,0,1,.13-.22,1.33,1.33,0,0,1,.34-.22,3,3,0,0,1,.56-.22,4.48,4.48,0,0,1,.7-.17,4,4,0,0,1,.78-.07,4.84,4.84,0,0,1,1.23.14,2.22,2.22,0,0,1,.84.43,1.83,1.83,0,0,1,.48.75,3.54,3.54,0,0,1,.15,1.09Zm-1.69-2.61h-.66a3.62,3.62,0,0,0-.71.06,1.18,1.18,0,0,0-.48.19.82.82,0,0,0-.27.29.87.87,0,0,0-.08.4.75.75,0,0,0,.24.6A.93.93,0,0,0,62,170a1.29,1.29,0,0,0,.67-.18,2.68,2.68,0,0,0,.62-.54Z" transform="translate(-21.63 -33.04)"/><path class="cls-4" d="M72.5,170.79a.28.28,0,0,1,0,.13.23.23,0,0,1-.12.08.8.8,0,0,1-.22.05h-.7a1,1,0,0,1-.22-.05.23.23,0,0,1-.12-.08.2.2,0,0,1,0-.13v-.68a4.14,4.14,0,0,1-1,.79,2.32,2.32,0,0,1-1.14.28,2.37,2.37,0,0,1-1.18-.27,2.21,2.21,0,0,1-.79-.73,3.13,3.13,0,0,1-.44-1.07,6,6,0,0,1-.14-1.29,5.45,5.45,0,0,1,.18-1.46,3.15,3.15,0,0,1,.51-1.11,2.24,2.24,0,0,1,.83-.7A2.5,2.5,0,0,1,69,164.3a2.05,2.05,0,0,1,.93.21,3.39,3.39,0,0,1,.83.61v-3.3a.24.24,0,0,1,0-.12.24.24,0,0,1,.14-.09.83.83,0,0,1,.26-.06,4.42,4.42,0,0,1,.84,0,.83.83,0,0,1,.26.06.22.22,0,0,1,.13.09.17.17,0,0,1,0,.12Zm-1.7-4.07a4.41,4.41,0,0,0-.71-.72,1.21,1.21,0,0,0-.71-.24,1,1,0,0,0-.58.17,1.28,1.28,0,0,0-.39.44,2.47,2.47,0,0,0-.22.63,4.17,4.17,0,0,0-.07.71,4.52,4.52,0,0,0,.06.74,2.48,2.48,0,0,0,.21.65,1.1,1.1,0,0,0,.37.45.92.92,0,0,0,.59.17,1,1,0,0,0,.34-.05,1.08,1.08,0,0,0,.34-.17,1.59,1.59,0,0,0,.36-.3,5,5,0,0,0,.41-.46Z" transform="translate(-21.63 -33.04)"/><path class="cls-4" d="M76.09,162.63a1,1,0,0,1-.22.72,1.17,1.17,0,0,1-.78.19,1.13,1.13,0,0,1-.78-.19.92.92,0,0,1-.21-.69,1,1,0,0,1,.21-.72,1.68,1.68,0,0,1,1.57,0A.93.93,0,0,1,76.09,162.63ZM76,170.79a.21.21,0,0,1,0,.12.37.37,0,0,1-.14.08.9.9,0,0,1-.27.06h-.83a.77.77,0,0,1-.26-.06.35.35,0,0,1-.15-.08.21.21,0,0,1,0-.12v-6.08a.21.21,0,0,1,0-.12.27.27,0,0,1,.15-.09.77.77,0,0,1,.26-.06l.42,0,.41,0a.9.9,0,0,1,.27.06.28.28,0,0,1,.14.09.21.21,0,0,1,0,.12Z" transform="translate(-21.63 -33.04)"/><path class="cls-4" d="M83.84,167.68a4.55,4.55,0,0,1-.21,1.42A2.81,2.81,0,0,1,82,170.93a3.9,3.9,0,0,1-1.47.25,4,4,0,0,1-1.42-.23,2.67,2.67,0,0,1-1-.65,2.8,2.8,0,0,1-.59-1.06,5.23,5.23,0,0,1-.19-1.44,4.55,4.55,0,0,1,.21-1.42,3,3,0,0,1,.63-1.11,2.64,2.64,0,0,1,1-.71,3.9,3.9,0,0,1,1.47-.26,4.32,4.32,0,0,1,1.42.22,2.47,2.47,0,0,1,1,.66,2.73,2.73,0,0,1,.59,1.06A5.23,5.23,0,0,1,83.84,167.68Zm-1.77.07a5.25,5.25,0,0,0-.07-.83,1.78,1.78,0,0,0-.25-.66,1.12,1.12,0,0,0-.45-.44,1.53,1.53,0,0,0-.72-.16,1.6,1.6,0,0,0-.67.14,1.32,1.32,0,0,0-.47.41,2,2,0,0,0-.27.65,3.3,3.3,0,0,0-.1.87,4.25,4.25,0,0,0,.08.83,2.15,2.15,0,0,0,.24.66,1.12,1.12,0,0,0,.46.43,1.49,1.49,0,0,0,.71.16,1.41,1.41,0,0,0,.67-.15,1.16,1.16,0,0,0,.48-.4,1.93,1.93,0,0,0,.27-.65A3.72,3.72,0,0,0,82.07,167.75Z" transform="translate(-21.63 -33.04)"/><path class="cls-4" d="M37.52,181.66a3.58,3.58,0,0,1-.23,1.32,2.51,2.51,0,0,1-.68,1,3.1,3.1,0,0,1-1.09.6,5,5,0,0,1-1.52.2h-.74v2.83a.21.21,0,0,1,0,.12.21.21,0,0,1-.14.09,1.43,1.43,0,0,1-.28.05,2.69,2.69,0,0,1-.43,0,2.82,2.82,0,0,1-.44,0,1.31,1.31,0,0,1-.27-.05.27.27,0,0,1-.15-.09.28.28,0,0,1,0-.12v-8a.64.64,0,0,1,.17-.48.6.6,0,0,1,.44-.16h2.08l.6,0c.19,0,.42.05.68.1a3.29,3.29,0,0,1,.81.29,2.47,2.47,0,0,1,.69.54,2.3,2.3,0,0,1,.44.76A3,3,0,0,1,37.52,181.66Zm-1.88.13a1.55,1.55,0,0,0-.17-.76,1.18,1.18,0,0,0-.4-.45,1.58,1.58,0,0,0-.5-.18,4.93,4.93,0,0,0-.55,0h-.76v3h.81a1.94,1.94,0,0,0,.72-.12,1.25,1.25,0,0,0,.47-.33,1.19,1.19,0,0,0,.28-.49A1.91,1.91,0,0,0,35.64,181.79Z" transform="translate(-21.63 -33.04)"/><path class="cls-4" d="M42.73,182.06c0,.16,0,.3,0,.4a1.18,1.18,0,0,1,0,.25.22.22,0,0,1-.07.12.15.15,0,0,1-.11,0l-.13,0-.15-.05-.19,0a.78.78,0,0,0-.22,0,1,1,0,0,0-.29.05,1.14,1.14,0,0,0-.3.19,2.41,2.41,0,0,0-.32.32q-.16.21-.36.51v3.8a.16.16,0,0,1,0,.12.42.42,0,0,1-.14.09,1.2,1.2,0,0,1-.26,0h-.84l-.26,0a.56.56,0,0,1-.14-.09.16.16,0,0,1,0-.12v-6.1a.27.27,0,0,1,0-.12.32.32,0,0,1,.13-.08,1,1,0,0,1,.23,0l.35,0,.36,0a.8.8,0,0,1,.22,0,.28.28,0,0,1,.12.08.27.27,0,0,1,0,.12v.76a5,5,0,0,1,.45-.56,2.37,2.37,0,0,1,.4-.35,1.14,1.14,0,0,1,.39-.18,1.21,1.21,0,0,1,.38-.06h.19l.21,0a.74.74,0,0,1,.19,0,.22.22,0,0,1,.12.07.19.19,0,0,1,.06.07l0,.12a1,1,0,0,1,0,.21C42.72,181.77,42.73,181.9,42.73,182.06Z" transform="translate(-21.63 -33.04)"/><path class="cls-4" d="M45.64,179.43a1,1,0,0,1-.21.72,1.2,1.2,0,0,1-.79.19,1.13,1.13,0,0,1-.78-.19.89.89,0,0,1-.2-.69,1,1,0,0,1,.21-.72,1.14,1.14,0,0,1,.78-.2,1.08,1.08,0,0,1,.78.2A.9.9,0,0,1,45.64,179.43Zm-.13,8.16a.16.16,0,0,1,0,.12.56.56,0,0,1-.14.09,1.46,1.46,0,0,1-.27,0h-.83a1.2,1.2,0,0,1-.26,0,.42.42,0,0,1-.14-.09.16.16,0,0,1,0-.12v-6.08a.16.16,0,0,1,0-.12.24.24,0,0,1,.14-.09.77.77,0,0,1,.26-.06l.42,0,.41,0a.9.9,0,0,1,.27.06.28.28,0,0,1,.14.09.16.16,0,0,1,0,.12Z" transform="translate(-21.63 -33.04)"/><path class="cls-4" d="M53.05,187.59a.16.16,0,0,1,0,.12.42.42,0,0,1-.14.09,1.2,1.2,0,0,1-.26,0h-.84a1.33,1.33,0,0,1-.26,0,.56.56,0,0,1-.14-.09.21.21,0,0,1,0-.12v-3.48a3.24,3.24,0,0,0-.06-.7,1.3,1.3,0,0,0-.19-.43.87.87,0,0,0-.32-.28.93.93,0,0,0-.45-.1,1.12,1.12,0,0,0-.66.24,3.29,3.29,0,0,0-.7.7v4.05a.21.21,0,0,1,0,.12.56.56,0,0,1-.14.09,1.46,1.46,0,0,1-.27,0h-.83a1.2,1.2,0,0,1-.26,0,.33.33,0,0,1-.14-.09.16.16,0,0,1,0-.12v-6.1a.27.27,0,0,1,0-.12.23.23,0,0,1,.12-.08l.23,0,.35,0,.37,0a.9.9,0,0,1,.22,0,.24.24,0,0,1,.11.08.27.27,0,0,1,0,.12v.71a3.9,3.9,0,0,1,1-.82,2.27,2.27,0,0,1,1.09-.28,2.34,2.34,0,0,1,1,.21,1.75,1.75,0,0,1,.69.56,2,2,0,0,1,.38.82,4.6,4.6,0,0,1,.12,1.13Z" transform="translate(-21.63 -33.04)"/><path class="cls-4" d="M58.22,187a2.52,2.52,0,0,1,0,.46.63.63,0,0,1-.1.23.5.5,0,0,1-.18.11,1,1,0,0,1-.28.09,1.82,1.82,0,0,1-.35.06l-.38,0a2.65,2.65,0,0,1-.89-.13,1.48,1.48,0,0,1-.62-.4,1.77,1.77,0,0,1-.36-.68,3.47,3.47,0,0,1-.12-1v-3.12h-.73c-.09,0-.15-.06-.2-.17a1.55,1.55,0,0,1-.07-.53,3.11,3.11,0,0,1,0-.34.81.81,0,0,1,0-.21.38.38,0,0,1,.09-.12.21.21,0,0,1,.12,0h.72V179.9a.16.16,0,0,1,0-.12.27.27,0,0,1,.14-.1,1.2,1.2,0,0,1,.26-.05l.42,0,.42,0a1.2,1.2,0,0,1,.26.05.39.39,0,0,1,.14.1.21.21,0,0,1,0,.12v1.36h1.32a.21.21,0,0,1,.12,0,.27.27,0,0,1,.09.12.81.81,0,0,1,.05.21,3.11,3.11,0,0,1,0,.34,1.55,1.55,0,0,1-.07.53c0,.11-.11.17-.2.17H56.62v2.86a1.5,1.5,0,0,0,.15.75.65.65,0,0,0,.57.25.88.88,0,0,0,.24,0l.2-.05.14-.06.11,0,.07,0a.14.14,0,0,1,.06.1.78.78,0,0,1,0,.19A2.73,2.73,0,0,1,58.22,187Z" transform="translate(-21.63 -33.04)"/><path class="cls-4" d="M72.33,187.59a.21.21,0,0,1,0,.12.56.56,0,0,1-.14.09,1.33,1.33,0,0,1-.26,0h-.84a1.2,1.2,0,0,1-.26,0,.33.33,0,0,1-.14-.09.16.16,0,0,1,0-.12V184a2.47,2.47,0,0,0-.06-.56,1.54,1.54,0,0,0-.17-.43.92.92,0,0,0-.31-.28.83.83,0,0,0-.43-.1,1,1,0,0,0-.62.24,4.16,4.16,0,0,0-.69.7v4.05a.16.16,0,0,1,0,.12.33.33,0,0,1-.14.09,1.2,1.2,0,0,1-.26,0h-.83a1.33,1.33,0,0,1-.26,0,.42.42,0,0,1-.14-.09.16.16,0,0,1,0-.12V184a2.47,2.47,0,0,0-.06-.56,1.54,1.54,0,0,0-.17-.43.83.83,0,0,0-.74-.38,1,1,0,0,0-.62.24,3.8,3.8,0,0,0-.68.7v4.05a.16.16,0,0,1,0,.12.56.56,0,0,1-.14.09,1.46,1.46,0,0,1-.27,0h-.83a1.2,1.2,0,0,1-.26,0,.33.33,0,0,1-.14-.09.16.16,0,0,1,0-.12v-6.1a.27.27,0,0,1,0-.12.23.23,0,0,1,.12-.08l.23,0,.35,0,.37,0a.9.9,0,0,1,.22,0,.24.24,0,0,1,.11.08.28.28,0,0,1,0,.12v.71a3.8,3.8,0,0,1,1-.82,2.12,2.12,0,0,1,1.05-.28,2.82,2.82,0,0,1,.68.08,1.87,1.87,0,0,1,.54.23,1.68,1.68,0,0,1,.4.35,2,2,0,0,1,.29.46,4.22,4.22,0,0,1,.54-.51,3.08,3.08,0,0,1,.52-.34,2.16,2.16,0,0,1,.51-.2,1.86,1.86,0,0,1,.52-.07,2.28,2.28,0,0,1,1,.21,1.75,1.75,0,0,1,.67.56,2.29,2.29,0,0,1,.37.82,4.57,4.57,0,0,1,.11,1Z" transform="translate(-21.63 -33.04)"/><path class="cls-4" d="M79.65,184.36a.69.69,0,0,1-.14.47.51.51,0,0,1-.39.15H75.41a2.6,2.6,0,0,0,.09.71,1.29,1.29,0,0,0,.82.88,2.39,2.39,0,0,0,.76.11,4.62,4.62,0,0,0,.79-.06,4.56,4.56,0,0,0,.59-.15l.42-.14a.78.78,0,0,1,.26-.07.15.15,0,0,1,.1,0s.05,0,.07.08a.6.6,0,0,1,0,.18,2.27,2.27,0,0,1,0,.28,2,2,0,0,1,0,.26.9.9,0,0,1,0,.18.5.5,0,0,1,0,.13l-.07.09a.61.61,0,0,1-.24.13,3.77,3.77,0,0,1-.51.17c-.2.05-.44.09-.7.13a5.77,5.77,0,0,1-.85.06,4.63,4.63,0,0,1-1.42-.2,2.63,2.63,0,0,1-1-.63,2.72,2.72,0,0,1-.61-1.05,5.07,5.07,0,0,1-.2-1.49,4.83,4.83,0,0,1,.21-1.47,3,3,0,0,1,.62-1.1,2.56,2.56,0,0,1,1-.7,3.35,3.35,0,0,1,1.3-.24,3.41,3.41,0,0,1,1.31.23A2.41,2.41,0,0,1,79,182a2.64,2.64,0,0,1,.51,1,4.12,4.12,0,0,1,.17,1.19ZM78,183.87a1.79,1.79,0,0,0-.29-1.14,1.14,1.14,0,0,0-1-.41,1.26,1.26,0,0,0-.57.12,1.49,1.49,0,0,0-.41.33,1.79,1.79,0,0,0-.24.5,2.35,2.35,0,0,0-.1.6Z" transform="translate(-21.63 -33.04)"/><path class="cls-4" d="M86.85,187.59a.28.28,0,0,1,0,.13.24.24,0,0,1-.11.08.66.66,0,0,1-.23,0h-.7a.65.65,0,0,1-.22,0,.23.23,0,0,1-.12-.08.2.2,0,0,1,0-.13v-.68a3.78,3.78,0,0,1-1,.79,2.29,2.29,0,0,1-1.14.28,2.37,2.37,0,0,1-1.18-.27,2.21,2.21,0,0,1-.79-.73,3.13,3.13,0,0,1-.44-1.07,5.93,5.93,0,0,1-.14-1.29,5.45,5.45,0,0,1,.18-1.46,3.15,3.15,0,0,1,.51-1.11,2.24,2.24,0,0,1,.83-.7,2.63,2.63,0,0,1,1.15-.25,2.05,2.05,0,0,1,.93.21,3.67,3.67,0,0,1,.83.61v-3.3a.27.27,0,0,1,0-.12.28.28,0,0,1,.14-.09.91.91,0,0,1,.26-.06,4.42,4.42,0,0,1,.84,0,.83.83,0,0,1,.26.06.22.22,0,0,1,.18.21Zm-1.71-4.07a3.64,3.64,0,0,0-.71-.71,1.16,1.16,0,0,0-.71-.25,1,1,0,0,0-.58.17,1.28,1.28,0,0,0-.39.44,2.46,2.46,0,0,0-.21.63,3.36,3.36,0,0,0-.08.71,3.64,3.64,0,0,0,.07.74,2.15,2.15,0,0,0,.2.65,1.18,1.18,0,0,0,.37.45.92.92,0,0,0,.59.17,1,1,0,0,0,.34-.05,1.36,1.36,0,0,0,.35-.16,2.36,2.36,0,0,0,.35-.31,5,5,0,0,0,.41-.46Z" transform="translate(-21.63 -33.04)"/><path class="cls-4" d="M90.43,179.43a1,1,0,0,1-.21.72,1.2,1.2,0,0,1-.79.19,1.13,1.13,0,0,1-.78-.19.89.89,0,0,1-.2-.69,1.05,1.05,0,0,1,.2-.72,1.19,1.19,0,0,1,.79-.2,1.08,1.08,0,0,1,.78.2A.9.9,0,0,1,90.43,179.43Zm-.13,8.16a.21.21,0,0,1,0,.12.56.56,0,0,1-.14.09,1.46,1.46,0,0,1-.27,0H89a1.2,1.2,0,0,1-.26,0,.33.33,0,0,1-.14-.09.16.16,0,0,1,0-.12v-6.08a.16.16,0,0,1,0-.12.21.21,0,0,1,.14-.09.77.77,0,0,1,.26-.06l.42,0,.41,0a.9.9,0,0,1,.27.06.28.28,0,0,1,.14.09.21.21,0,0,1,0,.12Z" transform="translate(-21.63 -33.04)"/><path class="cls-4" d="M97.21,187.61a.17.17,0,0,1-.07.15.46.46,0,0,1-.21.08,2.63,2.63,0,0,1-.44,0,2.7,2.7,0,0,1-.45,0,.34.34,0,0,1-.19-.08.19.19,0,0,1-.06-.15v-.48a2.9,2.9,0,0,1-.86.62,2.36,2.36,0,0,1-1.07.23,2.82,2.82,0,0,1-.89-.13,2.09,2.09,0,0,1-.71-.37,1.8,1.8,0,0,1-.46-.62,2.1,2.1,0,0,1-.16-.86,1.94,1.94,0,0,1,.21-.93,1.68,1.68,0,0,1,.62-.65,3,3,0,0,1,1-.38,7.49,7.49,0,0,1,1.43-.12h.59v-.37a1.85,1.85,0,0,0-.06-.5.89.89,0,0,0-.19-.36.73.73,0,0,0-.35-.21,1.79,1.79,0,0,0-.55-.07,3,3,0,0,0-.77.09,4.52,4.52,0,0,0-.6.22c-.17.07-.32.15-.44.21a.64.64,0,0,1-.28.09.2.2,0,0,1-.13,0,.5.5,0,0,1-.1-.14,2.18,2.18,0,0,1-.06-.22,2.48,2.48,0,0,1,0-.29,1,1,0,0,1,0-.33.42.42,0,0,1,.13-.22,1.09,1.09,0,0,1,.33-.22,3.27,3.27,0,0,1,.56-.22,4.78,4.78,0,0,1,.7-.17,4.15,4.15,0,0,1,.79-.07,4.82,4.82,0,0,1,1.22.14,2.22,2.22,0,0,1,.84.43,1.73,1.73,0,0,1,.48.75,3.54,3.54,0,0,1,.15,1.09ZM95.52,185h-.66a3.69,3.69,0,0,0-.71.06,1.19,1.19,0,0,0-.47.19.67.67,0,0,0-.27.29.87.87,0,0,0-.09.4.75.75,0,0,0,.24.6,1,1,0,0,0,.68.22,1.26,1.26,0,0,0,.66-.18,2.49,2.49,0,0,0,.62-.54Z" transform="translate(-21.63 -33.04)"/><path class="cls-4" d="M33.27,204.38a.21.21,0,0,1-.05.12.27.27,0,0,1-.15.09,1.19,1.19,0,0,1-.27,0,4.74,4.74,0,0,1-.87,0,1.43,1.43,0,0,1-.28,0,.24.24,0,0,1-.14-.09.21.21,0,0,1-.05-.12V196a.21.21,0,0,1,.05-.12.27.27,0,0,1,.15-.09,1.46,1.46,0,0,1,.27-.05,4.74,4.74,0,0,1,.87,0,1.19,1.19,0,0,1,.27.05.27.27,0,0,1,.15.09.21.21,0,0,1,.05.12Z" transform="translate(-21.63 -33.04)"/><path class="cls-4" d="M40.92,204.39a.17.17,0,0,1-.05.12.36.36,0,0,1-.13.09,1.31,1.31,0,0,1-.27.05h-.83a1.2,1.2,0,0,1-.26-.05.42.42,0,0,1-.14-.09.16.16,0,0,1,0-.12v-3.48a2.65,2.65,0,0,0-.07-.7,1.3,1.3,0,0,0-.18-.43.9.9,0,0,0-.78-.38,1.14,1.14,0,0,0-.66.24,3.83,3.83,0,0,0-.7.7v4a.16.16,0,0,1,0,.12.33.33,0,0,1-.14.09,1.2,1.2,0,0,1-.26.05h-.83a1.46,1.46,0,0,1-.27-.05.56.56,0,0,1-.14-.09.21.21,0,0,1,0-.12v-6.1a.19.19,0,0,1,0-.12.23.23,0,0,1,.12-.08,1,1,0,0,1,.23-.05l.35,0,.36,0a.8.8,0,0,1,.22.05.28.28,0,0,1,.12.08.27.27,0,0,1,0,.12V199a3.75,3.75,0,0,1,1-.82,2.24,2.24,0,0,1,1.09-.28,2.4,2.4,0,0,1,1,.21,1.8,1.8,0,0,1,.69.56,2.14,2.14,0,0,1,.38.82,4.6,4.6,0,0,1,.12,1.13Z" transform="translate(-21.63 -33.04)"/><path class="cls-4" d="M46.08,203.79a2.69,2.69,0,0,1,0,.46.63.63,0,0,1-.1.23.5.5,0,0,1-.18.11,1.15,1.15,0,0,1-.28.09,2,2,0,0,1-.35.06l-.38,0a2.65,2.65,0,0,1-.89-.13,1.48,1.48,0,0,1-.62-.4,1.66,1.66,0,0,1-.37-.68,3.93,3.93,0,0,1-.11-1v-3.13H42a.21.21,0,0,1-.2-.16,1.34,1.34,0,0,1-.07-.53,3.11,3.11,0,0,1,0-.34.81.81,0,0,1,.05-.21.36.36,0,0,1,.08-.12.27.27,0,0,1,.12,0h.73V196.7a.16.16,0,0,1,0-.12.28.28,0,0,1,.13-.1,1.46,1.46,0,0,1,.27,0l.41,0,.42,0a1.46,1.46,0,0,1,.27,0,.28.28,0,0,1,.13.1.16.16,0,0,1,0,.12v1.36h1.33a.21.21,0,0,1,.12,0,.62.62,0,0,1,.09.12.81.81,0,0,1,0,.21c0,.09,0,.21,0,.34a1.62,1.62,0,0,1-.06.53c-.05.11-.12.16-.2.16H44.48v2.87a1.49,1.49,0,0,0,.16.75.63.63,0,0,0,.56.25,1,1,0,0,0,.25,0l.19,0,.15-.06.1,0,.08,0a.14.14,0,0,1,.06.1c0,.05,0,.11,0,.19A3,3,0,0,1,46.08,203.79Z" transform="translate(-21.63 -33.04)"/><path class="cls-4" d="M52.79,201.16a.69.69,0,0,1-.14.47.5.5,0,0,1-.39.15H48.55a2.6,2.6,0,0,0,.09.71,1.42,1.42,0,0,0,.3.54,1.38,1.38,0,0,0,.52.34,2.39,2.39,0,0,0,.76.11,4.62,4.62,0,0,0,.79-.06,4.56,4.56,0,0,0,.59-.15l.42-.14a.92.92,0,0,1,.26-.07.2.2,0,0,1,.11,0,.13.13,0,0,1,.06.08.4.4,0,0,1,0,.18,2.27,2.27,0,0,1,0,.28v.26a1.41,1.41,0,0,0,0,.18.5.5,0,0,1,0,.13.28.28,0,0,1-.07.09.61.61,0,0,1-.24.13,3.77,3.77,0,0,1-.51.17c-.2,0-.44.09-.7.13a5.67,5.67,0,0,1-.85.06,4.63,4.63,0,0,1-1.42-.2,2.63,2.63,0,0,1-1-.63,2.72,2.72,0,0,1-.61-1,5.07,5.07,0,0,1-.2-1.49,4.83,4.83,0,0,1,.21-1.47,3,3,0,0,1,.62-1.1,2.56,2.56,0,0,1,1-.7,3.35,3.35,0,0,1,1.3-.24,3.41,3.41,0,0,1,1.31.23,2.41,2.41,0,0,1,.89.62,2.52,2.52,0,0,1,.52.95,4.5,4.5,0,0,1,.16,1.19Zm-1.67-.49a1.73,1.73,0,0,0-.29-1.14,1.14,1.14,0,0,0-1-.41,1.26,1.26,0,0,0-.57.12,1.31,1.31,0,0,0-.4.33,1.56,1.56,0,0,0-.25.5,2.35,2.35,0,0,0-.1.6Z" transform="translate(-21.63 -33.04)"/><path class="cls-4" d="M58.12,198.86c0,.16,0,.3,0,.4s0,.19,0,.25a.31.31,0,0,1-.07.12.16.16,0,0,1-.12,0,.3.3,0,0,1-.12,0l-.15,0-.19-.05a.86.86,0,0,0-.23,0,1,1,0,0,0-.29,0,1.1,1.1,0,0,0-.29.19,1.93,1.93,0,0,0-.32.32,3.75,3.75,0,0,0-.36.51v3.8a.21.21,0,0,1,0,.12.56.56,0,0,1-.14.09,1.46,1.46,0,0,1-.27.05h-.83a1.2,1.2,0,0,1-.26-.05.33.33,0,0,1-.14-.09.17.17,0,0,1,0-.12v-6.1a.28.28,0,0,1,0-.12.23.23,0,0,1,.12-.08l.23-.05.35,0,.37,0a.9.9,0,0,1,.22.05.24.24,0,0,1,.11.08.27.27,0,0,1,0,.12v.76a4.05,4.05,0,0,1,.46-.56,2,2,0,0,1,.4-.35,1.35,1.35,0,0,1,.38-.19,1.73,1.73,0,0,1,.38,0h.2l.21,0,.19.05a.35.35,0,0,1,.12.07l.05.07,0,.12a.91.91,0,0,1,0,.21C58.12,198.57,58.12,198.7,58.12,198.86Z" transform="translate(-21.63 -33.04)"/><path class="cls-4" d="M65,204.39a.17.17,0,0,1-.05.12.36.36,0,0,1-.13.09,1.31,1.31,0,0,1-.27.05h-.83a1.2,1.2,0,0,1-.26-.05.42.42,0,0,1-.14-.09.16.16,0,0,1,0-.12v-3.48a2.65,2.65,0,0,0-.07-.7,1.3,1.3,0,0,0-.18-.43.9.9,0,0,0-.78-.38,1.14,1.14,0,0,0-.66.24,3.83,3.83,0,0,0-.7.7v4a.16.16,0,0,1,0,.12.33.33,0,0,1-.14.09,1.2,1.2,0,0,1-.26.05h-.83a1.46,1.46,0,0,1-.27-.05.56.56,0,0,1-.14-.09.16.16,0,0,1,0-.12v-6.1a.19.19,0,0,1,0-.12.23.23,0,0,1,.12-.08,1,1,0,0,1,.23-.05l.35,0,.36,0a.8.8,0,0,1,.22.05.28.28,0,0,1,.12.08.27.27,0,0,1,0,.12V199a3.75,3.75,0,0,1,1-.82,2.24,2.24,0,0,1,1.09-.28,2.4,2.4,0,0,1,1,.21,1.8,1.8,0,0,1,.69.56,2.14,2.14,0,0,1,.38.82,4.6,4.6,0,0,1,.12,1.13Z" transform="translate(-21.63 -33.04)"/><path class="cls-4" d="M72.33,201.16a.69.69,0,0,1-.14.47.53.53,0,0,1-.39.15H68.09a2.6,2.6,0,0,0,.09.71,1.41,1.41,0,0,0,.29.54,1.47,1.47,0,0,0,.52.34,2.51,2.51,0,0,0,.77.11,4.62,4.62,0,0,0,.79-.06,5,5,0,0,0,.59-.15l.41-.14a.89.89,0,0,1,.27-.07.15.15,0,0,1,.1,0s0,0,.07.08a.6.6,0,0,1,0,.18,2.27,2.27,0,0,1,0,.28,2,2,0,0,1,0,.26.9.9,0,0,1,0,.18.5.5,0,0,1,0,.13l-.07.09a.61.61,0,0,1-.24.13,4.32,4.32,0,0,1-.51.17c-.2,0-.44.09-.7.13a5.77,5.77,0,0,1-.85.06,4.75,4.75,0,0,1-1.43-.2,2.66,2.66,0,0,1-1-.63,2.6,2.6,0,0,1-.61-1,5.07,5.07,0,0,1-.2-1.49,4.83,4.83,0,0,1,.21-1.47,3,3,0,0,1,.62-1.1,2.48,2.48,0,0,1,1-.7,3.35,3.35,0,0,1,1.3-.24,3.41,3.41,0,0,1,1.31.23,2.41,2.41,0,0,1,.89.62,2.64,2.64,0,0,1,.51.95,4.12,4.12,0,0,1,.17,1.19Zm-1.67-.49a1.79,1.79,0,0,0-.29-1.14,1.14,1.14,0,0,0-1-.41,1.26,1.26,0,0,0-.57.12,1.49,1.49,0,0,0-.41.33,1.55,1.55,0,0,0-.24.5,2.35,2.35,0,0,0-.1.6Z" transform="translate(-21.63 -33.04)"/><path class="cls-4" d="M77.26,203.79a2.52,2.52,0,0,1,0,.46.63.63,0,0,1-.1.23.5.5,0,0,1-.18.11,1.15,1.15,0,0,1-.28.09,2,2,0,0,1-.35.06l-.38,0a2.65,2.65,0,0,1-.89-.13,1.48,1.48,0,0,1-.62-.4,1.54,1.54,0,0,1-.36-.68,3.47,3.47,0,0,1-.12-1v-3.13h-.73c-.09,0-.15,0-.2-.16a1.34,1.34,0,0,1-.07-.53,3.11,3.11,0,0,1,0-.34.81.81,0,0,1,.05-.21.27.27,0,0,1,.09-.12.21.21,0,0,1,.12,0h.72V196.7a.16.16,0,0,1,0-.12.28.28,0,0,1,.13-.1,1.46,1.46,0,0,1,.27,0l.41,0,.42,0a1.31,1.31,0,0,1,.27,0,.28.28,0,0,1,.13.1.17.17,0,0,1,0,.12v1.36H77a.21.21,0,0,1,.12,0,.38.38,0,0,1,.09.12.81.81,0,0,1,0,.21,3.11,3.11,0,0,1,0,.34,1.55,1.55,0,0,1-.07.53c0,.11-.11.16-.2.16H75.66v2.87a1.5,1.5,0,0,0,.15.75.63.63,0,0,0,.56.25,1,1,0,0,0,.25,0l.19,0,.15-.06.1,0,.08,0a.14.14,0,0,1,.06.1c0,.05,0,.11,0,.19A2.73,2.73,0,0,1,77.26,203.79Z" transform="translate(-21.63 -33.04)"/></svg>