<svg id="Livello_1" data-name="Livello 1" xmlns="http://www.w3.org/2000/svg" viewBox="0 0 220.21 222.09"><defs><style>.cls-1{fill:#93a18b;}.cls-2{fill:#bec6b9;}.cls-3{fill:#9fae97;}.cls-4{fill:#3b2d7c;}.cls-5{fill:#6786a0;}.cls-6{fill:#f6bbc6;}.cls-7{fill:#a1b0d6;}.cls-8{fill:#ef7967;}.cls-9{fill:#dfe5ee;}.cls-10{fill:#242550;}.cls-11{fill:#f7c0c0;}.cls-12{fill:#ebd2ae;}.cls-13{fill:none;stroke:#be1622;stroke-linecap:round;stroke-linejoin:round;stroke-width:1.77px;}.cls-14{fill:#ce8c75;}.cls-15{fill:#5fbee7;}.cls-16{fill:#e69d84;}.cls-17{fill:#f6ac93;}.cls-18{fill:#80584a;}.cls-19{fill:#0d2b38;}.cls-20{fill:#2e373d;}.cls-21{fill:#cfcece;}.cls-22{fill:#1d5771;}.cls-23{fill:#d7eef9;}.cls-24{isolation:isolate;}.cls-25{fill:#dc4031;}.cls-26{fill:#89281e;}.cls-27{fill:#e94d40;}.cls-28{fill:#541a14;}.cls-29{fill:#043e5a;}.cls-30{fill:#092b3e;}.cls-31{fill:#044664;}.cls-32{fill:#2d3277;}.cls-33{fill:#4c4691;}</style></defs><title>G03_01_01</title><polygon class="cls-1" points="220.22 164.56 220.22 169.31 130.75 222.09 130.75 217.34 220.22 164.56"/><polygon class="cls-2" points="130.75 217.34 130.75 222.09 34.65 166.36 34.65 161.61 130.75 217.34"/><polygon class="cls-3" points="130.53 217.36 34.43 161.63 34.43 161.36 124.73 109.45 220.22 164.58 130.68 217.45 130.53 217.36"/><ellipse class="cls-1" cx="130.56" cy="162.43" rx="59.55" ry="30.97"/><path class="cls-4" d="M98.87,154.44a10.1,10.1,0,0,0-.78,3.09,2,2,0,0,0,.6,1.57,24.82,24.82,0,0,0,2.78.6c.64,0,2.73,1.71,4.26,1.82s3.49.57,3.7-.64-7.54-6-7.54-6Z" transform="translate(-5.49 -8.11)"/><path class="cls-5" d="M107.7,90.46l1.61,1.82s4.23,15.32,4.1,16.62-1.82,1.56-2.86,1.17-3.89-9.87-3.89-9.87Z" transform="translate(-5.49 -8.11)"/><path class="cls-6" d="M99.2,150.75l-.32,4.17s-.08,1,1.26,1.05a1.75,1.75,0,0,0,1.75-1.1l1-6.23Z" transform="translate(-5.49 -8.11)"/><path class="cls-6" d="M90.14,154.48l-.79,3.74s.24,1.33,1.45,1.15,1.57-1.81,1.57-1.81l.72-4Z" transform="translate(-5.49 -8.11)"/><path class="cls-4" d="M89.47,157.62s.12,1.09,1.09,1a3.14,3.14,0,0,0,1.81-1.09l-.24,3.86s-.55,5.79-2.24,6.39-2-2.59-2-2.59Z" transform="translate(-5.49 -8.11)"/><path class="cls-4" d="M92.68,114.47s.32,6.06.64,7.18-.64,15.94-.64,15.94-3.34,17.54-3.18,18.5,2.87.48,3.5-.48,4.63-15.47,5.27-19.61,2.55-13.72,2.55-13.72.16,11.64.16,12.6-2.08,18.34-2.08,18.34.08.51,1.69.75a2,2,0,0,0,1.83-.73c1-1.56,1.27-5,1.27-5s4.62-19.77,4.3-21.84.64-16,.64-16l-2.55-1Z" transform="translate(-5.49 -8.11)"/><path class="cls-7" d="M98.76,91s5.29-1.7,7.46-1.16a3.91,3.91,0,0,1,3.08,2.71c.18.73-.72,18.28-.72,18.28s-9.41,7.77-13.39,5.78c-2.88-1.43-3.11-3.06-3-3.85a8.71,8.71,0,0,0,.09-1.44l-.51-15.51Z" transform="translate(-5.49 -8.11)"/><path class="cls-5" d="M107.66,104.14l-11,2.19L94.39,94.72l-.26-.6-2.38,1.64.51,15.51a8.71,8.71,0,0,1-.09,1.44c-.07.66.08,1.91,1.81,3.14,3.65-1.88,11-5.92,13.93-8.93A1.62,1.62,0,0,0,107.66,104.14Z" transform="translate(-5.49 -8.11)"/><path class="cls-7" d="M97,101S100,91.5,98.76,91c0,0-7.37,2.46-8.28,4.45s-.71,3.75-1.52,6.83c0,0-1.9,6.6-1.63,8.32s2.08,2.62,6.33.9,14.84-5.88,14.84-5.88l-.09-1.89L95.93,105Z" transform="translate(-5.49 -8.11)"/><path class="cls-7" d="M100.31,90.94s-1.94.55-2.12,1,1.27,2.52,2.8,3.65A10.11,10.11,0,0,0,103.51,97a8.45,8.45,0,0,0,1.72-5C105.18,89.05,100.31,90.94,100.31,90.94Z" transform="translate(-5.49 -8.11)"/><path class="cls-6" d="M109.35,87a5.28,5.28,0,1,1-3.27-6.71A5.27,5.27,0,0,1,109.35,87Z" transform="translate(-5.49 -8.11)"/><path class="cls-6" d="M105.51,86.71l-1.79,5.43h0a3.4,3.4,0,0,1-3.79.39h0a.82.82,0,0,1-.41-.94l1.34-5.27Z" transform="translate(-5.49 -8.11)"/><path class="cls-8" d="M108.82,85.52a1.36,1.36,0,0,0,.79-.21s0,0,0,0a5.27,5.27,0,0,0-10.26-1.72,5.48,5.48,0,0,0-.17.67,1.64,1.64,0,0,0,.67.21c.54,0,2.32-.67,2.16-1.4.07.36.15.72.23,1.07a1.27,1.27,0,0,0,.78-.93A7.82,7.82,0,0,0,108.82,85.52Z" transform="translate(-5.49 -8.11)"/><path class="cls-5" d="M109.21,109.48s-1-2.35-.1-3.44h0c1-1.09,2-1.87,3.55-.52,0,0,3,4.35,2.1,5.44h0C113.82,112.05,110.77,110.83,109.21,109.48Z" transform="translate(-5.49 -8.11)"/><path class="cls-6" d="M101.45,84.47a1.6,1.6,0,1,1-1-2A1.6,1.6,0,0,1,101.45,84.47Z" transform="translate(-5.49 -8.11)"/><path class="cls-6" d="M115.54,109.7a2,2,0,1,1-2-1.94A2,2,0,0,1,115.54,109.7Z" transform="translate(-5.49 -8.11)"/><path class="cls-6" d="M111.72,104.36a1.95,1.95,0,1,1-1.94-2A1.94,1.94,0,0,1,111.72,104.36Z" transform="translate(-5.49 -8.11)"/><path class="cls-6" d="M112.91,106.1,111.5,104a.55.55,0,1,0-.91.6l1.4,2.15a.55.55,0,1,0,.92-.6Z" transform="translate(-5.49 -8.11)"/><polygon class="cls-9" points="114.61 94.6 107.2 99.28 104.63 101.86 112.64 97.17 114.61 94.6"/><polygon class="cls-10" points="114.62 94.61 114.98 95.07 113.1 97.72 104.87 102.34 104.63 101.86 112.64 97.17 114.62 94.61"/><path class="cls-4" d="M177.13,101.52c-.79.54-1.59,1.35-1.45,2.3.11.73.79,1.29.89,2,.2,1.37,1.41,10.93,2.57,10.59s1.33,1.25,2.49,1.61c.93.29,1.63,1.1,2.56,1.39a3.51,3.51,0,0,0,3.39-1.11A4.59,4.59,0,0,0,189,115a3.3,3.3,0,0,0-2-2.92,3.31,3.31,0,0,0,1.73-3.6c-.34-1.49-1.66-2.51-2.74-3.58a1.9,1.9,0,0,1-.63-1,2,2,0,0,1,.33-1.19,16.64,16.64,0,0,0,1.63-6.83c.07-3.49-3.35-6.53-6.44-3.63a7,7,0,0,0-1.63,4.19C178.92,98.9,179.41,100,177.13,101.52Z" transform="translate(-5.49 -8.11)"/><path class="cls-11" d="M176.71,104.32s-5.89,15-6.09,15.53,1.47,1.07,1.47,1.07,6.85-7.57,7.68-9.52c.27-.63-.87-6-.87-6Z" transform="translate(-5.49 -8.11)"/><polygon class="cls-4" points="175.87 93.52 173.48 95.62 174.53 85.44 175.24 85.97 175.87 93.52"/><path class="cls-4" d="M192.12,99.52c.86.42,1.78,1.1,1.78,2,0,.75-.59,1.4-.58,2.15,0,1.38,1.83,2,2.38,3.25.43,1,0,2.09.12,3.15a9.72,9.72,0,0,0,1,2.64,3,3,0,0,1,.13,2.73c-.63,1-2.07,1.17-3.27,1s-2.48-.48-3.57,0c-.88.43-1.45,1.34-2.33,1.76a3.55,3.55,0,0,1-3.52-.59,4.62,4.62,0,0,1-1.88-3.12,3.35,3.35,0,0,1,1.54-3.19,3.28,3.28,0,0,1-2.24-3.29c.11-1.53,1.26-2.73,2.17-4a1.8,1.8,0,0,0,.47-1.06,2.13,2.13,0,0,0-.49-1.12,16.56,16.56,0,0,1-2.64-6.51c-.58-3.44,2.35-7,5.83-4.55a7,7,0,0,1,2.23,3.9C190,97.2,189.64,98.33,192.12,99.52Z" transform="translate(-5.49 -8.11)"/><path class="cls-11" d="M193.84,168.34a19.78,19.78,0,0,0,.7,2.18c.11.27.27.57.56.64a.71.71,0,0,0,.66-.27,2.16,2.16,0,0,0,.4-1.17A11.21,11.21,0,0,0,196,166c-.11-.56-.34-1.19-.88-1.37a1.75,1.75,0,0,0-1.39.34,1.33,1.33,0,0,0-.57.48c-.13.26,0,.52.09.79Z" transform="translate(-5.49 -8.11)"/><path class="cls-4" d="M178,137.8l5.71,25.53c1.44,0,2.08,1.24,3.32-.21l-2.21-19.27.15-11.51,3.09,16.44,5.17,17.48c.93.69,2.55,1.81,2.88.56.39-1.42-2.73-19.26-2.76-21-.06-4.33-1.15-9.71-.38-14.11,1.07-6.08-.33-9.07-.33-9.22l-13.49-2.17a30.33,30.33,0,0,0-1.66,4.31A41.32,41.32,0,0,0,178,137.8Z" transform="translate(-5.49 -8.11)"/><path class="cls-11" d="M186.47,162.7l-2.49.35a11.57,11.57,0,0,1-2.43,2.33c-.51.34-1,.64-1.43.9a.29.29,0,0,0,0,.13c0,.32.43.45.76.47a11.52,11.52,0,0,0,4.62-1,2.36,2.36,0,0,0,1-.6,1.77,1.77,0,0,0,.35-1.05A2.11,2.11,0,0,0,186.47,162.7Z" transform="translate(-5.49 -8.11)"/><path class="cls-7" d="M186.14,101.4s-3.55-.8-5.63-.28-2,3.76-2.14,4.46c0,.11-2.7,3.89-2.86,4.93-.2,1.38.75,3,1.76,4.12.61.65,1.73,1.48,1.49,2.26a39,39,0,0,0-1.32,7.77s2.28,4.47,12.89,1.59c1.53-.42,2.26-3.73,2.26-3.73s-2.46-5.27-2.45-5.5l2.7-8.67c0-1.55-.64-4.41-3.17-5.31C186.59,102,186.14,101.4,186.14,101.4Z" transform="translate(-5.49 -8.11)"/><path class="cls-12" d="M199.15,134.64a.67.67,0,0,0,.13-.15Z" transform="translate(-5.49 -8.11)"/><path class="cls-7" d="M183.28,100.87s-4-.33-5.67,1.87a10.7,10.7,0,0,0-.9,1.58,12.2,12.2,0,0,1,1.44,2.57,15.78,15.78,0,0,1-.05,5.07h0c1.92-3.64,3.64-7.7,3.64-7.7Z" transform="translate(-5.49 -8.11)"/><path class="cls-11" d="M185.5,101.63s1.86.52,2,1-1.14,2.37-2.68,3.51a10,10,0,0,1-3.61,1.69,25,25,0,0,1-.46-5.16C180.82,99.82,185.5,101.63,185.5,101.63Z" transform="translate(-5.49 -8.11)"/><path class="cls-11" d="M178.64,95.14a4.57,4.57,0,1,0,4.54-5.07A4.83,4.83,0,0,0,178.64,95.14Z" transform="translate(-5.49 -8.11)"/><path class="cls-11" d="M183.7,96.83l-1.47,6h0a3.25,3.25,0,0,0,3.63.38h0a.8.8,0,0,0,.4-.9l-.58-4.47Z" transform="translate(-5.49 -8.11)"/><path class="cls-4" d="M178.85,96.66a4.7,4.7,0,0,1-1.1-3.26c.25-2.09,1.79-4,5.58-3.82s6.07,2.77,5.73,5.54c-.47,3.81-3.93,3.66-2,6.28a3.41,3.41,0,0,1-3.67-3.11c-.23-2.11,1.63-4.53,1.63-4.53C177.92,90.64,178.85,96.66,178.85,96.66Z" transform="translate(-5.49 -8.11)"/><path class="cls-4" d="M186.88,162.64a9.63,9.63,0,0,1,.75,3c0,1.09-.42,1.4-.42,1.4a24.07,24.07,0,0,1-2.82.68c-.62,0-1.64,1-3.11,1.12s-3.34.54-3.55-.62c-.12-.7,1.68-1.37,3.82-2.81a11.57,11.57,0,0,0,2.43-2.33Z" transform="translate(-5.49 -8.11)"/><path class="cls-4" d="M195.91,165.69s-.11,1.05-1,1a3,3,0,0,1-1.74-1l.23,3.7s.53,5.57,2.15,6.15c1.16.41,1.67-1.05,1.86-1.91a2.57,2.57,0,0,0,0-1.07Z" transform="translate(-5.49 -8.11)"/><path class="cls-5" d="M189.2,119.7l.37-3.79,3.19,6.73a5,5,0,0,1-1.1,2.74,4.19,4.19,0,0,1-3.14,1.33Z" transform="translate(-5.49 -8.11)"/><polyline class="cls-13" points="154.51 176.62 175.56 164.44 157.46 153.99 136.42 166.17"/><polyline class="cls-13" points="175.56 164.44 175.56 128 179.4 125.79"/><polyline class="cls-13" points="157.44 153.99 157.44 117.55 159.94 116.11"/><polyline class="cls-13" points="137.88 170.34 137.88 165.36 155.97 175.68 155.97 180.67"/><line class="cls-13" x1="142.92" y1="168.25" x2="162.52" y2="156.91"/><line class="cls-13" x1="150.07" y1="172.26" x2="169.38" y2="161.08"/><line class="cls-13" x1="157.44" y1="117.55" x2="175.56" y2="128"/><polygon class="cls-14" points="141.08 144.62 157.98 154.38 157.98 174.22 141.08 164.47 141.08 144.62"/><polygon class="cls-15" points="141.08 144.62 157.98 141.9 174.87 144.62 157.98 154.38 141.08 144.62"/><polygon class="cls-16" points="174.87 144.62 174.87 164.47 157.98 174.22 157.98 154.38 174.87 144.62"/><polygon class="cls-16" points="141.08 131.81 157.98 141.56 157.98 154.38 141.08 144.62 141.08 131.81"/><polygon class="cls-17" points="141.08 131.81 157.98 122.06 174.87 131.81 157.98 141.56 141.08 131.81"/><polygon class="cls-14" points="174.87 131.81 174.87 144.62 157.98 154.38 157.98 141.56 174.87 131.81"/><polygon class="cls-18" points="143.4 134.88 141.83 136.57 142.68 137.06 142.68 139.2 144.13 140.04 144.13 137.9 144.98 138.39 143.4 134.88"/><polygon class="cls-18" points="160.65 154.32 162.22 156.02 161.38 156.51 161.38 158.65 159.93 159.49 159.93 157.35 159.08 157.84 160.65 154.32"/><path class="cls-19" d="M178.75,176.82a5.5,5.5,0,0,1,2.3-4.4,1.49,1.49,0,0,1,1.49-.14l1.09.63.18.1h0a2.12,2.12,0,0,1,.71,1.8,5.51,5.51,0,0,1-2.31,4.4,1.49,1.49,0,0,1-1.45.15h0l-.1-.05-1.07-.61h0A2,2,0,0,1,178.75,176.82Z" transform="translate(-5.49 -8.11)"/><path class="cls-20" d="M179.92,177.48c0,1.7,1,2.48,2.3,1.74a5.51,5.51,0,0,0,2.31-4.4c0-1.69-1-2.47-2.31-1.74A5.52,5.52,0,0,0,179.92,177.48Z" transform="translate(-5.49 -8.11)"/><path class="cls-21" d="M181.09,176.81c0,.83.51,1.21,1.13.85a2.69,2.69,0,0,0,1.13-2.16c0-.84-.5-1.22-1.13-.86A2.73,2.73,0,0,0,181.09,176.81Z" transform="translate(-5.49 -8.11)"/><path class="cls-20" d="M181.61,176.51c0,.45.27.66.61.46a1.48,1.48,0,0,0,.62-1.17c0-.45-.28-.66-.62-.47A1.47,1.47,0,0,0,181.61,176.51Z" transform="translate(-5.49 -8.11)"/><path class="cls-22" d="M179.92,177.48c0,1.7,1,2.48,2.3,1.74a5.51,5.51,0,0,0,2.31-4.4c0-1.69-1-2.47-2.31-1.74A5.52,5.52,0,0,0,179.92,177.48Z" transform="translate(-5.49 -8.11)"/><path class="cls-23" d="M181.09,176.81c0,.83.51,1.21,1.13.85a2.69,2.69,0,0,0,1.13-2.16c0-.84-.5-1.22-1.13-.86A2.73,2.73,0,0,0,181.09,176.81Z" transform="translate(-5.49 -8.11)"/><path class="cls-22" d="M181.61,176.51c0,.45.27.66.61.46a1.48,1.48,0,0,0,.62-1.17c0-.45-.28-.66-.62-.47A1.47,1.47,0,0,0,181.61,176.51Z" transform="translate(-5.49 -8.11)"/><path class="cls-11" d="M172.75,115.58a20.74,20.74,0,0,0-3.44,2.58c-.76.92-5.64,5.38-5.64,5.38l.81,1.3s6.8-2.93,8.56-4.68a24.76,24.76,0,0,0,2.15-2.76,9.14,9.14,0,0,0-.68-.72C174.34,116.55,172.75,115.58,172.75,115.58Z" transform="translate(-5.49 -8.11)"/><path class="cls-11" d="M186,133.61s4.09-9.59,4.53-9.92,1.71-9.45,2.09-12.66c.31-2.68.26-2.73-.1-3.24a2.78,2.78,0,0,0-2.25-1.34,3.5,3.5,0,0,0-2.36,1.34c-.43.45.15,9.95-.33,11.61-1.27,4.41-3.1,11.26-3.35,13.86C184.11,134.48,186,133.61,186,133.61Z" transform="translate(-5.49 -8.11)"/><path class="cls-11" d="M162.76,124.21a1.88,1.88,0,1,0,1.88-1.88A1.89,1.89,0,0,0,162.76,124.21Z" transform="translate(-5.49 -8.11)"/><path class="cls-11" d="M182.41,134.51a1.88,1.88,0,1,0,1.58-2.15A1.89,1.89,0,0,0,182.41,134.51Z" transform="translate(-5.49 -8.11)"/><path class="cls-11" d="M186,95.3c0,.86.39,1.55.87,1.55s.87-.69.87-1.55-.39-1.54-.87-1.54S186,94.45,186,95.3Z" transform="translate(-5.49 -8.11)"/><g class="cls-24"><polygon class="cls-25" points="102.43 160.26 96.24 156.79 114.34 146.34 120.53 149.82 102.43 160.26"/><polygon class="cls-26" points="102.46 166.86 96.27 163.39 96.24 156.79 102.43 160.26 102.46 166.86"/><polygon class="cls-27" points="102.43 160.26 120.53 149.82 120.57 156.42 102.46 166.86 102.43 160.26"/></g><polygon class="cls-26" points="98.78 158.59 116.89 148.15 117.04 148.24 98.94 158.69 98.78 158.59"/><polygon class="cls-28" points="99.27 158.5 99.3 160.45 99.15 160.36 99.11 158.41 99.27 158.5"/><g class="cls-24"><polygon class="cls-29" points="103.2 157.21 103.2 157.31 102.41 157.77 102.41 157.66 103.2 157.21"/><polygon class="cls-30" points="102.41 157.66 102.41 157.77 100.17 156.48 100.17 156.37 102.41 157.66"/><polygon class="cls-31" points="100.97 155.91 103.2 157.21 102.41 157.66 100.17 156.37 100.97 155.91"/></g><g class="cls-24"><polygon class="cls-29" points="114.88 150.62 114.88 150.72 114.08 151.18 114.08 151.07 114.88 150.62"/><polygon class="cls-30" points="114.08 151.07 114.08 151.18 111.85 149.89 111.85 149.78 114.08 151.07"/><polygon class="cls-31" points="112.64 149.32 114.88 150.62 114.08 151.07 111.85 149.78 112.64 149.32"/></g><polygon class="cls-28" points="102.43 162.25 96.24 158.78 96.24 158.58 102.43 162.06 102.43 162.25"/><polygon class="cls-26" points="102.43 162.06 120.54 151.59 120.55 151.8 102.43 162.25 102.43 162.06"/><path class="cls-11" d="M112.23,156.07s1.24,4.26,3.38,4.3a16,16,0,0,1,0-3.42s-.22.47-.52-.88a10.47,10.47,0,0,0-1.13-2.71Z" transform="translate(-5.49 -8.11)"/><path class="cls-11" d="M145.4,134.71a1.77,1.77,0,1,1-1.08-2.26A1.77,1.77,0,0,1,145.4,134.71Z" transform="translate(-5.49 -8.11)"/><path class="cls-4" d="M120.28,150.92s-2,15.33-2.17,22.74-3.09,7.6-5.17,12.39a84.7,84.7,0,0,0-3.42,9.67l1.11.63s9.84-12.08,11-13.26,5-21.38,5-21.38Z" transform="translate(-5.49 -8.11)"/><path class="cls-32" d="M110.63,196.35s-.45,1.37-.84,2.44,0,3.44-.61,4.43-2.29.15-2.21-.69a36.42,36.42,0,0,1,.76-4.58,17.53,17.53,0,0,1,1.79-2.23Z" transform="translate(-5.49 -8.11)"/><path class="cls-11" d="M133.33,125.05a5.37,5.37,0,1,1-5.36-5.37A5.36,5.36,0,0,1,133.33,125.05Z" transform="translate(-5.49 -8.11)"/><path class="cls-32" d="M130.22,197.39s.11,2.21.13,2.4,1,.67,2.33.4,5.2-1.55,5.87-2.21-1.45-.52-2.75-.4a24.78,24.78,0,0,1-3.82-.19Z" transform="translate(-5.49 -8.11)"/><path class="cls-4" d="M119.61,156.45l5.91,4.86S129,173.2,129.34,176s.89,18.15.88,21.35c0,2,1.43,1,2,.67S135,178.37,135,173.3s-2.24-22.73-2.24-22.73l-12.5.05Z" transform="translate(-5.49 -8.11)"/><ellipse class="cls-4" cx="116.36" cy="148.88" rx="3.33" ry="7.13"/><path class="cls-11" d="M142.85,134.9S138,145,137.54,146.73c-.34,1.37,2.19,3.31,3.2,2.25s3.64-13.64,3.64-13.64Z" transform="translate(-5.49 -8.11)"/><path class="cls-7" d="M132,144.51c.21-4.38.85-8.57-.13-9.38a30.14,30.14,0,0,0-7.48-3.95s-4.29-2-5.9,0-7.5,10.71-7.38,13.62c.07,1.57.17,4,.46,6.34.72.42,2.42,1.41,3.53.87,0-2.67.1-5.74.2-6.14.18-.71,4.22-8.59,4.22-8.59a57.08,57.08,0,0,0,1.79,5.91c.72,1.61-.89,6.26-1.25,7.51s2.86,2.51,5.55,2.69,6.91-1.2,6.91-1.2A54,54,0,0,1,132,144.51Z" transform="translate(-5.49 -8.11)"/><path class="cls-11" d="M115.09,156.07s.22-8,.25-10.2c-1.1.55-3.62,0-4.33-.46.26,2.14,1,9.8,1.22,10.66C112.76,157.86,115.09,156.07,115.09,156.07Z" transform="translate(-5.49 -8.11)"/><path class="cls-5" d="M133.42,136.75c-.79-.54-2.17-.48-3.14-1-.8.32-.21,1.65-.21,1.65s1.68,6.15.31,11.33c-.31,1.17-.81,3.4-2,4.52,2.3-.44,4.65-1,4.65-1a28.56,28.56,0,0,0-.74-4.65C131.12,143.14,134.63,137.56,133.42,136.75Z" transform="translate(-5.49 -8.11)"/><path class="cls-11" d="M124.53,126.41l-.8,5.76h0a3.44,3.44,0,0,0,3.27,2.06l.66,0,1.29-6.06Z" transform="translate(-5.49 -8.11)"/><path class="cls-7" d="M140.75,146.39a9.37,9.37,0,0,0-1.2-2,29.87,29.87,0,0,1-4.37-5.88c-2-3.72-4.45-4-4.45-4-4.12.45-3.32,3-2.64,5a4.25,4.25,0,0,0,2.07,2.41,6.28,6.28,0,0,1,1.63,1.2c2.87,3.06,6.46,6.78,7.58,5.73l.28-.08a1.75,1.75,0,0,0,1.1-2.4Z" transform="translate(-5.49 -8.11)"/><g class="cls-24"><polygon class="cls-30" points="111.69 152.59 110.86 152.1 110.85 148.91 111.68 149.39 111.69 152.59"/><polygon class="cls-31" points="105.75 151.85 104.92 151.37 111.66 147.48 112.49 147.96 105.75 151.85"/><polygon class="cls-30" points="105.76 156.01 104.93 155.52 104.92 151.37 105.75 151.85 105.76 156.01"/><polygon class="cls-29" points="105.75 151.85 112.49 147.96 112.5 152.12 111.69 152.59 111.68 149.39 106.56 152.35 106.57 155.54 105.76 156.01 105.75 151.85"/></g><path class="cls-11" d="M116.28,158.66a1.71,1.71,0,1,1-1.71-1.71A1.7,1.7,0,0,1,116.28,158.66Z" transform="translate(-5.49 -8.11)"/><path class="cls-33" d="M131.6,126.6a1.15,1.15,0,0,0-1.76-.9,1.49,1.49,0,0,0-.4,1.6,4.39,4.39,0,0,0,.93,1.49,25.68,25.68,0,0,1-5.66,2.85l-2.49-3.6a5.74,5.74,0,0,1-.93-1.74,7,7,0,0,1,1.15-5.16,7.4,7.4,0,0,1,5.32-2.5,6.22,6.22,0,0,1,4.66,2.27C133.81,122.58,132.26,124.8,131.6,126.6Z" transform="translate(-5.49 -8.11)"/><path class="cls-33" d="M119.82,133.49c.31,1.12,1.25,2,1.28,3.21a9.58,9.58,0,0,1-.26,1.59,3.89,3.89,0,1,0,7.74.69,3.17,3.17,0,0,1,.14-1.27c.2-.41.62-.66.91-1,1.11-1.34,0-3.36.29-5.07.13-.64.79-1.61.7-2.27-.14-1.1-1.58-1.19-2.05-2.08-.73-1.43.08-2.59-.08-4.06a2.92,2.92,0,0,0-3.92-2.61,6.07,6.07,0,0,0-3.81,4.19c-.35,1.34-.11,2.78-.33,4.14S119.4,132,119.82,133.49Z" transform="translate(-5.49 -8.11)"/><path class="cls-1" d="M16.89,18.46a.83.83,0,0,1-.13.3.55.55,0,0,1-.24.17,2,2,0,0,1-.43.08l-.65,0-.72,0a1.74,1.74,0,0,1-.42-.08.46.46,0,0,1-.23-.17,1,1,0,0,1-.11-.3l-1.62-6.41h0L10.8,18.46a1.36,1.36,0,0,1-.11.29.48.48,0,0,1-.23.18,1.64,1.64,0,0,1-.41.08l-.69,0-.72,0a1.84,1.84,0,0,1-.43-.08A.51.51,0,0,1,8,18.76a1.46,1.46,0,0,1-.11-.3L5.57,9.64a2.8,2.8,0,0,1-.08-.44A.33.33,0,0,1,5.58,9a.6.6,0,0,1,.32-.11l.62,0,.59,0a.85.85,0,0,1,.32.05A.28.28,0,0,1,7.58,9a1.46,1.46,0,0,1,.06.23L9.41,17h0L11.27,9.3a.67.67,0,0,1,.08-.24.36.36,0,0,1,.17-.15,1.68,1.68,0,0,1,.33-.07l.56,0,.6,0a1,1,0,0,1,.35.07.34.34,0,0,1,.17.14.73.73,0,0,1,.09.25L15.52,17h0l1.77-7.72c0-.08,0-.16.06-.22a.34.34,0,0,1,.15-.14,1.56,1.56,0,0,1,.32-.07l.57,0,.53,0a.48.48,0,0,1,.28.11.29.29,0,0,1,.07.25,1.93,1.93,0,0,1-.08.46Z" transform="translate(-5.49 -8.11)"/><path class="cls-1" d="M27.05,15.16a5.16,5.16,0,0,1-.23,1.62,3.43,3.43,0,0,1-.71,1.27,3.1,3.1,0,0,1-1.2.82,4.54,4.54,0,0,1-1.68.29,4.61,4.61,0,0,1-1.61-.26,2.84,2.84,0,0,1-1.14-.75,3.05,3.05,0,0,1-.68-1.21,5.83,5.83,0,0,1-.21-1.64,5.27,5.27,0,0,1,.23-1.63,3.41,3.41,0,0,1,.72-1.26,3.06,3.06,0,0,1,1.19-.82,4.54,4.54,0,0,1,1.68-.29,4.92,4.92,0,0,1,1.62.25,2.84,2.84,0,0,1,1.14.75,3.16,3.16,0,0,1,.67,1.21A5.9,5.9,0,0,1,27.05,15.16Zm-2,.08a5.52,5.52,0,0,0-.08-1,2.45,2.45,0,0,0-.28-.76,1.47,1.47,0,0,0-.52-.5,1.77,1.77,0,0,0-.81-.17,1.68,1.68,0,0,0-.77.16,1.33,1.33,0,0,0-.54.46,2.57,2.57,0,0,0-.32.75,4.16,4.16,0,0,0-.1,1,4.65,4.65,0,0,0,.09.95,2.21,2.21,0,0,0,.27.76,1.29,1.29,0,0,0,.52.49,1.67,1.67,0,0,0,.81.18,1.73,1.73,0,0,0,.78-.16,1.36,1.36,0,0,0,.54-.47,2.12,2.12,0,0,0,.31-.73A4.25,4.25,0,0,0,25,15.24Z" transform="translate(-5.49 -8.11)"/><path class="cls-1" d="M33.09,12.39c0,.19,0,.35,0,.47a1.43,1.43,0,0,1,0,.28.27.27,0,0,1-.08.14.25.25,0,0,1-.13,0l-.14,0-.17-.06-.22-.06a1,1,0,0,0-.26,0,.88.88,0,0,0-.32.07,1.26,1.26,0,0,0-.34.21,2.58,2.58,0,0,0-.37.37,5.2,5.2,0,0,0-.41.58v4.34a.22.22,0,0,1,0,.14.34.34,0,0,1-.16.1,1.42,1.42,0,0,1-.3.06l-.48,0-.47,0a1.42,1.42,0,0,1-.3-.06.34.34,0,0,1-.16-.1.17.17,0,0,1-.05-.14v-7a.21.21,0,0,1,0-.14.27.27,0,0,1,.14-.1l.26-.06.4,0,.42,0,.25.06a.34.34,0,0,1,.13.1.21.21,0,0,1,0,.14v.86A5.49,5.49,0,0,1,30.8,12a3.14,3.14,0,0,1,.47-.4,1.42,1.42,0,0,1,.43-.21,1.67,1.67,0,0,1,.44-.06h.22l.24,0,.22.06a.58.58,0,0,1,.14.08.16.16,0,0,1,.06.08l0,.13c0,.06,0,.14,0,.25S33.09,12.21,33.09,12.39Z" transform="translate(-5.49 -8.11)"/><path class="cls-1" d="M40.77,18.72a.23.23,0,0,1,0,.14.27.27,0,0,1-.16.09,1.42,1.42,0,0,1-.3.06l-.51,0-.52,0L38.91,19a.38.38,0,0,1-.2-.1.4.4,0,0,1-.12-.16L36.27,15v3.68a.22.22,0,0,1-.05.14.4.4,0,0,1-.16.1,1.76,1.76,0,0,1-.3.06l-.48,0-.48,0a1.76,1.76,0,0,1-.3-.06.4.4,0,0,1-.16-.1.21.21,0,0,1,0-.14V8.44a.23.23,0,0,1,0-.14.32.32,0,0,1,.16-.1,1.11,1.11,0,0,1,.3-.07,5.77,5.77,0,0,1,1,0,1.11,1.11,0,0,1,.3.07.32.32,0,0,1,.16.1.24.24,0,0,1,.05.14v6.12l2.06-2.78a1.07,1.07,0,0,1,.14-.16.52.52,0,0,1,.21-.11l.32-.06.48,0,.49,0,.32.06a.38.38,0,0,1,.17.1.24.24,0,0,1,0,.14.57.57,0,0,1-.06.25,1.1,1.1,0,0,1-.18.28l-2,2.32,2.36,3.65a1.17,1.17,0,0,1,.14.27A.51.51,0,0,1,40.77,18.72Z" transform="translate(-5.49 -8.11)"/><path class="cls-1" d="M48,15a.8.8,0,0,1-.16.53.61.61,0,0,1-.45.17H43.13a2.88,2.88,0,0,0,.11.81,1.61,1.61,0,0,0,.33.62,1.54,1.54,0,0,0,.6.38,2.48,2.48,0,0,0,.87.14A5,5,0,0,0,46,17.6a6.06,6.06,0,0,0,.67-.16l.47-.17a.88.88,0,0,1,.31-.07.24.24,0,0,1,.12,0s0,.05.07.09a.83.83,0,0,1,0,.2c0,.09,0,.2,0,.33a2.53,2.53,0,0,1,0,.29,1.25,1.25,0,0,1,0,.21.46.46,0,0,1,0,.14l-.08.12a1.36,1.36,0,0,1-.28.14,3.28,3.28,0,0,1-.58.19,6.76,6.76,0,0,1-.8.15,6,6,0,0,1-1,.07,5.34,5.34,0,0,1-1.63-.23,2.9,2.9,0,0,1-1.17-.72,3,3,0,0,1-.7-1.2,5.73,5.73,0,0,1-.23-1.7,5.5,5.5,0,0,1,.24-1.68,3.6,3.6,0,0,1,.71-1.26,3.11,3.11,0,0,1,1.12-.8,4.32,4.32,0,0,1,3,0,2.63,2.63,0,0,1,1,.71,3,3,0,0,1,.59,1.09A4.84,4.84,0,0,1,48,14.71Zm-1.91-.57a2,2,0,0,0-.33-1.3,1.3,1.3,0,0,0-1.1-.47,1.45,1.45,0,0,0-.65.14,1.32,1.32,0,0,0-.46.38,1.55,1.55,0,0,0-.28.56,2.63,2.63,0,0,0-.12.69Z" transform="translate(-5.49 -8.11)"/><path class="cls-1" d="M54.07,12.39c0,.19,0,.35,0,.47a1.55,1.55,0,0,1,0,.28.37.37,0,0,1-.08.14.28.28,0,0,1-.13,0,.35.35,0,0,1-.14,0l-.18-.06-.21-.06a1.09,1.09,0,0,0-.26,0,1,1,0,0,0-.33.07,1.43,1.43,0,0,0-.34.21,2.58,2.58,0,0,0-.37.37,7,7,0,0,0-.41.58v4.34a.21.21,0,0,1,0,.14.49.49,0,0,1-.16.1,1.7,1.7,0,0,1-.31.06l-.47,0-.48,0a1.76,1.76,0,0,1-.3-.06.4.4,0,0,1-.16-.1.22.22,0,0,1,0-.14v-7a.29.29,0,0,1,0-.14.39.39,0,0,1,.14-.1l.27-.06.4,0,.41,0,.26.06a.31.31,0,0,1,.12.1.21.21,0,0,1,0,.14v.86a6.73,6.73,0,0,1,.52-.64,2.67,2.67,0,0,1,.46-.4,1.47,1.47,0,0,1,.44-.21,1.59,1.59,0,0,1,.43-.06h.22l.25,0,.21.06a.43.43,0,0,1,.14.08.16.16,0,0,1,.06.08.5.5,0,0,1,0,.13,1.47,1.47,0,0,1,0,.25C54.07,12.06,54.07,12.21,54.07,12.39Z" transform="translate(-5.49 -8.11)"/><path class="cls-1" d="M60,16.75a2.31,2.31,0,0,1-.22,1,2.11,2.11,0,0,1-.63.76,2.85,2.85,0,0,1-1,.46,4.81,4.81,0,0,1-2,.09,4.29,4.29,0,0,1-1.11-.33,1,1,0,0,1-.27-.18.49.49,0,0,1-.13-.25,2.21,2.21,0,0,1,0-.52,3.41,3.41,0,0,1,0-.37,1.09,1.09,0,0,1,0-.22.24.24,0,0,1,.08-.11l.12,0a.51.51,0,0,1,.25.1l.42.21a4.73,4.73,0,0,0,.58.22,2.54,2.54,0,0,0,.76.1,2.26,2.26,0,0,0,.47-.05,1.19,1.19,0,0,0,.36-.16.64.64,0,0,0,.23-.26.8.8,0,0,0,.08-.36.59.59,0,0,0-.15-.4,1.16,1.16,0,0,0-.38-.29A4.58,4.58,0,0,0,57,16l-.62-.24c-.21-.09-.41-.19-.61-.3a2.49,2.49,0,0,1-.54-.43,1.67,1.67,0,0,1-.38-.6,2.1,2.1,0,0,1-.15-.84,2.17,2.17,0,0,1,.2-.92,1.85,1.85,0,0,1,.56-.71,2.6,2.6,0,0,1,.89-.47,4.34,4.34,0,0,1,1.19-.16,4.23,4.23,0,0,1,.63,0,5.56,5.56,0,0,1,.56.11,2.18,2.18,0,0,1,.42.16,1,1,0,0,1,.25.14l.11.11a.54.54,0,0,1,0,.15c0,.05,0,.12,0,.2a2.63,2.63,0,0,1,0,.3,3.33,3.33,0,0,1,0,.34.87.87,0,0,1,0,.21.19.19,0,0,1-.07.11.2.2,0,0,1-.11,0,.5.5,0,0,1-.22-.09L58.78,13l-.52-.18a2.67,2.67,0,0,0-.67-.08,1.6,1.6,0,0,0-.46.06.79.79,0,0,0-.32.15.88.88,0,0,0-.19.24.72.72,0,0,0-.06.29.59.59,0,0,0,.15.41,1.32,1.32,0,0,0,.39.29,4.8,4.8,0,0,0,.55.23l.63.24c.21.09.42.19.62.3a2.58,2.58,0,0,1,.55.42A2,2,0,0,1,60,16.75Z" transform="translate(-5.49 -8.11)"/><path class="cls-3" d="M17.41,27.67a3.16,3.16,0,0,1,0,.35.58.58,0,0,1-.06.22.23.23,0,0,1-.08.12.15.15,0,0,1-.11,0H14.25v2.38H17a.15.15,0,0,1,.11,0,.35.35,0,0,1,.09.11,1,1,0,0,1,.05.22,3.11,3.11,0,0,1,0,.34,3.32,3.32,0,0,1,0,.35,1,1,0,0,1-.05.22.48.48,0,0,1-.09.13.21.21,0,0,1-.11,0H14.25v3.29a.28.28,0,0,1,0,.13.27.27,0,0,1-.15.09.9.9,0,0,1-.28.06l-.44,0-.43,0a.9.9,0,0,1-.28-.06.28.28,0,0,1-.14-.09.21.21,0,0,1-.05-.13v-8a.52.52,0,0,1,.16-.43.56.56,0,0,1,.38-.14h4.16a.21.21,0,0,1,.11,0,.32.32,0,0,1,.08.13.58.58,0,0,1,.06.22A3.49,3.49,0,0,1,17.41,27.67Z" transform="translate(-5.49 -8.11)"/><path class="cls-3" d="M20.62,27.39a1,1,0,0,1-.21.71,1.14,1.14,0,0,1-.79.2,1.13,1.13,0,0,1-.78-.19.92.92,0,0,1-.2-.69,1,1,0,0,1,.2-.72,1.14,1.14,0,0,1,.79-.2,1.13,1.13,0,0,1,.78.19A.93.93,0,0,1,20.62,27.39Zm-.13,8.16a.28.28,0,0,1,0,.12.37.37,0,0,1-.14.08.93.93,0,0,1-.27,0,2.43,2.43,0,0,1-.41,0,2.56,2.56,0,0,1-.42,0,.8.8,0,0,1-.26,0,.26.26,0,0,1-.14-.08.19.19,0,0,1,0-.12V29.46a.19.19,0,0,1,0-.12.26.26,0,0,1,.14-.08.77.77,0,0,1,.26-.06,2.56,2.56,0,0,1,.42,0,2.43,2.43,0,0,1,.41,0,.9.9,0,0,1,.27.06.37.37,0,0,1,.14.08.28.28,0,0,1,0,.12Z" transform="translate(-5.49 -8.11)"/><path class="cls-3" d="M26.5,33.83a2,2,0,0,1-.2.91,1.68,1.68,0,0,1-.55.66,2.26,2.26,0,0,1-.84.4,3.86,3.86,0,0,1-1.05.14,4.4,4.4,0,0,1-.65,0,5.22,5.22,0,0,1-.56-.13l-.41-.16a1.09,1.09,0,0,1-.24-.16.51.51,0,0,1-.12-.22,2.52,2.52,0,0,1,0-.46,2.58,2.58,0,0,1,0-.32.49.49,0,0,1,0-.19.13.13,0,0,1,.06-.09.2.2,0,0,1,.11,0,.5.5,0,0,1,.22.09l.37.19c.14.06.31.13.5.19a2.29,2.29,0,0,0,.66.09,1.73,1.73,0,0,0,.42,0,1,1,0,0,0,.31-.14.53.53,0,0,0,.2-.22.66.66,0,0,0,.07-.32.55.55,0,0,0-.12-.35,1.33,1.33,0,0,0-.34-.26,4.15,4.15,0,0,0-.47-.2l-.54-.21a4.53,4.53,0,0,1-.54-.27,1.87,1.87,0,0,1-.47-.37,1.67,1.67,0,0,1-.34-.53,2,2,0,0,1-.12-.73,1.81,1.81,0,0,1,.17-.81,1.63,1.63,0,0,1,.49-.62,2.22,2.22,0,0,1,.78-.41,3.69,3.69,0,0,1,1-.14,3.31,3.31,0,0,1,.55,0,4.67,4.67,0,0,1,.49.1,2.93,2.93,0,0,1,.37.14l.22.12a.41.41,0,0,1,.09.1.5.5,0,0,1,0,.13.72.72,0,0,1,0,.17,1.87,1.87,0,0,1,0,.27,2.36,2.36,0,0,1,0,.3.42.42,0,0,1,0,.18.17.17,0,0,1-.06.09.17.17,0,0,1-.1,0,.64.64,0,0,1-.19-.07l-.33-.16L25,30.35a2,2,0,0,0-.58-.07,1.18,1.18,0,0,0-.4,0,.78.78,0,0,0-.29.13.65.65,0,0,0-.16.21.58.58,0,0,0-.05.26.48.48,0,0,0,.13.35,1.17,1.17,0,0,0,.34.26,3.66,3.66,0,0,0,.48.2L25,32a4.43,4.43,0,0,1,.54.26,2.52,2.52,0,0,1,.49.37,1.87,1.87,0,0,1,.34.52A2,2,0,0,1,26.5,33.83Z" transform="translate(-5.49 -8.11)"/><path class="cls-3" d="M33.61,35.55a.19.19,0,0,1,0,.12.32.32,0,0,1-.13.08.93.93,0,0,1-.27,0,2.49,2.49,0,0,1-.41,0,2.56,2.56,0,0,1-.42,0,.8.8,0,0,1-.26,0,.3.3,0,0,1-.14-.08.19.19,0,0,1,0-.12V32.07a2.6,2.6,0,0,0-.07-.7,1.13,1.13,0,0,0-.19-.43.76.76,0,0,0-.31-.28,1,1,0,0,0-.46-.1,1.12,1.12,0,0,0-.66.24,3.75,3.75,0,0,0-.7.69v4.06a.19.19,0,0,1,0,.12.3.3,0,0,1-.14.08.86.86,0,0,1-.26,0,4.42,4.42,0,0,1-.84,0,.86.86,0,0,1-.26,0,.3.3,0,0,1-.14-.08.19.19,0,0,1,0-.12v-9a.16.16,0,0,1,0-.12.32.32,0,0,1,.14-.1,1.33,1.33,0,0,1,.26-.05,3,3,0,0,1,.84,0,1.33,1.33,0,0,1,.26.05.32.32,0,0,1,.14.1.16.16,0,0,1,0,.12v3.37a3.27,3.27,0,0,1,.91-.65,2.17,2.17,0,0,1,1-.22,2.4,2.4,0,0,1,1.05.21,1.8,1.8,0,0,1,.69.56,2.35,2.35,0,0,1,.38.83,5.34,5.34,0,0,1,.11,1.15Z" transform="translate(-5.49 -8.11)"/><path class="cls-3" d="M40.93,32.32a.65.65,0,0,1-.14.47.49.49,0,0,1-.38.15H36.7a2.53,2.53,0,0,0,.09.7,1.27,1.27,0,0,0,.29.54,1.24,1.24,0,0,0,.52.34,2.16,2.16,0,0,0,.76.12,3.84,3.84,0,0,0,.8-.07,5.18,5.18,0,0,0,.59-.14l.41-.14a.67.67,0,0,1,.27-.07.17.17,0,0,1,.1,0s0,0,.07.08a.6.6,0,0,1,0,.18c0,.07,0,.17,0,.28s0,.18,0,.26a.9.9,0,0,1,0,.18.34.34,0,0,1,0,.12.36.36,0,0,1-.07.1.74.74,0,0,1-.25.13,3,3,0,0,1-.5.16,6.35,6.35,0,0,1-1.55.2,4.4,4.4,0,0,1-1.43-.21,2.4,2.4,0,0,1-1-.62,2.6,2.6,0,0,1-.61-1,5.44,5.44,0,0,1,0-3A3.14,3.14,0,0,1,35.77,30a2.73,2.73,0,0,1,1-.69,3.4,3.4,0,0,1,1.31-.24,3.45,3.45,0,0,1,1.31.23,2.41,2.41,0,0,1,.89.62,2.56,2.56,0,0,1,.51.95,4.08,4.08,0,0,1,.16,1.19Zm-1.66-.49A1.86,1.86,0,0,0,39,30.69a1.14,1.14,0,0,0-1-.41,1.34,1.34,0,0,0-.58.12,1.16,1.16,0,0,0-.4.33,1.4,1.4,0,0,0-.24.49,2.36,2.36,0,0,0-.1.61Z" transform="translate(-5.49 -8.11)"/><path class="cls-3" d="M46.27,30c0,.16,0,.3,0,.4a1.18,1.18,0,0,1,0,.25.22.22,0,0,1-.07.12.2.2,0,0,1-.11,0,.32.32,0,0,1-.13,0l-.15-.05-.19-.05a.78.78,0,0,0-.22,0,.75.75,0,0,0-.29.06,1.19,1.19,0,0,0-.3.18,2.54,2.54,0,0,0-.32.33q-.16.21-.36.51v3.8a.19.19,0,0,1,0,.12.3.3,0,0,1-.14.08.8.8,0,0,1-.26,0,4.42,4.42,0,0,1-.84,0,.86.86,0,0,1-.26,0,.3.3,0,0,1-.14-.08.19.19,0,0,1,0-.12v-6.1a.24.24,0,0,1,0-.12.32.32,0,0,1,.13-.08.94.94,0,0,1,.23-.06h.71a.75.75,0,0,1,.22.06.36.36,0,0,1,.12.08.24.24,0,0,1,0,.12v.76a4.19,4.19,0,0,1,.45-.56,3.08,3.08,0,0,1,.4-.36,1.7,1.7,0,0,1,.39-.18,1.58,1.58,0,0,1,.38-.05h.19l.21,0a.74.74,0,0,1,.19.05.33.33,0,0,1,.12.06.21.21,0,0,1,.06.08.81.81,0,0,1,0,.11,1.09,1.09,0,0,1,0,.22C46.26,29.72,46.27,29.85,46.27,30Z" transform="translate(-5.49 -8.11)"/><path class="cls-3" d="M57,35.55a.28.28,0,0,1,0,.12.37.37,0,0,1-.14.08.86.86,0,0,1-.26,0,4.42,4.42,0,0,1-.84,0,.93.93,0,0,1-.27,0,.26.26,0,0,1-.13-.08.19.19,0,0,1,0-.12V31.93a2.47,2.47,0,0,0-.06-.56,1.3,1.3,0,0,0-.18-.43.73.73,0,0,0-.3-.28.83.83,0,0,0-.43-.1,1,1,0,0,0-.62.24,4.46,4.46,0,0,0-.69.69v4.06a.19.19,0,0,1,0,.12.26.26,0,0,1-.14.08.8.8,0,0,1-.26,0,2.49,2.49,0,0,1-.41,0,2.56,2.56,0,0,1-.42,0,.86.86,0,0,1-.26,0,.3.3,0,0,1-.14-.08.19.19,0,0,1,0-.12V31.93a2.47,2.47,0,0,0-.06-.56,1.54,1.54,0,0,0-.17-.43.8.8,0,0,0-.3-.28.89.89,0,0,0-.44-.1,1,1,0,0,0-.62.24,4,4,0,0,0-.68.69v4.06a.19.19,0,0,1,0,.12.37.37,0,0,1-.14.08.93.93,0,0,1-.27,0,2.37,2.37,0,0,1-.41,0,2.56,2.56,0,0,1-.42,0,.8.8,0,0,1-.26,0,.26.26,0,0,1-.14-.08.19.19,0,0,1,0-.12v-6.1a.24.24,0,0,1,0-.12.23.23,0,0,1,.12-.08,1.09,1.09,0,0,1,.23-.06h.72a.85.85,0,0,1,.22.06.24.24,0,0,1,.11.08.25.25,0,0,1,0,.12v.7a4.25,4.25,0,0,1,1-.82,2.22,2.22,0,0,1,1.05-.27,2.82,2.82,0,0,1,.68.08,2.18,2.18,0,0,1,.54.22,1.72,1.72,0,0,1,.4.36,1.8,1.8,0,0,1,.29.46,4.22,4.22,0,0,1,.54-.51,3.16,3.16,0,0,1,.52-.35,2.64,2.64,0,0,1,.51-.19,1.81,1.81,0,0,1,.52-.07,2.28,2.28,0,0,1,1,.21,1.73,1.73,0,0,1,.67.55,2.42,2.42,0,0,1,.37.83,4.48,4.48,0,0,1,.11,1Z" transform="translate(-5.49 -8.11)"/><path class="cls-3" d="M64.35,32.32a.69.69,0,0,1-.14.47.51.51,0,0,1-.39.15H60.11a2.53,2.53,0,0,0,.09.7,1.19,1.19,0,0,0,.3.54,1.13,1.13,0,0,0,.52.34,2.13,2.13,0,0,0,.76.12,3.74,3.74,0,0,0,.79-.07,4.71,4.71,0,0,0,.59-.14l.42-.14a.6.6,0,0,1,.26-.07.15.15,0,0,1,.1,0s.05,0,.07.08a.6.6,0,0,1,0,.18,2.27,2.27,0,0,1,0,.28,2.09,2.09,0,0,1,0,.26.9.9,0,0,1,0,.18.34.34,0,0,1,0,.12.36.36,0,0,1-.07.1.77.77,0,0,1-.24.13,2.82,2.82,0,0,1-.51.16,5.4,5.4,0,0,1-.7.14,5.77,5.77,0,0,1-.85.06,4.44,4.44,0,0,1-1.43-.21,2.53,2.53,0,0,1-1-.62,2.72,2.72,0,0,1-.61-1,5.12,5.12,0,0,1-.2-1.49,4.83,4.83,0,0,1,.21-1.47A3.16,3.16,0,0,1,59.19,30a2.64,2.64,0,0,1,1-.69,3.35,3.35,0,0,1,1.3-.24,3.41,3.41,0,0,1,1.31.23,2.41,2.41,0,0,1,.89.62,2.56,2.56,0,0,1,.51.95,4.07,4.07,0,0,1,.17,1.19Zm-1.67-.49a1.79,1.79,0,0,0-.29-1.14,1.14,1.14,0,0,0-1-.41,1.26,1.26,0,0,0-.57.12,1.2,1.2,0,0,0-.41.33,1.86,1.86,0,0,0-.24.49,2.36,2.36,0,0,0-.1.61Z" transform="translate(-5.49 -8.11)"/><path class="cls-3" d="M71.59,35.55a.28.28,0,0,1,0,.12.37.37,0,0,1-.14.08.8.8,0,0,1-.26,0,2.62,2.62,0,0,1-.42,0,2.56,2.56,0,0,1-.42,0,.8.8,0,0,1-.26,0,.3.3,0,0,1-.14-.08.19.19,0,0,1,0-.12V32.07a3.18,3.18,0,0,0-.06-.7,1.55,1.55,0,0,0-.19-.43.79.79,0,0,0-.32-.28.93.93,0,0,0-.45-.1,1.17,1.17,0,0,0-.67.24,3.73,3.73,0,0,0-.69.69v4.06a.21.21,0,0,1,0,.12.26.26,0,0,1-.14.08.8.8,0,0,1-.26,0,2.56,2.56,0,0,1-.42,0,2.49,2.49,0,0,1-.41,0,.93.93,0,0,1-.27,0,.37.37,0,0,1-.14-.08.28.28,0,0,1,0-.12v-6.1a.17.17,0,0,1,0-.12.23.23,0,0,1,.12-.08,1.09,1.09,0,0,1,.23-.06h.71a.94.94,0,0,1,.23.06.24.24,0,0,1,.11.08.24.24,0,0,1,0,.12v.7a4.16,4.16,0,0,1,1-.82,2.51,2.51,0,0,1,2.14-.06,1.72,1.72,0,0,1,.69.55,2.26,2.26,0,0,1,.38.83,4.6,4.6,0,0,1,.12,1.13Z" transform="translate(-5.49 -8.11)"/><path class="cls-3" d="M18.56,51.24a2.53,2.53,0,0,1,0,.29q0,.12,0,.21a.35.35,0,0,1-.06.14.53.53,0,0,1-.1.14,1.08,1.08,0,0,1-.3.2,2.3,2.3,0,0,1-.52.24,4.3,4.3,0,0,1-.71.19,4.79,4.79,0,0,1-.87.07,4.52,4.52,0,0,1-1.64-.28,3.12,3.12,0,0,1-1.24-.83,3.86,3.86,0,0,1-.79-1.39A6.38,6.38,0,0,1,12,48.27a6.14,6.14,0,0,1,.3-2,4.22,4.22,0,0,1,.84-1.47,3.38,3.38,0,0,1,1.3-.9,4.23,4.23,0,0,1,1.66-.31,4.08,4.08,0,0,1,.71.06,4.82,4.82,0,0,1,.63.16A4.43,4.43,0,0,1,18,44a1.86,1.86,0,0,1,.32.22l.13.16a.5.5,0,0,1,0,.16.69.69,0,0,1,0,.22,3,3,0,0,1,0,.32c0,.14,0,.26,0,.35a1,1,0,0,1-.05.23.26.26,0,0,1-.08.13.15.15,0,0,1-.11,0,.48.48,0,0,1-.26-.12l-.41-.26a3,3,0,0,0-.59-.27,2.53,2.53,0,0,0-.82-.12,1.89,1.89,0,0,0-.94.22,2.07,2.07,0,0,0-.71.61,3,3,0,0,0-.44,1A5,5,0,0,0,14,48.18a4.9,4.9,0,0,0,.16,1.35,2.66,2.66,0,0,0,.46.94,1.93,1.93,0,0,0,.72.55,2.35,2.35,0,0,0,.94.18,2.88,2.88,0,0,0,.83-.11,4.35,4.35,0,0,0,.6-.25l.41-.25a.55.55,0,0,1,.25-.11.2.2,0,0,1,.11,0,.26.26,0,0,1,.07.11,2.07,2.07,0,0,1,0,.23C18.56,51,18.56,51.08,18.56,51.24Z" transform="translate(-5.49 -8.11)"/><path class="cls-3" d="M25.92,49.24a4.55,4.55,0,0,1-.21,1.42,3,3,0,0,1-.62,1.11,2.68,2.68,0,0,1-1.05.71,3.9,3.9,0,0,1-1.47.26,4,4,0,0,1-1.41-.23,2.59,2.59,0,0,1-1-.65,2.8,2.8,0,0,1-.59-1.06,4.88,4.88,0,0,1-.19-1.44,4.55,4.55,0,0,1,.21-1.42,3.08,3.08,0,0,1,.62-1.11,2.81,2.81,0,0,1,1.05-.72,4,4,0,0,1,1.46-.25,4.13,4.13,0,0,1,1.43.22,2.47,2.47,0,0,1,1,.66,2.59,2.59,0,0,1,.58,1.06A4.82,4.82,0,0,1,25.92,49.24Zm-1.77.07a4.25,4.25,0,0,0-.08-.83,1.78,1.78,0,0,0-.24-.66,1.12,1.12,0,0,0-.45-.44,1.42,1.42,0,0,0-.72-.16,1.57,1.57,0,0,0-.67.14,1.16,1.16,0,0,0-.47.41,2.28,2.28,0,0,0-.28.65,3.75,3.75,0,0,0-.09.87,4.33,4.33,0,0,0,.08.83,2.15,2.15,0,0,0,.24.66,1.16,1.16,0,0,0,.45.43,1.55,1.55,0,0,0,.71.15,1.45,1.45,0,0,0,.68-.14,1.21,1.21,0,0,0,.47-.4,1.83,1.83,0,0,0,.28-.65A3.72,3.72,0,0,0,24.15,49.31Z" transform="translate(-5.49 -8.11)"/><path class="cls-3" d="M33.1,52.35a.19.19,0,0,1,0,.12.3.3,0,0,1-.14.08.8.8,0,0,1-.26.05,2.49,2.49,0,0,1-.41,0,2.56,2.56,0,0,1-.42,0,.87.87,0,0,1-.27-.05.26.26,0,0,1-.13-.08.21.21,0,0,1-.05-.12V48.87a3.18,3.18,0,0,0-.06-.7,1.3,1.3,0,0,0-.19-.43.79.79,0,0,0-.32-.28.93.93,0,0,0-.45-.1,1.12,1.12,0,0,0-.66.24,3.47,3.47,0,0,0-.7.69v4.06a.19.19,0,0,1,0,.12.37.37,0,0,1-.14.08.93.93,0,0,1-.27.05,2.37,2.37,0,0,1-.41,0,2.56,2.56,0,0,1-.42,0,.8.8,0,0,1-.26-.05.26.26,0,0,1-.14-.08.19.19,0,0,1,0-.12v-6.1a.21.21,0,0,1,0-.12.23.23,0,0,1,.12-.08,1.09,1.09,0,0,1,.23-.06h.72a.85.85,0,0,1,.22.06.24.24,0,0,1,.11.08.21.21,0,0,1,0,.12V47a4.13,4.13,0,0,1,1-.82,2.38,2.38,0,0,1,1.1-.27,2.32,2.32,0,0,1,1,.21,1.72,1.72,0,0,1,.69.55,2.11,2.11,0,0,1,.38.83,4.6,4.6,0,0,1,.12,1.13Z" transform="translate(-5.49 -8.11)"/><path class="cls-3" d="M39.08,50.63a2,2,0,0,1-.19.91,1.77,1.77,0,0,1-.55.66,2.34,2.34,0,0,1-.84.4,4,4,0,0,1-1.06.14,4.62,4.62,0,0,1-.65-.05c-.21,0-.39-.08-.56-.13l-.41-.16a1.09,1.09,0,0,1-.24-.16.5.5,0,0,1-.11-.22,1.86,1.86,0,0,1,0-.46,2.92,2.92,0,0,1,0-.32.78.78,0,0,1,0-.19s0-.08.07-.09a.17.17,0,0,1,.1,0,.46.46,0,0,1,.22.09l.37.19c.15.06.32.13.51.19a2.19,2.19,0,0,0,.66.09,1.7,1.7,0,0,0,.41-.05,1,1,0,0,0,.32-.14.6.6,0,0,0,.2-.22.79.79,0,0,0,.07-.32.51.51,0,0,0-.13-.35,1.27,1.27,0,0,0-.33-.26,3.66,3.66,0,0,0-.48-.2l-.54-.21-.54-.27a2.07,2.07,0,0,1-.47-.37,1.59,1.59,0,0,1-.33-.53,1.8,1.8,0,0,1-.13-.73,2,2,0,0,1,.17-.81,1.85,1.85,0,0,1,.49-.62,2.37,2.37,0,0,1,.79-.41,3.61,3.61,0,0,1,1-.14,3.43,3.43,0,0,1,.56,0L38,46a3.67,3.67,0,0,1,.37.14l.21.12a.2.2,0,0,1,.09.1.5.5,0,0,1,.05.13s0,.1,0,.17a2.1,2.1,0,0,1,0,.27,2.63,2.63,0,0,1,0,.3,1.64,1.64,0,0,1,0,.18c0,.05,0,.08-.07.09a.16.16,0,0,1-.09,0,.59.59,0,0,1-.2-.07L38,47.3l-.45-.15a2.12,2.12,0,0,0-.59-.07,1.22,1.22,0,0,0-.4.05.73.73,0,0,0-.28.13.54.54,0,0,0-.16.21.58.58,0,0,0-.06.26.48.48,0,0,0,.13.35,1.33,1.33,0,0,0,.34.26,3.66,3.66,0,0,0,.48.2c.18.06.37.13.55.21a3.94,3.94,0,0,1,.55.26,2.19,2.19,0,0,1,.48.37,1.67,1.67,0,0,1,.34.52A1.83,1.83,0,0,1,39.08,50.63Z" transform="translate(-5.49 -8.11)"/><path class="cls-3" d="M43.83,51.75a2.52,2.52,0,0,1,0,.46.57.57,0,0,1-.1.22.41.41,0,0,1-.18.12l-.28.09-.35.06-.38,0a2.93,2.93,0,0,1-.89-.13,1.48,1.48,0,0,1-.62-.4,1.64,1.64,0,0,1-.36-.68,3.52,3.52,0,0,1-.12-1V47.41h-.73c-.09,0-.15,0-.2-.16a1.6,1.6,0,0,1-.07-.53,3,3,0,0,1,0-.34,1,1,0,0,1,0-.22.2.2,0,0,1,.09-.11.21.21,0,0,1,.12,0h.72V44.66a.2.2,0,0,1,0-.13.36.36,0,0,1,.13-.09,1.46,1.46,0,0,1,.27,0l.42,0,.42,0a1.33,1.33,0,0,1,.26,0,.56.56,0,0,1,.14.09.28.28,0,0,1,0,.13V46h1.32a.21.21,0,0,1,.12,0s.06.06.09.11a1,1,0,0,1,.05.22,3,3,0,0,1,0,.34,1.6,1.6,0,0,1-.07.53c0,.11-.11.16-.2.16H42.23v2.87a1.5,1.5,0,0,0,.15.75.63.63,0,0,0,.56.24.94.94,0,0,0,.25,0l.2,0,.14-.06.1,0,.08,0a.14.14,0,0,1,.06.1.69.69,0,0,1,0,.19A2.58,2.58,0,0,1,43.83,51.75Z" transform="translate(-5.49 -8.11)"/><path class="cls-3" d="M49,46.82c0,.16,0,.3,0,.4a1.18,1.18,0,0,1,0,.25.22.22,0,0,1-.07.12.2.2,0,0,1-.11,0,.32.32,0,0,1-.13,0l-.15-.05-.19,0a.78.78,0,0,0-.22,0,.75.75,0,0,0-.29.06,1.4,1.4,0,0,0-.3.18,2.54,2.54,0,0,0-.32.33q-.16.21-.36.51v3.8a.19.19,0,0,1,0,.12.3.3,0,0,1-.14.08.8.8,0,0,1-.26.05,4.42,4.42,0,0,1-.84,0,.92.92,0,0,1-.26-.05.37.37,0,0,1-.14-.08.19.19,0,0,1,0-.12v-6.1a.21.21,0,0,1,0-.12.32.32,0,0,1,.13-.08.94.94,0,0,1,.23-.06h.71a.75.75,0,0,1,.22.06.28.28,0,0,1,.12.08.21.21,0,0,1,0,.12V47a4.19,4.19,0,0,1,.45-.56,3.08,3.08,0,0,1,.4-.36,1.7,1.7,0,0,1,.39-.18,1.58,1.58,0,0,1,.38,0h.19l.21,0a.74.74,0,0,1,.19.05.33.33,0,0,1,.12.06.21.21,0,0,1,.06.08.81.81,0,0,1,0,.11,1.09,1.09,0,0,1,0,.22C49,46.52,49,46.65,49,46.82Z" transform="translate(-5.49 -8.11)"/><path class="cls-3" d="M55.83,52.35a.27.27,0,0,1,0,.12.36.36,0,0,1-.12.08.71.71,0,0,1-.23.05,1.78,1.78,0,0,1-.35,0,2,2,0,0,1-.37,0,.65.65,0,0,1-.22-.05.36.36,0,0,1-.12-.08.27.27,0,0,1,0-.12v-.71a3.75,3.75,0,0,1-1,.82,2.23,2.23,0,0,1-1.08.28,2.41,2.41,0,0,1-1.06-.21A1.8,1.8,0,0,1,50.5,52a2.2,2.2,0,0,1-.37-.82A4.78,4.78,0,0,1,50,50V46.25a.21.21,0,0,1,0-.12.3.3,0,0,1,.14-.08,1.12,1.12,0,0,1,.26-.06h.83a1.37,1.37,0,0,1,.27.06.37.37,0,0,1,.14.08.21.21,0,0,1,0,.12V49.7a3.43,3.43,0,0,0,.06.73,1.13,1.13,0,0,0,.19.43.79.79,0,0,0,.32.28.93.93,0,0,0,.45.1,1.12,1.12,0,0,0,.66-.24,3.85,3.85,0,0,0,.71-.7v-4a.16.16,0,0,1,0-.12.26.26,0,0,1,.14-.08,1.12,1.12,0,0,1,.26-.06h.83a1.12,1.12,0,0,1,.26.06.3.3,0,0,1,.14.08.16.16,0,0,1,0,.12Z" transform="translate(-5.49 -8.11)"/><path class="cls-3" d="M62.17,51.38a2.44,2.44,0,0,1,0,.29,1.25,1.25,0,0,1,0,.21s0,.1,0,.13l-.11.13a1.64,1.64,0,0,1-.28.19,2.34,2.34,0,0,1-.45.2,4,4,0,0,1-.55.15,4.07,4.07,0,0,1-.61,0,3.24,3.24,0,0,1-1.25-.22,2.28,2.28,0,0,1-.91-.64,2.79,2.79,0,0,1-.56-1,4.65,4.65,0,0,1-.19-1.4,5,5,0,0,1,.23-1.59,3,3,0,0,1,.64-1.1,2.55,2.55,0,0,1,1-.65,3.45,3.45,0,0,1,1.23-.21,2.47,2.47,0,0,1,.54.05,2.52,2.52,0,0,1,.49.13,2.2,2.2,0,0,1,.41.18,1.85,1.85,0,0,1,.26.18l.1.12a.46.46,0,0,1,0,.14s0,.12,0,.2,0,.18,0,.29a1.77,1.77,0,0,1-.07.56c0,.1-.11.16-.18.16a.4.4,0,0,1-.25-.1l-.3-.21a1.91,1.91,0,0,0-.43-.21,1.49,1.49,0,0,0-.59-.1,1.16,1.16,0,0,0-1,.52A2.63,2.63,0,0,0,59,49.29a3.75,3.75,0,0,0,.09.87,1.82,1.82,0,0,0,.27.63,1.12,1.12,0,0,0,.43.38,1.49,1.49,0,0,0,.62.13,1.62,1.62,0,0,0,.61-.11,2,2,0,0,0,.44-.24,3.66,3.66,0,0,0,.33-.23.38.38,0,0,1,.22-.11.13.13,0,0,1,.1,0,.22.22,0,0,1,.06.12,1.19,1.19,0,0,1,0,.24C62.17,51.1,62.17,51.23,62.17,51.38Z" transform="translate(-5.49 -8.11)"/><path class="cls-3" d="M69.37,46a.53.53,0,0,1,.4.12.49.49,0,0,1,.11.36v5.85a.19.19,0,0,1,0,.12.26.26,0,0,1-.13.08.87.87,0,0,1-.27.05,2.49,2.49,0,0,1-.41,0,2.56,2.56,0,0,1-.42,0,.8.8,0,0,1-.26-.05.3.3,0,0,1-.14-.08.19.19,0,0,1,0-.12V47.41H65.43v2.87a1.5,1.5,0,0,0,.15.75.64.64,0,0,0,.57.24.9.9,0,0,0,.24,0l.2,0,.14-.06.11,0,.07,0a.14.14,0,0,1,.06.1.69.69,0,0,1,0,.19,2.58,2.58,0,0,1,0,.32,1.72,1.72,0,0,1,0,.45.55.55,0,0,1-.09.23.57.57,0,0,1-.19.12l-.28.09-.35.06-.38,0a2.93,2.93,0,0,1-.89-.13,1.48,1.48,0,0,1-.62-.4,1.77,1.77,0,0,1-.36-.68,3.52,3.52,0,0,1-.12-1V47.41H63c-.09,0-.15,0-.2-.16a1.6,1.6,0,0,1-.07-.53,3,3,0,0,1,0-.34,1,1,0,0,1,.05-.22s0-.09.09-.11A.21.21,0,0,1,63,46h.72V44.66a.2.2,0,0,1,0-.13.33.33,0,0,1,.14-.09,1.2,1.2,0,0,1,.26,0l.42,0,.42,0a1.2,1.2,0,0,1,.26,0,.56.56,0,0,1,.14.09.28.28,0,0,1,0,.13V46ZM70,44.19a1,1,0,0,1-.21.71,1.12,1.12,0,0,1-.79.2,1.15,1.15,0,0,1-.78-.19,1.31,1.31,0,0,1,0-1.41,1.12,1.12,0,0,1,.79-.2,1.17,1.17,0,0,1,.78.19A1,1,0,0,1,70,44.19Z" transform="translate(-5.49 -8.11)"/><path class="cls-3" d="M77.78,49.24a4.87,4.87,0,0,1-.2,1.42A3,3,0,0,1,77,51.77a2.57,2.57,0,0,1-1,.71,3.9,3.9,0,0,1-1.47.26A4,4,0,0,1,73,52.51a2.46,2.46,0,0,1-1.58-1.71,4.88,4.88,0,0,1-.19-1.44,4.56,4.56,0,0,1,.2-1.42,3,3,0,0,1,.63-1.11,2.77,2.77,0,0,1,1-.72,4.56,4.56,0,0,1,2.89,0,2.47,2.47,0,0,1,1,.66,2.61,2.61,0,0,1,.59,1.06A4.83,4.83,0,0,1,77.78,49.24ZM76,49.31a4.28,4.28,0,0,0-.07-.83,2,2,0,0,0-.24-.66,1.21,1.21,0,0,0-.46-.44,1.41,1.41,0,0,0-.71-.16,1.54,1.54,0,0,0-.67.14,1.19,1.19,0,0,0-.48.41,2,2,0,0,0-.27.65,3.75,3.75,0,0,0-.09.87,4.35,4.35,0,0,0,.07.83,2.15,2.15,0,0,0,.24.66,1.26,1.26,0,0,0,.46.43,1.52,1.52,0,0,0,.71.15,1.48,1.48,0,0,0,.68-.14,1.29,1.29,0,0,0,.47-.4,2,2,0,0,0,.27-.65A3.72,3.72,0,0,0,76,49.31Z" transform="translate(-5.49 -8.11)"/><path class="cls-3" d="M85,52.35a.19.19,0,0,1,0,.12.26.26,0,0,1-.13.08.87.87,0,0,1-.27.05,2.49,2.49,0,0,1-.41,0,2.56,2.56,0,0,1-.42,0,.8.8,0,0,1-.26-.05.3.3,0,0,1-.14-.08.19.19,0,0,1,0-.12V48.87a2.6,2.6,0,0,0-.07-.7,1.3,1.3,0,0,0-.18-.43.86.86,0,0,0-.32-.28,1,1,0,0,0-.46-.1,1.12,1.12,0,0,0-.66.24,3.75,3.75,0,0,0-.7.69v4.06a.19.19,0,0,1,0,.12.3.3,0,0,1-.14.08.8.8,0,0,1-.26.05,4.42,4.42,0,0,1-.84,0,.92.92,0,0,1-.26-.05.37.37,0,0,1-.14-.08.19.19,0,0,1,0-.12v-6.1a.21.21,0,0,1,0-.12.32.32,0,0,1,.13-.08.94.94,0,0,1,.23-.06h.71a.75.75,0,0,1,.22.06.28.28,0,0,1,.12.08.21.21,0,0,1,0,.12V47a4.16,4.16,0,0,1,1-.82,2.34,2.34,0,0,1,1.09-.27,2.4,2.4,0,0,1,1,.21,1.87,1.87,0,0,1,.69.55,2.43,2.43,0,0,1,.38.83A4.65,4.65,0,0,1,85,48.58Z" transform="translate(-5.49 -8.11)"/><path class="cls-3" d="M99.15,46.24a1.41,1.41,0,0,1,0,.18,2.91,2.91,0,0,1-.08.32l-1.62,5.51a1.14,1.14,0,0,1-.09.19.3.3,0,0,1-.17.11,1.07,1.07,0,0,1-.32.06h-.54a4.28,4.28,0,0,1-.55,0,1.94,1.94,0,0,1-.33-.05.41.41,0,0,1-.18-.12.61.61,0,0,1-.08-.18l-1-3.7,0-.06v.06l-1,3.7a.47.47,0,0,1-.07.19.33.33,0,0,1-.18.11,1.22,1.22,0,0,1-.33.06H92a4.28,4.28,0,0,1-.55,0,1.94,1.94,0,0,1-.33-.05.32.32,0,0,1-.17-.12.33.33,0,0,1-.08-.18l-1.62-5.51a2.44,2.44,0,0,1-.08-.32,1.21,1.21,0,0,1,0-.18.21.21,0,0,1,0-.12.31.31,0,0,1,.14-.09l.27,0h.86a1.31,1.31,0,0,1,.27,0,.22.22,0,0,1,.13.09.35.35,0,0,1,.06.14l1.21,4.48v.08l0-.08,1.13-4.48a.61.61,0,0,1,.07-.14.25.25,0,0,1,.13-.09,1.09,1.09,0,0,1,.25,0h.82l.25,0a.26.26,0,0,1,.13.08.34.34,0,0,1,.06.12l1.22,4.52,0,.07v-.08l1.16-4.48a.35.35,0,0,1,.06-.14.24.24,0,0,1,.14-.09,1.2,1.2,0,0,1,.26,0h.83A1.31,1.31,0,0,1,99,46a.33.33,0,0,1,.13.09A.21.21,0,0,1,99.15,46.24Z" transform="translate(-5.49 -8.11)"/><path class="cls-3" d="M106.3,49.24a4.55,4.55,0,0,1-.21,1.42,2.88,2.88,0,0,1-.62,1.11,2.64,2.64,0,0,1-1,.71,3.9,3.9,0,0,1-1.47.26,4,4,0,0,1-1.42-.23A2.46,2.46,0,0,1,100,50.8a4.86,4.86,0,0,1-.2-1.44,4.55,4.55,0,0,1,.21-1.42,3,3,0,0,1,.63-1.11,2.77,2.77,0,0,1,1-.72,4.56,4.56,0,0,1,2.89,0,2.47,2.47,0,0,1,1,.66,2.61,2.61,0,0,1,.59,1.06A4.83,4.83,0,0,1,106.3,49.24Zm-1.77.07a4.28,4.28,0,0,0-.07-.83,1.78,1.78,0,0,0-.25-.66,1.12,1.12,0,0,0-.45-.44,1.41,1.41,0,0,0-.71-.16,1.54,1.54,0,0,0-.67.14,1.19,1.19,0,0,0-.48.41,2,2,0,0,0-.27.65,3.75,3.75,0,0,0-.09.87,4.35,4.35,0,0,0,.07.83,2.15,2.15,0,0,0,.24.66,1.19,1.19,0,0,0,.46.43,1.52,1.52,0,0,0,.71.15,1.48,1.48,0,0,0,.68-.14,1.29,1.29,0,0,0,.47-.4,2,2,0,0,0,.27-.65A3.72,3.72,0,0,0,104.53,49.31Z" transform="translate(-5.49 -8.11)"/><path class="cls-3" d="M111.58,46.82c0,.16,0,.3,0,.4a1.18,1.18,0,0,1,0,.25.22.22,0,0,1-.07.12.2.2,0,0,1-.11,0,.32.32,0,0,1-.13,0l-.15-.05-.19,0a.78.78,0,0,0-.22,0,.75.75,0,0,0-.29.06,1.4,1.4,0,0,0-.3.18,2.54,2.54,0,0,0-.32.33q-.17.21-.36.51v3.8a.19.19,0,0,1,0,.12.3.3,0,0,1-.14.08.8.8,0,0,1-.26.05,4.42,4.42,0,0,1-.84,0,.92.92,0,0,1-.26-.05.37.37,0,0,1-.14-.08.19.19,0,0,1,0-.12v-6.1a.21.21,0,0,1,0-.12.32.32,0,0,1,.13-.08.94.94,0,0,1,.23-.06h.71a.75.75,0,0,1,.22.06.28.28,0,0,1,.12.08.21.21,0,0,1,0,.12V47a4.19,4.19,0,0,1,.45-.56,3.08,3.08,0,0,1,.4-.36,1.7,1.7,0,0,1,.39-.18,1.58,1.58,0,0,1,.38,0h.19l.21,0a.74.74,0,0,1,.19.05.33.33,0,0,1,.12.06.21.21,0,0,1,.06.08.81.81,0,0,1,0,.11,1.09,1.09,0,0,1,0,.22C111.57,46.52,111.58,46.65,111.58,46.82Z" transform="translate(-5.49 -8.11)"/><path class="cls-3" d="M118.3,52.35a.21.21,0,0,1,0,.12.24.24,0,0,1-.14.09l-.27,0a2.83,2.83,0,0,1-.45,0H117a1.72,1.72,0,0,1-.29,0,.54.54,0,0,1-.17-.08.58.58,0,0,1-.11-.15l-2-3.21v3.23a.19.19,0,0,1,0,.12.37.37,0,0,1-.14.08.93.93,0,0,1-.27.05,2.37,2.37,0,0,1-.41,0,2.56,2.56,0,0,1-.42,0,.8.8,0,0,1-.26-.05.3.3,0,0,1-.14-.08.19.19,0,0,1,0-.12v-9a.16.16,0,0,1,0-.12.32.32,0,0,1,.14-.1,1.2,1.2,0,0,1,.26,0,2.42,2.42,0,0,1,.42,0,2.22,2.22,0,0,1,.41,0,1.46,1.46,0,0,1,.27,0,.39.39,0,0,1,.14.1.16.16,0,0,1,0,.12v5.35l1.8-2.43a.86.86,0,0,1,.13-.14.38.38,0,0,1,.18-.09,1.49,1.49,0,0,1,.28-.06h.85a1.33,1.33,0,0,1,.28.06.35.35,0,0,1,.15.08.18.18,0,0,1,0,.13.63.63,0,0,1,0,.22,1.32,1.32,0,0,1-.15.24l-1.79,2,2.07,3.19.12.23A.67.67,0,0,1,118.3,52.35Z" transform="translate(-5.49 -8.11)"/><path class="cls-3" d="M124.61,49.12a.69.69,0,0,1-.14.47.53.53,0,0,1-.39.15h-3.71a2.53,2.53,0,0,0,.09.7,1.27,1.27,0,0,0,.29.54,1.35,1.35,0,0,0,.52.34,2.22,2.22,0,0,0,.77.12,3.74,3.74,0,0,0,.79-.07,5.18,5.18,0,0,0,.59-.14l.41-.14a.67.67,0,0,1,.27-.07.15.15,0,0,1,.1,0s0,0,.07.08a.6.6,0,0,1,0,.18,2.27,2.27,0,0,1,0,.28,2.09,2.09,0,0,1,0,.26.9.9,0,0,1,0,.18.34.34,0,0,1,0,.12.36.36,0,0,1-.07.1.77.77,0,0,1-.24.13,3.1,3.1,0,0,1-.51.16c-.2.05-.44.1-.7.14a5.77,5.77,0,0,1-.85.06,4.44,4.44,0,0,1-1.43-.21,2.53,2.53,0,0,1-1-.62,2.6,2.6,0,0,1-.61-1,5.12,5.12,0,0,1-.2-1.49,4.79,4.79,0,0,1,.21-1.47,3.16,3.16,0,0,1,.62-1.11,2.56,2.56,0,0,1,1-.69,3.35,3.35,0,0,1,1.3-.24,3.41,3.41,0,0,1,1.31.23,2.41,2.41,0,0,1,.89.62,2.56,2.56,0,0,1,.51.95,4.07,4.07,0,0,1,.17,1.19Zm-1.67-.49a1.79,1.79,0,0,0-.29-1.14,1.14,1.14,0,0,0-1-.41,1.26,1.26,0,0,0-.57.12,1.2,1.2,0,0,0-.41.33,1.6,1.6,0,0,0-.24.49,2.36,2.36,0,0,0-.1.61Z" transform="translate(-5.49 -8.11)"/><path class="cls-3" d="M129.94,46.82c0,.16,0,.3,0,.4a.76.76,0,0,1,0,.25.18.18,0,0,1-.07.12.2.2,0,0,1-.11,0,.25.25,0,0,1-.12,0l-.16-.05-.19,0a.73.73,0,0,0-.22,0,.75.75,0,0,0-.29.06,1.69,1.69,0,0,0-.3.18,2.54,2.54,0,0,0-.32.33q-.16.21-.36.51v3.8a.19.19,0,0,1,0,.12.26.26,0,0,1-.14.08.8.8,0,0,1-.26.05,2.56,2.56,0,0,1-.42,0,2.43,2.43,0,0,1-.41,0,.93.93,0,0,1-.27-.05.37.37,0,0,1-.14-.08.28.28,0,0,1,0-.12v-6.1a.16.16,0,0,1,0-.12.23.23,0,0,1,.12-.08.94.94,0,0,1,.23-.06h.71a.75.75,0,0,1,.22.06.28.28,0,0,1,.12.08.21.21,0,0,1,0,.12V47a4.19,4.19,0,0,1,.45-.56,2.57,2.57,0,0,1,.41-.36,1.46,1.46,0,0,1,.38-.18,1.65,1.65,0,0,1,.38,0h.19l.21,0,.2.05.12.06a.35.35,0,0,1,0,.08.81.81,0,0,1,0,.11,1.09,1.09,0,0,1,0,.22C129.94,46.52,129.94,46.65,129.94,46.82Z" transform="translate(-5.49 -8.11)"/><path class="cls-3" d="M135.12,50.63a2,2,0,0,1-.19.91,1.71,1.71,0,0,1-.56.66,2.19,2.19,0,0,1-.84.4,3.86,3.86,0,0,1-1.05.14,4.51,4.51,0,0,1-.65-.05c-.21,0-.39-.08-.56-.13l-.41-.16a1.09,1.09,0,0,1-.24-.16.42.42,0,0,1-.11-.22,1.78,1.78,0,0,1,0-.46,2.58,2.58,0,0,1,0-.32.78.78,0,0,1,0-.19s0-.08.07-.09a.17.17,0,0,1,.1,0,.5.5,0,0,1,.22.09l.37.19a4.69,4.69,0,0,0,.51.19,2.19,2.19,0,0,0,.66.09,1.7,1.7,0,0,0,.41-.05,1,1,0,0,0,.32-.14.7.7,0,0,0,.2-.22.79.79,0,0,0,.07-.32.56.56,0,0,0-.13-.35,1.33,1.33,0,0,0-.34-.26,3.49,3.49,0,0,0-.47-.2l-.54-.21-.54-.27a2.07,2.07,0,0,1-.47-.37,1.59,1.59,0,0,1-.33-.53,1.8,1.8,0,0,1-.13-.73,2,2,0,0,1,.17-.81,1.73,1.73,0,0,1,.49-.62,2.41,2.41,0,0,1,.78-.41,3.74,3.74,0,0,1,1-.14,3.43,3.43,0,0,1,.56,0l.49.1a3.67,3.67,0,0,1,.37.14l.21.12a.41.41,0,0,1,.09.1.5.5,0,0,1,0,.13s0,.1,0,.17,0,.16,0,.27,0,.22,0,.3a.6.6,0,0,1,0,.18q0,.08-.06.09a.17.17,0,0,1-.1,0,.64.64,0,0,1-.19-.07,3.15,3.15,0,0,0-.32-.16l-.45-.15a2.17,2.17,0,0,0-.59-.07,1.22,1.22,0,0,0-.4.05.66.66,0,0,0-.28.13.68.68,0,0,0-.17.21.75.75,0,0,0,0,.26.48.48,0,0,0,.13.35,1.33,1.33,0,0,0,.34.26,3.66,3.66,0,0,0,.48.2l.55.21a4.55,4.55,0,0,1,.55.26,2.19,2.19,0,0,1,.48.37,1.87,1.87,0,0,1,.34.52A1.83,1.83,0,0,1,135.12,50.63Z" transform="translate(-5.49 -8.11)"/><path class="cls-3" d="M17.69,66.73A2.77,2.77,0,0,1,17.43,68a2.56,2.56,0,0,1-.71.88,2.92,2.92,0,0,1-1,.53,4.33,4.33,0,0,1-1.27.18,4.54,4.54,0,0,1-.85-.08,4.9,4.9,0,0,1-.69-.18,3.11,3.11,0,0,1-.51-.22,1.69,1.69,0,0,1-.29-.21A.42.42,0,0,1,12,68.6a2,2,0,0,1,0-.48c0-.15,0-.26,0-.36a1,1,0,0,1,.05-.23.32.32,0,0,1,.08-.13.21.21,0,0,1,.12,0,.58.58,0,0,1,.27.12c.12.07.26.16.45.25a4.68,4.68,0,0,0,.65.25,3.31,3.31,0,0,0,.88.11A2.16,2.16,0,0,0,15,68a1.4,1.4,0,0,0,.44-.22,1,1,0,0,0,.27-.36,1,1,0,0,0,.1-.47.91.91,0,0,0-.16-.52,1.77,1.77,0,0,0-.43-.38,5.58,5.58,0,0,0-.6-.31l-.69-.31a5.76,5.76,0,0,1-.69-.38,2.85,2.85,0,0,1-.6-.5,2.62,2.62,0,0,1-.35-2.75,2.16,2.16,0,0,1,.63-.8,2.88,2.88,0,0,1,.94-.48A4.39,4.39,0,0,1,15,60.38a3.35,3.35,0,0,1,.63,0,3.51,3.51,0,0,1,.58.13,2.52,2.52,0,0,1,.49.18,1.63,1.63,0,0,1,.28.17l.09.12a.34.34,0,0,1,0,.12c0,.06,0,.12,0,.2v.3a3.22,3.22,0,0,1,0,.33,1.17,1.17,0,0,1,0,.23.32.32,0,0,1-.07.13.16.16,0,0,1-.12,0,.52.52,0,0,1-.24-.1l-.4-.2a3.28,3.28,0,0,0-.56-.21,2.5,2.5,0,0,0-.69-.09,1.61,1.61,0,0,0-.51.07.89.89,0,0,0-.36.2.65.65,0,0,0-.22.3,1,1,0,0,0-.08.38.82.82,0,0,0,.17.51,1.46,1.46,0,0,0,.43.38,4.93,4.93,0,0,0,.61.32c.23.09.46.2.7.31a7.73,7.73,0,0,1,.69.37,2.67,2.67,0,0,1,.61.5,2.25,2.25,0,0,1,.43.68A2.38,2.38,0,0,1,17.69,66.73Z" transform="translate(-5.49 -8.11)"/><path class="cls-3" d="M22.57,68.55a2.52,2.52,0,0,1,0,.46.57.57,0,0,1-.1.22.41.41,0,0,1-.18.12l-.28.09-.35.06-.38,0a2.93,2.93,0,0,1-.89-.13,1.48,1.48,0,0,1-.62-.4,1.64,1.64,0,0,1-.36-.68,3.52,3.52,0,0,1-.12-1V64.21h-.73c-.09,0-.15,0-.2-.16a1.55,1.55,0,0,1-.07-.53,3,3,0,0,1,0-.34.81.81,0,0,1,.05-.21.23.23,0,0,1,.09-.12.21.21,0,0,1,.12,0h.72V61.46a.2.2,0,0,1,0-.13.33.33,0,0,1,.14-.09,1.2,1.2,0,0,1,.26-.05l.42,0,.42,0a1.2,1.2,0,0,1,.26.05.56.56,0,0,1,.14.09.28.28,0,0,1,0,.13v1.36h1.32a.21.21,0,0,1,.12,0,.23.23,0,0,1,.09.12.81.81,0,0,1,.05.21,3,3,0,0,1,0,.34,1.55,1.55,0,0,1-.07.53c-.05.11-.11.16-.2.16H21v2.87a1.5,1.5,0,0,0,.15.75.63.63,0,0,0,.56.24.94.94,0,0,0,.25,0l.2,0,.14-.06.1,0,.08,0a.14.14,0,0,1,.06.1.78.78,0,0,1,0,.19A2.58,2.58,0,0,1,22.57,68.55Z" transform="translate(-5.49 -8.11)"/><path class="cls-3" d="M27.73,63.62c0,.16,0,.3,0,.4a1.18,1.18,0,0,1,0,.25.22.22,0,0,1-.07.12.2.2,0,0,1-.11,0,.25.25,0,0,1-.12,0l-.16-.05-.19,0a.73.73,0,0,0-.22,0,.75.75,0,0,0-.29.06,1.4,1.4,0,0,0-.3.18,2.54,2.54,0,0,0-.32.33q-.16.21-.36.51v3.8a.19.19,0,0,1,0,.12.3.3,0,0,1-.14.08.8.8,0,0,1-.26.05,4.42,4.42,0,0,1-.84,0,.92.92,0,0,1-.26-.05.37.37,0,0,1-.14-.08.19.19,0,0,1,0-.12v-6.1a.27.27,0,0,1,0-.12.32.32,0,0,1,.13-.08.94.94,0,0,1,.23-.06h.71a.75.75,0,0,1,.22.06.28.28,0,0,1,.12.08.27.27,0,0,1,0,.12v.76a4.19,4.19,0,0,1,.45-.56,3.08,3.08,0,0,1,.4-.36,1.7,1.7,0,0,1,.39-.18,1.58,1.58,0,0,1,.38-.05h.19l.21,0,.2,0,.11.06a.21.21,0,0,1,.06.08l0,.11a1.09,1.09,0,0,1,0,.22C27.73,63.32,27.73,63.45,27.73,63.62Z" transform="translate(-5.49 -8.11)"/><path class="cls-3" d="M34.26,65.92a.65.65,0,0,1-.14.47.49.49,0,0,1-.38.15H30a2.52,2.52,0,0,0,.1.7,1.27,1.27,0,0,0,.29.54,1.18,1.18,0,0,0,.52.34,2.16,2.16,0,0,0,.76.12,3.84,3.84,0,0,0,.8-.07,5.75,5.75,0,0,0,.59-.14l.41-.14a.67.67,0,0,1,.27-.07.17.17,0,0,1,.1,0s0,0,.07.08a.6.6,0,0,1,0,.18c0,.07,0,.17,0,.28s0,.18,0,.26,0,.13,0,.18a.34.34,0,0,1,0,.12.36.36,0,0,1-.07.1.74.74,0,0,1-.25.13,3,3,0,0,1-.5.16,6.35,6.35,0,0,1-1.55.2,4.4,4.4,0,0,1-1.43-.21,2.4,2.4,0,0,1-1-.62,2.49,2.49,0,0,1-.61-1,5.2,5.2,0,0,1,0-3,3.14,3.14,0,0,1,.61-1.11,2.73,2.73,0,0,1,1-.69,3.74,3.74,0,0,1,2.61,0,2.45,2.45,0,0,1,.9.62,2.56,2.56,0,0,1,.51.95,4.08,4.08,0,0,1,.16,1.19Zm-1.67-.49a1.73,1.73,0,0,0-.29-1.14,1.12,1.12,0,0,0-1-.41,1.26,1.26,0,0,0-.57.12,1.16,1.16,0,0,0-.4.33,1.62,1.62,0,0,0-.25.49,3,3,0,0,0-.1.61Z" transform="translate(-5.49 -8.11)"/><path class="cls-3" d="M41.31,65.92a.69.69,0,0,1-.14.47.5.5,0,0,1-.39.15H37.07a2.53,2.53,0,0,0,.09.7,1.29,1.29,0,0,0,.3.54,1.18,1.18,0,0,0,.52.34,2.13,2.13,0,0,0,.76.12,3.68,3.68,0,0,0,.79-.07,4.71,4.71,0,0,0,.59-.14l.42-.14a.67.67,0,0,1,.26-.07.18.18,0,0,1,.11,0,.19.19,0,0,1,.07.08.66.66,0,0,1,0,.18,2.27,2.27,0,0,1,0,.28v.26c0,.07,0,.13,0,.18A.83.83,0,0,1,41,69a.39.39,0,0,1-.08.1.77.77,0,0,1-.24.13,2.82,2.82,0,0,1-.51.16,5.4,5.4,0,0,1-.7.14,5.67,5.67,0,0,1-.85.06,4.38,4.38,0,0,1-1.42-.21,2.4,2.4,0,0,1-1-.62,2.62,2.62,0,0,1-.62-1,5.12,5.12,0,0,1-.2-1.49,4.83,4.83,0,0,1,.21-1.47,3.33,3.33,0,0,1,.62-1.11,2.73,2.73,0,0,1,1-.69,3.74,3.74,0,0,1,2.61,0,2.41,2.41,0,0,1,.89.62,2.44,2.44,0,0,1,.52.95,4.08,4.08,0,0,1,.16,1.19Zm-1.67-.49a1.73,1.73,0,0,0-.29-1.14,1.14,1.14,0,0,0-1-.41,1.26,1.26,0,0,0-.57.12,1.08,1.08,0,0,0-.4.33,1.62,1.62,0,0,0-.25.49,2.43,2.43,0,0,0-.1.61Z" transform="translate(-5.49 -8.11)"/><path class="cls-3" d="M46.24,68.55a1.86,1.86,0,0,1,0,.46.45.45,0,0,1-.1.22.41.41,0,0,1-.18.12l-.28.09-.35.06-.38,0a2.93,2.93,0,0,1-.89-.13,1.55,1.55,0,0,1-.62-.4,1.77,1.77,0,0,1-.36-.68,3.52,3.52,0,0,1-.12-1V64.21h-.73c-.08,0-.15,0-.2-.16a1.62,1.62,0,0,1-.06-.53,3.33,3.33,0,0,1,0-.34A.81.81,0,0,1,42,63a.41.41,0,0,1,.09-.12.21.21,0,0,1,.12,0h.72V61.46a.28.28,0,0,1,0-.13.42.42,0,0,1,.14-.09,1.2,1.2,0,0,1,.26-.05l.42,0,.42,0a1.2,1.2,0,0,1,.26.05.42.42,0,0,1,.14.09.2.2,0,0,1,0,.13v1.36H46a.27.27,0,0,1,.12,0,.28.28,0,0,1,.08.12.81.81,0,0,1,0,.21,3,3,0,0,1,0,.34,1.34,1.34,0,0,1-.07.53.21.21,0,0,1-.2.16H44.64v2.87a1.39,1.39,0,0,0,.16.75.61.61,0,0,0,.56.24.9.9,0,0,0,.24,0l.2,0,.14-.06.11,0,.08,0a.19.19,0,0,1,0,.1.78.78,0,0,1,0,.19A2.58,2.58,0,0,1,46.24,68.55Z" transform="translate(-5.49 -8.11)"/><path class="cls-3" d="M56.26,63v.09s0,.06,0,.1a.69.69,0,0,1,0,.13,1.67,1.67,0,0,1,0,.18l-1.83,5.51a.48.48,0,0,1-.09.19.36.36,0,0,1-.19.11,1.49,1.49,0,0,1-.37.06H53.1a5.17,5.17,0,0,1-.6,0,2.06,2.06,0,0,1-.35-.05.39.39,0,0,1-.19-.12.38.38,0,0,1-.09-.18L50,63.54c0-.1-.05-.18-.06-.25a.69.69,0,0,1,0-.16V63a.19.19,0,0,1,0-.12.22.22,0,0,1,.13-.08,1.2,1.2,0,0,1,.26-.05h.87l.27.05a.21.21,0,0,1,.14.09.61.61,0,0,1,.07.14l1.39,4.48,0,.17,0-.17,1.37-4.48a.35.35,0,0,1,.06-.14.28.28,0,0,1,.14-.09l.26-.05h.83a1.09,1.09,0,0,1,.25.05.32.32,0,0,1,.13.08A.27.27,0,0,1,56.26,63Z" transform="translate(-5.49 -8.11)"/><path class="cls-3" d="M62.78,65.92a.69.69,0,0,1-.14.47.53.53,0,0,1-.39.15H58.54a2.53,2.53,0,0,0,.09.7,1.27,1.27,0,0,0,.29.54,1.24,1.24,0,0,0,.52.34,2.18,2.18,0,0,0,.77.12,3.74,3.74,0,0,0,.79-.07,5.18,5.18,0,0,0,.59-.14l.41-.14a.67.67,0,0,1,.27-.07.17.17,0,0,1,.1,0s.05,0,.07.08a.6.6,0,0,1,0,.18c0,.07,0,.17,0,.28a2.09,2.09,0,0,1,0,.26.9.9,0,0,1,0,.18.34.34,0,0,1,0,.12.36.36,0,0,1-.07.1.77.77,0,0,1-.24.13,3.45,3.45,0,0,1-.51.16,6.17,6.17,0,0,1-1.55.2,4.44,4.44,0,0,1-1.43-.21,2.4,2.4,0,0,1-1-.62,2.6,2.6,0,0,1-.61-1,5.44,5.44,0,0,1,0-3,3.31,3.31,0,0,1,.61-1.11,2.68,2.68,0,0,1,1-.69,3.31,3.31,0,0,1,1.3-.24,3.45,3.45,0,0,1,1.31.23,2.41,2.41,0,0,1,.89.62,2.56,2.56,0,0,1,.51.95,4.07,4.07,0,0,1,.17,1.19Zm-1.67-.49a1.86,1.86,0,0,0-.29-1.14,1.14,1.14,0,0,0-1-.41,1.26,1.26,0,0,0-.57.12,1.11,1.11,0,0,0-.41.33,1.6,1.6,0,0,0-.24.49,2.43,2.43,0,0,0-.1.61Z" transform="translate(-5.49 -8.11)"/><path class="cls-3" d="M70,69.15a.19.19,0,0,1,0,.12.26.26,0,0,1-.13.08.87.87,0,0,1-.27.05,2.49,2.49,0,0,1-.41,0,2.56,2.56,0,0,1-.42,0,.8.8,0,0,1-.26-.05.3.3,0,0,1-.14-.08.19.19,0,0,1,0-.12V65.67a2.6,2.6,0,0,0-.07-.7,1.3,1.3,0,0,0-.18-.43.86.86,0,0,0-.32-.28,1,1,0,0,0-.46-.1,1.12,1.12,0,0,0-.66.24,3.75,3.75,0,0,0-.7.69v4.06a.19.19,0,0,1,0,.12.3.3,0,0,1-.14.08.8.8,0,0,1-.26.05,4.42,4.42,0,0,1-.84,0,.92.92,0,0,1-.26-.05.37.37,0,0,1-.14-.08.19.19,0,0,1,0-.12v-6.1a.27.27,0,0,1,0-.12.32.32,0,0,1,.13-.08.94.94,0,0,1,.23-.06h.71a.75.75,0,0,1,.22.06.28.28,0,0,1,.12.08.27.27,0,0,1,0,.12v.7a4.16,4.16,0,0,1,1-.82,2.34,2.34,0,0,1,1.09-.27,2.4,2.4,0,0,1,1,.21,1.87,1.87,0,0,1,.69.55,2.43,2.43,0,0,1,.38.83A4.65,4.65,0,0,1,70,65.38Z" transform="translate(-5.49 -8.11)"/><path class="cls-3" d="M77.49,69.15a.16.16,0,0,1,0,.12.2.2,0,0,1-.11.09,1,1,0,0,1-.23,0h-.7a1,1,0,0,1-.22,0,.19.19,0,0,1-.12-.09.16.16,0,0,1,0-.12v-.68a3.78,3.78,0,0,1-1,.79,2.4,2.4,0,0,1-1.14.28,2.37,2.37,0,0,1-1.18-.27,2.31,2.31,0,0,1-.79-.73,3.22,3.22,0,0,1-.44-1.07,6,6,0,0,1-.14-1.29,5.45,5.45,0,0,1,.18-1.46A3.15,3.15,0,0,1,72,63.61a2.24,2.24,0,0,1,.83-.7A2.5,2.5,0,0,1,74,62.66a2.05,2.05,0,0,1,.93.21,3.39,3.39,0,0,1,.83.61v-3.3a.21.21,0,0,1,0-.12A.39.39,0,0,1,76,60l.26-.05a4.42,4.42,0,0,1,.84,0,1.33,1.33,0,0,1,.26.05.39.39,0,0,1,.14.1.21.21,0,0,1,0,.12Zm-1.71-4.08a4,4,0,0,0-.71-.71,1.21,1.21,0,0,0-.71-.24,1,1,0,0,0-.58.16,1.41,1.41,0,0,0-.39.45,2.46,2.46,0,0,0-.21.63,3.29,3.29,0,0,0-.08.71,3.64,3.64,0,0,0,.07.74,2.15,2.15,0,0,0,.2.65,1.18,1.18,0,0,0,.37.45,1,1,0,0,0,.59.17,1.27,1.27,0,0,0,.34,0,1.13,1.13,0,0,0,.35-.17,2.25,2.25,0,0,0,.35-.3c.13-.13.26-.28.41-.46Z" transform="translate(-5.49 -8.11)"/><path class="cls-3" d="M85.38,66a4.87,4.87,0,0,1-.2,1.42,3,3,0,0,1-.63,1.11,2.57,2.57,0,0,1-1,.71,3.9,3.9,0,0,1-1.47.26,4.06,4.06,0,0,1-1.42-.23,2.55,2.55,0,0,1-1-.65A2.68,2.68,0,0,1,79,67.6a4.88,4.88,0,0,1-.19-1.44,4.55,4.55,0,0,1,.21-1.42,2.81,2.81,0,0,1,.62-1.11,2.86,2.86,0,0,1,1-.72,4.11,4.11,0,0,1,1.47-.25,4.28,4.28,0,0,1,1.42.22,2.57,2.57,0,0,1,1,.66,2.72,2.72,0,0,1,.58,1.06A4.83,4.83,0,0,1,85.38,66Zm-1.77.07a4.28,4.28,0,0,0-.07-.83,2,2,0,0,0-.24-.66,1.21,1.21,0,0,0-.46-.44,1.41,1.41,0,0,0-.71-.16,1.54,1.54,0,0,0-.67.14,1.16,1.16,0,0,0-.47.41,1.83,1.83,0,0,0-.28.65,3.75,3.75,0,0,0-.09.87,4.35,4.35,0,0,0,.07.83,2.15,2.15,0,0,0,.24.66,1.26,1.26,0,0,0,.46.43,1.52,1.52,0,0,0,.71.15,1.45,1.45,0,0,0,.68-.14,1.21,1.21,0,0,0,.47-.4,2,2,0,0,0,.27-.65A3.72,3.72,0,0,0,83.61,66.11Z" transform="translate(-5.49 -8.11)"/><path class="cls-3" d="M90.66,63.62c0,.16,0,.3,0,.4a1.09,1.09,0,0,1-.05.25.18.18,0,0,1-.07.12.18.18,0,0,1-.11,0,.25.25,0,0,1-.12,0l-.16-.05-.18,0a.85.85,0,0,0-.23,0,.75.75,0,0,0-.29.06,1.69,1.69,0,0,0-.3.18,3.43,3.43,0,0,0-.32.33q-.16.21-.36.51v3.8a.19.19,0,0,1,0,.12.26.26,0,0,1-.14.08.8.8,0,0,1-.26.05,2.56,2.56,0,0,1-.42,0,2.43,2.43,0,0,1-.41,0,.93.93,0,0,1-.27-.05.37.37,0,0,1-.14-.08.28.28,0,0,1,0-.12v-6.1a.19.19,0,0,1,0-.12.23.23,0,0,1,.12-.08,1.09,1.09,0,0,1,.23-.06h.71a.75.75,0,0,1,.22.06.28.28,0,0,1,.12.08.27.27,0,0,1,0,.12v.76a4.19,4.19,0,0,1,.45-.56,2.57,2.57,0,0,1,.41-.36,1.46,1.46,0,0,1,.38-.18,1.65,1.65,0,0,1,.38-.05H90l.22,0,.19,0,.12.06a.35.35,0,0,1,0,.08l0,.11a1.09,1.09,0,0,1,0,.22C90.66,63.32,90.66,63.45,90.66,63.62Z" transform="translate(-5.49 -8.11)"/><path class="cls-3" d="M95.84,67.43a2,2,0,0,1-.19.91,1.77,1.77,0,0,1-.55.66,2.31,2.31,0,0,1-.85.4,3.86,3.86,0,0,1-1,.14,4.51,4.51,0,0,1-.65-.05c-.21,0-.39-.08-.56-.13l-.41-.16a1.09,1.09,0,0,1-.24-.16.42.42,0,0,1-.11-.22,1.86,1.86,0,0,1,0-.46,2.92,2.92,0,0,1,0-.32.78.78,0,0,1,0-.19s0-.08.07-.09a.17.17,0,0,1,.1,0,.46.46,0,0,1,.22.09L92,68a4.69,4.69,0,0,0,.51.19,2.19,2.19,0,0,0,.66.09,1.7,1.7,0,0,0,.41-.05,1,1,0,0,0,.32-.14.7.7,0,0,0,.2-.22.79.79,0,0,0,.07-.32.56.56,0,0,0-.13-.35A1.17,1.17,0,0,0,93.7,67a3,3,0,0,0-.47-.2l-.54-.21q-.27-.12-.54-.27a2.07,2.07,0,0,1-.47-.37,1.49,1.49,0,0,1-.33-.53,1.8,1.8,0,0,1-.13-.73,2,2,0,0,1,.17-.81,1.73,1.73,0,0,1,.49-.62,2.37,2.37,0,0,1,.79-.41,3.61,3.61,0,0,1,1-.14,3.43,3.43,0,0,1,.56,0l.49.1a3.67,3.67,0,0,1,.37.14l.21.12a.27.27,0,0,1,.09.1.28.28,0,0,1,0,.13s0,.1,0,.17a2.1,2.1,0,0,1,0,.27,2.63,2.63,0,0,1,0,.3.6.6,0,0,1,0,.18q0,.08-.06.09a.17.17,0,0,1-.1,0,.64.64,0,0,1-.19-.07,3.15,3.15,0,0,0-.32-.16L94.33,64a2.12,2.12,0,0,0-.59-.07,1.22,1.22,0,0,0-.4,0,.73.73,0,0,0-.28.13.68.68,0,0,0-.17.21.75.75,0,0,0,0,.26.48.48,0,0,0,.13.35,1.33,1.33,0,0,0,.34.26,3.66,3.66,0,0,0,.48.2c.18.06.37.13.55.21a4.55,4.55,0,0,1,.55.26,2.19,2.19,0,0,1,.48.37,1.87,1.87,0,0,1,.34.52A1.83,1.83,0,0,1,95.84,67.43Z" transform="translate(-5.49 -8.11)"/><path class="cls-3" d="M17.69,83.53a2.77,2.77,0,0,1-.26,1.22,2.56,2.56,0,0,1-.71.88,3.09,3.09,0,0,1-1,.53,4.33,4.33,0,0,1-1.27.18,4.54,4.54,0,0,1-.85-.08,4.9,4.9,0,0,1-.69-.18,3.11,3.11,0,0,1-.51-.22,1.69,1.69,0,0,1-.29-.21A.45.45,0,0,1,12,85.4a2,2,0,0,1,0-.48c0-.15,0-.26,0-.36a1,1,0,0,1,.05-.23.32.32,0,0,1,.08-.13.21.21,0,0,1,.12,0,.58.58,0,0,1,.27.12l.45.25a4.68,4.68,0,0,0,.65.25,3.31,3.31,0,0,0,.88.11,2.16,2.16,0,0,0,.59-.08,1.4,1.4,0,0,0,.44-.22,1,1,0,0,0,.27-.36,1,1,0,0,0,.1-.47.91.91,0,0,0-.16-.52,1.77,1.77,0,0,0-.43-.38,5.58,5.58,0,0,0-.6-.31l-.69-.31a5.76,5.76,0,0,1-.69-.38,2.85,2.85,0,0,1-.6-.5,2.62,2.62,0,0,1-.35-2.75,2.16,2.16,0,0,1,.63-.8,2.88,2.88,0,0,1,.94-.48A4.39,4.39,0,0,1,15,77.18a3.35,3.35,0,0,1,.63,0,3.51,3.51,0,0,1,.58.13,2.52,2.52,0,0,1,.49.18,1.63,1.63,0,0,1,.28.17l.09.12a.34.34,0,0,1,0,.12c0,.06,0,.12,0,.2v.3a3.22,3.22,0,0,1,0,.33,1.17,1.17,0,0,1,0,.23.32.32,0,0,1-.07.13.16.16,0,0,1-.12,0,.52.52,0,0,1-.24-.1l-.4-.2a3.28,3.28,0,0,0-.56-.21,2.5,2.5,0,0,0-.69-.09,1.61,1.61,0,0,0-.51.07.89.89,0,0,0-.36.2.65.65,0,0,0-.22.3,1,1,0,0,0-.08.38.85.85,0,0,0,.17.51,1.46,1.46,0,0,0,.43.38,4.93,4.93,0,0,0,.61.32c.23.09.46.2.7.31a7.73,7.73,0,0,1,.69.37,2.67,2.67,0,0,1,.61.5,2.25,2.25,0,0,1,.43.68A2.38,2.38,0,0,1,17.69,83.53Z" transform="translate(-5.49 -8.11)"/><path class="cls-3" d="M24.59,82.72a.69.69,0,0,1-.14.47.5.5,0,0,1-.39.15H20.35a2.53,2.53,0,0,0,.09.7,1.29,1.29,0,0,0,.3.54,1.27,1.27,0,0,0,.52.34A2.13,2.13,0,0,0,22,85a3.74,3.74,0,0,0,.79-.07,4.71,4.71,0,0,0,.59-.14l.42-.14a.67.67,0,0,1,.26-.07.2.2,0,0,1,.11,0,.13.13,0,0,1,.06.08.4.4,0,0,1,0,.18,2.27,2.27,0,0,1,0,.28v.26a1.41,1.41,0,0,0,0,.18.33.33,0,0,1-.05.12.23.23,0,0,1-.07.1.77.77,0,0,1-.24.13,2.82,2.82,0,0,1-.51.16,5.4,5.4,0,0,1-.7.14,5.67,5.67,0,0,1-.85.06,4.33,4.33,0,0,1-1.42-.21,2.5,2.5,0,0,1-1-.62,2.72,2.72,0,0,1-.61-1.05A5.12,5.12,0,0,1,18.6,83a4.83,4.83,0,0,1,.21-1.47,3.16,3.16,0,0,1,.62-1.11,2.64,2.64,0,0,1,1-.69,3.35,3.35,0,0,1,1.3-.24,3.41,3.41,0,0,1,1.31.23,2.41,2.41,0,0,1,.89.62,2.44,2.44,0,0,1,.52,1,4.08,4.08,0,0,1,.16,1.19Zm-1.67-.49a1.73,1.73,0,0,0-.29-1.14,1.14,1.14,0,0,0-1-.41,1.26,1.26,0,0,0-.57.12,1.08,1.08,0,0,0-.4.33,1.62,1.62,0,0,0-.25.49,2.36,2.36,0,0,0-.1.61Z" transform="translate(-5.49 -8.11)"/><path class="cls-3" d="M31.08,85.82a.49.49,0,0,1,.06.2.17.17,0,0,1-.1.12,1,1,0,0,1-.3.06,3.87,3.87,0,0,1-.52,0h-.5a1.55,1.55,0,0,1-.29,0,.4.4,0,0,1-.16-.08.19.19,0,0,1-.08-.11l-1.13-2.16L26.93,86a.18.18,0,0,1-.07.11.35.35,0,0,1-.15.08,1.42,1.42,0,0,1-.27,0H26a3.25,3.25,0,0,1-.48,0,.71.71,0,0,1-.26-.06.14.14,0,0,1-.08-.12.3.3,0,0,1,.06-.2l1.68-3L25.33,80a.48.48,0,0,1-.06-.21.14.14,0,0,1,.09-.13.56.56,0,0,1,.28-.07,4,4,0,0,1,.53,0h.48a1,1,0,0,1,.28,0,.26.26,0,0,1,.15.06.38.38,0,0,1,.09.12l1.08,2,1.08-2a.36.36,0,0,1,.07-.1.26.26,0,0,1,.13-.07,1.07,1.07,0,0,1,.24,0h.9a.66.66,0,0,1,.26.06.16.16,0,0,1,.08.14.75.75,0,0,1-.08.22l-1.52,2.77Z" transform="translate(-5.49 -8.11)"/><path class="cls-3" d="M44.71,79.84a.62.62,0,0,1,0,.18,2.42,2.42,0,0,1-.07.32L43,85.85a.48.48,0,0,1-.09.19.27.27,0,0,1-.16.11,1.22,1.22,0,0,1-.33.06h-.54a4.45,4.45,0,0,1-.55,0,1.94,1.94,0,0,1-.33,0,.32.32,0,0,1-.17-.12.3.3,0,0,1-.08-.18l-1-3.7v-.06l0,.06-.94,3.7a.47.47,0,0,1-.08.19.27.27,0,0,1-.17.11,1.31,1.31,0,0,1-.34.06h-.54a4.2,4.2,0,0,1-.55,0,1.94,1.94,0,0,1-.33,0,.41.41,0,0,1-.18-.12.51.51,0,0,1-.08-.18l-1.61-5.51a2.44,2.44,0,0,1-.08-.32,1.41,1.41,0,0,1,0-.18.16.16,0,0,1,0-.12s.07-.06.14-.08a.8.8,0,0,1,.26,0h.87a1.2,1.2,0,0,1,.26,0,.24.24,0,0,1,.14.09l.06.14,1.21,4.48v0l1.14-4.48a.35.35,0,0,1,.06-.14.28.28,0,0,1,.14-.09,1,1,0,0,1,.25,0h.82l.25,0a.32.32,0,0,1,.13.08l.06.12,1.21,4.52,0,.07,0-.08L43,79.87a.58.58,0,0,1,0-.14.28.28,0,0,1,.14-.09,1.2,1.2,0,0,1,.26,0h.83a.73.73,0,0,1,.25,0c.07,0,.11,0,.13.08A.21.21,0,0,1,44.71,79.84Z" transform="translate(-5.49 -8.11)"/><path class="cls-3" d="M51.87,82.84a4.55,4.55,0,0,1-.21,1.42A3,3,0,0,1,51,85.37a2.68,2.68,0,0,1-1,.71,3.9,3.9,0,0,1-1.47.26,4,4,0,0,1-1.41-.23,2.59,2.59,0,0,1-1-.65,2.8,2.8,0,0,1-.59-1.06A4.88,4.88,0,0,1,45.33,83a4.55,4.55,0,0,1,.21-1.42,3.08,3.08,0,0,1,.62-1.11,2.81,2.81,0,0,1,1.05-.72,4.53,4.53,0,0,1,2.88,0,2.43,2.43,0,0,1,1,.66,2.59,2.59,0,0,1,.58,1.06A4.82,4.82,0,0,1,51.87,82.84Zm-1.78.07a4.28,4.28,0,0,0-.07-.83,1.78,1.78,0,0,0-.24-.66,1.19,1.19,0,0,0-.45-.44,1.42,1.42,0,0,0-.72-.16,1.57,1.57,0,0,0-.67.14,1.16,1.16,0,0,0-.47.41,2,2,0,0,0-.28.65,3.75,3.75,0,0,0-.09.87,4.33,4.33,0,0,0,.08.83,2.15,2.15,0,0,0,.24.66,1.16,1.16,0,0,0,.45.43,1.52,1.52,0,0,0,.71.15,1.45,1.45,0,0,0,.68-.14,1.21,1.21,0,0,0,.47-.4,1.83,1.83,0,0,0,.28-.65A4.42,4.42,0,0,0,50.09,82.91Z" transform="translate(-5.49 -8.11)"/><path class="cls-3" d="M57.14,80.42c0,.16,0,.3,0,.4a1.18,1.18,0,0,1,0,.25.22.22,0,0,1-.07.12.21.21,0,0,1-.12,0,.3.3,0,0,1-.12,0l-.15,0-.19-.05a.85.85,0,0,0-.23,0,.71.71,0,0,0-.28.06,1.19,1.19,0,0,0-.3.18,2.54,2.54,0,0,0-.32.33q-.16.21-.36.51V86a.28.28,0,0,1,0,.12.37.37,0,0,1-.14.08.93.93,0,0,1-.27,0,2.43,2.43,0,0,1-.41,0,2.56,2.56,0,0,1-.42,0,.8.8,0,0,1-.26,0,.26.26,0,0,1-.14-.08.19.19,0,0,1,0-.12v-6.1a.21.21,0,0,1,0-.12.23.23,0,0,1,.12-.08,1.09,1.09,0,0,1,.23-.06h.72a.85.85,0,0,1,.22.06.24.24,0,0,1,.11.08.21.21,0,0,1,0,.12v.76a3.53,3.53,0,0,1,.45-.56,2.54,2.54,0,0,1,.4-.36,1.85,1.85,0,0,1,.38-.18,1.74,1.74,0,0,1,.39-.05h.19l.21,0,.19,0,.12.06a.35.35,0,0,1,0,.08.28.28,0,0,1,0,.11s0,.12,0,.22Z" transform="translate(-5.49 -8.11)"/><path class="cls-3" d="M63.87,86a.16.16,0,0,1,0,.12.21.21,0,0,1-.14.09,1.3,1.3,0,0,1-.27,0,2.76,2.76,0,0,1-.44,0h-.45a1.55,1.55,0,0,1-.29,0,.61.61,0,0,1-.18-.08.56.56,0,0,1-.1-.15l-2-3.21V86a.19.19,0,0,1,0,.12.26.26,0,0,1-.14.08.8.8,0,0,1-.26,0,2.56,2.56,0,0,1-.42,0,2.43,2.43,0,0,1-.41,0,.93.93,0,0,1-.27,0,.37.37,0,0,1-.14-.08.28.28,0,0,1,0-.12V77a.21.21,0,0,1,0-.12.39.39,0,0,1,.14-.1,1.46,1.46,0,0,1,.27,0,2.29,2.29,0,0,1,.41,0,2.42,2.42,0,0,1,.42,0,1.2,1.2,0,0,1,.26,0,.27.27,0,0,1,.14.1.16.16,0,0,1,0,.12v5.35l1.81-2.43.12-.14a.51.51,0,0,1,.18-.09,1.7,1.7,0,0,1,.28-.06h.86a1.49,1.49,0,0,1,.28.06.35.35,0,0,1,.15.08.25.25,0,0,1,0,.13.63.63,0,0,1,0,.22,1.43,1.43,0,0,1-.16.24l-1.78,2,2.06,3.19a1,1,0,0,1,.12.23A.45.45,0,0,1,63.87,86Z" transform="translate(-5.49 -8.11)"/><path class="cls-3" d="M70.17,82.72a.69.69,0,0,1-.14.47.49.49,0,0,1-.38.15H65.93a2.19,2.19,0,0,0,.1.7,1.25,1.25,0,0,0,.81.88,2.16,2.16,0,0,0,.76.12,3.68,3.68,0,0,0,.79-.07,5.39,5.39,0,0,0,.6-.14l.41-.14a.67.67,0,0,1,.27-.07.17.17,0,0,1,.1,0s0,0,.07.08a.66.66,0,0,1,0,.18,2.27,2.27,0,0,1,0,.28v.26c0,.07,0,.13,0,.18a.83.83,0,0,1,0,.12.39.39,0,0,1-.08.1.77.77,0,0,1-.24.13,3,3,0,0,1-.5.16,6.35,6.35,0,0,1-1.56.2A4.38,4.38,0,0,1,66,86.13a2.4,2.4,0,0,1-1-.62,2.49,2.49,0,0,1-.61-1.05A4.78,4.78,0,0,1,64.18,83a4.54,4.54,0,0,1,.22-1.47A3.14,3.14,0,0,1,65,80.39a2.73,2.73,0,0,1,1-.69,3.74,3.74,0,0,1,2.61,0,2.45,2.45,0,0,1,.9.62,2.56,2.56,0,0,1,.51,1,4.08,4.08,0,0,1,.16,1.19Zm-1.67-.49a1.73,1.73,0,0,0-.29-1.14,1.12,1.12,0,0,0-1-.41,1.26,1.26,0,0,0-.57.12,1.16,1.16,0,0,0-.4.33,1.62,1.62,0,0,0-.25.49,2.88,2.88,0,0,0-.1.61Z" transform="translate(-5.49 -8.11)"/><path class="cls-3" d="M75.5,80.42c0,.16,0,.3,0,.4a1.18,1.18,0,0,1,0,.25.22.22,0,0,1-.07.12.21.21,0,0,1-.12,0,.3.3,0,0,1-.12,0l-.15,0-.19-.05a.8.8,0,0,0-.23,0,.71.71,0,0,0-.28.06,1.19,1.19,0,0,0-.3.18,2.54,2.54,0,0,0-.32.33q-.17.21-.36.51V86a.19.19,0,0,1,0,.12.37.37,0,0,1-.14.08.92.92,0,0,1-.26,0,4.42,4.42,0,0,1-.84,0,.8.8,0,0,1-.26,0,.3.3,0,0,1-.14-.08.19.19,0,0,1,0-.12v-6.1a.21.21,0,0,1,0-.12.23.23,0,0,1,.12-.08,1.09,1.09,0,0,1,.23-.06h.72a.85.85,0,0,1,.22.06.24.24,0,0,1,.11.08.16.16,0,0,1,0,.12v.76a4.19,4.19,0,0,1,.45-.56,2.54,2.54,0,0,1,.4-.36,1.85,1.85,0,0,1,.38-.18,1.74,1.74,0,0,1,.39-.05h.19l.21,0,.19,0a.33.33,0,0,1,.12.06l.06.08a.81.81,0,0,1,0,.11s0,.12,0,.22Z" transform="translate(-5.49 -8.11)"/><path class="cls-3" d="M80.69,84.23a2,2,0,0,1-.2.91,1.68,1.68,0,0,1-.55.66,2.34,2.34,0,0,1-.84.4,3.86,3.86,0,0,1-1,.14,4.65,4.65,0,0,1-.66,0,5.61,5.61,0,0,1-.55-.13L76.43,86a1.09,1.09,0,0,1-.24-.16.51.51,0,0,1-.12-.22,1.86,1.86,0,0,1,0-.46,2.92,2.92,0,0,1,0-.32c0-.08,0-.14,0-.19a.17.17,0,0,1,.07-.09.18.18,0,0,1,.11,0,.5.5,0,0,1,.22.09l.36.19c.15.06.32.13.51.19a2.29,2.29,0,0,0,.66.09,1.73,1.73,0,0,0,.42,0,1,1,0,0,0,.31-.14.53.53,0,0,0,.2-.22.66.66,0,0,0,.07-.32.51.51,0,0,0-.13-.35,1.12,1.12,0,0,0-.33-.26,4.15,4.15,0,0,0-.47-.2l-.54-.21a4.53,4.53,0,0,1-.54-.27,1.71,1.71,0,0,1-.47-.37,1.79,1.79,0,0,1-.34-.53,2,2,0,0,1-.13-.73,1.82,1.82,0,0,1,.18-.81,1.63,1.63,0,0,1,.49-.62,2.22,2.22,0,0,1,.78-.41,3.69,3.69,0,0,1,1-.14,3.31,3.31,0,0,1,.55,0,4.67,4.67,0,0,1,.49.1,2.93,2.93,0,0,1,.37.14l.22.12a.41.41,0,0,1,.09.1.5.5,0,0,1,0,.13.72.72,0,0,1,0,.17,2.1,2.1,0,0,1,0,.27,2.63,2.63,0,0,1,0,.3.42.42,0,0,1,0,.18s0,.08-.07.09a.12.12,0,0,1-.09,0,.56.56,0,0,1-.19-.07l-.33-.16-.45-.15a2,2,0,0,0-.58-.07,1.28,1.28,0,0,0-.41,0,.8.8,0,0,0-.28.13.65.65,0,0,0-.16.21.58.58,0,0,0-.06.26.52.52,0,0,0,.13.35,1.39,1.39,0,0,0,.35.26,3.66,3.66,0,0,0,.48.2q.27.09.54.21a3.94,3.94,0,0,1,.55.26,2.19,2.19,0,0,1,.48.37,1.9,1.9,0,0,1,.35.52A2,2,0,0,1,80.69,84.23Z" transform="translate(-5.49 -8.11)"/></svg>