<svg id="Livello_1" data-name="Livello 1" xmlns="http://www.w3.org/2000/svg" viewBox="0 0 209.15 226"><defs><style>.cls-1{fill:#93a18b;}.cls-2{fill:#bec6b9;}.cls-3{fill:#9fae97;}.cls-4{fill:#c4cfdb;}.cls-5{fill:#a9b2bd;}.cls-6{fill:#e5effb;}.cls-7{fill:#261c35;}</style></defs><title>G03_01_04</title><polygon class="cls-1" points="206.32 88.44 206.32 93.19 116.85 145.97 116.85 141.22 206.32 88.44"/><polygon class="cls-2" points="116.85 141.22 116.85 145.97 20.75 90.23 20.75 85.49 116.85 141.22"/><polygon class="cls-3" points="116.63 141.23 20.53 85.5 20.53 85.24 110.84 33.33 206.32 88.46 116.78 141.32 116.63 141.23"/><g id="_Gruppo_" data-name="&lt;Gruppo&gt;"><polygon id="_Tracciato_" data-name="&lt;Tracciato&gt;" class="cls-1" points="153.75 82.17 111.57 106.36 79.77 88.08 121.94 63.84 153.75 82.17"/><g id="_Gruppo_2" data-name="&lt;Gruppo&gt;"><polygon id="_Tracciato_2" data-name="&lt;Tracciato&gt;" class="cls-4" points="112.32 101.58 145.33 82.62 145.33 14.82 112.32 33.88 112.32 101.58"/><polygon id="_Tracciato_3" data-name="&lt;Tracciato&gt;" class="cls-5" points="112.32 101.58 86.65 86.76 86.65 19.06 112.32 33.88 112.32 101.58"/><polygon id="_Tracciato_4" data-name="&lt;Tracciato&gt;" class="cls-6" points="86.65 19.06 112.32 33.88 145.33 14.82 119.65 0 86.65 19.06"/><polygon id="_Tracciato_5" data-name="&lt;Tracciato&gt;" class="cls-7" points="145.33 14.82 145.33 16.15 112.32 35.2 112.32 33.88 145.33 14.82"/><polygon id="_Tracciato_6" data-name="&lt;Tracciato&gt;" class="cls-7" points="145.33 31.76 145.33 33.09 112.32 52.14 112.32 50.81 145.33 31.76"/><polygon id="_Tracciato_7" data-name="&lt;Tracciato&gt;" class="cls-7" points="145.33 48.7 145.33 50.02 112.32 69.08 112.32 67.75 145.33 48.7"/><polygon id="_Tracciato_8" data-name="&lt;Tracciato&gt;" class="cls-7" points="145.33 65.64 145.33 66.96 112.32 86.02 112.32 84.69 145.33 65.64"/><path id="_Tracciato_9" data-name="&lt;Tracciato&gt;" class="cls-7" d="M144.79,31.76l-9.52,5.5a1.64,1.64,0,0,0-.74,1.28h0c0,.48.33.67.74.43l9.52-5.49a1.66,1.66,0,0,0,.74-1.29h0C145.53,31.72,145.2,31.53,144.79,31.76Z" transform="translate(-11.21 -5.95)"/><path id="_Tracciato_10" data-name="&lt;Tracciato&gt;" class="cls-7" d="M144.79,48.69l-9.52,5.5a1.64,1.64,0,0,0-.74,1.28h0c0,.48.33.67.74.43l9.52-5.5a1.62,1.62,0,0,0,.74-1.28h0C145.53,48.65,145.2,48.46,144.79,48.69Z" transform="translate(-11.21 -5.95)"/><path id="_Tracciato_11" data-name="&lt;Tracciato&gt;" class="cls-7" d="M144.79,65.62l-9.52,5.5a1.64,1.64,0,0,0-.74,1.28h0c0,.48.33.67.74.43l9.52-5.5a1.62,1.62,0,0,0,.74-1.28h0C145.53,65.58,145.2,65.39,144.79,65.62Z" transform="translate(-11.21 -5.95)"/><path id="_Tracciato_12" data-name="&lt;Tracciato&gt;" class="cls-7" d="M144.79,82.55l-9.52,5.5a1.64,1.64,0,0,0-.74,1.28h0c0,.48.33.67.74.43l9.52-5.5a1.62,1.62,0,0,0,.74-1.28h0C145.53,82.51,145.2,82.32,144.79,82.55Z" transform="translate(-11.21 -5.95)"/></g></g><path class="cls-1" d="M20.78,157.08a7.42,7.42,0,0,1-.31,2.25,4.57,4.57,0,0,1-.93,1.68A4,4,0,0,1,18,162.07a5.72,5.72,0,0,1-2.11.36,6.06,6.06,0,0,1-2.05-.31,3.52,3.52,0,0,1-1.47-.94,4.09,4.09,0,0,1-.88-1.61,8.27,8.27,0,0,1-.29-2.31,7.24,7.24,0,0,1,.31-2.21,4.61,4.61,0,0,1,.93-1.67,4.18,4.18,0,0,1,1.53-1,5.52,5.52,0,0,1,2.11-.37,6,6,0,0,1,2,.31,3.56,3.56,0,0,1,1.47.93,4.21,4.21,0,0,1,.89,1.6A7.73,7.73,0,0,1,20.78,157.08Zm-2.16.11a8,8,0,0,0-.12-1.45,3.12,3.12,0,0,0-.43-1.12,2,2,0,0,0-.8-.72,2.87,2.87,0,0,0-1.25-.25,2.42,2.42,0,0,0-1.26.29,2.22,2.22,0,0,0-.82.76,3.16,3.16,0,0,0-.45,1.11,7.29,7.29,0,0,0-.12,1.35,8.4,8.4,0,0,0,.12,1.49,3.16,3.16,0,0,0,.42,1.13,2,2,0,0,0,.8.71,2.88,2.88,0,0,0,1.26.25,2.55,2.55,0,0,0,1.26-.29,2.22,2.22,0,0,0,.82-.76,3.07,3.07,0,0,0,.44-1.13A6.71,6.71,0,0,0,18.62,157.19Z" transform="translate(-11.21 -5.95)"/><path class="cls-1" d="M33.84,162a.2.2,0,0,1,0,.13.49.49,0,0,1-.16.1,1.13,1.13,0,0,1-.31.06l-.47,0-.48,0a1.13,1.13,0,0,1-.3-.06.34.34,0,0,1-.16-.1.21.21,0,0,1-.05-.13v-5.64H29.28V162a.21.21,0,0,1-.05.13.36.36,0,0,1-.15.1,1.13,1.13,0,0,1-.3.06l-.48,0-.48,0a1,1,0,0,1-.3-.06.36.36,0,0,1-.15-.1.17.17,0,0,1-.05-.13v-5.64H24.73V162a.2.2,0,0,1,0,.13.49.49,0,0,1-.16.1,1,1,0,0,1-.3.06l-.48,0-.47,0a1.13,1.13,0,0,1-.31-.06.4.4,0,0,1-.16-.1.28.28,0,0,1,0-.13v-5.64H21.9a.26.26,0,0,1-.23-.19,1.8,1.8,0,0,1-.07-.61,3.79,3.79,0,0,1,0-.38,1.09,1.09,0,0,1,.05-.25.34.34,0,0,1,.1-.13.2.2,0,0,1,.13,0h.87v-.51a4.63,4.63,0,0,1,.15-1.24,2.15,2.15,0,0,1,.44-.88,1.82,1.82,0,0,1,.76-.54,2.91,2.91,0,0,1,1.08-.18,3.58,3.58,0,0,1,.61,0l.42.11a1,1,0,0,1,.21.11.49.49,0,0,1,.09.15,1.22,1.22,0,0,1,0,.25c0,.1,0,.23,0,.38a1.8,1.8,0,0,1-.05.54.18.18,0,0,1-.17.15l-.12,0-.17-.06-.23-.05a1.2,1.2,0,0,0-.28,0,.71.71,0,0,0-.64.28,1.7,1.7,0,0,0-.2.94v.55h2.59v-.62a4.63,4.63,0,0,1,.15-1.24,2.28,2.28,0,0,1,.44-.88,1.86,1.86,0,0,1,.75-.54,3.12,3.12,0,0,1,1.07-.17h.35l.34.05.27.07.16.08.07.1a1.27,1.27,0,0,1,0,.14.69.69,0,0,1,0,.22c0,.1,0,.21,0,.34a2.89,2.89,0,0,1,0,.53.18.18,0,0,1-.17.15h-.11l-.14,0-.19,0a1.14,1.14,0,0,0-.27,0,.67.67,0,0,0-.61.28,1.7,1.7,0,0,0-.19.93v.66h4a.65.65,0,0,1,.45.13.51.51,0,0,1,.15.41Zm.15-9.32a2.17,2.17,0,0,1-.05.49.6.6,0,0,1-.18.32.73.73,0,0,1-.34.17,2.19,2.19,0,0,1-.55,0,2,2,0,0,1-.53,0,.72.72,0,0,1-.35-.17.77.77,0,0,1-.18-.32,1.72,1.72,0,0,1,0-.49,1.65,1.65,0,0,1,0-.47.77.77,0,0,1,.18-.32.65.65,0,0,1,.35-.18,2,2,0,0,1,.53-.06,2.15,2.15,0,0,1,.55.06.66.66,0,0,1,.34.18.6.6,0,0,1,.18.32A2.12,2.12,0,0,1,34,152.67Z" transform="translate(-11.21 -5.95)"/><path class="cls-1" d="M41.08,160.88c0,.13,0,.25,0,.34s0,.16,0,.23a.53.53,0,0,1,0,.15.35.35,0,0,1-.12.15,1.86,1.86,0,0,1-.32.22,4.08,4.08,0,0,1-.51.23,5.26,5.26,0,0,1-.63.16,4,4,0,0,1-.7.06,3.76,3.76,0,0,1-1.43-.25,2.66,2.66,0,0,1-1-.73,3.44,3.44,0,0,1-.64-1.2,5.56,5.56,0,0,1-.21-1.61,5.65,5.65,0,0,1,.26-1.8,3.65,3.65,0,0,1,.73-1.27,2.89,2.89,0,0,1,1.11-.74,4,4,0,0,1,1.41-.24,4.07,4.07,0,0,1,.61,0,4.14,4.14,0,0,1,.56.15c.18.07.33.14.47.21a1.14,1.14,0,0,1,.29.21.79.79,0,0,1,.13.14.53.53,0,0,1,0,.15c0,.07,0,.14,0,.23s0,.21,0,.34a1.86,1.86,0,0,1-.07.63c-.06.13-.12.19-.21.19a.5.5,0,0,1-.28-.11,3.53,3.53,0,0,0-.35-.24,3.19,3.19,0,0,0-.49-.25,1.88,1.88,0,0,0-.67-.11,1.34,1.34,0,0,0-1.17.59,3.07,3.07,0,0,0-.41,1.73,4.25,4.25,0,0,0,.11,1,1.84,1.84,0,0,0,.3.71,1.24,1.24,0,0,0,.5.44,1.54,1.54,0,0,0,.7.14,1.86,1.86,0,0,0,.7-.12,3.05,3.05,0,0,0,.51-.27c.14-.1.27-.19.36-.27a.46.46,0,0,1,.25-.12.16.16,0,0,1,.12,0,.35.35,0,0,1,.08.15c0,.07,0,.16,0,.26S41.08,160.7,41.08,160.88Z" transform="translate(-11.21 -5.95)"/><path class="cls-1" d="M44.62,152.66a1.12,1.12,0,0,1-.24.82,1.34,1.34,0,0,1-.9.22,1.36,1.36,0,0,1-.89-.21,1.05,1.05,0,0,1-.23-.79,1.14,1.14,0,0,1,.24-.83,1.86,1.86,0,0,1,1.79,0A1,1,0,0,1,44.62,152.66ZM44.48,162a.21.21,0,0,1,0,.13.4.4,0,0,1-.16.1,1.13,1.13,0,0,1-.3.06l-.48,0-.48,0a1.13,1.13,0,0,1-.3-.06.4.4,0,0,1-.16-.1.2.2,0,0,1,0-.13v-7a.2.2,0,0,1,0-.13.41.41,0,0,1,.16-.11,1.76,1.76,0,0,1,.3-.06,3.85,3.85,0,0,1,1,0,1.76,1.76,0,0,1,.3.06.41.41,0,0,1,.16.11.21.21,0,0,1,0,.13Z" transform="translate(-11.21 -5.95)"/><path class="cls-1" d="M52.37,162a.21.21,0,0,1-.07.17.66.66,0,0,1-.25.09,3.07,3.07,0,0,1-.5,0,3.13,3.13,0,0,1-.51,0,.5.5,0,0,1-.23-.09.24.24,0,0,1-.06-.17v-.56a3.11,3.11,0,0,1-1,.72,2.76,2.76,0,0,1-1.22.26,3.64,3.64,0,0,1-1-.14,2.42,2.42,0,0,1-.81-.43,2,2,0,0,1-.53-.71,2.48,2.48,0,0,1-.18-1,2.33,2.33,0,0,1,.23-1.06,1.89,1.89,0,0,1,.72-.74,3.49,3.49,0,0,1,1.17-.44,8.69,8.69,0,0,1,1.63-.14h.68v-.42a2.52,2.52,0,0,0-.06-.58,1.08,1.08,0,0,0-.22-.41,1,1,0,0,0-.41-.24,2.25,2.25,0,0,0-.63-.08,3.42,3.42,0,0,0-.88.11,6.56,6.56,0,0,0-.68.25,3.93,3.93,0,0,0-.5.24.76.76,0,0,1-.32.11.2.2,0,0,1-.15-.06.35.35,0,0,1-.11-.15,1.26,1.26,0,0,1-.07-.25,3.25,3.25,0,0,1,0-.33,1.29,1.29,0,0,1,0-.38.5.5,0,0,1,.15-.26,1.54,1.54,0,0,1,.38-.25,5,5,0,0,1,.64-.25,5.53,5.53,0,0,1,.8-.19,5.29,5.29,0,0,1,.9-.08,5.68,5.68,0,0,1,1.4.16,2.38,2.38,0,0,1,.95.49,1.94,1.94,0,0,1,.55.86,3.83,3.83,0,0,1,.17,1.24Zm-1.93-3h-.75a3.88,3.88,0,0,0-.81.07,1.44,1.44,0,0,0-.55.21.75.75,0,0,0-.3.34.93.93,0,0,0-.1.45.86.86,0,0,0,.28.69A1.08,1.08,0,0,0,49,161a1.48,1.48,0,0,0,.76-.21,3.21,3.21,0,0,0,.7-.62Z" transform="translate(-11.21 -5.95)"/><path class="cls-1" d="M56.3,162a.2.2,0,0,1,0,.13.4.4,0,0,1-.16.1,1.13,1.13,0,0,1-.3.06l-.48,0-.48,0a1.13,1.13,0,0,1-.3-.06.4.4,0,0,1-.16-.1.21.21,0,0,1-.05-.13V151.71a.24.24,0,0,1,.05-.14.32.32,0,0,1,.16-.1,1.67,1.67,0,0,1,.3-.07,5.77,5.77,0,0,1,1,0,1.67,1.67,0,0,1,.3.07.32.32,0,0,1,.16.1.23.23,0,0,1,0,.14Z" transform="translate(-11.21 -5.95)"/><path class="cls-1" d="M68,159.22a3.1,3.1,0,0,1-.3,1.4,2.79,2.79,0,0,1-.8,1,3.62,3.62,0,0,1-1.19.61,5.24,5.24,0,0,1-1.45.2,5.86,5.86,0,0,1-1-.08,6.13,6.13,0,0,1-.8-.21,3.08,3.08,0,0,1-.57-.26,1.08,1.08,0,0,1-.33-.23.57.57,0,0,1-.15-.29,2.62,2.62,0,0,1,0-.55c0-.16,0-.3,0-.41a1.37,1.37,0,0,1,.06-.27.28.28,0,0,1,.09-.14.21.21,0,0,1,.14,0,.59.59,0,0,1,.3.13c.14.08.31.18.52.28a4.08,4.08,0,0,0,.74.29,3.81,3.81,0,0,0,1,.13,2.71,2.71,0,0,0,.67-.09,1.48,1.48,0,0,0,.5-.26,1,1,0,0,0,.32-.4,1.41,1.41,0,0,0,.11-.54.91.91,0,0,0-.19-.59,1.75,1.75,0,0,0-.49-.44,4.81,4.81,0,0,0-.68-.36l-.79-.36a6.68,6.68,0,0,1-.79-.42,3.37,3.37,0,0,1-.68-.57,2.63,2.63,0,0,1-.49-.79,2.71,2.71,0,0,1-.19-1.08,2.87,2.87,0,0,1,.27-1.28,2.52,2.52,0,0,1,.73-.91,2.9,2.9,0,0,1,1.08-.55A4.66,4.66,0,0,1,65,152a4.37,4.37,0,0,1,.72.06,3.45,3.45,0,0,1,.67.15,3.28,3.28,0,0,1,.56.21,1.14,1.14,0,0,1,.32.19.76.76,0,0,1,.1.13.53.53,0,0,1,.05.15c0,.06,0,.14,0,.23v.34c0,.15,0,.27,0,.38a1,1,0,0,1,0,.26.26.26,0,0,1-.07.14.17.17,0,0,1-.14.05.53.53,0,0,1-.27-.11l-.47-.24a5,5,0,0,0-.63-.23,2.79,2.79,0,0,0-.79-.11,1.68,1.68,0,0,0-.58.09,1.19,1.19,0,0,0-.42.22.87.87,0,0,0-.25.35,1.06,1.06,0,0,0-.08.43,1,1,0,0,0,.18.58,1.75,1.75,0,0,0,.49.44,5.08,5.08,0,0,0,.7.36l.8.35a8.83,8.83,0,0,1,.8.43,3.18,3.18,0,0,1,.69.57,2.58,2.58,0,0,1,.49.78A2.64,2.64,0,0,1,68,159.22Z" transform="translate(-11.21 -5.95)"/><path class="cls-1" d="M76.49,158.43a5.53,5.53,0,0,1-.23,1.63,3.53,3.53,0,0,1-.71,1.26,3.1,3.1,0,0,1-1.2.82,4.54,4.54,0,0,1-1.68.29,4.44,4.44,0,0,1-1.62-.26,2.84,2.84,0,0,1-1.14-.75,3.09,3.09,0,0,1-.67-1.21,5.47,5.47,0,0,1-.22-1.64,5.31,5.31,0,0,1,.24-1.63,3.41,3.41,0,0,1,.72-1.26,3.09,3.09,0,0,1,1.19-.82,4.45,4.45,0,0,1,1.67-.29,4.68,4.68,0,0,1,1.63.26,2.69,2.69,0,0,1,1.13.74,3,3,0,0,1,.67,1.21A5.54,5.54,0,0,1,76.49,158.43Zm-2,.08a5.61,5.61,0,0,0-.08-.95,2.3,2.3,0,0,0-.28-.75,1.38,1.38,0,0,0-.52-.5,1.69,1.69,0,0,0-.82-.18,1.67,1.67,0,0,0-.76.16,1.29,1.29,0,0,0-.54.47,2.18,2.18,0,0,0-.32.74,4.25,4.25,0,0,0-.1,1,4.74,4.74,0,0,0,.08.95,2.39,2.39,0,0,0,.28.75,1.39,1.39,0,0,0,.52.5,1.8,1.8,0,0,0,.81.17,1.65,1.65,0,0,0,.77-.16,1.42,1.42,0,0,0,.54-.46,2.27,2.27,0,0,0,.32-.74A4.87,4.87,0,0,0,74.47,158.51Z" transform="translate(-11.21 -5.95)"/><path class="cls-1" d="M84.65,162a.28.28,0,0,1,0,.13.39.39,0,0,1-.14.1.83.83,0,0,1-.26.06l-.4,0-.42,0a.7.7,0,0,1-.25-.06.32.32,0,0,1-.14-.1.28.28,0,0,1,0-.13v-.81a4.47,4.47,0,0,1-1.18.94,2.62,2.62,0,0,1-1.24.31,2.9,2.9,0,0,1-1.21-.23,2.26,2.26,0,0,1-.79-.64,2.51,2.51,0,0,1-.42-.94,5.67,5.67,0,0,1-.13-1.34V155a.23.23,0,0,1,0-.14.34.34,0,0,1,.16-.1l.3-.06.47,0,.48,0,.3.06a.34.34,0,0,1,.16.1.24.24,0,0,1,0,.14V159a3.58,3.58,0,0,0,.07.84,1.51,1.51,0,0,0,.21.5,1.14,1.14,0,0,0,.37.32,1.21,1.21,0,0,0,.52.11,1.28,1.28,0,0,0,.75-.27,4.32,4.32,0,0,0,.81-.8V155a.33.33,0,0,1,0-.14.4.4,0,0,1,.16-.1l.3-.06.48,0,.47,0,.3.06a.4.4,0,0,1,.16.1.23.23,0,0,1,0,.14Z" transform="translate(-11.21 -5.95)"/><path class="cls-1" d="M91.11,155.67c0,.18,0,.34,0,.46a1.55,1.55,0,0,1,0,.28.31.31,0,0,1-.09.14.17.17,0,0,1-.13,0l-.14,0-.17-.06-.22-.06a1,1,0,0,0-.25,0,1,1,0,0,0-.33.06,1.57,1.57,0,0,0-.34.21,2.58,2.58,0,0,0-.37.37,7,7,0,0,0-.41.58V162a.21.21,0,0,1,0,.13.34.34,0,0,1-.16.1,1,1,0,0,1-.3.06l-.47,0-.48,0a1,1,0,0,1-.3-.06.34.34,0,0,1-.16-.1.21.21,0,0,1-.05-.13v-7a.23.23,0,0,1,0-.14.32.32,0,0,1,.14-.1l.26-.06.41,0,.41,0,.25.06a.28.28,0,0,1,.13.1.23.23,0,0,1,0,.14v.86a5.47,5.47,0,0,1,.52-.64,2.67,2.67,0,0,1,.46-.4,1.37,1.37,0,0,1,.44-.21,1.59,1.59,0,0,1,.43-.06h.22l.24,0a1,1,0,0,1,.22.07.37.37,0,0,1,.14.07.18.18,0,0,1,.06.09.83.83,0,0,1,0,.12c0,.06,0,.14,0,.25S91.11,155.48,91.11,155.67Z" transform="translate(-11.21 -5.95)"/><path class="cls-1" d="M97.37,160.88a3.11,3.11,0,0,1,0,.34.8.8,0,0,1,0,.23,1.55,1.55,0,0,1,0,.15.52.52,0,0,1-.13.15,1.52,1.52,0,0,1-.32.22,4.08,4.08,0,0,1-.51.23,4.82,4.82,0,0,1-.63.16,4,4,0,0,1-.7.06,3.76,3.76,0,0,1-1.43-.25,2.66,2.66,0,0,1-1-.73,3.27,3.27,0,0,1-.63-1.2,5.22,5.22,0,0,1-.22-1.61,5.65,5.65,0,0,1,.26-1.8,3.65,3.65,0,0,1,.73-1.27,3,3,0,0,1,1.11-.74,4,4,0,0,1,1.41-.24,4.07,4.07,0,0,1,.61,0,4.14,4.14,0,0,1,.56.15c.18.07.33.14.47.21a1.48,1.48,0,0,1,.3.21l.12.14a.53.53,0,0,1,.05.15c0,.07,0,.14,0,.23s0,.21,0,.34a1.86,1.86,0,0,1-.07.63c-.06.13-.12.19-.21.19a.5.5,0,0,1-.28-.11,2.65,2.65,0,0,0-.35-.24,3.57,3.57,0,0,0-.48-.25,2,2,0,0,0-.68-.11,1.34,1.34,0,0,0-1.17.59,3.07,3.07,0,0,0-.4,1.73,4.28,4.28,0,0,0,.1,1,2.2,2.2,0,0,0,.3.71,1.24,1.24,0,0,0,.5.44,1.54,1.54,0,0,0,.7.14,1.86,1.86,0,0,0,.7-.12,3.05,3.05,0,0,0,.51-.27l.37-.27a.41.41,0,0,1,.25-.12.15.15,0,0,1,.11,0,.35.35,0,0,1,.08.15,1.59,1.59,0,0,1,0,.26C97.36,160.56,97.37,160.7,97.37,160.88Z" transform="translate(-11.21 -5.95)"/><path class="cls-1" d="M105.23,158.3a.73.73,0,0,1-.17.53.57.57,0,0,1-.44.17h-4.24a2.88,2.88,0,0,0,.11.81,1.61,1.61,0,0,0,.33.62,1.38,1.38,0,0,0,.6.38,2.48,2.48,0,0,0,.87.14,4.78,4.78,0,0,0,.9-.08,6.29,6.29,0,0,0,.68-.16l.47-.17a.88.88,0,0,1,.31-.07.2.2,0,0,1,.11,0,.16.16,0,0,1,.08.1.64.64,0,0,1,0,.19c0,.09,0,.2,0,.33s0,.21,0,.29,0,.15,0,.21a.46.46,0,0,1-.05.14.83.83,0,0,1-.08.12,1.87,1.87,0,0,1-.28.15,4.56,4.56,0,0,1-.58.18c-.23.06-.5.11-.8.16a7.54,7.54,0,0,1-1,.06,5.3,5.3,0,0,1-1.63-.23,3,3,0,0,1-1.17-.71,3.07,3.07,0,0,1-.7-1.21,5.73,5.73,0,0,1-.23-1.7,5.5,5.5,0,0,1,.24-1.68,3.53,3.53,0,0,1,.71-1.26,2.89,2.89,0,0,1,1.12-.79,3.7,3.7,0,0,1,1.49-.28,3.9,3.9,0,0,1,1.49.26,2.63,2.63,0,0,1,1,.71,3,3,0,0,1,.59,1.09,4.86,4.86,0,0,1,.19,1.36Zm-1.91-.56a2.07,2.07,0,0,0-.33-1.3,1.29,1.29,0,0,0-1.1-.48,1.45,1.45,0,0,0-.65.14,1.32,1.32,0,0,0-.46.38,1.75,1.75,0,0,0-.29.56,3.1,3.1,0,0,0-.11.7Z" transform="translate(-11.21 -5.95)"/><path class="cls-1" d="M111.75,160a2.45,2.45,0,0,1-.22,1,2,2,0,0,1-.63.76,2.68,2.68,0,0,1-1,.46,4.61,4.61,0,0,1-1.21.15,4.35,4.35,0,0,1-.74-.06,4.66,4.66,0,0,1-.64-.15,3.91,3.91,0,0,1-.47-.18,1.42,1.42,0,0,1-.27-.17.58.58,0,0,1-.13-.26,1.78,1.78,0,0,1,0-.52c0-.15,0-.27,0-.37a.81.81,0,0,1,0-.21.17.17,0,0,1,.08-.11.21.21,0,0,1,.12,0,.55.55,0,0,1,.25.1l.42.21a4.18,4.18,0,0,0,.58.22,2.48,2.48,0,0,0,.75.1,2.28,2.28,0,0,0,.48-.05,1.46,1.46,0,0,0,.36-.16.72.72,0,0,0,.23-.26.8.8,0,0,0,.07-.36.58.58,0,0,0-.14-.4,1.27,1.27,0,0,0-.38-.29l-.54-.24-.62-.24c-.21-.09-.42-.19-.62-.3a2.79,2.79,0,0,1-.54-.42,2.18,2.18,0,0,1-.38-.61,2.3,2.3,0,0,1-.14-.84,2.17,2.17,0,0,1,.19-.92,2,2,0,0,1,.57-.71,2.58,2.58,0,0,1,.89-.46,4,4,0,0,1,1.18-.17,4.48,4.48,0,0,1,.64.05,3.91,3.91,0,0,1,.56.12,1.69,1.69,0,0,1,.42.15,1.3,1.3,0,0,1,.25.14.35.35,0,0,1,.1.12.46.46,0,0,1,0,.14c0,.05,0,.12,0,.2s0,.18,0,.3,0,.26,0,.34a1.09,1.09,0,0,1,0,.22.21.21,0,0,1-.08.1.18.18,0,0,1-.11,0,.66.66,0,0,1-.22-.08,2.13,2.13,0,0,0-.37-.18c-.14-.06-.32-.12-.51-.18a2.73,2.73,0,0,0-.67-.08,1.56,1.56,0,0,0-.46.06.87.87,0,0,0-.32.15.65.65,0,0,0-.25.53.58.58,0,0,0,.15.41,1.32,1.32,0,0,0,.39.29,4.15,4.15,0,0,0,.55.23l.62.24.63.3a2.55,2.55,0,0,1,.55.43,1.9,1.9,0,0,1,.39.59A2.09,2.09,0,0,1,111.75,160Z" transform="translate(-11.21 -5.95)"/><path class="cls-3" d="M29,174.53a6.54,6.54,0,0,1-.27,2,4.08,4.08,0,0,1-.82,1.48,3.49,3.49,0,0,1-1.33.92,5,5,0,0,1-1.85.32,5.5,5.5,0,0,1-1.8-.27,3.21,3.21,0,0,1-1.28-.82,3.55,3.55,0,0,1-.77-1.41,7.18,7.18,0,0,1-.25-2,6.43,6.43,0,0,1,.27-1.93,3.92,3.92,0,0,1,.81-1.46,3.53,3.53,0,0,1,1.34-.92,5,5,0,0,1,1.85-.32,5.31,5.31,0,0,1,1.77.27,3,3,0,0,1,1.29.82,3.6,3.6,0,0,1,.78,1.39A7,7,0,0,1,29,174.53Zm-1.89.09a6.26,6.26,0,0,0-.11-1.27,2.55,2.55,0,0,0-.37-1,1.78,1.78,0,0,0-.7-.63,2.38,2.38,0,0,0-1.09-.22,2.34,2.34,0,0,0-1.11.24,2,2,0,0,0-.72.67,2.7,2.7,0,0,0-.38,1,5.69,5.69,0,0,0-.12,1.18,7.37,7.37,0,0,0,.11,1.31,3,3,0,0,0,.37,1,1.7,1.7,0,0,0,.7.63,2.53,2.53,0,0,0,1.1.22,2.33,2.33,0,0,0,1.11-.25,2,2,0,0,0,.71-.67,2.57,2.57,0,0,0,.39-1A5.69,5.69,0,0,0,27.11,174.62Z" transform="translate(-11.21 -5.95)"/><path class="cls-3" d="M40.43,178.82a.16.16,0,0,1,0,.12.37.37,0,0,1-.14.08,1.26,1.26,0,0,1-.26.06h-.84a1.12,1.12,0,0,1-.26-.06.3.3,0,0,1-.14-.08.16.16,0,0,1,0-.12v-4.94H36.44v4.94a.21.21,0,0,1,0,.12.37.37,0,0,1-.14.08,1.12,1.12,0,0,1-.26.06h-.84a1.12,1.12,0,0,1-.26-.06.37.37,0,0,1-.14-.08.21.21,0,0,1,0-.12v-4.94H32.46v4.94a.16.16,0,0,1,0,.12.3.3,0,0,1-.14.08,1.12,1.12,0,0,1-.26.06h-.84a1.12,1.12,0,0,1-.26-.06.3.3,0,0,1-.14-.08.21.21,0,0,1,0-.12v-4.94H30c-.09,0-.15,0-.2-.16a1.62,1.62,0,0,1-.06-.53,1.67,1.67,0,0,1,0-.34.87.87,0,0,1,0-.21.23.23,0,0,1,.09-.12.2.2,0,0,1,.11,0h.76V172a4.32,4.32,0,0,1,.13-1.08,1.91,1.91,0,0,1,.39-.78,1.74,1.74,0,0,1,.66-.47,2.71,2.71,0,0,1,.95-.15,3,3,0,0,1,.54,0l.36.1a.49.49,0,0,1,.18.09.41.41,0,0,1,.08.13,1.09,1.09,0,0,1,0,.22,2.92,2.92,0,0,1,0,.33,1.6,1.6,0,0,1-.05.47c0,.1-.08.14-.14.14l-.11,0-.15-.05-.2,0-.25,0a.62.62,0,0,0-.56.25,1.5,1.5,0,0,0-.17.81v.49h2.26V172a4.34,4.34,0,0,1,.13-1.09,2.07,2.07,0,0,1,.39-.77,1.57,1.57,0,0,1,.66-.47,2.59,2.59,0,0,1,.93-.15h.31l.29,0,.24.06a.43.43,0,0,1,.14.08l.06.08a.34.34,0,0,1,0,.12s0,.12,0,.2v.3a1.66,1.66,0,0,1,0,.46c0,.09-.07.13-.14.13h-.09l-.13,0-.17,0a.79.79,0,0,0-.23,0,.61.61,0,0,0-.54.24,1.56,1.56,0,0,0-.16.82v.58H39.9a.64.64,0,0,1,.4.11.45.45,0,0,1,.13.36Zm.13-8.15a1.8,1.8,0,0,1,0,.43.64.64,0,0,1-.16.28.71.71,0,0,1-.3.15,2.21,2.21,0,0,1-.48,0,2.17,2.17,0,0,1-.47,0,.71.71,0,0,1-.3-.15.64.64,0,0,1-.16-.28,1.8,1.8,0,0,1,0-.43,1.76,1.76,0,0,1,0-.42.57.57,0,0,1,.46-.43,1.65,1.65,0,0,1,.47,0,1.68,1.68,0,0,1,.48,0,.57.57,0,0,1,.46.43A1.76,1.76,0,0,1,40.56,170.67Z" transform="translate(-11.21 -5.95)"/><path class="cls-3" d="M46.77,177.85c0,.12,0,.22,0,.3s0,.14,0,.2a1,1,0,0,1,0,.13.53.53,0,0,1-.11.13,1.31,1.31,0,0,1-.28.19,2.34,2.34,0,0,1-.45.2,4,4,0,0,1-.55.15,4.07,4.07,0,0,1-.61,0,3.24,3.24,0,0,1-1.25-.22,2.28,2.28,0,0,1-.91-.64,2.94,2.94,0,0,1-.56-1.05,5.44,5.44,0,0,1,0-3,3.19,3.19,0,0,1,.64-1.1,2.63,2.63,0,0,1,1-.65,3.53,3.53,0,0,1,1.23-.21,2.41,2.41,0,0,1,.54,0,2.52,2.52,0,0,1,.49.13,2.2,2.2,0,0,1,.41.18,1.39,1.39,0,0,1,.26.18l.1.12a.46.46,0,0,1,.05.14c0,.05,0,.12,0,.2a2.53,2.53,0,0,1,0,.29,1.48,1.48,0,0,1-.07.56c0,.1-.1.16-.18.16a.38.38,0,0,1-.24-.1l-.31-.21a2.06,2.06,0,0,0-.42-.21,1.73,1.73,0,0,0-.59-.1,1.19,1.19,0,0,0-1,.52,2.72,2.72,0,0,0-.35,1.51,3.75,3.75,0,0,0,.09.87,1.81,1.81,0,0,0,.26.63,1.07,1.07,0,0,0,.44.38,1.44,1.44,0,0,0,.61.13,1.58,1.58,0,0,0,.61-.11,2.38,2.38,0,0,0,.45-.24,3.38,3.38,0,0,0,.32-.23.41.41,0,0,1,.22-.11.13.13,0,0,1,.1,0,.22.22,0,0,1,.07.12c0,.07,0,.14,0,.24A3.57,3.57,0,0,1,46.77,177.85Z" transform="translate(-11.21 -5.95)"/><path class="cls-3" d="M53.64,175.59a.65.65,0,0,1-.14.47.49.49,0,0,1-.38.15H49.41a2.53,2.53,0,0,0,.09.7,1.38,1.38,0,0,0,.29.55,1.33,1.33,0,0,0,.52.33,2.16,2.16,0,0,0,.76.12,3.84,3.84,0,0,0,.8-.07,5.75,5.75,0,0,0,.59-.14l.41-.14a.67.67,0,0,1,.27-.07.17.17,0,0,1,.1,0s0,0,.07.08a.6.6,0,0,1,0,.18c0,.07,0,.17,0,.28s0,.19,0,.26a.9.9,0,0,1,0,.18.34.34,0,0,1,0,.12.36.36,0,0,1-.07.1.59.59,0,0,1-.25.13,3,3,0,0,1-.5.16,6.35,6.35,0,0,1-1.55.2,4.4,4.4,0,0,1-1.43-.21,2.4,2.4,0,0,1-1-.62,2.6,2.6,0,0,1-.61-1,4.76,4.76,0,0,1-.2-1.49,4.83,4.83,0,0,1,.21-1.47,3.14,3.14,0,0,1,.61-1.11,2.73,2.73,0,0,1,1-.69,3.4,3.4,0,0,1,1.31-.24,3.45,3.45,0,0,1,1.31.23,2.5,2.5,0,0,1,.89.62,2.64,2.64,0,0,1,.51.95,4.08,4.08,0,0,1,.16,1.19ZM52,175.1a1.86,1.86,0,0,0-.29-1.14,1.14,1.14,0,0,0-1-.41,1.34,1.34,0,0,0-.58.12,1.16,1.16,0,0,0-.4.33,1.62,1.62,0,0,0-.25.49,3,3,0,0,0-.09.61Z" transform="translate(-11.21 -5.95)"/><path class="cls-3" d="M59,173.29c0,.16,0,.3,0,.4a1.18,1.18,0,0,1,0,.25.22.22,0,0,1-.07.12.21.21,0,0,1-.11,0l-.13,0-.15,0-.19-.05a.78.78,0,0,0-.22,0,.74.74,0,0,0-.29.05,1.19,1.19,0,0,0-.3.18,3.4,3.4,0,0,0-.32.33q-.16.21-.36.51v3.8a.16.16,0,0,1,0,.12.3.3,0,0,1-.14.08,1.26,1.26,0,0,1-.26.06H55.5a1.26,1.26,0,0,1-.26-.06.3.3,0,0,1-.14-.08.16.16,0,0,1,0-.12v-6.1a.27.27,0,0,1,0-.12.32.32,0,0,1,.13-.08.66.66,0,0,1,.23-.05,1.78,1.78,0,0,1,.35,0,1.94,1.94,0,0,1,.36,0,.55.55,0,0,1,.22.05.24.24,0,0,1,.11.08.19.19,0,0,1,0,.12v.76a4.19,4.19,0,0,1,.45-.56,3.08,3.08,0,0,1,.4-.36,1.7,1.7,0,0,1,.39-.18,1.58,1.58,0,0,1,.38,0h.19l.21,0a.74.74,0,0,1,.19.05.22.22,0,0,1,.12.07.13.13,0,0,1,.06.07l0,.11s0,.12,0,.22S59,173.12,59,173.29Z" transform="translate(-11.21 -5.95)"/><path class="cls-3" d="M64.16,177.1a2,2,0,0,1-.2.91,1.79,1.79,0,0,1-.55.67,2.52,2.52,0,0,1-.84.4,4.31,4.31,0,0,1-1,.13,4.4,4.4,0,0,1-.65-.05,5.22,5.22,0,0,1-.56-.13,3.53,3.53,0,0,1-.41-.16,1.09,1.09,0,0,1-.24-.16.51.51,0,0,1-.12-.22,2.43,2.43,0,0,1,0-.46,2.28,2.28,0,0,1,0-.31.88.88,0,0,1,0-.2s0-.08.07-.09a.15.15,0,0,1,.1,0,.5.5,0,0,1,.22.09l.37.19a3.25,3.25,0,0,0,.51.19,2.17,2.17,0,0,0,.65.09,1.73,1.73,0,0,0,.42-.05,1,1,0,0,0,.31-.14.53.53,0,0,0,.2-.22.66.66,0,0,0,.07-.32.55.55,0,0,0-.12-.35,1.33,1.33,0,0,0-.34-.26,3.49,3.49,0,0,0-.47-.2q-.27-.09-.54-.21l-.54-.27a1.87,1.87,0,0,1-.47-.37,1.74,1.74,0,0,1-.34-.52,2.09,2.09,0,0,1-.12-.74,1.84,1.84,0,0,1,.17-.81,1.73,1.73,0,0,1,.49-.62,2.21,2.21,0,0,1,.78-.4,3.39,3.39,0,0,1,1-.15,5.09,5.09,0,0,1,.56,0,2.84,2.84,0,0,1,.48.11,2,2,0,0,1,.37.13l.22.12.09.1a.5.5,0,0,1,0,.13,1.64,1.64,0,0,1,0,.18c0,.07,0,.15,0,.26s0,.22,0,.3a.6.6,0,0,1,0,.18.19.19,0,0,1-.06.1l-.1,0a.44.44,0,0,1-.19-.07l-.33-.16-.45-.15a2,2,0,0,0-.58-.07,1.18,1.18,0,0,0-.4,0,.66.66,0,0,0-.28.13.56.56,0,0,0-.17.21.58.58,0,0,0-.05.26.48.48,0,0,0,.13.35,1.17,1.17,0,0,0,.34.26,3.66,3.66,0,0,0,.48.2l.55.21c.18.08.36.16.54.26a2.52,2.52,0,0,1,.49.37,1.79,1.79,0,0,1,.34.53A1.93,1.93,0,0,1,64.16,177.1Z" transform="translate(-11.21 -5.95)"/><path class="cls-3" d="M72.29,170.4a2.92,2.92,0,0,1,0,.32.69.69,0,0,1,0,.18l-.06.09-.08,0-.1,0-.15-.05-.2-.05a1.12,1.12,0,0,0-.27,0,.76.76,0,0,0-.32.06.55.55,0,0,0-.22.18.82.82,0,0,0-.13.33,2.41,2.41,0,0,0,0,.5v.56h1.11a.2.2,0,0,1,.11,0,.23.23,0,0,1,.09.12.81.81,0,0,1,0,.21,3,3,0,0,1,0,.34,1.55,1.55,0,0,1-.07.53c0,.11-.11.16-.2.16H70.67v4.94a.17.17,0,0,1,0,.12.26.26,0,0,1-.13.08,1.37,1.37,0,0,1-.27.06h-.83a1.37,1.37,0,0,1-.27-.06.26.26,0,0,1-.13-.08.16.16,0,0,1,0-.12v-4.94h-.77a.21.21,0,0,1-.19-.16,1.55,1.55,0,0,1-.07-.53,3,3,0,0,1,0-.34.81.81,0,0,1,0-.21.28.28,0,0,1,.08-.12.27.27,0,0,1,.12,0H69V172a4.37,4.37,0,0,1,.12-1.09,1.79,1.79,0,0,1,.39-.78,1.54,1.54,0,0,1,.67-.47,2.54,2.54,0,0,1,1-.16,2.76,2.76,0,0,1,.51.05l.37.09.19.1a.32.32,0,0,1,.07.13.9.9,0,0,1,0,.22A3.22,3.22,0,0,1,72.29,170.4Z" transform="translate(-11.21 -5.95)"/><path class="cls-3" d="M77,173.29c0,.16,0,.3,0,.4s0,.19,0,.25a.23.23,0,0,1-.08.12.16.16,0,0,1-.11,0,.3.3,0,0,1-.12,0l-.15,0-.19-.05a.86.86,0,0,0-.23,0,.77.77,0,0,0-.29.05,1.35,1.35,0,0,0-.29.18,2.53,2.53,0,0,0-.32.33,3.75,3.75,0,0,0-.36.51v3.8a.21.21,0,0,1,0,.12.37.37,0,0,1-.14.08,1.37,1.37,0,0,1-.27.06h-.83a1.12,1.12,0,0,1-.26-.06.26.26,0,0,1-.14-.08.17.17,0,0,1,0-.12v-6.1a.28.28,0,0,1,0-.12.23.23,0,0,1,.12-.08.71.71,0,0,1,.23-.05,1.78,1.78,0,0,1,.35,0,2,2,0,0,1,.37,0,.65.65,0,0,1,.22.05.24.24,0,0,1,.11.08.27.27,0,0,1,0,.12v.76a3.53,3.53,0,0,1,.46-.56,2.54,2.54,0,0,1,.4-.36,1.64,1.64,0,0,1,.38-.18,1.73,1.73,0,0,1,.38,0h.2l.21,0,.19.05a.35.35,0,0,1,.12.07.18.18,0,0,1,.05.07l0,.11a1.09,1.09,0,0,1,0,.22C77,173,77,173.12,77,173.29Z" transform="translate(-11.21 -5.95)"/><path class="cls-3" d="M84,175.71a4.55,4.55,0,0,1-.21,1.42,3,3,0,0,1-.62,1.11,2.81,2.81,0,0,1-1,.72,4.11,4.11,0,0,1-1.47.25,4,4,0,0,1-1.41-.23,2.59,2.59,0,0,1-1-.65,2.8,2.8,0,0,1-.59-1.06,4.88,4.88,0,0,1-.19-1.44,4.55,4.55,0,0,1,.21-1.42,3.16,3.16,0,0,1,.62-1.11,2.81,2.81,0,0,1,1-.72,4,4,0,0,1,1.46-.25,4.38,4.38,0,0,1,1.43.22,2.47,2.47,0,0,1,1,.66,2.59,2.59,0,0,1,.58,1.06A4.86,4.86,0,0,1,84,175.71Zm-1.77.07a4.25,4.25,0,0,0-.08-.83,1.78,1.78,0,0,0-.24-.66,1.12,1.12,0,0,0-.45-.44,1.42,1.42,0,0,0-.72-.16,1.57,1.57,0,0,0-.67.14,1.24,1.24,0,0,0-.47.41,2.28,2.28,0,0,0-.28.65,3.81,3.81,0,0,0-.09.87,4.33,4.33,0,0,0,.08.83,2.15,2.15,0,0,0,.24.66,1.16,1.16,0,0,0,.45.43,1.55,1.55,0,0,0,.71.15,1.45,1.45,0,0,0,.68-.14,1.14,1.14,0,0,0,.47-.4,1.75,1.75,0,0,0,.28-.65A3.72,3.72,0,0,0,82.25,175.78Z" transform="translate(-11.21 -5.95)"/><path class="cls-3" d="M95.08,178.82a.21.21,0,0,1,0,.12.37.37,0,0,1-.14.08,1.26,1.26,0,0,1-.26.06H93.8a1.12,1.12,0,0,1-.26-.06.26.26,0,0,1-.14-.08.16.16,0,0,1,0-.12V175.2a2.47,2.47,0,0,0-.06-.56,1.54,1.54,0,0,0-.17-.43.86.86,0,0,0-.74-.38,1,1,0,0,0-.62.24,4.16,4.16,0,0,0-.69.7v4a.16.16,0,0,1,0,.12.26.26,0,0,1-.14.08,1.12,1.12,0,0,1-.26.06h-.83a1.26,1.26,0,0,1-.26-.06.3.3,0,0,1-.14-.08.16.16,0,0,1,0-.12V175.2a2.47,2.47,0,0,0-.06-.56,1.54,1.54,0,0,0-.17-.43.8.8,0,0,0-.3-.28.89.89,0,0,0-.44-.1,1,1,0,0,0-.62.24,3.8,3.8,0,0,0-.68.7v4a.16.16,0,0,1,0,.12.37.37,0,0,1-.14.08,1.37,1.37,0,0,1-.27.06h-.83a1.12,1.12,0,0,1-.26-.06.26.26,0,0,1-.14-.08.16.16,0,0,1,0-.12v-6.1a.27.27,0,0,1,0-.12.23.23,0,0,1,.12-.08.71.71,0,0,1,.23-.05,1.83,1.83,0,0,1,.35,0,2,2,0,0,1,.37,0,.6.6,0,0,1,.22.05.24.24,0,0,1,.11.08.28.28,0,0,1,0,.12v.71a3.8,3.8,0,0,1,1-.82,2.12,2.12,0,0,1,1.05-.28,2.82,2.82,0,0,1,.68.08,1.87,1.87,0,0,1,.54.23,1.48,1.48,0,0,1,.4.35,1.8,1.8,0,0,1,.29.46,4.22,4.22,0,0,1,.54-.51,3.16,3.16,0,0,1,.52-.35,2.64,2.64,0,0,1,.51-.19,1.86,1.86,0,0,1,.52-.07,2.28,2.28,0,0,1,1,.21,1.73,1.73,0,0,1,.67.55,2.42,2.42,0,0,1,.37.83,4.57,4.57,0,0,1,.11,1Z" transform="translate(-11.21 -5.95)"/><path class="cls-3" d="M103.46,179.05l-.73,2.16a.45.45,0,0,1-.34.25,3.26,3.26,0,0,1-.8.07,2.76,2.76,0,0,1-.44,0,.56.56,0,0,1-.24-.08.16.16,0,0,1-.09-.14.36.36,0,0,1,0-.19l.81-2a.48.48,0,0,1-.16-.13.4.4,0,0,1-.1-.18l-2.1-5.6a1.14,1.14,0,0,1-.09-.37.24.24,0,0,1,.08-.19.48.48,0,0,1,.28-.1,3.49,3.49,0,0,1,.51,0h.47a.93.93,0,0,1,.27,0,.29.29,0,0,1,.14.13,1,1,0,0,1,.09.24L102.5,177h0l1.31-4.16a.54.54,0,0,1,.11-.24.34.34,0,0,1,.21-.08,3.16,3.16,0,0,1,.53,0,3.28,3.28,0,0,1,.49,0,.52.52,0,0,1,.29.1.25.25,0,0,1,.09.2,1,1,0,0,1-.06.3Z" transform="translate(-11.21 -5.95)"/><path class="cls-3" d="M112.58,175.71a4.55,4.55,0,0,1-.21,1.42,3,3,0,0,1-.62,1.11,2.81,2.81,0,0,1-1,.72,4.11,4.11,0,0,1-1.47.25,4,4,0,0,1-1.41-.23,2.59,2.59,0,0,1-1-.65,2.8,2.8,0,0,1-.59-1.06,5.23,5.23,0,0,1-.19-1.44,4.55,4.55,0,0,1,.21-1.42,3,3,0,0,1,.63-1.11,2.7,2.7,0,0,1,1-.72,4,4,0,0,1,1.46-.25,4.34,4.34,0,0,1,1.43.22,2.47,2.47,0,0,1,1,.66,2.73,2.73,0,0,1,.59,1.06A5.23,5.23,0,0,1,112.58,175.71Zm-1.77.07a4.25,4.25,0,0,0-.08-.83,1.62,1.62,0,0,0-.24-.66,1.12,1.12,0,0,0-.45-.44,1.42,1.42,0,0,0-.72-.16,1.57,1.57,0,0,0-.67.14,1.24,1.24,0,0,0-.47.41,2.28,2.28,0,0,0-.28.65,3.81,3.81,0,0,0-.09.87,4.33,4.33,0,0,0,.08.83,2.15,2.15,0,0,0,.24.66,1.16,1.16,0,0,0,.45.43,1.57,1.57,0,0,0,.72.15,1.41,1.41,0,0,0,.67-.14,1.14,1.14,0,0,0,.47-.4,1.75,1.75,0,0,0,.28-.65A3.72,3.72,0,0,0,110.81,175.78Z" transform="translate(-11.21 -5.95)"/><path class="cls-3" d="M119.72,178.82a.21.21,0,0,1,0,.12.36.36,0,0,1-.12.08,1.09,1.09,0,0,1-.23.06h-.72a1,1,0,0,1-.22-.06.36.36,0,0,1-.12-.08.21.21,0,0,1,0-.12v-.7a4.16,4.16,0,0,1-1,.82,2.33,2.33,0,0,1-1.08.27,2.41,2.41,0,0,1-1.06-.21,1.8,1.8,0,0,1-.69-.56,2.2,2.2,0,0,1-.37-.82,4.78,4.78,0,0,1-.12-1.17v-3.73a.28.28,0,0,1,0-.12.3.3,0,0,1,.14-.08.8.8,0,0,1,.26-.05,2.62,2.62,0,0,1,.42,0,2.43,2.43,0,0,1,.41,0,.93.93,0,0,1,.27.05.37.37,0,0,1,.14.08.19.19,0,0,1,0,.12v3.45a3.36,3.36,0,0,0,.06.73,1.13,1.13,0,0,0,.19.43.79.79,0,0,0,.32.28.93.93,0,0,0,.45.1,1.12,1.12,0,0,0,.66-.24,4.09,4.09,0,0,0,.71-.69v-4.06a.19.19,0,0,1,0-.12.26.26,0,0,1,.14-.08.8.8,0,0,1,.26-.05,2.56,2.56,0,0,1,.42,0,2.49,2.49,0,0,1,.41,0,.8.8,0,0,1,.26.05.3.3,0,0,1,.14.08.19.19,0,0,1,0,.12Z" transform="translate(-11.21 -5.95)"/><path class="cls-3" d="M125.37,173.29c0,.16,0,.3,0,.4a1.18,1.18,0,0,1,0,.25.22.22,0,0,1-.07.12.21.21,0,0,1-.11,0l-.13,0-.15,0-.19-.05a.78.78,0,0,0-.22,0,.74.74,0,0,0-.29.05,1.4,1.4,0,0,0-.3.18,3.4,3.4,0,0,0-.32.33q-.16.21-.36.51v3.8a.16.16,0,0,1,0,.12.3.3,0,0,1-.14.08,1.12,1.12,0,0,1-.26.06h-.84a1.26,1.26,0,0,1-.26-.06.3.3,0,0,1-.14-.08.16.16,0,0,1,0-.12v-6.1a.27.27,0,0,1,0-.12.32.32,0,0,1,.13-.08.66.66,0,0,1,.23-.05,1.78,1.78,0,0,1,.35,0,1.94,1.94,0,0,1,.36,0,.55.55,0,0,1,.22.05.36.36,0,0,1,.12.08.27.27,0,0,1,0,.12v.76a4.19,4.19,0,0,1,.45-.56,3.08,3.08,0,0,1,.4-.36,1.7,1.7,0,0,1,.39-.18,1.58,1.58,0,0,1,.38,0h.19l.21,0a.74.74,0,0,1,.19.05.22.22,0,0,1,.12.07.13.13,0,0,1,.06.07l0,.11a1.09,1.09,0,0,1,0,.22C125.36,173,125.37,173.12,125.37,173.29Z" transform="translate(-11.21 -5.95)"/><path class="cls-3" d="M134.79,178.84a.21.21,0,0,1-.07.15.51.51,0,0,1-.22.08l-.43,0-.45,0a.42.42,0,0,1-.2-.08.2.2,0,0,1-.06-.15v-.49a2.73,2.73,0,0,1-.85.63,2.5,2.5,0,0,1-1.07.23,2.88,2.88,0,0,1-.9-.13,2,2,0,0,1-.7-.37,1.76,1.76,0,0,1-.46-.62,2.13,2.13,0,0,1-.16-.86,1.93,1.93,0,0,1,.2-.93,1.7,1.7,0,0,1,.63-.65,3,3,0,0,1,1-.38,7.56,7.56,0,0,1,1.43-.12h.6v-.37a1.85,1.85,0,0,0-.06-.5.78.78,0,0,0-.19-.36.72.72,0,0,0-.36-.21,1.71,1.71,0,0,0-.55-.07,3.07,3.07,0,0,0-.77.09,4.92,4.92,0,0,0-.59.22,3,3,0,0,0-.44.21.64.64,0,0,1-.28.09.19.19,0,0,1-.14-.05.33.33,0,0,1-.09-.13.64.64,0,0,1-.06-.22,2.48,2.48,0,0,1,0-.29,1.42,1.42,0,0,1,0-.33.76.76,0,0,1,.13-.23,1.72,1.72,0,0,1,.34-.21,4.32,4.32,0,0,1,.56-.23,6,6,0,0,1,.7-.16,4,4,0,0,1,.78-.07,4.84,4.84,0,0,1,1.23.14,2.22,2.22,0,0,1,.84.43,1.73,1.73,0,0,1,.48.75,3.54,3.54,0,0,1,.15,1.09Zm-1.69-2.61h-.66a3.62,3.62,0,0,0-.71.06,1.5,1.5,0,0,0-.48.18,1,1,0,0,0-.27.3,1,1,0,0,0-.08.4.75.75,0,0,0,.24.6,1,1,0,0,0,.67.22,1.29,1.29,0,0,0,.67-.18,3.27,3.27,0,0,0,.62-.54Z" transform="translate(-11.21 -5.95)"/><path class="cls-3" d="M142,173.15a1.16,1.16,0,0,1-.08.48c0,.11-.11.16-.18.16H141a1.07,1.07,0,0,1,.22.37,1.54,1.54,0,0,1,.06.43,2.33,2.33,0,0,1-.18.95,1.79,1.79,0,0,1-.51.7,2.19,2.19,0,0,1-.8.43,3.39,3.39,0,0,1-1,.15,2.1,2.1,0,0,1-.56-.08,1.34,1.34,0,0,1-.41-.16,1.91,1.91,0,0,0-.15.21.6.6,0,0,0-.06.27.42.42,0,0,0,.17.33,1,1,0,0,0,.49.14l1.49.05a3.61,3.61,0,0,1,.92.15,2,2,0,0,1,.69.35,1.72,1.72,0,0,1,.42.55,1.75,1.75,0,0,1,.15.74,1.86,1.86,0,0,1-.8,1.54,3,3,0,0,1-1,.47,5.31,5.31,0,0,1-1.4.17,5.7,5.7,0,0,1-1.33-.13,2.69,2.69,0,0,1-.9-.34,1.27,1.27,0,0,1-.51-.52,1.38,1.38,0,0,1-.16-.67,2,2,0,0,1,0-.43,1.77,1.77,0,0,1,.45-.75,4.29,4.29,0,0,1,.38-.33,1.12,1.12,0,0,1-.46-.43,1.18,1.18,0,0,1-.16-.59,1.4,1.4,0,0,1,.19-.73,2.27,2.27,0,0,1,.48-.6,1.92,1.92,0,0,1-.39-.57,2.3,2.3,0,0,1-.14-.84,2.24,2.24,0,0,1,.19-1,2,2,0,0,1,.52-.71,2.31,2.31,0,0,1,.8-.45,3.33,3.33,0,0,1,1-.15,4.63,4.63,0,0,1,.54,0l.49.1h1.94c.08,0,.14,0,.19.15A1.46,1.46,0,0,1,142,173.15Zm-1.81,6.3A.54.54,0,0,0,140,179a1.22,1.22,0,0,0-.68-.17l-1.22,0a1.94,1.94,0,0,0-.29.25,2.68,2.68,0,0,0-.17.23.6.6,0,0,0-.08.21.75.75,0,0,0,0,.21.55.55,0,0,0,.34.52,2.17,2.17,0,0,0,1,.18,2.4,2.4,0,0,0,.65-.08,1.15,1.15,0,0,0,.43-.21.73.73,0,0,0,.24-.29A.93.93,0,0,0,140.19,179.45Zm-.4-4.86a1,1,0,0,0-.27-.77,1.07,1.07,0,0,0-.78-.27,1.23,1.23,0,0,0-.44.08,1,1,0,0,0-.32.24,1.11,1.11,0,0,0-.19.34,1.35,1.35,0,0,0-.06.41,1,1,0,0,0,.28.73,1,1,0,0,0,.76.27,1.25,1.25,0,0,0,.45-.08.9.9,0,0,0,.31-.23.91.91,0,0,0,.2-.33A1.27,1.27,0,0,0,139.79,174.59Z" transform="translate(-11.21 -5.95)"/><path class="cls-3" d="M148.62,175.59a.65.65,0,0,1-.14.47.49.49,0,0,1-.38.15h-3.72a2.19,2.19,0,0,0,.1.7,1.38,1.38,0,0,0,.29.55,1.26,1.26,0,0,0,.52.33,2.16,2.16,0,0,0,.76.12,3.84,3.84,0,0,0,.8-.07,5.75,5.75,0,0,0,.59-.14l.41-.14a.67.67,0,0,1,.27-.07.17.17,0,0,1,.1,0s.05,0,.07.08a.42.42,0,0,1,0,.18,2,2,0,0,1,0,.28c0,.1,0,.19,0,.26s0,.13,0,.18a.83.83,0,0,1,0,.12.25.25,0,0,1-.08.1s-.11.08-.24.13a3,3,0,0,1-.5.16,6.35,6.35,0,0,1-1.55.2,4.4,4.4,0,0,1-1.43-.21,2.4,2.4,0,0,1-1-.62,2.49,2.49,0,0,1-.61-1,4.74,4.74,0,0,1-.21-1.49,4.54,4.54,0,0,1,.22-1.47,3.14,3.14,0,0,1,.61-1.11,2.73,2.73,0,0,1,1-.69,3.74,3.74,0,0,1,2.61,0,2.45,2.45,0,0,1,.9.62,2.64,2.64,0,0,1,.51.95,4.08,4.08,0,0,1,.16,1.19ZM147,175.1a1.73,1.73,0,0,0-.29-1.14,1.12,1.12,0,0,0-1-.41,1.26,1.26,0,0,0-.57.12,1.16,1.16,0,0,0-.4.33,1.62,1.62,0,0,0-.25.49,3,3,0,0,0-.1.61Z" transform="translate(-11.21 -5.95)"/><path class="cls-3" d="M155.86,178.82a.16.16,0,0,1,0,.12.3.3,0,0,1-.14.08,1.12,1.12,0,0,1-.26.06h-.83a1.37,1.37,0,0,1-.27-.06.26.26,0,0,1-.13-.08.16.16,0,0,1,0-.12v-3.48a3.08,3.08,0,0,0-.07-.7,1.13,1.13,0,0,0-.19-.43.73.73,0,0,0-.32-.28.91.91,0,0,0-.45-.1,1.12,1.12,0,0,0-.66.24,3.29,3.29,0,0,0-.7.7v4a.16.16,0,0,1,0,.12.3.3,0,0,1-.14.08,1.26,1.26,0,0,1-.26.06h-.84a1.12,1.12,0,0,1-.26-.06.3.3,0,0,1-.14-.08.16.16,0,0,1,0-.12v-6.1a.27.27,0,0,1,0-.12.28.28,0,0,1,.12-.08.71.71,0,0,1,.23-.05,1.89,1.89,0,0,1,.36,0,1.94,1.94,0,0,1,.36,0,.6.6,0,0,1,.22.05.24.24,0,0,1,.11.08.19.19,0,0,1,0,.12v.71a3.75,3.75,0,0,1,1-.82,2.24,2.24,0,0,1,1.09-.28,2.4,2.4,0,0,1,1.05.21,1.87,1.87,0,0,1,.69.55,2.43,2.43,0,0,1,.38.83,5.2,5.2,0,0,1,.11,1.13Z" transform="translate(-11.21 -5.95)"/><path class="cls-3" d="M162.16,177.85a2.63,2.63,0,0,1,0,.3,1.12,1.12,0,0,1,0,.2,1,1,0,0,1,0,.13l-.11.13a1.31,1.31,0,0,1-.28.19,2.34,2.34,0,0,1-.45.2,4,4,0,0,1-.55.15,4.07,4.07,0,0,1-.61,0,3.24,3.24,0,0,1-1.25-.22,2.28,2.28,0,0,1-.91-.64,2.79,2.79,0,0,1-.56-1.05,4.65,4.65,0,0,1-.19-1.4,5,5,0,0,1,.23-1.59,3,3,0,0,1,.64-1.1,2.55,2.55,0,0,1,1-.65,3.45,3.45,0,0,1,1.23-.21,2.47,2.47,0,0,1,.54,0,2.52,2.52,0,0,1,.49.13,2.2,2.2,0,0,1,.41.18,1.39,1.39,0,0,1,.26.18l.1.12a.46.46,0,0,1,0,.14c0,.05,0,.12,0,.2s0,.18,0,.29a1.72,1.72,0,0,1-.07.56c0,.1-.11.16-.18.16a.36.36,0,0,1-.24-.1l-.31-.21a1.91,1.91,0,0,0-.43-.21,1.67,1.67,0,0,0-.58-.1,1.19,1.19,0,0,0-1,.52,2.63,2.63,0,0,0-.36,1.51,3.75,3.75,0,0,0,.09.87,1.82,1.82,0,0,0,.27.63,1,1,0,0,0,.43.38,1.49,1.49,0,0,0,.62.13,1.62,1.62,0,0,0,.61-.11,2.38,2.38,0,0,0,.45-.24l.32-.23a.38.38,0,0,1,.22-.11.13.13,0,0,1,.1,0,.17.17,0,0,1,.06.12,1.33,1.33,0,0,1,0,.24C162.16,177.58,162.16,177.7,162.16,177.85Z" transform="translate(-11.21 -5.95)"/><path class="cls-3" d="M166.94,179.05l-.74,2.16a.43.43,0,0,1-.33.25,3.26,3.26,0,0,1-.8.07,2.76,2.76,0,0,1-.44,0,.56.56,0,0,1-.24-.08.16.16,0,0,1-.09-.14.36.36,0,0,1,0-.19l.81-2a.48.48,0,0,1-.16-.13.4.4,0,0,1-.1-.18l-2.1-5.6a1.14,1.14,0,0,1-.09-.37.24.24,0,0,1,.08-.19.46.46,0,0,1,.28-.1,3.49,3.49,0,0,1,.51,0H164a.8.8,0,0,1,.26,0,.28.28,0,0,1,.15.13,1,1,0,0,1,.09.24L166,177h0l1.31-4.16a.45.45,0,0,1,.11-.24.34.34,0,0,1,.21-.08,3.16,3.16,0,0,1,.53,0,3.28,3.28,0,0,1,.49,0,.55.55,0,0,1,.29.1.25.25,0,0,1,.09.2,1,1,0,0,1-.06.3Z" transform="translate(-11.21 -5.95)"/><path class="cls-3" d="M29,191.33a6.66,6.66,0,0,1-.27,2,4.12,4.12,0,0,1-.82,1.47,3.49,3.49,0,0,1-1.33.92,5,5,0,0,1-1.85.32,5.5,5.5,0,0,1-1.8-.27,3.11,3.11,0,0,1-1.28-.82,3.55,3.55,0,0,1-.77-1.41,7.18,7.18,0,0,1-.25-2,6.43,6.43,0,0,1,.27-1.93,3.92,3.92,0,0,1,.81-1.46,3.53,3.53,0,0,1,1.34-.92,5,5,0,0,1,1.85-.32,5.31,5.31,0,0,1,1.77.27,3,3,0,0,1,1.29.82,3.68,3.68,0,0,1,.78,1.39A7,7,0,0,1,29,191.33Zm-1.89.09a6.16,6.16,0,0,0-.11-1.26,2.54,2.54,0,0,0-.37-1,1.78,1.78,0,0,0-.7-.63,2.38,2.38,0,0,0-1.09-.22,2.22,2.22,0,0,0-1.11.25,1.91,1.91,0,0,0-.72.66,2.68,2.68,0,0,0-.38,1,5.55,5.55,0,0,0-.12,1.18,7.33,7.33,0,0,0,.11,1.3,3.14,3.14,0,0,0,.37,1,1.74,1.74,0,0,0,.7.62,2.53,2.53,0,0,0,1.1.22,2.33,2.33,0,0,0,1.11-.25,2,2,0,0,0,.71-.67,2.57,2.57,0,0,0,.39-1A5.69,5.69,0,0,0,27.11,191.42Z" transform="translate(-11.21 -5.95)"/><path class="cls-3" d="M34,195a1.86,1.86,0,0,1,0,.46.49.49,0,0,1-.1.23.5.5,0,0,1-.18.11,1,1,0,0,1-.28.09,3.17,3.17,0,0,1-.35.06l-.38,0a2.65,2.65,0,0,1-.89-.13,1.55,1.55,0,0,1-.62-.4,1.77,1.77,0,0,1-.36-.68,3.47,3.47,0,0,1-.12-1v-3.13H30c-.09,0-.15-.05-.2-.16a1.55,1.55,0,0,1-.07-.53,3.11,3.11,0,0,1,0-.34.81.81,0,0,1,.05-.21.29.29,0,0,1,.09-.12.21.21,0,0,1,.12,0h.72v-1.36a.21.21,0,0,1,0-.12.32.32,0,0,1,.14-.1,1.2,1.2,0,0,1,.26-.05l.42,0,.42,0a1.2,1.2,0,0,1,.26.05.39.39,0,0,1,.14.1.21.21,0,0,1,0,.12v1.36h1.32a.21.21,0,0,1,.12,0,.23.23,0,0,1,.09.12.81.81,0,0,1,0,.21,3.11,3.11,0,0,1,0,.34,1.34,1.34,0,0,1-.07.53c-.05.11-.11.16-.2.16H32.42v2.87a1.39,1.39,0,0,0,.16.75.62.62,0,0,0,.56.25.88.88,0,0,0,.24,0l.2-.05.14-.06.11,0,.08,0a.19.19,0,0,1,.05.1.78.78,0,0,1,0,.19A2.73,2.73,0,0,1,34,195Z" transform="translate(-11.21 -5.95)"/><path class="cls-3" d="M41.09,195.62a.21.21,0,0,1,0,.12.56.56,0,0,1-.14.09,1.33,1.33,0,0,1-.26,0h-.84a1.2,1.2,0,0,1-.26,0,.42.42,0,0,1-.14-.09.16.16,0,0,1,0-.12v-3.48a3.18,3.18,0,0,0-.06-.7,1.55,1.55,0,0,0-.19-.43.79.79,0,0,0-.32-.28.93.93,0,0,0-.45-.1,1.17,1.17,0,0,0-.67.24,3.83,3.83,0,0,0-.7.7v4.05a.16.16,0,0,1,0,.12.33.33,0,0,1-.14.09,1.2,1.2,0,0,1-.26,0h-.83a1.46,1.46,0,0,1-.27,0,.56.56,0,0,1-.14-.09.21.21,0,0,1,0-.12v-9a.21.21,0,0,1,0-.12.39.39,0,0,1,.14-.1,1.46,1.46,0,0,1,.27,0,2.49,2.49,0,0,1,.41,0,2.56,2.56,0,0,1,.42,0,1.2,1.2,0,0,1,.26,0,.27.27,0,0,1,.14.1.16.16,0,0,1,0,.12V190a3.27,3.27,0,0,1,.91-.65,2.17,2.17,0,0,1,1-.22,2.34,2.34,0,0,1,1,.21,1.66,1.66,0,0,1,.69.56,2.26,2.26,0,0,1,.38.83,4.78,4.78,0,0,1,.12,1.15Z" transform="translate(-11.21 -5.95)"/><path class="cls-3" d="M48.41,192.39a.69.69,0,0,1-.14.47.51.51,0,0,1-.39.15H44.17a2.65,2.65,0,0,0,.09.71,1.3,1.3,0,0,0,.3.54,1.2,1.2,0,0,0,.52.33,2.13,2.13,0,0,0,.76.12,4.62,4.62,0,0,0,.79-.06l.59-.15.42-.14a.78.78,0,0,1,.26-.07.15.15,0,0,1,.1,0s0,0,.07.08a.6.6,0,0,1,0,.18,2.27,2.27,0,0,1,0,.28,2,2,0,0,1,0,.26.9.9,0,0,1,0,.18.34.34,0,0,1,0,.12.36.36,0,0,1-.07.1.61.61,0,0,1-.24.13,3.77,3.77,0,0,1-.51.17c-.2.05-.44.09-.7.13a5.77,5.77,0,0,1-.85.06,4.44,4.44,0,0,1-1.43-.21,2.53,2.53,0,0,1-1-.62,2.72,2.72,0,0,1-.61-1.05,5.07,5.07,0,0,1-.2-1.49,4.83,4.83,0,0,1,.21-1.47,3,3,0,0,1,.62-1.1,2.56,2.56,0,0,1,1-.7,3.35,3.35,0,0,1,1.3-.24,3.41,3.41,0,0,1,1.31.23,2.41,2.41,0,0,1,.89.62,2.64,2.64,0,0,1,.51,1,4.07,4.07,0,0,1,.17,1.19Zm-1.67-.49a1.79,1.79,0,0,0-.29-1.14,1.14,1.14,0,0,0-1-.41,1.26,1.26,0,0,0-.57.12,1.2,1.2,0,0,0-.41.33,1.79,1.79,0,0,0-.24.5,2.35,2.35,0,0,0-.1.6Z" transform="translate(-11.21 -5.95)"/><path class="cls-3" d="M53.74,190.09c0,.16,0,.3,0,.4s0,.19,0,.25a.23.23,0,0,1-.08.12.18.18,0,0,1-.11,0l-.12,0-.16-.05-.18,0a.86.86,0,0,0-.23,0,1,1,0,0,0-.29.05,1.1,1.1,0,0,0-.29.19,2.43,2.43,0,0,0-.33.32,4.94,4.94,0,0,0-.35.51v3.8a.17.17,0,0,1,0,.12.33.33,0,0,1-.14.09,1.2,1.2,0,0,1-.26,0h-.83a1.46,1.46,0,0,1-.27,0,.56.56,0,0,1-.14-.09.21.21,0,0,1,0-.12v-6.1a.19.19,0,0,1,0-.12.23.23,0,0,1,.12-.08.71.71,0,0,1,.23,0,1.78,1.78,0,0,1,.35,0,1.84,1.84,0,0,1,.36,0,.66.66,0,0,1,.23,0,.24.24,0,0,1,.11.08.27.27,0,0,1,0,.12v.76a5,5,0,0,1,.45-.56,2.07,2.07,0,0,1,.41-.35,1.23,1.23,0,0,1,.38-.19,1.73,1.73,0,0,1,.38-.05h.19l.22,0,.19,0a.35.35,0,0,1,.12.07.18.18,0,0,1,0,.07,1,1,0,0,1,0,.12.91.91,0,0,1,0,.21C53.74,189.8,53.74,189.93,53.74,190.09Z" transform="translate(-11.21 -5.95)"/><path class="cls-3" d="M63.46,190a1.18,1.18,0,0,1-.07.48c-.06.11-.12.16-.19.16h-.72a1.07,1.07,0,0,1,.22.37,1.56,1.56,0,0,1,.06.44,2.5,2.5,0,0,1-.17.94,1.89,1.89,0,0,1-.51.7,2.28,2.28,0,0,1-.8.43,3.46,3.46,0,0,1-1.05.15,2.6,2.6,0,0,1-.56-.07,1.81,1.81,0,0,1-.41-.17,1.1,1.1,0,0,0-.14.21.5.5,0,0,0-.07.27.4.4,0,0,0,.18.33.88.88,0,0,0,.48.14l1.49,0a4.11,4.11,0,0,1,.92.15,1.81,1.81,0,0,1,.69.36,1.52,1.52,0,0,1,.42.55,1.67,1.67,0,0,1,.15.73,1.89,1.89,0,0,1-.79,1.54,3.2,3.2,0,0,1-1,.47,5.26,5.26,0,0,1-1.4.17,5.7,5.7,0,0,1-1.33-.13,2.87,2.87,0,0,1-.9-.34,1.41,1.41,0,0,1-.51-.52,1.38,1.38,0,0,1-.16-.67,1.54,1.54,0,0,1,.06-.43,1.22,1.22,0,0,1,.17-.39,1.54,1.54,0,0,1,.27-.36,4.29,4.29,0,0,1,.38-.33,1.06,1.06,0,0,1-.46-.43,1.16,1.16,0,0,1-.16-.59,1.53,1.53,0,0,1,.19-.73,2.27,2.27,0,0,1,.48-.6,1.92,1.92,0,0,1-.39-.57,2.27,2.27,0,0,1-.14-.84,2.24,2.24,0,0,1,.19-.95,2,2,0,0,1,.52-.71,2.41,2.41,0,0,1,.8-.45,3.33,3.33,0,0,1,1-.15,4.93,4.93,0,0,1,.55,0l.49.1H63.2c.08,0,.14.05.19.15A1.25,1.25,0,0,1,63.46,190Zm-1.8,6.31a.55.55,0,0,0-.25-.48,1.28,1.28,0,0,0-.68-.17l-1.22,0a1.81,1.81,0,0,0-.28.25,1.62,1.62,0,0,0-.18.23.6.6,0,0,0-.08.21,1.49,1.49,0,0,0,0,.21.55.55,0,0,0,.34.52,2.17,2.17,0,0,0,1,.18,2,2,0,0,0,.65-.08,1.2,1.2,0,0,0,.44-.21.8.8,0,0,0,.23-.29A.93.93,0,0,0,61.66,196.26Zm-.41-4.87a1.06,1.06,0,0,0-.27-.77,1,1,0,0,0-.77-.27,1.25,1.25,0,0,0-.45.08,1,1,0,0,0-.32.24,1,1,0,0,0-.18.34,1.35,1.35,0,0,0-.07.41,1,1,0,0,0,.28.73,1,1,0,0,0,.76.27,1.25,1.25,0,0,0,.45-.08.94.94,0,0,0,.32-.23,1.06,1.06,0,0,0,.19-.33A1.23,1.23,0,0,0,61.25,191.39Z" transform="translate(-11.21 -5.95)"/><path class="cls-3" d="M70.63,192.51a4.87,4.87,0,0,1-.2,1.42A3,3,0,0,1,69.8,195a2.7,2.7,0,0,1-1,.72,3.9,3.9,0,0,1-1.47.25,4.06,4.06,0,0,1-1.42-.23,2.55,2.55,0,0,1-1-.65,2.68,2.68,0,0,1-.59-1.06,5.34,5.34,0,0,1,0-2.86,3,3,0,0,1,.63-1.11,2.72,2.72,0,0,1,1-.71,3.9,3.9,0,0,1,1.47-.26,4.28,4.28,0,0,1,1.42.22,2.57,2.57,0,0,1,1,.66,2.72,2.72,0,0,1,.58,1.06A4.88,4.88,0,0,1,70.63,192.51Zm-1.77.07a4.28,4.28,0,0,0-.07-.83,2,2,0,0,0-.24-.66,1.21,1.21,0,0,0-.46-.44,1.52,1.52,0,0,0-.71-.16,1.54,1.54,0,0,0-.67.14,1.24,1.24,0,0,0-.47.41,1.83,1.83,0,0,0-.28.65,3.81,3.81,0,0,0-.09.87,4.28,4.28,0,0,0,.07.83,2.15,2.15,0,0,0,.24.66,1.26,1.26,0,0,0,.46.43,1.52,1.52,0,0,0,.71.16,1.45,1.45,0,0,0,.68-.15,1.14,1.14,0,0,0,.47-.4,1.93,1.93,0,0,0,.27-.65A3.72,3.72,0,0,0,68.86,192.58Z" transform="translate(-11.21 -5.95)"/><path class="cls-3" d="M77.56,189.52v.08s0,.06,0,.1l0,.14s0,.1,0,.17l-1.83,5.51a.48.48,0,0,1-.09.19.39.39,0,0,1-.19.12,2.39,2.39,0,0,1-.36,0H73.81a1.32,1.32,0,0,1-.36-.06.48.48,0,0,1-.19-.11.48.48,0,0,1-.09-.19L71.34,190c0-.09,0-.18-.07-.25s0-.12,0-.16v-.08a.16.16,0,0,1,0-.12.22.22,0,0,1,.13-.09,1.2,1.2,0,0,1,.26-.05h.42a3,3,0,0,1,.46,0l.27,0a.28.28,0,0,1,.14.09.59.59,0,0,1,.06.14L74.41,194l0,.17,0-.17,1.37-4.48a.37.37,0,0,1,.07-.14.24.24,0,0,1,.14-.09,1.31,1.31,0,0,1,.25,0,2.56,2.56,0,0,1,.42,0h.42l.25.05a.23.23,0,0,1,.12.09A.21.21,0,0,1,77.56,189.52Z" transform="translate(-11.21 -5.95)"/><path class="cls-3" d="M84.08,192.39a.69.69,0,0,1-.14.47.51.51,0,0,1-.39.15H79.84a2.65,2.65,0,0,0,.09.71,1.3,1.3,0,0,0,.3.54,1.2,1.2,0,0,0,.52.33,2.13,2.13,0,0,0,.76.12,4.62,4.62,0,0,0,.79-.06l.59-.15.42-.14a.78.78,0,0,1,.26-.07.15.15,0,0,1,.1,0s0,0,.07.08a.6.6,0,0,1,0,.18,2.27,2.27,0,0,1,0,.28,2,2,0,0,1,0,.26.9.9,0,0,1,0,.18.34.34,0,0,1,0,.12.36.36,0,0,1-.07.1.61.61,0,0,1-.24.13,3.77,3.77,0,0,1-.51.17c-.2.05-.44.09-.7.13a5.77,5.77,0,0,1-.85.06,4.44,4.44,0,0,1-1.43-.21,2.53,2.53,0,0,1-1-.62,2.72,2.72,0,0,1-.61-1.05,5.07,5.07,0,0,1-.2-1.49,4.83,4.83,0,0,1,.21-1.47,3,3,0,0,1,.62-1.1,2.56,2.56,0,0,1,1-.7,3.35,3.35,0,0,1,1.3-.24,3.41,3.41,0,0,1,1.31.23,2.41,2.41,0,0,1,.89.62,2.64,2.64,0,0,1,.51,1,4.07,4.07,0,0,1,.17,1.19Zm-1.67-.49a1.79,1.79,0,0,0-.29-1.14,1.14,1.14,0,0,0-1-.41,1.26,1.26,0,0,0-.57.12,1.2,1.2,0,0,0-.41.33,1.79,1.79,0,0,0-.24.5,2.35,2.35,0,0,0-.1.6Z" transform="translate(-11.21 -5.95)"/><path class="cls-3" d="M89.41,190.09c0,.16,0,.3,0,.4s0,.19,0,.25a.23.23,0,0,1-.08.12.18.18,0,0,1-.11,0l-.12,0-.16-.05-.18,0a.86.86,0,0,0-.23,0,1,1,0,0,0-.29.05,1.1,1.1,0,0,0-.29.19,2.43,2.43,0,0,0-.33.32,4.94,4.94,0,0,0-.35.51v3.8a.17.17,0,0,1,0,.12.33.33,0,0,1-.14.09,1.2,1.2,0,0,1-.26,0h-.83a1.46,1.46,0,0,1-.27,0,.56.56,0,0,1-.14-.09.21.21,0,0,1,0-.12v-6.1a.19.19,0,0,1,0-.12.23.23,0,0,1,.12-.08.71.71,0,0,1,.23,0,1.78,1.78,0,0,1,.35,0,1.84,1.84,0,0,1,.36,0,.66.66,0,0,1,.23,0,.24.24,0,0,1,.11.08.27.27,0,0,1,0,.12v.76a5,5,0,0,1,.45-.56,2.07,2.07,0,0,1,.41-.35,1.23,1.23,0,0,1,.38-.19,1.73,1.73,0,0,1,.38-.05h.19l.22,0,.19,0a.35.35,0,0,1,.12.07.18.18,0,0,1,0,.07,1,1,0,0,1,0,.12.91.91,0,0,1,0,.21C89.41,189.8,89.41,189.93,89.41,190.09Z" transform="translate(-11.21 -5.95)"/><path class="cls-3" d="M96.29,195.62a.16.16,0,0,1,0,.12.36.36,0,0,1-.13.09,1.46,1.46,0,0,1-.27,0H95a1.2,1.2,0,0,1-.26,0,.42.42,0,0,1-.14-.09.16.16,0,0,1,0-.12v-3.48a2.6,2.6,0,0,0-.07-.7,1.13,1.13,0,0,0-.19-.43.76.76,0,0,0-.31-.28,1,1,0,0,0-.46-.1,1.12,1.12,0,0,0-.66.24,3.54,3.54,0,0,0-.7.7v4.05a.16.16,0,0,1,0,.12.42.42,0,0,1-.14.09,1.33,1.33,0,0,1-.26,0h-.84a1.33,1.33,0,0,1-.26,0,.42.42,0,0,1-.14-.09.16.16,0,0,1,0-.12v-6.1a.27.27,0,0,1,0-.12.32.32,0,0,1,.13-.08.66.66,0,0,1,.23,0,1.78,1.78,0,0,1,.35,0,1.94,1.94,0,0,1,.36,0,.55.55,0,0,1,.22,0,.24.24,0,0,1,.11.08.19.19,0,0,1,0,.12v.71a3.75,3.75,0,0,1,1-.82,2.24,2.24,0,0,1,1.09-.28,2.4,2.4,0,0,1,1,.21,1.8,1.8,0,0,1,.69.56,2.3,2.3,0,0,1,.38.82,5.2,5.2,0,0,1,.11,1.13Z" transform="translate(-11.21 -5.95)"/><path class="cls-3" d="M107.68,195.62a.16.16,0,0,1,0,.12.42.42,0,0,1-.14.09,1.2,1.2,0,0,1-.26,0h-.84a1.33,1.33,0,0,1-.26,0,.42.42,0,0,1-.14-.09.21.21,0,0,1,0-.12V192a2.47,2.47,0,0,0-.06-.56,1.3,1.3,0,0,0-.18-.43.8.8,0,0,0-.3-.28.85.85,0,0,0-.43-.1,1,1,0,0,0-.63.24,4.16,4.16,0,0,0-.68.7v4.05a.16.16,0,0,1,0,.12.56.56,0,0,1-.14.09,1.33,1.33,0,0,1-.26,0h-.83a1.2,1.2,0,0,1-.26,0,.33.33,0,0,1-.14-.09.17.17,0,0,1,0-.12V192a3.24,3.24,0,0,0,0-.56,1.3,1.3,0,0,0-.18-.43.8.8,0,0,0-.3-.28.85.85,0,0,0-.43-.1,1,1,0,0,0-.63.24,4.16,4.16,0,0,0-.68.7v4.05a.16.16,0,0,1,0,.12.33.33,0,0,1-.14.09,1.2,1.2,0,0,1-.26,0h-.83a1.46,1.46,0,0,1-.27,0,.56.56,0,0,1-.14-.09.21.21,0,0,1,0-.12v-6.1a.19.19,0,0,1,0-.12.23.23,0,0,1,.12-.08.66.66,0,0,1,.23,0,1.78,1.78,0,0,1,.35,0,1.84,1.84,0,0,1,.36,0,.55.55,0,0,1,.22,0,.28.28,0,0,1,.12.08.27.27,0,0,1,0,.12v.71a4,4,0,0,1,1-.82,2.07,2.07,0,0,1,1.05-.28,2.82,2.82,0,0,1,.68.08,1.7,1.7,0,0,1,.53.23,1.55,1.55,0,0,1,.41.35,2.39,2.39,0,0,1,.29.46,5,5,0,0,1,.53-.51,3.54,3.54,0,0,1,.52-.34,2.07,2.07,0,0,1,.52-.2,1.81,1.81,0,0,1,.52-.07,2.23,2.23,0,0,1,1,.21,1.7,1.7,0,0,1,.68.56,2.11,2.11,0,0,1,.36.82,4,4,0,0,1,.11,1Z" transform="translate(-11.21 -5.95)"/><path class="cls-3" d="M115,192.39a.65.65,0,0,1-.14.47.49.49,0,0,1-.38.15h-3.71a2.65,2.65,0,0,0,.09.71,1.41,1.41,0,0,0,.29.54,1.33,1.33,0,0,0,.52.33,2.16,2.16,0,0,0,.76.12,4.74,4.74,0,0,0,.8-.06l.59-.15.41-.14a.89.89,0,0,1,.27-.07.17.17,0,0,1,.1,0s.05,0,.07.08a.6.6,0,0,1,0,.18c0,.07,0,.17,0,.28s0,.19,0,.26a.9.9,0,0,1,0,.18.34.34,0,0,1,0,.12.36.36,0,0,1-.07.1.59.59,0,0,1-.25.13,4.09,4.09,0,0,1-.5.17c-.21.05-.44.09-.71.13a5.53,5.53,0,0,1-.84.06,4.4,4.4,0,0,1-1.43-.21,2.4,2.4,0,0,1-1-.62,2.6,2.6,0,0,1-.61-1.05,4.76,4.76,0,0,1-.2-1.49,4.83,4.83,0,0,1,.21-1.47,3,3,0,0,1,.61-1.1,2.63,2.63,0,0,1,1-.7,3.4,3.4,0,0,1,1.31-.24,3.36,3.36,0,0,1,1.3.23,2.45,2.45,0,0,1,.9.62,2.64,2.64,0,0,1,.51,1,4.08,4.08,0,0,1,.16,1.19Zm-1.66-.49a1.79,1.79,0,0,0-.3-1.14,1.12,1.12,0,0,0-1-.41,1.32,1.32,0,0,0-.57.12,1.16,1.16,0,0,0-.4.33,1.56,1.56,0,0,0-.25.5,2.35,2.35,0,0,0-.09.6Z" transform="translate(-11.21 -5.95)"/><path class="cls-3" d="M122.24,195.62a.16.16,0,0,1,0,.12.42.42,0,0,1-.14.09,1.2,1.2,0,0,1-.26,0H121a1.46,1.46,0,0,1-.27,0,.48.48,0,0,1-.13-.09.16.16,0,0,1,0-.12v-3.48a2.6,2.6,0,0,0-.07-.7,1.13,1.13,0,0,0-.19-.43.76.76,0,0,0-.31-.28,1,1,0,0,0-.46-.1,1.12,1.12,0,0,0-.66.24,3.54,3.54,0,0,0-.7.7v4.05a.16.16,0,0,1,0,.12.42.42,0,0,1-.14.09,1.33,1.33,0,0,1-.26,0h-.84a1.33,1.33,0,0,1-.26,0,.42.42,0,0,1-.14-.09.16.16,0,0,1,0-.12v-6.1a.27.27,0,0,1,0-.12.32.32,0,0,1,.13-.08.6.6,0,0,1,.22,0,3.25,3.25,0,0,1,.72,0,.6.6,0,0,1,.22,0,.24.24,0,0,1,.11.08.19.19,0,0,1,0,.12v.71a3.75,3.75,0,0,1,1-.82,2.24,2.24,0,0,1,1.09-.28,2.4,2.4,0,0,1,1,.21,1.8,1.8,0,0,1,.69.56,2.3,2.3,0,0,1,.38.82,5.2,5.2,0,0,1,.11,1.13Z" transform="translate(-11.21 -5.95)"/><path class="cls-3" d="M127.41,195a1.86,1.86,0,0,1,0,.46.49.49,0,0,1-.1.23.5.5,0,0,1-.18.11,1,1,0,0,1-.28.09,2.81,2.81,0,0,1-.35.06l-.38,0a2.59,2.59,0,0,1-.88-.13,1.58,1.58,0,0,1-.63-.4,1.77,1.77,0,0,1-.36-.68,3.5,3.5,0,0,1-.11-1v-3.13h-.74a.21.21,0,0,1-.19-.16,1.34,1.34,0,0,1-.07-.53c0-.13,0-.25,0-.34a.76.76,0,0,1,.06-.21.28.28,0,0,1,.08-.12l.12,0h.73v-1.36a.21.21,0,0,1,0-.12.32.32,0,0,1,.14-.1,1.31,1.31,0,0,1,.27-.05l.41,0,.42,0a1.2,1.2,0,0,1,.26.05.32.32,0,0,1,.14.1.16.16,0,0,1,0,.12v1.36h1.33l.12,0a.28.28,0,0,1,.08.12.54.54,0,0,1,0,.21,3.11,3.11,0,0,1,0,.34,1.34,1.34,0,0,1-.07.53.21.21,0,0,1-.2.16h-1.33v2.87a1.39,1.39,0,0,0,.16.75.62.62,0,0,0,.56.25.88.88,0,0,0,.24,0l.2-.05.14-.06.11,0,.08,0a.29.29,0,0,1,.06.1c0,.05,0,.11,0,.19A2.73,2.73,0,0,1,127.41,195Z" transform="translate(-11.21 -5.95)"/><path class="cls-3" d="M137,195.64a.21.21,0,0,1-.07.15.51.51,0,0,1-.22.08,2.5,2.5,0,0,1-.43,0,2.57,2.57,0,0,1-.45,0,.42.42,0,0,1-.2-.08.2.2,0,0,1-.06-.15v-.48a2.78,2.78,0,0,1-.86.62,2.46,2.46,0,0,1-1.06.23,2.84,2.84,0,0,1-.9-.13,2,2,0,0,1-.7-.37,1.76,1.76,0,0,1-.46-.62,2.09,2.09,0,0,1-.17-.86,1.94,1.94,0,0,1,.21-.93,1.75,1.75,0,0,1,.62-.65,3.12,3.12,0,0,1,1-.38,7.56,7.56,0,0,1,1.43-.12h.6v-.37a1.85,1.85,0,0,0-.06-.5.78.78,0,0,0-.19-.36.72.72,0,0,0-.36-.21,1.75,1.75,0,0,0-.55-.07,3,3,0,0,0-.77.09,5.87,5.87,0,0,0-.6.22,3.47,3.47,0,0,0-.43.21.68.68,0,0,1-.28.09.23.23,0,0,1-.14,0,.34.34,0,0,1-.09-.14.64.64,0,0,1-.06-.22,2.48,2.48,0,0,1,0-.29,1.42,1.42,0,0,1,0-.33.61.61,0,0,1,.13-.22,1.33,1.33,0,0,1,.34-.22,3,3,0,0,1,.56-.22,4.48,4.48,0,0,1,.7-.17,4,4,0,0,1,.78-.07,4.84,4.84,0,0,1,1.23.14,2.22,2.22,0,0,1,.84.43,1.72,1.72,0,0,1,.47.75,3.53,3.53,0,0,1,.16,1.09ZM135.33,193h-.66a3.55,3.55,0,0,0-.71.06,1.18,1.18,0,0,0-.48.19.82.82,0,0,0-.27.29.87.87,0,0,0-.08.4.75.75,0,0,0,.24.6.93.93,0,0,0,.67.22,1.29,1.29,0,0,0,.67-.18,2.68,2.68,0,0,0,.62-.54Z" transform="translate(-11.21 -5.95)"/><path class="cls-3" d="M144.23,190a1.16,1.16,0,0,1-.08.48c-.05.11-.11.16-.18.16h-.72a.91.91,0,0,1,.21.37,1.27,1.27,0,0,1,.07.44,2.32,2.32,0,0,1-.18.94,1.89,1.89,0,0,1-.51.7,2.19,2.19,0,0,1-.8.43,3.39,3.39,0,0,1-1,.15,2.52,2.52,0,0,1-.56-.07,1.63,1.63,0,0,1-.41-.17,1.91,1.91,0,0,0-.15.21.6.6,0,0,0-.06.27.42.42,0,0,0,.17.33,1,1,0,0,0,.49.14l1.48,0a4.11,4.11,0,0,1,.93.15,1.77,1.77,0,0,1,.68.36,1.45,1.45,0,0,1,.43.55,1.67,1.67,0,0,1,.15.73,1.93,1.93,0,0,1-.2.85,2,2,0,0,1-.6.69,3,3,0,0,1-1,.47,5.31,5.31,0,0,1-1.4.17,5.7,5.7,0,0,1-1.33-.13,2.69,2.69,0,0,1-.9-.34,1.36,1.36,0,0,1-.52-.52,1.5,1.5,0,0,1-.16-.67,1.54,1.54,0,0,1,.06-.43,1.77,1.77,0,0,1,.45-.75,3.22,3.22,0,0,1,.38-.33,1.13,1.13,0,0,1-.62-1,1.42,1.42,0,0,1,.19-.73,2.44,2.44,0,0,1,.47-.6,1.9,1.9,0,0,1-.38-.57,2.27,2.27,0,0,1-.14-.84,2.24,2.24,0,0,1,.19-.95,1.85,1.85,0,0,1,.52-.71,2.31,2.31,0,0,1,.8-.45,3.31,3.31,0,0,1,1-.15,4.68,4.68,0,0,1,.55,0l.49.1H144a.21.21,0,0,1,.18.15A1.22,1.22,0,0,1,144.23,190Zm-1.81,6.31a.55.55,0,0,0-.24-.48,1.31,1.31,0,0,0-.68-.17l-1.22,0a1.94,1.94,0,0,0-.29.25,1.5,1.5,0,0,0-.17.23.6.6,0,0,0-.08.21.75.75,0,0,0,0,.21.55.55,0,0,0,.34.52,2.73,2.73,0,0,0,1.63.1,1.15,1.15,0,0,0,.43-.21.63.63,0,0,0,.23-.29A.75.75,0,0,0,142.42,196.26Zm-.4-4.87a.94.94,0,0,0-1.05-1,1.19,1.19,0,0,0-.44.08,1,1,0,0,0-.32.24,1,1,0,0,0-.19.34,1.35,1.35,0,0,0-.06.41,1,1,0,0,0,.27.73,1.05,1.05,0,0,0,.76.27,1.17,1.17,0,0,0,.45-.08.85.85,0,0,0,.32-.23.78.78,0,0,0,.19-.33A1,1,0,0,0,142,191.39Z" transform="translate(-11.21 -5.95)"/><path class="cls-3" d="M150.85,192.39a.69.69,0,0,1-.14.47.5.5,0,0,1-.39.15h-3.71a2.65,2.65,0,0,0,.09.71,1.42,1.42,0,0,0,.3.54,1.26,1.26,0,0,0,.52.33,2.13,2.13,0,0,0,.76.12,4.54,4.54,0,0,0,.79-.06l.59-.15.42-.14a.89.89,0,0,1,.27-.07.17.17,0,0,1,.1,0s.05,0,.07.08a.66.66,0,0,1,0,.18,2.27,2.27,0,0,1,0,.28v.26c0,.07,0,.13,0,.18a.83.83,0,0,1,0,.12.39.39,0,0,1-.08.1.61.61,0,0,1-.24.13,4.09,4.09,0,0,1-.5.17c-.21.05-.45.09-.71.13a5.67,5.67,0,0,1-.85.06,4.38,4.38,0,0,1-1.42-.21,2.4,2.4,0,0,1-1-.62,2.62,2.62,0,0,1-.62-1.05,5.07,5.07,0,0,1-.2-1.49,4.83,4.83,0,0,1,.21-1.47,3.18,3.18,0,0,1,.62-1.1,2.63,2.63,0,0,1,1-.7,3.74,3.74,0,0,1,2.61,0,2.41,2.41,0,0,1,.89.62,2.52,2.52,0,0,1,.52,1,4.08,4.08,0,0,1,.16,1.19Zm-1.67-.49a1.73,1.73,0,0,0-.29-1.14,1.13,1.13,0,0,0-1-.41,1.26,1.26,0,0,0-.57.12,1.08,1.08,0,0,0-.4.33,1.56,1.56,0,0,0-.25.5,2.35,2.35,0,0,0-.1.6Z" transform="translate(-11.21 -5.95)"/><path class="cls-3" d="M158.09,195.62a.16.16,0,0,1,0,.12.42.42,0,0,1-.14.09,1.2,1.2,0,0,1-.26,0h-.84a1.33,1.33,0,0,1-.26,0,.36.36,0,0,1-.13-.09.17.17,0,0,1,0-.12v-3.48a3.18,3.18,0,0,0-.06-.7,1.3,1.3,0,0,0-.19-.43.79.79,0,0,0-.32-.28.93.93,0,0,0-.45-.1,1.12,1.12,0,0,0-.66.24,3.29,3.29,0,0,0-.7.7v4.05a.16.16,0,0,1,0,.12.56.56,0,0,1-.14.09,1.46,1.46,0,0,1-.27,0h-.83a1.2,1.2,0,0,1-.26,0,.33.33,0,0,1-.14-.09.16.16,0,0,1,0-.12v-6.1a.27.27,0,0,1,0-.12.23.23,0,0,1,.12-.08.71.71,0,0,1,.23,0,1.83,1.83,0,0,1,.35,0,2,2,0,0,1,.37,0,.6.6,0,0,1,.22,0,.24.24,0,0,1,.11.08.28.28,0,0,1,0,.12v.71a3.71,3.71,0,0,1,1-.82,2.28,2.28,0,0,1,1.1-.28,2.32,2.32,0,0,1,1,.21,1.66,1.66,0,0,1,.69.56,2,2,0,0,1,.38.82,4.6,4.6,0,0,1,.12,1.13Z" transform="translate(-11.21 -5.95)"/><path class="cls-3" d="M164.39,194.65a2.63,2.63,0,0,1,0,.3,1.12,1.12,0,0,1,0,.2.89.89,0,0,1-.05.13.35.35,0,0,1-.1.13,1.64,1.64,0,0,1-.28.19,2.34,2.34,0,0,1-.45.2,4.41,4.41,0,0,1-.55.15,4.21,4.21,0,0,1-.62.05,3.23,3.23,0,0,1-1.24-.22,2.32,2.32,0,0,1-.92-.64,2.87,2.87,0,0,1-.55-1,4.67,4.67,0,0,1-.19-1.41,5,5,0,0,1,.23-1.59,2.91,2.91,0,0,1,.64-1.1,2.48,2.48,0,0,1,1-.65,3.45,3.45,0,0,1,1.23-.21,3.29,3.29,0,0,1,.54.05,2.52,2.52,0,0,1,.49.13,2.2,2.2,0,0,1,.41.18,1.25,1.25,0,0,1,.25.18.58.58,0,0,1,.11.13.32.32,0,0,1,.05.13c0,.05,0,.12,0,.2s0,.18,0,.29a1.72,1.72,0,0,1-.07.56c-.05.11-.11.16-.18.16a.4.4,0,0,1-.25-.1l-.3-.21a1.91,1.91,0,0,0-.43-.21,1.69,1.69,0,0,0-.59-.1,1.18,1.18,0,0,0-1,.52,2.63,2.63,0,0,0-.36,1.51,3.75,3.75,0,0,0,.09.87,2,2,0,0,0,.26.63,1.14,1.14,0,0,0,.44.38,1.33,1.33,0,0,0,.61.13,1.64,1.64,0,0,0,.62-.11,2.56,2.56,0,0,0,.44-.23L164,194a.36.36,0,0,1,.21-.11.18.18,0,0,1,.11,0,.22.22,0,0,1,.06.12,1.33,1.33,0,0,1,0,.24C164.39,194.38,164.39,194.5,164.39,194.65Z" transform="translate(-11.21 -5.95)"/><path class="cls-3" d="M167.49,187.46a1,1,0,0,1-.21.72,1.2,1.2,0,0,1-.79.19,1.13,1.13,0,0,1-.78-.19.9.9,0,0,1-.2-.69,1,1,0,0,1,.21-.72,1.17,1.17,0,0,1,.79-.2,1.12,1.12,0,0,1,.77.19A.93.93,0,0,1,167.49,187.46Zm-.13,8.16a.16.16,0,0,1,0,.12.56.56,0,0,1-.14.09l-.26,0h-.84a1.2,1.2,0,0,1-.26,0,.42.42,0,0,1-.14-.09.16.16,0,0,1,0-.12v-6.08a.16.16,0,0,1,0-.12.24.24,0,0,1,.14-.09.77.77,0,0,1,.26-.06l.42,0,.42,0a.91.91,0,0,1,.26.06.28.28,0,0,1,.14.09.16.16,0,0,1,0,.12Z" transform="translate(-11.21 -5.95)"/><path class="cls-3" d="M174.71,192.39a.69.69,0,0,1-.14.47.5.5,0,0,1-.39.15h-3.71a2.65,2.65,0,0,0,.09.71,1.3,1.3,0,0,0,.3.54,1.2,1.2,0,0,0,.52.33,2.13,2.13,0,0,0,.76.12,4.62,4.62,0,0,0,.79-.06l.59-.15.42-.14a.85.85,0,0,1,.26-.07.2.2,0,0,1,.11,0,.13.13,0,0,1,.06.08.6.6,0,0,1,0,.18,2.27,2.27,0,0,1,0,.28,2,2,0,0,1,0,.26.9.9,0,0,1,0,.18.21.21,0,0,1,0,.12.36.36,0,0,1-.07.1.61.61,0,0,1-.24.13,3.77,3.77,0,0,1-.51.17c-.2.05-.44.09-.7.13a5.77,5.77,0,0,1-.85.06,4.33,4.33,0,0,1-1.42-.21,2.5,2.5,0,0,1-1-.62,2.72,2.72,0,0,1-.61-1.05,5.07,5.07,0,0,1-.2-1.49,4.83,4.83,0,0,1,.21-1.47,3,3,0,0,1,.62-1.1,2.56,2.56,0,0,1,1-.7,3.35,3.35,0,0,1,1.3-.24,3.41,3.41,0,0,1,1.31.23,2.41,2.41,0,0,1,.89.62,2.5,2.5,0,0,1,.51,1,4.07,4.07,0,0,1,.17,1.19ZM173,191.9a1.79,1.79,0,0,0-.29-1.14,1.14,1.14,0,0,0-1-.41,1.26,1.26,0,0,0-.57.12,1.08,1.08,0,0,0-.4.33,1.56,1.56,0,0,0-.25.5,2.35,2.35,0,0,0-.1.6Z" transform="translate(-11.21 -5.95)"/><path class="cls-3" d="M180.42,193.9a2,2,0,0,1-.2.91,1.79,1.79,0,0,1-.55.67,2.72,2.72,0,0,1-.84.4,3.87,3.87,0,0,1-1.05.13,4.4,4.4,0,0,1-.65,0,5.22,5.22,0,0,1-.56-.13,2.94,2.94,0,0,1-.41-.16,1.09,1.09,0,0,1-.24-.16.45.45,0,0,1-.12-.22,1.81,1.81,0,0,1,0-.46c0-.13,0-.23,0-.31a.64.64,0,0,1,0-.19.16.16,0,0,1,.06-.1.2.2,0,0,1,.11,0,.5.5,0,0,1,.22.09l.36.19a4.23,4.23,0,0,0,.51.19,2.29,2.29,0,0,0,.66.09,1.73,1.73,0,0,0,.42,0,1,1,0,0,0,.31-.14.53.53,0,0,0,.2-.22.66.66,0,0,0,.07-.32.55.55,0,0,0-.12-.35,1.11,1.11,0,0,0-.34-.25,2.9,2.9,0,0,0-.47-.21q-.27-.09-.54-.21a4.53,4.53,0,0,1-.54-.27,1.87,1.87,0,0,1-.47-.37,1.74,1.74,0,0,1-.34-.52,2,2,0,0,1-.12-.74,1.77,1.77,0,0,1,.17-.8,1.59,1.59,0,0,1,.49-.63,2.21,2.21,0,0,1,.78-.4,3.35,3.35,0,0,1,1-.15,4.91,4.91,0,0,1,.55,0,4.53,4.53,0,0,1,.49.11,2,2,0,0,1,.37.13l.22.12a.44.44,0,0,1,.09.11.34.34,0,0,1,0,.12.9.9,0,0,1,0,.18,1.93,1.93,0,0,1,0,.26,2.63,2.63,0,0,1,0,.3.42.42,0,0,1,0,.18.29.29,0,0,1-.06.1l-.1,0a.44.44,0,0,1-.19-.07l-.33-.15a3.33,3.33,0,0,0-.45-.16,2,2,0,0,0-.58-.07,1.64,1.64,0,0,0-.41.05.8.8,0,0,0-.28.13.65.65,0,0,0-.16.21.58.58,0,0,0-.05.26.48.48,0,0,0,.13.35,1.17,1.17,0,0,0,.34.26,3.66,3.66,0,0,0,.48.2l.55.21c.18.08.36.16.54.26a2.19,2.19,0,0,1,.48.37,1.63,1.63,0,0,1,.35.53A1.93,1.93,0,0,1,180.42,193.9Z" transform="translate(-11.21 -5.95)"/><path class="cls-3" d="M22.66,212.42a.16.16,0,0,1,0,.12.26.26,0,0,1-.14.08,1.12,1.12,0,0,1-.26.06h-.83a1.37,1.37,0,0,1-.27-.06.37.37,0,0,1-.14-.08.16.16,0,0,1,0-.12v-9a.16.16,0,0,1,0-.12.39.39,0,0,1,.14-.1,1.46,1.46,0,0,1,.27-.05,2.37,2.37,0,0,1,.41,0,2.56,2.56,0,0,1,.42,0,1.2,1.2,0,0,1,.26.05.27.27,0,0,1,.14.1.16.16,0,0,1,0,.12Z" transform="translate(-11.21 -5.95)"/><path class="cls-3" d="M30.2,212.42a.16.16,0,0,1,0,.12.26.26,0,0,1-.13.08,1.37,1.37,0,0,1-.27.06h-.83a1.12,1.12,0,0,1-.26-.06.3.3,0,0,1-.14-.08.16.16,0,0,1,0-.12v-3.48a2.6,2.6,0,0,0-.07-.7,1.13,1.13,0,0,0-.19-.43.76.76,0,0,0-.31-.28,1,1,0,0,0-.46-.1,1.12,1.12,0,0,0-.66.24,3.54,3.54,0,0,0-.7.7v4a.16.16,0,0,1,0,.12.3.3,0,0,1-.14.08,1.12,1.12,0,0,1-.26.06h-.84a1.26,1.26,0,0,1-.26-.06.3.3,0,0,1-.14-.08.16.16,0,0,1,0-.12v-6.1a.27.27,0,0,1,0-.12.32.32,0,0,1,.13-.08.66.66,0,0,1,.23-.05,1.78,1.78,0,0,1,.35,0,1.94,1.94,0,0,1,.36,0,.55.55,0,0,1,.22.05.24.24,0,0,1,.11.08.19.19,0,0,1,0,.12V207a3.75,3.75,0,0,1,1-.82,2.24,2.24,0,0,1,1.09-.28,2.4,2.4,0,0,1,1.05.21,1.8,1.8,0,0,1,.69.56,2.3,2.3,0,0,1,.38.82,4.65,4.65,0,0,1,.11,1.13Z" transform="translate(-11.21 -5.95)"/><path class="cls-3" d="M35.37,211.82a1.86,1.86,0,0,1,0,.46.41.41,0,0,1-.1.23.5.5,0,0,1-.18.11,1,1,0,0,1-.28.09,2.81,2.81,0,0,1-.35.06l-.37,0a2.61,2.61,0,0,1-.89-.13,1.58,1.58,0,0,1-.63-.4,1.77,1.77,0,0,1-.36-.68,3.5,3.5,0,0,1-.11-1v-3.13h-.74a.21.21,0,0,1-.19-.16,1.34,1.34,0,0,1-.07-.53,1.72,1.72,0,0,1,0-.34.54.54,0,0,1,.05-.21.28.28,0,0,1,.08-.12.27.27,0,0,1,.12,0h.73v-1.36a.21.21,0,0,1,0-.12.32.32,0,0,1,.14-.1,1.46,1.46,0,0,1,.27,0l.41,0,.42,0a1.2,1.2,0,0,1,.26,0,.32.32,0,0,1,.14.1.16.16,0,0,1,0,.12v1.36H35.1a.27.27,0,0,1,.12,0,.28.28,0,0,1,.08.12.54.54,0,0,1,.05.21,1.72,1.72,0,0,1,0,.34,1.34,1.34,0,0,1-.07.53.21.21,0,0,1-.19.16H33.77v2.87a1.39,1.39,0,0,0,.16.75.62.62,0,0,0,.56.25,1,1,0,0,0,.25,0l.19,0,.14-.06.11,0,.08,0a.29.29,0,0,1,.06.1c0,.05,0,.11,0,.19A1.52,1.52,0,0,1,35.37,211.82Z" transform="translate(-11.21 -5.95)"/><path class="cls-3" d="M42.08,209.19a.69.69,0,0,1-.14.47.51.51,0,0,1-.39.15H37.84a2.65,2.65,0,0,0,.09.71,1.3,1.3,0,0,0,.3.54,1.2,1.2,0,0,0,.52.33,2.13,2.13,0,0,0,.76.12,4.62,4.62,0,0,0,.79-.06l.59-.15.42-.14a.78.78,0,0,1,.26-.07.15.15,0,0,1,.1,0s0,0,.07.08a.6.6,0,0,1,0,.18,2.27,2.27,0,0,1,0,.28,2,2,0,0,1,0,.26.9.9,0,0,1,0,.18.34.34,0,0,1,0,.12.36.36,0,0,1-.07.1.61.61,0,0,1-.24.13,3.77,3.77,0,0,1-.51.17c-.2,0-.44.09-.7.13a5.77,5.77,0,0,1-.85.06,4.44,4.44,0,0,1-1.43-.21,2.53,2.53,0,0,1-1-.62,2.72,2.72,0,0,1-.61-1,5.07,5.07,0,0,1-.2-1.49A4.83,4.83,0,0,1,36.3,208a3,3,0,0,1,.62-1.1,2.56,2.56,0,0,1,1-.7,3.35,3.35,0,0,1,1.3-.24,3.41,3.41,0,0,1,1.31.23,2.41,2.41,0,0,1,.89.62,2.64,2.64,0,0,1,.51.95,4.07,4.07,0,0,1,.17,1.19Zm-1.67-.49a1.79,1.79,0,0,0-.29-1.14,1.14,1.14,0,0,0-1-.41,1.26,1.26,0,0,0-.57.12,1.2,1.2,0,0,0-.41.33,1.79,1.79,0,0,0-.24.5,2.35,2.35,0,0,0-.1.6Z" transform="translate(-11.21 -5.95)"/><path class="cls-3" d="M47.41,206.89c0,.16,0,.3,0,.4s0,.19,0,.25a.23.23,0,0,1-.08.12.18.18,0,0,1-.11,0,.27.27,0,0,1-.12,0l-.16,0-.18-.05a.86.86,0,0,0-.23,0,1,1,0,0,0-.29,0,1.1,1.1,0,0,0-.29.19,2.43,2.43,0,0,0-.33.32,4.94,4.94,0,0,0-.35.51v3.8a.17.17,0,0,1,0,.12.26.26,0,0,1-.14.08,1.12,1.12,0,0,1-.26.06h-.83a1.37,1.37,0,0,1-.27-.06.37.37,0,0,1-.14-.08.21.21,0,0,1,0-.12v-6.1a.19.19,0,0,1,0-.12.23.23,0,0,1,.12-.08.71.71,0,0,1,.23-.05,1.78,1.78,0,0,1,.35,0,1.84,1.84,0,0,1,.36,0,.66.66,0,0,1,.23.05.24.24,0,0,1,.11.08.27.27,0,0,1,0,.12v.76a4.19,4.19,0,0,1,.45-.56,2.57,2.57,0,0,1,.41-.36,1.46,1.46,0,0,1,.38-.18,1.73,1.73,0,0,1,.38,0h.19l.22,0,.19.05a.35.35,0,0,1,.12.07.18.18,0,0,1,.05.07l0,.12a.91.91,0,0,1,0,.21C47.41,206.6,47.41,206.73,47.41,206.89Z" transform="translate(-11.21 -5.95)"/><path class="cls-3" d="M54.29,212.42a.16.16,0,0,1,0,.12.26.26,0,0,1-.13.08,1.37,1.37,0,0,1-.27.06H53a1.12,1.12,0,0,1-.26-.06.3.3,0,0,1-.14-.08.16.16,0,0,1,0-.12v-3.48a2.6,2.6,0,0,0-.07-.7,1.13,1.13,0,0,0-.19-.43.76.76,0,0,0-.31-.28,1,1,0,0,0-.46-.1,1.12,1.12,0,0,0-.66.24,3.54,3.54,0,0,0-.7.7v4a.16.16,0,0,1,0,.12.3.3,0,0,1-.14.08,1.26,1.26,0,0,1-.26.06h-.84a1.26,1.26,0,0,1-.26-.06.3.3,0,0,1-.14-.08.16.16,0,0,1,0-.12v-6.1a.27.27,0,0,1,0-.12.32.32,0,0,1,.13-.08.66.66,0,0,1,.23-.05,1.78,1.78,0,0,1,.35,0,1.94,1.94,0,0,1,.36,0,.55.55,0,0,1,.22.05.24.24,0,0,1,.11.08.19.19,0,0,1,0,.12V207a3.75,3.75,0,0,1,1-.82,2.24,2.24,0,0,1,1.09-.28,2.4,2.4,0,0,1,1,.21,1.8,1.8,0,0,1,.69.56,2.3,2.3,0,0,1,.38.82,5.2,5.2,0,0,1,.11,1.13Z" transform="translate(-11.21 -5.95)"/><path class="cls-3" d="M61.18,212.44a.21.21,0,0,1-.07.15.51.51,0,0,1-.22.08,2.44,2.44,0,0,1-.43,0,2.64,2.64,0,0,1-.45,0,.42.42,0,0,1-.2-.08.2.2,0,0,1-.05-.15V212a2.89,2.89,0,0,1-.86.63,2.5,2.5,0,0,1-1.07.23,2.77,2.77,0,0,1-.89-.13,2,2,0,0,1-.71-.37,1.76,1.76,0,0,1-.46-.62,2.1,2.1,0,0,1-.16-.86,2.06,2.06,0,0,1,.2-.93,1.7,1.7,0,0,1,.63-.65,3,3,0,0,1,1-.38,7.45,7.45,0,0,1,1.42-.12h.6v-.37a1.85,1.85,0,0,0-.06-.5.78.78,0,0,0-.19-.36.72.72,0,0,0-.36-.21,1.71,1.71,0,0,0-.55-.07,3.07,3.07,0,0,0-.77.09,4.92,4.92,0,0,0-.59.22,3,3,0,0,0-.44.21.64.64,0,0,1-.28.09.18.18,0,0,1-.13,0,.36.36,0,0,1-.1-.14,1,1,0,0,1-.06-.22,2.48,2.48,0,0,1,0-.29,1,1,0,0,1,0-.33.42.42,0,0,1,.13-.22,1.09,1.09,0,0,1,.33-.22,4.32,4.32,0,0,1,.56-.23,6,6,0,0,1,.7-.16,4,4,0,0,1,.78-.07,4.84,4.84,0,0,1,1.23.14,2.22,2.22,0,0,1,.84.43,1.73,1.73,0,0,1,.48.75,3.54,3.54,0,0,1,.15,1.09Zm-1.69-2.61h-.66a3.62,3.62,0,0,0-.71.06,1.3,1.3,0,0,0-.48.19.82.82,0,0,0-.27.29,1,1,0,0,0-.08.4.75.75,0,0,0,.24.6,1,1,0,0,0,.67.22,1.27,1.27,0,0,0,.67-.18,2.68,2.68,0,0,0,.62-.54Z" transform="translate(-11.21 -5.95)"/><path class="cls-3" d="M68.72,206.09a.55.55,0,0,1,.4.12.53.53,0,0,1,.11.36v5.85a.16.16,0,0,1,0,.12.3.3,0,0,1-.14.08,1.12,1.12,0,0,1-.26.06H68a1.22,1.22,0,0,1-.27-.06.26.26,0,0,1-.13-.08.17.17,0,0,1,0-.12v-4.94H64.77v2.87a1.49,1.49,0,0,0,.16.75.63.63,0,0,0,.56.25,1,1,0,0,0,.25,0l.19,0,.15-.06.1,0,.08,0a.29.29,0,0,1,.06.1c0,.05,0,.11,0,.19a3,3,0,0,1,0,.32,2.49,2.49,0,0,1,0,.45.55.55,0,0,1-.1.23.41.41,0,0,1-.18.12,1.1,1.1,0,0,1-.29.09,3,3,0,0,1-.34.06l-.38,0a2.61,2.61,0,0,1-.89-.13,1.48,1.48,0,0,1-.62-.4,1.66,1.66,0,0,1-.37-.68,3.93,3.93,0,0,1-.11-1v-3.13h-.73a.21.21,0,0,1-.2-.16,1.34,1.34,0,0,1-.07-.53,1.72,1.72,0,0,1,0-.34.54.54,0,0,1,.05-.21.28.28,0,0,1,.08-.12.27.27,0,0,1,.12,0h.73v-1.36a.21.21,0,0,1,0-.12.39.39,0,0,1,.14-.1,1.46,1.46,0,0,1,.27,0l.41,0,.42,0a1.46,1.46,0,0,1,.27,0,.34.34,0,0,1,.13.1.16.16,0,0,1,0,.12v1.36Zm.65-1.83a1,1,0,0,1-.22.72,1.17,1.17,0,0,1-.78.19,1.13,1.13,0,0,1-.78-.19.92.92,0,0,1-.21-.69,1,1,0,0,1,.21-.72,1.19,1.19,0,0,1,.79-.2,1.15,1.15,0,0,1,.78.19A.93.93,0,0,1,69.37,204.26Z" transform="translate(-11.21 -5.95)"/><path class="cls-3" d="M77.13,209.31a4.55,4.55,0,0,1-.21,1.42,3,3,0,0,1-.62,1.11,2.81,2.81,0,0,1-1,.72,3.9,3.9,0,0,1-1.47.25,4,4,0,0,1-1.41-.23,2.59,2.59,0,0,1-1-.65,2.8,2.8,0,0,1-.59-1.06,4.88,4.88,0,0,1-.19-1.44A4.55,4.55,0,0,1,70.8,208a3.16,3.16,0,0,1,.62-1.11,2.68,2.68,0,0,1,1-.71,3.81,3.81,0,0,1,1.46-.26,4.38,4.38,0,0,1,1.43.22,2.47,2.47,0,0,1,1,.66,2.59,2.59,0,0,1,.58,1.06A4.86,4.86,0,0,1,77.13,209.31Zm-1.77.07a4.25,4.25,0,0,0-.08-.83,1.78,1.78,0,0,0-.24-.66,1.19,1.19,0,0,0-.45-.44,1.53,1.53,0,0,0-.72-.16,1.57,1.57,0,0,0-.67.14,1.24,1.24,0,0,0-.47.41,2,2,0,0,0-.28.65,3.81,3.81,0,0,0-.09.87,4.25,4.25,0,0,0,.08.83,2.15,2.15,0,0,0,.24.66,1.16,1.16,0,0,0,.45.43,1.52,1.52,0,0,0,.71.16,1.45,1.45,0,0,0,.68-.15,1.14,1.14,0,0,0,.47-.4,1.75,1.75,0,0,0,.28-.65A3.72,3.72,0,0,0,75.36,209.38Z" transform="translate(-11.21 -5.95)"/><path class="cls-3" d="M84.31,212.42a.16.16,0,0,1,0,.12.3.3,0,0,1-.14.08,1.12,1.12,0,0,1-.26.06H83a1.22,1.22,0,0,1-.27-.06.26.26,0,0,1-.13-.08.17.17,0,0,1,0-.12v-3.48a3.18,3.18,0,0,0-.06-.7,1.3,1.3,0,0,0-.19-.43.79.79,0,0,0-.32-.28.93.93,0,0,0-.45-.1,1.12,1.12,0,0,0-.66.24,3.29,3.29,0,0,0-.7.7v4a.21.21,0,0,1,0,.12.37.37,0,0,1-.14.08,1.37,1.37,0,0,1-.27.06h-.83a1.12,1.12,0,0,1-.26-.06.26.26,0,0,1-.14-.08.16.16,0,0,1,0-.12v-6.1a.27.27,0,0,1,0-.12.23.23,0,0,1,.12-.08.71.71,0,0,1,.23-.05,1.83,1.83,0,0,1,.35,0,2,2,0,0,1,.37,0,.6.6,0,0,1,.22.05.24.24,0,0,1,.11.08.28.28,0,0,1,0,.12V207a3.71,3.71,0,0,1,1-.82,2.27,2.27,0,0,1,1.09-.28,2.34,2.34,0,0,1,1.05.21,1.66,1.66,0,0,1,.69.56,2,2,0,0,1,.38.82,4.6,4.6,0,0,1,.12,1.13Z" transform="translate(-11.21 -5.95)"/><path class="cls-3" d="M91.19,212.44a.2.2,0,0,1-.06.15.51.51,0,0,1-.22.08,2.5,2.5,0,0,1-.43,0,2.57,2.57,0,0,1-.45,0,.42.42,0,0,1-.2-.08.2.2,0,0,1-.06-.15V212a2.66,2.66,0,0,1-.86.63,2.47,2.47,0,0,1-1.07.23,2.82,2.82,0,0,1-.89-.13,2,2,0,0,1-.7-.37,1.76,1.76,0,0,1-.46-.62,2.09,2.09,0,0,1-.17-.86,1.94,1.94,0,0,1,.21-.93,1.75,1.75,0,0,1,.62-.65,3.12,3.12,0,0,1,1-.38,7.56,7.56,0,0,1,1.43-.12h.6v-.37a1.85,1.85,0,0,0-.06-.5.88.88,0,0,0-.19-.36.72.72,0,0,0-.36-.21,1.75,1.75,0,0,0-.55-.07,3,3,0,0,0-.77.09,5.87,5.87,0,0,0-.6.22,3.47,3.47,0,0,0-.43.21.68.68,0,0,1-.28.09.21.21,0,0,1-.14,0,.34.34,0,0,1-.09-.14.64.64,0,0,1-.06-.22,1.32,1.32,0,0,1,0-.29,1.42,1.42,0,0,1,0-.33.5.5,0,0,1,.13-.22,1.33,1.33,0,0,1,.34-.22,3.8,3.8,0,0,1,.56-.23,5.6,5.6,0,0,1,.7-.16,4,4,0,0,1,.78-.07,4.84,4.84,0,0,1,1.23.14,2.1,2.1,0,0,1,.83.43,1.73,1.73,0,0,1,.48.75,3.54,3.54,0,0,1,.15,1.09Zm-1.68-2.61h-.66a3.55,3.55,0,0,0-.71.06,1.18,1.18,0,0,0-.48.19.82.82,0,0,0-.27.29.87.87,0,0,0-.09.4.76.76,0,0,0,.25.6.93.93,0,0,0,.67.22,1.32,1.32,0,0,0,.67-.18,2.68,2.68,0,0,0,.62-.54Z" transform="translate(-11.21 -5.95)"/><path class="cls-3" d="M94.63,212.42a.16.16,0,0,1,0,.12.3.3,0,0,1-.14.08,1.12,1.12,0,0,1-.26.06h-.84a1.26,1.26,0,0,1-.26-.06.3.3,0,0,1-.14-.08.16.16,0,0,1,0-.12v-9a.16.16,0,0,1,0-.12.32.32,0,0,1,.14-.1,1.33,1.33,0,0,1,.26-.05,4.42,4.42,0,0,1,.84,0,1.2,1.2,0,0,1,.26.05.32.32,0,0,1,.14.1.16.16,0,0,1,0,.12Z" transform="translate(-11.21 -5.95)"/><path class="cls-3" d="M104.71,212.44a.18.18,0,0,1-.07.15.51.51,0,0,1-.22.08,2.44,2.44,0,0,1-.43,0,2.7,2.7,0,0,1-.45,0,.42.42,0,0,1-.2-.08.25.25,0,0,1,0-.15V212a2.77,2.77,0,0,1-.86.63,2.5,2.5,0,0,1-1.07.23,2.82,2.82,0,0,1-.89-.13,2.09,2.09,0,0,1-.71-.37,1.76,1.76,0,0,1-.46-.62,2.1,2.1,0,0,1-.16-.86,1.94,1.94,0,0,1,.21-.93,1.61,1.61,0,0,1,.62-.65,3,3,0,0,1,1-.38,7.49,7.49,0,0,1,1.43-.12H103v-.37a1.85,1.85,0,0,0-.06-.5.78.78,0,0,0-.19-.36.73.73,0,0,0-.35-.21,1.82,1.82,0,0,0-.56-.07,2.93,2.93,0,0,0-.76.09,4.52,4.52,0,0,0-.6.22,3,3,0,0,0-.44.21.64.64,0,0,1-.28.09.2.2,0,0,1-.13,0,.5.5,0,0,1-.1-.14,2.18,2.18,0,0,1-.06-.22,2.48,2.48,0,0,1,0-.29,1,1,0,0,1,0-.33.42.42,0,0,1,.13-.22,1.09,1.09,0,0,1,.33-.22,4.32,4.32,0,0,1,.56-.23,6.56,6.56,0,0,1,.7-.16,4.15,4.15,0,0,1,.79-.07,4.82,4.82,0,0,1,1.22.14,2.22,2.22,0,0,1,.84.43,1.73,1.73,0,0,1,.48.75,3.54,3.54,0,0,1,.15,1.09ZM103,209.83h-.66a3.69,3.69,0,0,0-.71.06,1.3,1.3,0,0,0-.48.19.82.82,0,0,0-.27.29,1,1,0,0,0-.08.4.75.75,0,0,0,.24.6,1,1,0,0,0,.67.22,1.27,1.27,0,0,0,.67-.18,2.68,2.68,0,0,0,.62-.54Z" transform="translate(-11.21 -5.95)"/><path class="cls-3" d="M111.92,206.75a1.18,1.18,0,0,1-.07.48c-.06.11-.12.16-.19.16h-.72a1.07,1.07,0,0,1,.22.37,1.56,1.56,0,0,1,.06.44,2.5,2.5,0,0,1-.17.94,1.89,1.89,0,0,1-.51.7,2.37,2.37,0,0,1-.8.43,3.46,3.46,0,0,1-1,.15,2.6,2.6,0,0,1-.56-.07,1.81,1.81,0,0,1-.41-.17,1.1,1.1,0,0,0-.14.21.5.5,0,0,0-.07.27.4.4,0,0,0,.18.33.88.88,0,0,0,.48.14l1.49.05a3.61,3.61,0,0,1,.92.15,1.81,1.81,0,0,1,.69.36,1.52,1.52,0,0,1,.42.55,1.67,1.67,0,0,1,.15.73,1.89,1.89,0,0,1-.79,1.54,3.2,3.2,0,0,1-1,.47,5.26,5.26,0,0,1-1.4.17,5.7,5.7,0,0,1-1.33-.13,2.87,2.87,0,0,1-.9-.34,1.41,1.41,0,0,1-.51-.52,1.38,1.38,0,0,1-.16-.67,1.54,1.54,0,0,1,.06-.43,1.22,1.22,0,0,1,.17-.39,1.54,1.54,0,0,1,.27-.36,4.29,4.29,0,0,1,.38-.33,1.06,1.06,0,0,1-.46-.43A1.18,1.18,0,0,1,106,211a1.53,1.53,0,0,1,.19-.73,2.27,2.27,0,0,1,.48-.6,1.92,1.92,0,0,1-.39-.57,2.27,2.27,0,0,1-.14-.84,2.24,2.24,0,0,1,.19-.95,2,2,0,0,1,.52-.71,2.31,2.31,0,0,1,.8-.45,3.33,3.33,0,0,1,1-.15,4.93,4.93,0,0,1,.55,0l.49.1h1.93c.08,0,.14,0,.19.15A1.25,1.25,0,0,1,111.92,206.75Zm-1.8,6.31a.55.55,0,0,0-.25-.48,1.2,1.2,0,0,0-.68-.17l-1.22,0a1.81,1.81,0,0,0-.28.25,1.62,1.62,0,0,0-.18.23.6.6,0,0,0-.08.21,1.49,1.49,0,0,0,0,.21.55.55,0,0,0,.34.52,2.17,2.17,0,0,0,1,.18,2,2,0,0,0,.65-.08,1.08,1.08,0,0,0,.43-.21.73.73,0,0,0,.24-.29A.93.93,0,0,0,110.12,213.06Zm-.41-4.87a1.06,1.06,0,0,0-.27-.77,1,1,0,0,0-.77-.27,1.25,1.25,0,0,0-.45.08,1,1,0,0,0-.32.24,1,1,0,0,0-.18.34,1.35,1.35,0,0,0-.07.41,1,1,0,0,0,.28.73,1,1,0,0,0,.76.27,1.25,1.25,0,0,0,.45-.08.94.94,0,0,0,.32-.23,1.06,1.06,0,0,0,.19-.33A1.23,1.23,0,0,0,109.71,208.19Z" transform="translate(-11.21 -5.95)"/><path class="cls-3" d="M118.54,209.19a.65.65,0,0,1-.14.47.49.49,0,0,1-.38.15h-3.71a2.65,2.65,0,0,0,.09.71,1.41,1.41,0,0,0,.29.54,1.33,1.33,0,0,0,.52.33,2.16,2.16,0,0,0,.76.12,4.74,4.74,0,0,0,.8-.06l.59-.15.41-.14a.89.89,0,0,1,.27-.07.17.17,0,0,1,.1,0s0,0,.07.08a.6.6,0,0,1,0,.18c0,.07,0,.17,0,.28s0,.19,0,.26a.9.9,0,0,1,0,.18.34.34,0,0,1,0,.12.36.36,0,0,1-.07.1.59.59,0,0,1-.25.13,4.09,4.09,0,0,1-.5.17c-.21,0-.44.09-.71.13a5.53,5.53,0,0,1-.84.06,4.4,4.4,0,0,1-1.43-.21,2.4,2.4,0,0,1-1-.62,2.6,2.6,0,0,1-.61-1,4.76,4.76,0,0,1-.2-1.49,4.83,4.83,0,0,1,.21-1.47,3,3,0,0,1,.61-1.1,2.63,2.63,0,0,1,1-.7,3.4,3.4,0,0,1,1.31-.24,3.45,3.45,0,0,1,1.31.23,2.41,2.41,0,0,1,.89.62,2.64,2.64,0,0,1,.51.95,4.08,4.08,0,0,1,.16,1.19Zm-1.66-.49a1.86,1.86,0,0,0-.29-1.14,1.14,1.14,0,0,0-1-.41,1.34,1.34,0,0,0-.58.12,1.16,1.16,0,0,0-.4.33,1.37,1.37,0,0,0-.24.5,2.35,2.35,0,0,0-.1.6Z" transform="translate(-11.21 -5.95)"/><path class="cls-3" d="M125.78,212.42a.16.16,0,0,1,0,.12.26.26,0,0,1-.13.08,1.37,1.37,0,0,1-.27.06h-.83a1.12,1.12,0,0,1-.26-.06.3.3,0,0,1-.14-.08.16.16,0,0,1,0-.12v-3.48a2.6,2.6,0,0,0-.07-.7,1.13,1.13,0,0,0-.19-.43.76.76,0,0,0-.31-.28,1,1,0,0,0-.46-.1,1.12,1.12,0,0,0-.66.24,3.54,3.54,0,0,0-.7.7v4a.16.16,0,0,1,0,.12.3.3,0,0,1-.14.08,1.12,1.12,0,0,1-.26.06h-.84a1.26,1.26,0,0,1-.26-.06.3.3,0,0,1-.14-.08.16.16,0,0,1,0-.12v-6.1a.27.27,0,0,1,0-.12.32.32,0,0,1,.13-.08.66.66,0,0,1,.23-.05,1.78,1.78,0,0,1,.35,0,1.94,1.94,0,0,1,.36,0,.55.55,0,0,1,.22.05.36.36,0,0,1,.12.08.27.27,0,0,1,0,.12V207a3.75,3.75,0,0,1,1-.82,2.24,2.24,0,0,1,1.09-.28,2.4,2.4,0,0,1,1,.21,1.8,1.8,0,0,1,.69.56,2.3,2.3,0,0,1,.38.82,4.65,4.65,0,0,1,.11,1.13Z" transform="translate(-11.21 -5.95)"/><path class="cls-3" d="M132.09,211.45c0,.12,0,.22,0,.3s0,.14,0,.2a1,1,0,0,1,0,.13.4.4,0,0,1-.11.13,1.31,1.31,0,0,1-.28.19,2.34,2.34,0,0,1-.45.2,4,4,0,0,1-.55.15,4.07,4.07,0,0,1-.61.05,3.24,3.24,0,0,1-1.25-.22,2.28,2.28,0,0,1-.91-.64,2.89,2.89,0,0,1-.56-1,5.47,5.47,0,0,1,0-3,3,3,0,0,1,.64-1.1,2.55,2.55,0,0,1,1-.65,3.53,3.53,0,0,1,1.23-.21,2.47,2.47,0,0,1,.54.05,2.52,2.52,0,0,1,.49.13,2.2,2.2,0,0,1,.41.18,1.39,1.39,0,0,1,.26.18.5.5,0,0,1,.1.13.32.32,0,0,1,.05.13s0,.12,0,.2a2.53,2.53,0,0,1,0,.29,1.48,1.48,0,0,1-.07.56c-.05.11-.1.16-.18.16a.36.36,0,0,1-.24-.1l-.31-.21a2.06,2.06,0,0,0-.42-.21,1.73,1.73,0,0,0-.59-.1,1.19,1.19,0,0,0-1,.52,2.72,2.72,0,0,0-.35,1.51,3.75,3.75,0,0,0,.09.87,1.64,1.64,0,0,0,.26.63,1,1,0,0,0,.44.38,1.31,1.31,0,0,0,.61.13,1.62,1.62,0,0,0,.61-.11,3.14,3.14,0,0,0,.45-.23l.32-.24a.38.38,0,0,1,.22-.11.18.18,0,0,1,.1,0,.17.17,0,0,1,.06.12,1.33,1.33,0,0,1,0,.24A3.57,3.57,0,0,1,132.09,211.45Z" transform="translate(-11.21 -5.95)"/><path class="cls-3" d="M135.18,204.26a1,1,0,0,1-.21.72,1.17,1.17,0,0,1-.78.19,1.18,1.18,0,0,1-.79-.19,1,1,0,0,1-.2-.69,1,1,0,0,1,.21-.72,1.68,1.68,0,0,1,1.57,0A1,1,0,0,1,135.18,204.26Zm-.13,8.16a.16.16,0,0,1,0,.12.3.3,0,0,1-.14.08,1.12,1.12,0,0,1-.26.06h-.84a1.43,1.43,0,0,1-.26-.06.37.37,0,0,1-.14-.08.16.16,0,0,1,0-.12v-6.08a.16.16,0,0,1,0-.12.28.28,0,0,1,.14-.09.91.91,0,0,1,.26-.06l.42,0,.42,0a.77.77,0,0,1,.26.06.24.24,0,0,1,.14.09.16.16,0,0,1,0,.12Z" transform="translate(-11.21 -5.95)"/><path class="cls-3" d="M142.4,209.19a.65.65,0,0,1-.14.47.49.49,0,0,1-.38.15h-3.72a2.3,2.3,0,0,0,.1.71,1.41,1.41,0,0,0,.29.54,1.26,1.26,0,0,0,.52.33,2.13,2.13,0,0,0,.76.12,4.54,4.54,0,0,0,.79-.06l.6-.15.41-.14a.89.89,0,0,1,.27-.07.17.17,0,0,1,.1,0s.05,0,.07.08a.66.66,0,0,1,0,.18,2.27,2.27,0,0,1,0,.28v.26c0,.07,0,.13,0,.18a.83.83,0,0,1,0,.12.39.39,0,0,1-.08.1.61.61,0,0,1-.24.13,4.09,4.09,0,0,1-.5.17c-.21,0-.44.09-.71.13a5.57,5.57,0,0,1-.85.06,4.38,4.38,0,0,1-1.42-.21,2.4,2.4,0,0,1-1-.62,2.62,2.62,0,0,1-.62-1,5.07,5.07,0,0,1-.2-1.49,4.54,4.54,0,0,1,.22-1.47,3,3,0,0,1,.61-1.1,2.63,2.63,0,0,1,1-.7,3.74,3.74,0,0,1,2.61,0,2.54,2.54,0,0,1,.9.62,2.64,2.64,0,0,1,.51.95,4.08,4.08,0,0,1,.16,1.19Zm-1.67-.49a1.73,1.73,0,0,0-.29-1.14,1.12,1.12,0,0,0-1-.41,1.26,1.26,0,0,0-.57.12,1.16,1.16,0,0,0-.4.33,1.56,1.56,0,0,0-.25.5,2.89,2.89,0,0,0-.1.6Z" transform="translate(-11.21 -5.95)"/><path class="cls-3" d="M148.11,210.7a2,2,0,0,1-.2.91,1.79,1.79,0,0,1-.55.67,2.52,2.52,0,0,1-.84.4,3.87,3.87,0,0,1-1.05.13,4.51,4.51,0,0,1-.65-.05c-.21,0-.39-.08-.56-.13a3.53,3.53,0,0,1-.41-.16,1.09,1.09,0,0,1-.24-.16.38.38,0,0,1-.11-.22,1.72,1.72,0,0,1-.05-.46,2.41,2.41,0,0,1,0-.31.88.88,0,0,1,0-.2s0-.08.07-.09a.17.17,0,0,1,.1,0,.5.5,0,0,1,.22.09l.37.19a3.25,3.25,0,0,0,.51.19,2.19,2.19,0,0,0,.66.09,1.7,1.7,0,0,0,.41-.05.89.89,0,0,0,.31-.14.63.63,0,0,0,.21-.22.79.79,0,0,0,.07-.32.56.56,0,0,0-.13-.35,1.11,1.11,0,0,0-.34-.25,2.56,2.56,0,0,0-.47-.21l-.54-.21-.54-.27a2.07,2.07,0,0,1-.47-.37,1.74,1.74,0,0,1-.34-.52,2,2,0,0,1-.12-.74,1.91,1.91,0,0,1,.17-.8,1.68,1.68,0,0,1,.49-.63,2.4,2.4,0,0,1,.78-.4,3.39,3.39,0,0,1,1-.15,5.09,5.09,0,0,1,.56,0c.18,0,.34.07.49.11a2.64,2.64,0,0,1,.37.13l.21.12a.44.44,0,0,1,.09.11.34.34,0,0,1,0,.12c0,.05,0,.1,0,.18s0,.15,0,.26,0,.22,0,.3a.6.6,0,0,1,0,.18.14.14,0,0,1-.06.1l-.1,0a.44.44,0,0,1-.19-.07l-.32-.16-.45-.15a2.17,2.17,0,0,0-.59-.07,1.22,1.22,0,0,0-.4,0,.66.66,0,0,0-.28.13.56.56,0,0,0-.17.21.75.75,0,0,0,0,.26.48.48,0,0,0,.13.35,1.17,1.17,0,0,0,.34.26,3.66,3.66,0,0,0,.48.2l.55.21c.18.08.37.16.55.26a2.19,2.19,0,0,1,.48.37,1.79,1.79,0,0,1,.34.53A1.75,1.75,0,0,1,148.11,210.7Z" transform="translate(-11.21 -5.95)"/><path class="cls-3" d="M28.34,228.82a.61.61,0,0,1-.06.28.52.52,0,0,1-.14.21.94.94,0,0,1-.22.12,1.17,1.17,0,0,1-.26,0H26.9a1.73,1.73,0,0,1-.42-.05.79.79,0,0,1-.32-.18,1.24,1.24,0,0,1-.28-.34,5.18,5.18,0,0,1-.31-.56l-2.2-4.13c-.13-.25-.26-.51-.39-.8s-.25-.56-.36-.83h0c0,.33,0,.66,0,1s0,.66,0,1v4.63a.24.24,0,0,1,0,.12.25.25,0,0,1-.13.09.83.83,0,0,1-.25.06,2.43,2.43,0,0,1-.41,0,2.18,2.18,0,0,1-.39,0,.7.7,0,0,1-.25-.06.19.19,0,0,1-.12-.09.17.17,0,0,1,0-.12v-7.95a.61.61,0,0,1,.19-.48.68.68,0,0,1,.46-.16h1a1.74,1.74,0,0,1,.43,0,.86.86,0,0,1,.32.15,1.21,1.21,0,0,1,.27.28,4.3,4.3,0,0,1,.25.45l1.72,3.23.3.58c.1.19.19.38.28.57l.27.55c.08.19.17.37.25.55h0c0-.32,0-.65,0-1s0-.67,0-1v-4.15a.19.19,0,0,1,0-.12.32.32,0,0,1,.14-.1,1.09,1.09,0,0,1,.25-.05,2.3,2.3,0,0,1,.4,0,2.18,2.18,0,0,1,.39,0,.89.89,0,0,1,.24.05.25.25,0,0,1,.12.1.19.19,0,0,1,0,.12Z" transform="translate(-11.21 -5.95)"/><path class="cls-3" d="M35.8,226a.69.69,0,0,1-.14.47.53.53,0,0,1-.39.15H31.56a2.65,2.65,0,0,0,.09.71,1.41,1.41,0,0,0,.29.54,1.33,1.33,0,0,0,.52.33,2.18,2.18,0,0,0,.77.12,3.74,3.74,0,0,0,.79-.07,5.18,5.18,0,0,0,.59-.14L35,228a.67.67,0,0,1,.27-.07.17.17,0,0,1,.1,0s0,0,.07.08a.6.6,0,0,1,0,.18c0,.07,0,.17,0,.28a2,2,0,0,1,0,.26.9.9,0,0,1,0,.18.34.34,0,0,1,0,.12.36.36,0,0,1-.07.1.61.61,0,0,1-.24.13,3.45,3.45,0,0,1-.51.16,6.17,6.17,0,0,1-1.55.2,4.44,4.44,0,0,1-1.43-.21,2.4,2.4,0,0,1-1-.62,2.6,2.6,0,0,1-.61-1.05,4.76,4.76,0,0,1-.2-1.49,4.83,4.83,0,0,1,.21-1.47,3.31,3.31,0,0,1,.61-1.11,2.68,2.68,0,0,1,1-.69,3.31,3.31,0,0,1,1.3-.24,3.45,3.45,0,0,1,1.31.23,2.41,2.41,0,0,1,.89.62,2.64,2.64,0,0,1,.51.95,4.07,4.07,0,0,1,.17,1.19Zm-1.67-.49a1.86,1.86,0,0,0-.29-1.14,1.14,1.14,0,0,0-1-.41,1.26,1.26,0,0,0-.57.12,1.11,1.11,0,0,0-.41.33,1.55,1.55,0,0,0-.24.5,2.28,2.28,0,0,0-.1.6Z" transform="translate(-11.21 -5.95)"/><path class="cls-3" d="M39.06,221.06a1,1,0,0,1-.21.72,1.18,1.18,0,0,1-.79.19,1.17,1.17,0,0,1-.78-.19,1.31,1.31,0,0,1,0-1.41,1.68,1.68,0,0,1,1.57,0A1,1,0,0,1,39.06,221.06Zm-.13,8.16a.16.16,0,0,1,0,.12.3.3,0,0,1-.14.08,1.12,1.12,0,0,1-.26.06h-.84a1.43,1.43,0,0,1-.26-.06.37.37,0,0,1-.14-.08.16.16,0,0,1,0-.12v-6.08a.16.16,0,0,1,0-.12.28.28,0,0,1,.14-.09.91.91,0,0,1,.26-.06l.42,0,.42,0a.77.77,0,0,1,.26.06.24.24,0,0,1,.14.09.16.16,0,0,1,0,.12Z" transform="translate(-11.21 -5.95)"/><path class="cls-3" d="M46.15,223.55a1.16,1.16,0,0,1-.08.48c0,.11-.11.16-.18.16h-.72a.91.91,0,0,1,.21.37,1.25,1.25,0,0,1,.07.43,2.33,2.33,0,0,1-.18.95,1.89,1.89,0,0,1-.51.7,2.28,2.28,0,0,1-.8.43,3.39,3.39,0,0,1-1,.15,2.52,2.52,0,0,1-.56-.07A1.48,1.48,0,0,1,42,227a.8.8,0,0,0-.15.21.6.6,0,0,0-.06.27.39.39,0,0,0,.17.33,1,1,0,0,0,.49.14l1.48,0a3.62,3.62,0,0,1,.93.15,1.77,1.77,0,0,1,.68.36,1.45,1.45,0,0,1,.43.55,1.83,1.83,0,0,1,.14.73,1.8,1.8,0,0,1-.2.85,1.93,1.93,0,0,1-.59.69,3.14,3.14,0,0,1-1,.47,5.31,5.31,0,0,1-1.4.17,5.64,5.64,0,0,1-1.33-.13,2.69,2.69,0,0,1-.9-.34,1.36,1.36,0,0,1-.52-.52,1.5,1.5,0,0,1-.16-.67,1.54,1.54,0,0,1,.06-.43,1.77,1.77,0,0,1,.45-.75,4.1,4.1,0,0,1,.37-.33,1.15,1.15,0,0,1-.61-1,1.49,1.49,0,0,1,.18-.73,2.75,2.75,0,0,1,.48-.6,1.73,1.73,0,0,1-.38-.57,2.08,2.08,0,0,1-.14-.84,2.4,2.4,0,0,1,.18-1,2,2,0,0,1,.53-.71,2.31,2.31,0,0,1,.8-.45,3.31,3.31,0,0,1,1-.15,4.8,4.8,0,0,1,.55,0l.49.1h1.94a.21.21,0,0,1,.18.15A1.22,1.22,0,0,1,46.15,223.55Zm-1.81,6.31a.53.53,0,0,0-.25-.48,1.18,1.18,0,0,0-.67-.17l-1.23,0a2.44,2.44,0,0,0-.28.25,1.5,1.5,0,0,0-.17.23,1,1,0,0,0-.09.21,1.49,1.49,0,0,0,0,.21.56.56,0,0,0,.35.52,2.12,2.12,0,0,0,1,.18,2.48,2.48,0,0,0,.66-.08,1.15,1.15,0,0,0,.43-.21.63.63,0,0,0,.23-.29A.75.75,0,0,0,44.34,229.86Zm-.4-4.87a1,1,0,0,0-.28-.77,1,1,0,0,0-.77-.27,1.15,1.15,0,0,0-.44.08,1,1,0,0,0-.51.58,1.35,1.35,0,0,0-.06.41,1,1,0,0,0,.27.73,1,1,0,0,0,.76.27,1.21,1.21,0,0,0,.45-.08.85.85,0,0,0,.32-.23.78.78,0,0,0,.19-.33A1,1,0,0,0,43.94,225Z" transform="translate(-11.21 -5.95)"/><path class="cls-3" d="M53.11,229.22a.16.16,0,0,1,0,.12.3.3,0,0,1-.14.08,1.12,1.12,0,0,1-.26.06h-.83a1.22,1.22,0,0,1-.27-.06.26.26,0,0,1-.13-.08.16.16,0,0,1,0-.12v-3.48a3.08,3.08,0,0,0-.07-.7,1.3,1.3,0,0,0-.19-.43.79.79,0,0,0-.32-.28.93.93,0,0,0-.45-.1,1.12,1.12,0,0,0-.66.24,3.29,3.29,0,0,0-.7.7v4.05a.16.16,0,0,1,0,.12.37.37,0,0,1-.14.08,1.37,1.37,0,0,1-.27.06h-.83a1.12,1.12,0,0,1-.26-.06.3.3,0,0,1-.14-.08.16.16,0,0,1,0-.12v-9a.16.16,0,0,1,0-.12.32.32,0,0,1,.14-.1,1.2,1.2,0,0,1,.26,0,2.56,2.56,0,0,1,.42,0,2.37,2.37,0,0,1,.41,0,1.46,1.46,0,0,1,.27,0,.39.39,0,0,1,.14.1.16.16,0,0,1,0,.12v3.37a3.27,3.27,0,0,1,.91-.65,2.11,2.11,0,0,1,1-.22,2.32,2.32,0,0,1,1,.21,1.76,1.76,0,0,1,.7.56,2.24,2.24,0,0,1,.37.83,4.78,4.78,0,0,1,.12,1.15Z" transform="translate(-11.21 -5.95)"/><path class="cls-3" d="M60.94,226.09a5.45,5.45,0,0,1-.18,1.46,3.55,3.55,0,0,1-.51,1.11,2.34,2.34,0,0,1-1.94,1,2.62,2.62,0,0,1-.57-.06,1.84,1.84,0,0,1-.51-.19,2.67,2.67,0,0,1-.48-.32,5.43,5.43,0,0,1-.48-.48v.66a.2.2,0,0,1,0,.13.23.23,0,0,1-.12.08,1,1,0,0,1-.23,0h-.7l-.23,0a.36.36,0,0,1-.12-.08.28.28,0,0,1,0-.13v-9a.16.16,0,0,1,0-.12A.32.32,0,0,1,55,220a1.33,1.33,0,0,1,.26,0,4.42,4.42,0,0,1,.84,0,1.33,1.33,0,0,1,.26,0,.32.32,0,0,1,.14.1.16.16,0,0,1,0,.12v3.37a4.17,4.17,0,0,1,.47-.4,2.75,2.75,0,0,1,.46-.27,2.21,2.21,0,0,1,.48-.15,2.87,2.87,0,0,1,.52-.05,2.3,2.3,0,0,1,1.15.27,2.24,2.24,0,0,1,.77.73,3.2,3.2,0,0,1,.43,1.07A6,6,0,0,1,60.94,226.09Zm-1.79.12a6,6,0,0,0,0-.75,2,2,0,0,0-.21-.64,1.18,1.18,0,0,0-.37-.45,1,1,0,0,0-.58-.17,1.26,1.26,0,0,0-.33.05,1.48,1.48,0,0,0-.34.16,2.38,2.38,0,0,0-.36.3c-.12.13-.25.28-.39.46v2a3.29,3.29,0,0,0,.7.7,1.11,1.11,0,0,0,.69.25,1,1,0,0,0,.57-.17,1.52,1.52,0,0,0,.38-.45,2,2,0,0,0,.23-.62A4.14,4.14,0,0,0,59.15,226.21Z" transform="translate(-11.21 -5.95)"/><path class="cls-3" d="M68.48,226.11a4.55,4.55,0,0,1-.21,1.42,2.81,2.81,0,0,1-1.66,1.83,3.9,3.9,0,0,1-1.47.25,4,4,0,0,1-1.42-.23,2.67,2.67,0,0,1-1-.65,2.8,2.8,0,0,1-.59-1.06,5.23,5.23,0,0,1-.19-1.44,4.55,4.55,0,0,1,.21-1.42,3,3,0,0,1,.63-1.11,2.57,2.57,0,0,1,1-.71,3.9,3.9,0,0,1,1.47-.26,4.32,4.32,0,0,1,1.42.22,2.47,2.47,0,0,1,1,.66,2.73,2.73,0,0,1,.59,1.06A5.23,5.23,0,0,1,68.48,226.11Zm-1.77.07a5.25,5.25,0,0,0-.07-.83,1.78,1.78,0,0,0-.25-.66,1.12,1.12,0,0,0-.45-.44,1.53,1.53,0,0,0-.72-.16,1.6,1.6,0,0,0-.67.14,1.32,1.32,0,0,0-.47.41,2,2,0,0,0-.27.65,3.3,3.3,0,0,0-.1.87,4.25,4.25,0,0,0,.08.83,2.15,2.15,0,0,0,.24.66,1.12,1.12,0,0,0,.46.43,1.49,1.49,0,0,0,.71.16,1.41,1.41,0,0,0,.67-.15,1.23,1.23,0,0,0,.48-.4,1.93,1.93,0,0,0,.27-.65A3.72,3.72,0,0,0,66.71,226.18Z" transform="translate(-11.21 -5.95)"/><path class="cls-3" d="M73.76,223.69c0,.16,0,.3,0,.4a1.18,1.18,0,0,1,0,.25.22.22,0,0,1-.07.12.21.21,0,0,1-.11,0l-.13,0-.15-.05-.19,0a.78.78,0,0,0-.22,0,.93.93,0,0,0-.29.05,1.19,1.19,0,0,0-.3.18,3.4,3.4,0,0,0-.32.33q-.17.21-.36.51v3.8a.16.16,0,0,1,0,.12.3.3,0,0,1-.14.08,1.26,1.26,0,0,1-.26.06h-.84a1.26,1.26,0,0,1-.26-.06.3.3,0,0,1-.14-.08.16.16,0,0,1,0-.12v-6.1a.27.27,0,0,1,0-.12.32.32,0,0,1,.13-.08.6.6,0,0,1,.22,0,3.25,3.25,0,0,1,.72,0,.6.6,0,0,1,.22,0,.24.24,0,0,1,.11.08.19.19,0,0,1,0,.12v.76a4.19,4.19,0,0,1,.45-.56,3.08,3.08,0,0,1,.4-.36,1.7,1.7,0,0,1,.39-.18,1.58,1.58,0,0,1,.38-.05h.19l.21,0,.19.05a.22.22,0,0,1,.12.07.13.13,0,0,1,.06.07l0,.11s0,.12,0,.22S73.76,223.53,73.76,223.69Z" transform="translate(-11.21 -5.95)"/><path class="cls-3" d="M76.67,221.06a1,1,0,0,1-.21.72,1.22,1.22,0,0,1-.79.19,1.13,1.13,0,0,1-.78-.19.92.92,0,0,1-.2-.69,1,1,0,0,1,.2-.72,1.19,1.19,0,0,1,.79-.2,1.13,1.13,0,0,1,.78.19A.93.93,0,0,1,76.67,221.06Zm-.13,8.16a.21.21,0,0,1,0,.12.37.37,0,0,1-.14.08,1.37,1.37,0,0,1-.27.06h-.83a1.12,1.12,0,0,1-.26-.06.26.26,0,0,1-.14-.08.17.17,0,0,1,0-.12v-6.08a.17.17,0,0,1,0-.12.21.21,0,0,1,.14-.09.77.77,0,0,1,.26-.06l.42,0,.41,0a.9.9,0,0,1,.27.06.28.28,0,0,1,.14.09.21.21,0,0,1,0,.12Z" transform="translate(-11.21 -5.95)"/><path class="cls-3" d="M84.08,229.22a.21.21,0,0,1,0,.12.37.37,0,0,1-.14.08,1.12,1.12,0,0,1-.26.06H82.8a1.12,1.12,0,0,1-.26-.06.37.37,0,0,1-.14-.08.21.21,0,0,1,0-.12v-3.48a3.18,3.18,0,0,0-.06-.7,1.55,1.55,0,0,0-.19-.43.79.79,0,0,0-.32-.28.93.93,0,0,0-.45-.1,1.17,1.17,0,0,0-.67.24,3.52,3.52,0,0,0-.69.7v4.05a.21.21,0,0,1,0,.12.35.35,0,0,1-.15.08,1.12,1.12,0,0,1-.26.06H78.7a1.37,1.37,0,0,1-.27-.06.37.37,0,0,1-.14-.08.21.21,0,0,1,0-.12v-6.1a.19.19,0,0,1,0-.12.23.23,0,0,1,.12-.08.71.71,0,0,1,.23,0,1.78,1.78,0,0,1,.35,0,1.84,1.84,0,0,1,.36,0,.66.66,0,0,1,.23,0,.24.24,0,0,1,.11.08.27.27,0,0,1,0,.12v.71a3.75,3.75,0,0,1,1-.82,2.24,2.24,0,0,1,1.09-.28,2.34,2.34,0,0,1,1,.21,1.72,1.72,0,0,1,.69.55,2.26,2.26,0,0,1,.38.83,4.6,4.6,0,0,1,.12,1.13Z" transform="translate(-11.21 -5.95)"/><path class="cls-3" d="M91.26,223.55a1.18,1.18,0,0,1-.07.48c0,.11-.11.16-.19.16h-.72a.94.94,0,0,1,.22.37,1.54,1.54,0,0,1,.06.43,2.34,2.34,0,0,1-.17.95,1.89,1.89,0,0,1-.51.7,2.28,2.28,0,0,1-.8.43,3.39,3.39,0,0,1-1,.15,2.45,2.45,0,0,1-.56-.07,1.73,1.73,0,0,1-.42-.17,1.1,1.1,0,0,0-.14.21.5.5,0,0,0-.07.27.4.4,0,0,0,.18.33.92.92,0,0,0,.49.14L89,228a3.69,3.69,0,0,1,.93.15,1.84,1.84,0,0,1,.68.36A1.42,1.42,0,0,1,91,229a1.67,1.67,0,0,1,.15.73,1.89,1.89,0,0,1-.79,1.54,3.2,3.2,0,0,1-1,.47A5.26,5.26,0,0,1,88,232a5.61,5.61,0,0,1-1.32-.13,2.84,2.84,0,0,1-.91-.34,1.41,1.41,0,0,1-.51-.52,1.38,1.38,0,0,1-.16-.67,1.54,1.54,0,0,1,.06-.43,1.49,1.49,0,0,1,.17-.39,1.59,1.59,0,0,1,.28-.36,3.08,3.08,0,0,1,.37-.33,1,1,0,0,1-.45-.43,1.09,1.09,0,0,1-.16-.59,1.49,1.49,0,0,1,.18-.73,2.27,2.27,0,0,1,.48-.6,1.73,1.73,0,0,1-.38-.57,2.07,2.07,0,0,1-.15-.84,2.4,2.4,0,0,1,.19-1,2.08,2.08,0,0,1,.52-.71,2.41,2.41,0,0,1,.8-.45,3.37,3.37,0,0,1,1-.15,4.93,4.93,0,0,1,.55,0l.49.1H91c.08,0,.14.05.19.15A1.25,1.25,0,0,1,91.26,223.55Zm-1.8,6.31a.53.53,0,0,0-.25-.48,1.2,1.2,0,0,0-.68-.17l-1.22,0a1.81,1.81,0,0,0-.28.25,1.5,1.5,0,0,0-.17.23.48.48,0,0,0-.09.21,1.49,1.49,0,0,0,0,.21.56.56,0,0,0,.35.52,2.12,2.12,0,0,0,1,.18,2.48,2.48,0,0,0,.66-.08,1.23,1.23,0,0,0,.43-.21.71.71,0,0,0,.23-.29A.93.93,0,0,0,89.46,229.86ZM89.05,225a1.06,1.06,0,0,0-.27-.77A1,1,0,0,0,88,224a1.25,1.25,0,0,0-.45.08.92.92,0,0,0-.31.24.88.88,0,0,0-.19.34A1.35,1.35,0,0,0,87,225a1,1,0,0,0,.27.73A1,1,0,0,0,88,226a1.25,1.25,0,0,0,.45-.08.94.94,0,0,0,.32-.23.89.89,0,0,0,.19-.33A1.27,1.27,0,0,0,89.05,225Z" transform="translate(-11.21 -5.95)"/><path class="cls-3" d="M102.08,226.8a2.81,2.81,0,0,1-.13.85,2.45,2.45,0,0,1-.36.68,2.23,2.23,0,0,1-.55.51,3.52,3.52,0,0,1-.7.35,5.17,5.17,0,0,1-.82.2,7.06,7.06,0,0,1-1,.06H96.2a.52.52,0,0,1-.37-.13.54.54,0,0,1-.16-.44v-7.71a.52.52,0,0,1,.16-.43.52.52,0,0,1,.37-.13h2.23a6,6,0,0,1,1.37.13,2.52,2.52,0,0,1,1,.42,1.84,1.84,0,0,1,.6.7,2.48,2.48,0,0,1,.12,1.6,2.25,2.25,0,0,1-.24.52,1.89,1.89,0,0,1-.39.41,2,2,0,0,1-.52.28,2.56,2.56,0,0,1,.69.24,2,2,0,0,1,.56.44,2.11,2.11,0,0,1,.37.64A2.29,2.29,0,0,1,102.08,226.8Zm-2.33-3.73a1.19,1.19,0,0,0-.08-.47.84.84,0,0,0-.25-.36A1.13,1.13,0,0,0,99,222a2.4,2.4,0,0,0-.67-.08h-.9v2.3h1a1.73,1.73,0,0,0,.62-.09,1.09,1.09,0,0,0,.39-.25,1.14,1.14,0,0,0,.23-.38A1.39,1.39,0,0,0,99.75,223.07Zm.46,3.79a1.38,1.38,0,0,0-.1-.55,1.12,1.12,0,0,0-.3-.41,1.43,1.43,0,0,0-.51-.25,2.89,2.89,0,0,0-.8-.09H97.44v2.52h1.29a2.32,2.32,0,0,0,.64-.08,1.23,1.23,0,0,0,.44-.23,1,1,0,0,0,.29-.39A1.08,1.08,0,0,0,100.21,226.86Z" transform="translate(-11.21 -5.95)"/><path class="cls-3" d="M109.58,226.11a4.87,4.87,0,0,1-.2,1.42,3.16,3.16,0,0,1-.62,1.11,2.81,2.81,0,0,1-1.05.72,3.9,3.9,0,0,1-1.47.25,4.1,4.1,0,0,1-1.42-.23,2.55,2.55,0,0,1-1-.65,2.68,2.68,0,0,1-.59-1.06,4.88,4.88,0,0,1-.19-1.44,4.55,4.55,0,0,1,.21-1.42,3,3,0,0,1,.62-1.11,2.72,2.72,0,0,1,1-.71,3.9,3.9,0,0,1,1.47-.26,4.28,4.28,0,0,1,1.42.22,2.57,2.57,0,0,1,1,.66,2.72,2.72,0,0,1,.58,1.06A4.88,4.88,0,0,1,109.58,226.11Zm-1.77.07a4.28,4.28,0,0,0-.07-.83,2,2,0,0,0-.24-.66,1.21,1.21,0,0,0-.46-.44,1.49,1.49,0,0,0-.71-.16,1.54,1.54,0,0,0-.67.14,1.24,1.24,0,0,0-.47.41,1.83,1.83,0,0,0-.28.65,3.81,3.81,0,0,0-.09.87,4.28,4.28,0,0,0,.07.83,1.93,1.93,0,0,0,.25.66,1.16,1.16,0,0,0,.45.43,1.52,1.52,0,0,0,.71.16,1.45,1.45,0,0,0,.68-.15,1.14,1.14,0,0,0,.47-.4,1.93,1.93,0,0,0,.27-.65A3.72,3.72,0,0,0,107.81,226.18Z" transform="translate(-11.21 -5.95)"/><path class="cls-3" d="M114.86,223.69c0,.16,0,.3,0,.4s0,.19,0,.25a.23.23,0,0,1-.08.12.18.18,0,0,1-.11,0,.27.27,0,0,1-.12,0l-.16-.05-.18,0a.86.86,0,0,0-.23,0,1,1,0,0,0-.29.05,1.35,1.35,0,0,0-.29.18,3.42,3.42,0,0,0-.33.33,4.94,4.94,0,0,0-.35.51v3.8a.17.17,0,0,1,0,.12.26.26,0,0,1-.14.08,1.12,1.12,0,0,1-.26.06h-.83a1.37,1.37,0,0,1-.27-.06.37.37,0,0,1-.14-.08.21.21,0,0,1,0-.12v-6.1a.19.19,0,0,1,0-.12.23.23,0,0,1,.12-.08.71.71,0,0,1,.23,0,1.78,1.78,0,0,1,.35,0,1.84,1.84,0,0,1,.36,0,.66.66,0,0,1,.23,0,.24.24,0,0,1,.11.08.27.27,0,0,1,0,.12v.76a4.19,4.19,0,0,1,.45-.56,2.57,2.57,0,0,1,.41-.36,1.46,1.46,0,0,1,.38-.18,1.73,1.73,0,0,1,.38-.05h.19l.22,0,.19.05a.35.35,0,0,1,.12.07.18.18,0,0,1,0,.07l0,.11a1.09,1.09,0,0,1,0,.22C114.86,223.4,114.86,223.53,114.86,223.69Z" transform="translate(-11.21 -5.95)"/><path class="cls-3" d="M121.53,229.22a.28.28,0,0,1,0,.13.28.28,0,0,1-.12.08.9.9,0,0,1-.22,0h-.7a.9.9,0,0,1-.22,0,.32.32,0,0,1-.13-.08.28.28,0,0,1,0-.13v-.68a4.14,4.14,0,0,1-1,.79,2.36,2.36,0,0,1-1.15.28,2.39,2.39,0,0,1-1.18-.27,2.18,2.18,0,0,1-.78-.73,2.94,2.94,0,0,1-.44-1.07,6,6,0,0,1-.14-1.29,5.91,5.91,0,0,1,.17-1.46,3.55,3.55,0,0,1,.51-1.11,2.27,2.27,0,0,1,.84-.7,2.47,2.47,0,0,1,1.15-.25,2.05,2.05,0,0,1,.93.21,3.35,3.35,0,0,1,.82.61v-3.3a.21.21,0,0,1,0-.12A.24.24,0,0,1,120,220a.77.77,0,0,1,.26-.06,2.56,2.56,0,0,1,.42,0,2.43,2.43,0,0,1,.41,0,.77.77,0,0,1,.26.06.24.24,0,0,1,.14.09.16.16,0,0,1,0,.12Zm-1.71-4.07a4,4,0,0,0-.7-.72,1.24,1.24,0,0,0-.71-.24.93.93,0,0,0-.58.17,1.28,1.28,0,0,0-.39.44,2.47,2.47,0,0,0-.22.63,3.35,3.35,0,0,0-.07.71,4.52,4.52,0,0,0,.06.74,2.48,2.48,0,0,0,.2.65,1.2,1.2,0,0,0,.38.45.91.91,0,0,0,.58.17,1,1,0,0,0,.35-.05,1.2,1.2,0,0,0,.34-.17,1.59,1.59,0,0,0,.36-.3c.12-.13.26-.28.4-.46Z" transform="translate(-11.21 -5.95)"/><path class="cls-3" d="M128.89,226a.65.65,0,0,1-.14.47.49.49,0,0,1-.38.15h-3.71a2.65,2.65,0,0,0,.09.71,1.41,1.41,0,0,0,.29.54,1.33,1.33,0,0,0,.52.33,2.16,2.16,0,0,0,.76.12,3.84,3.84,0,0,0,.8-.07,5.75,5.75,0,0,0,.59-.14l.41-.14a.67.67,0,0,1,.27-.07.17.17,0,0,1,.1,0s0,0,.07.08a.6.6,0,0,1,0,.18c0,.07,0,.17,0,.28s0,.19,0,.26a.9.9,0,0,1,0,.18.34.34,0,0,1,0,.12.36.36,0,0,1-.07.1.59.59,0,0,1-.25.13,3,3,0,0,1-.5.16,6.35,6.35,0,0,1-1.55.2,4.4,4.4,0,0,1-1.43-.21,2.4,2.4,0,0,1-1-.62,2.6,2.6,0,0,1-.61-1.05,4.76,4.76,0,0,1-.2-1.49,4.83,4.83,0,0,1,.21-1.47,3.14,3.14,0,0,1,.61-1.11,2.73,2.73,0,0,1,1-.69,3.4,3.4,0,0,1,1.31-.24,3.45,3.45,0,0,1,1.31.23,2.5,2.5,0,0,1,.89.62,2.64,2.64,0,0,1,.51.95,4.08,4.08,0,0,1,.16,1.19Zm-1.66-.49a1.86,1.86,0,0,0-.29-1.14,1.14,1.14,0,0,0-1-.41,1.34,1.34,0,0,0-.58.12,1.16,1.16,0,0,0-.4.33,1.56,1.56,0,0,0-.25.5,2.79,2.79,0,0,0-.09.6Z" transform="translate(-11.21 -5.95)"/><path class="cls-3" d="M134.23,223.69c0,.16,0,.3,0,.4a1.18,1.18,0,0,1,0,.25.22.22,0,0,1-.07.12.21.21,0,0,1-.11,0l-.13,0-.15-.05-.19,0a.78.78,0,0,0-.22,0,1,1,0,0,0-.29.05,1.19,1.19,0,0,0-.3.18,3.4,3.4,0,0,0-.32.33q-.16.21-.36.51v3.8a.16.16,0,0,1,0,.12.3.3,0,0,1-.14.08,1.26,1.26,0,0,1-.26.06h-.84a1.26,1.26,0,0,1-.26-.06.3.3,0,0,1-.14-.08.16.16,0,0,1,0-.12v-6.1a.27.27,0,0,1,0-.12.32.32,0,0,1,.13-.08.66.66,0,0,1,.23,0,1.78,1.78,0,0,1,.35,0,1.94,1.94,0,0,1,.36,0,.55.55,0,0,1,.22,0,.24.24,0,0,1,.11.08.19.19,0,0,1,0,.12v.76a4.19,4.19,0,0,1,.45-.56,3.08,3.08,0,0,1,.4-.36,1.7,1.7,0,0,1,.39-.18,1.58,1.58,0,0,1,.38-.05h.19l.21,0,.19.05a.22.22,0,0,1,.12.07.13.13,0,0,1,.06.07l0,.11s0,.12,0,.22S134.23,223.53,134.23,223.69Z" transform="translate(-11.21 -5.95)"/><path class="cls-3" d="M143.41,228.7c0,.14,0,.25,0,.35a1.14,1.14,0,0,1-.05.23.48.48,0,0,1-.09.13.16.16,0,0,1-.12,0h-4a.55.55,0,0,1-.38-.13.54.54,0,0,1-.16-.44v-8a.21.21,0,0,1,0-.12.28.28,0,0,1,.14-.09,1.43,1.43,0,0,1,.28,0,2.82,2.82,0,0,1,.44,0,2.69,2.69,0,0,1,.43,0,1.43,1.43,0,0,1,.28,0,.28.28,0,0,1,.14.09.21.21,0,0,1,.05.12V228h2.78a.16.16,0,0,1,.12,0,.31.31,0,0,1,.09.12,1,1,0,0,1,.05.22C143.41,228.45,143.41,228.56,143.41,228.7Z" transform="translate(-11.21 -5.95)"/><path class="cls-3" d="M146.22,221.06a1,1,0,0,1-.21.72,1.17,1.17,0,0,1-.78.19,1.18,1.18,0,0,1-.79-.19,1.31,1.31,0,0,1,0-1.41,1.68,1.68,0,0,1,1.57,0A1,1,0,0,1,146.22,221.06Zm-.13,8.16a.16.16,0,0,1,0,.12.3.3,0,0,1-.14.08,1.12,1.12,0,0,1-.26.06h-.84a1.43,1.43,0,0,1-.26-.06.37.37,0,0,1-.14-.08.16.16,0,0,1,0-.12v-6.08a.16.16,0,0,1,0-.12.28.28,0,0,1,.14-.09.91.91,0,0,1,.26-.06l.42,0,.42,0a.77.77,0,0,1,.26.06.24.24,0,0,1,.14.09.16.16,0,0,1,0,.12Z" transform="translate(-11.21 -5.95)"/><path class="cls-3" d="M153,229.24a.2.2,0,0,1-.06.15.51.51,0,0,1-.22.08,2.5,2.5,0,0,1-.43,0,2.57,2.57,0,0,1-.45,0,.42.42,0,0,1-.2-.08.2.2,0,0,1-.06-.15v-.49a2.66,2.66,0,0,1-.86.63,2.47,2.47,0,0,1-1.07.23,2.82,2.82,0,0,1-.89-.13,2,2,0,0,1-.7-.37,1.76,1.76,0,0,1-.46-.62,2.13,2.13,0,0,1-.17-.86,1.94,1.94,0,0,1,.21-.93,1.75,1.75,0,0,1,.62-.65,3.12,3.12,0,0,1,1-.38,7.56,7.56,0,0,1,1.43-.12h.6v-.37a1.85,1.85,0,0,0-.06-.5.88.88,0,0,0-.19-.36.72.72,0,0,0-.36-.21,1.75,1.75,0,0,0-.55-.07,3,3,0,0,0-.77.09,5.87,5.87,0,0,0-.6.22,3.47,3.47,0,0,0-.43.21.68.68,0,0,1-.28.09.21.21,0,0,1-.14,0,.34.34,0,0,1-.09-.14.64.64,0,0,1-.06-.22,1.32,1.32,0,0,1,0-.29,1.42,1.42,0,0,1,0-.33.5.5,0,0,1,.13-.22,1.33,1.33,0,0,1,.34-.22,3.8,3.8,0,0,1,.56-.23,5.6,5.6,0,0,1,.7-.16,4,4,0,0,1,.78-.07,4.84,4.84,0,0,1,1.23.14,2.22,2.22,0,0,1,.84.43,1.81,1.81,0,0,1,.47.75,3.54,3.54,0,0,1,.15,1.09Zm-1.68-2.61h-.66a3.55,3.55,0,0,0-.71.06,1.34,1.34,0,0,0-.48.18,1,1,0,0,0-.27.3.87.87,0,0,0-.09.4.76.76,0,0,0,.25.6.93.93,0,0,0,.67.22,1.32,1.32,0,0,0,.67-.18,3,3,0,0,0,.62-.54Z" transform="translate(-11.21 -5.95)"/><path class="cls-3" d="M156.57,221.06a1,1,0,0,1-.21.72,1.18,1.18,0,0,1-.79.19,1.17,1.17,0,0,1-.78-.19,1.31,1.31,0,0,1,0-1.41,1.68,1.68,0,0,1,1.57,0A1,1,0,0,1,156.57,221.06Zm-.13,8.16a.16.16,0,0,1,0,.12.3.3,0,0,1-.14.08,1.12,1.12,0,0,1-.26.06h-.84a1.43,1.43,0,0,1-.26-.06.37.37,0,0,1-.14-.08.16.16,0,0,1,0-.12v-6.08a.16.16,0,0,1,0-.12.28.28,0,0,1,.14-.09.91.91,0,0,1,.26-.06l.42,0,.42,0a.77.77,0,0,1,.26.06.24.24,0,0,1,.14.09.16.16,0,0,1,0,.12Z" transform="translate(-11.21 -5.95)"/><path class="cls-3" d="M162.45,227.5a2,2,0,0,1-.19.91,1.89,1.89,0,0,1-.55.67,2.72,2.72,0,0,1-.84.4,4,4,0,0,1-1.06.13,4.62,4.62,0,0,1-.65-.05c-.21,0-.39-.08-.56-.13a3.53,3.53,0,0,1-.41-.16,1.09,1.09,0,0,1-.24-.16.38.38,0,0,1-.11-.22,1.81,1.81,0,0,1,0-.46,2.73,2.73,0,0,1,0-.31.88.88,0,0,1,0-.2s0-.08.07-.09a.17.17,0,0,1,.1,0,.46.46,0,0,1,.22.09l.37.19a4.23,4.23,0,0,0,.51.19,2.19,2.19,0,0,0,.66.09,1.7,1.7,0,0,0,.41-.05,1,1,0,0,0,.32-.14.6.6,0,0,0,.2-.22.79.79,0,0,0,.07-.32.56.56,0,0,0-.13-.35,1,1,0,0,0-.34-.25,2.29,2.29,0,0,0-.47-.21l-.54-.21-.54-.27a2.07,2.07,0,0,1-.47-.37,1.54,1.54,0,0,1-.33-.52,1.88,1.88,0,0,1-.13-.74,1.91,1.91,0,0,1,.17-.8,1.79,1.79,0,0,1,.49-.63,2.35,2.35,0,0,1,.79-.4,3.28,3.28,0,0,1,1-.15,5.09,5.09,0,0,1,.56,0,3.22,3.22,0,0,1,.49.11,2.25,2.25,0,0,1,.37.13l.21.12a.22.22,0,0,1,.09.11.33.33,0,0,1,.05.12,1.62,1.62,0,0,0,0,.18,1.93,1.93,0,0,1,0,.26,2.63,2.63,0,0,1,0,.3.6.6,0,0,1,0,.18.14.14,0,0,1-.06.1l-.1,0a.44.44,0,0,1-.19-.07l-.32-.16-.45-.15a2.12,2.12,0,0,0-.59-.07,1.22,1.22,0,0,0-.4.05.73.73,0,0,0-.28.13.54.54,0,0,0-.16.21.58.58,0,0,0-.06.26.48.48,0,0,0,.13.35,1.33,1.33,0,0,0,.34.26,3.66,3.66,0,0,0,.48.2l.55.21a5.52,5.52,0,0,1,.55.26,2.19,2.19,0,0,1,.48.37,1.79,1.79,0,0,1,.34.53A1.75,1.75,0,0,1,162.45,227.5Z" transform="translate(-11.21 -5.95)"/><path class="cls-3" d="M169.91,226.11a4.55,4.55,0,0,1-.21,1.42,2.88,2.88,0,0,1-.62,1.11,2.77,2.77,0,0,1-1,.72,3.9,3.9,0,0,1-1.47.25,4,4,0,0,1-1.42-.23,2.46,2.46,0,0,1-1.58-1.71,4.86,4.86,0,0,1-.2-1.44,4.55,4.55,0,0,1,.21-1.42,3,3,0,0,1,.63-1.11,2.64,2.64,0,0,1,1-.71,3.9,3.9,0,0,1,1.47-.26,4.32,4.32,0,0,1,1.42.22,2.47,2.47,0,0,1,1,.66,2.61,2.61,0,0,1,.59,1.06A4.88,4.88,0,0,1,169.91,226.11Zm-1.77.07a5.25,5.25,0,0,0-.07-.83,1.78,1.78,0,0,0-.25-.66,1.12,1.12,0,0,0-.45-.44,1.52,1.52,0,0,0-.71-.16,1.54,1.54,0,0,0-.67.14,1.27,1.27,0,0,0-.48.41,2,2,0,0,0-.27.65,3.81,3.81,0,0,0-.09.87,4.28,4.28,0,0,0,.07.83,2.15,2.15,0,0,0,.24.66,1.19,1.19,0,0,0,.46.43,1.52,1.52,0,0,0,.71.16,1.48,1.48,0,0,0,.68-.15,1.2,1.2,0,0,0,.47-.4,1.93,1.93,0,0,0,.27-.65A3.72,3.72,0,0,0,168.14,226.18Z" transform="translate(-11.21 -5.95)"/><path class="cls-3" d="M177.09,229.22a.16.16,0,0,1,0,.12.26.26,0,0,1-.13.08,1.22,1.22,0,0,1-.27.06h-.83a1.12,1.12,0,0,1-.26-.06.3.3,0,0,1-.14-.08.16.16,0,0,1,0-.12v-3.48a2.6,2.6,0,0,0-.07-.7,1.3,1.3,0,0,0-.18-.43.86.86,0,0,0-.32-.28,1,1,0,0,0-.46-.1,1.12,1.12,0,0,0-.66.24,3.54,3.54,0,0,0-.7.7v4.05a.16.16,0,0,1,0,.12.3.3,0,0,1-.14.08,1.12,1.12,0,0,1-.26.06h-.84a1.43,1.43,0,0,1-.26-.06.37.37,0,0,1-.14-.08.16.16,0,0,1,0-.12v-6.1a.27.27,0,0,1,0-.12.32.32,0,0,1,.13-.08.66.66,0,0,1,.23,0,1.78,1.78,0,0,1,.35,0,1.94,1.94,0,0,1,.36,0,.55.55,0,0,1,.22,0,.28.28,0,0,1,.12.08.27.27,0,0,1,0,.12v.71a3.75,3.75,0,0,1,1-.82,2.24,2.24,0,0,1,1.09-.28,2.4,2.4,0,0,1,1,.21,1.87,1.87,0,0,1,.69.55,2.43,2.43,0,0,1,.38.83,4.65,4.65,0,0,1,.11,1.13Z" transform="translate(-11.21 -5.95)"/><path class="cls-3" d="M190,224.93a6.33,6.33,0,0,1-.28,2,4,4,0,0,1-.81,1.47,3.53,3.53,0,0,1-1.34.92,5,5,0,0,1-1.84.32,5.41,5.41,0,0,1-1.8-.27,3.21,3.21,0,0,1-1.28-.82,3.55,3.55,0,0,1-.77-1.41,7.15,7.15,0,0,1-.26-2,6.12,6.12,0,0,1,.28-1.93,3.92,3.92,0,0,1,.81-1.46,3.53,3.53,0,0,1,1.34-.92,5,5,0,0,1,1.85-.32,5.31,5.31,0,0,1,1.77.27,3.11,3.11,0,0,1,1.29.82,3.54,3.54,0,0,1,.77,1.39A6.63,6.63,0,0,1,190,224.93Zm-1.89.09a7.07,7.07,0,0,0-.11-1.27,2.73,2.73,0,0,0-.37-1,1.85,1.85,0,0,0-.7-.63,2.4,2.4,0,0,0-1.1-.22,2.27,2.27,0,0,0-1.1.24,2,2,0,0,0-.72.67,2.87,2.87,0,0,0-.39,1,6.28,6.28,0,0,0-.11,1.17,7.37,7.37,0,0,0,.11,1.31,2.91,2.91,0,0,0,.37,1,1.62,1.62,0,0,0,.7.62,2.5,2.5,0,0,0,1.1.22,2.26,2.26,0,0,0,1.1-.25,1.93,1.93,0,0,0,.72-.67,2.93,2.93,0,0,0,.39-1A6.44,6.44,0,0,0,188.12,225Z" transform="translate(-11.21 -5.95)"/><path class="cls-3" d="M201.44,229.22a.21.21,0,0,1,0,.12.37.37,0,0,1-.14.08,1.37,1.37,0,0,1-.27.06h-.83a1.12,1.12,0,0,1-.26-.06.26.26,0,0,1-.14-.08.17.17,0,0,1,0-.12v-4.94h-2.27v4.94a.16.16,0,0,1,0,.12.26.26,0,0,1-.13.08,1.22,1.22,0,0,1-.27.06h-.83a1.12,1.12,0,0,1-.26-.06.3.3,0,0,1-.14-.08.16.16,0,0,1,0-.12v-4.94h-2.26v4.94a.21.21,0,0,1,0,.12.37.37,0,0,1-.14.08,1.1,1.1,0,0,1-.27.06h-.83a1.12,1.12,0,0,1-.26-.06.26.26,0,0,1-.14-.08.16.16,0,0,1,0-.12v-4.94H191a.21.21,0,0,1-.19-.16,1.62,1.62,0,0,1-.06-.53,3.33,3.33,0,0,1,0-.34.81.81,0,0,1,0-.21.28.28,0,0,1,.08-.12l.12,0h.76v-.45a3.9,3.9,0,0,1,.13-1.08,1.91,1.91,0,0,1,.39-.78,1.59,1.59,0,0,1,.66-.47,2.71,2.71,0,0,1,.95-.15,2.79,2.79,0,0,1,.53,0l.37.1a.59.59,0,0,1,.18.09.27.27,0,0,1,.07.13.65.65,0,0,1,.05.22,3.22,3.22,0,0,1,0,.33,1.7,1.7,0,0,1,0,.47c0,.1-.08.14-.15.14l-.11,0-.14-.05-.2,0-.25,0a.62.62,0,0,0-.56.25,1.42,1.42,0,0,0-.17.81v.49h2.26v-.54a3.92,3.92,0,0,1,.13-1.09,2.07,2.07,0,0,1,.39-.77,1.54,1.54,0,0,1,.65-.47,2.69,2.69,0,0,1,.94-.15h.31l.29,0,.24.06a.58.58,0,0,1,.14.08l.06.08a.83.83,0,0,1,0,.12,1,1,0,0,1,0,.2,2.63,2.63,0,0,1,0,.3,1.66,1.66,0,0,1,0,.46.14.14,0,0,1-.15.13h-.09l-.12,0-.17,0a.9.9,0,0,0-.24,0,.6.6,0,0,0-.53.24,1.54,1.54,0,0,0-.17.82v.58h3.47a.62.62,0,0,1,.39.11.46.46,0,0,1,.14.36Zm.13-8.15a1.75,1.75,0,0,1,0,.43.56.56,0,0,1-.16.28.61.61,0,0,1-.3.15,2.05,2.05,0,0,1-.47,0,2.11,2.11,0,0,1-.47,0,.71.71,0,0,1-.3-.15.64.64,0,0,1-.16-.28,1.75,1.75,0,0,1,0-.43,1.73,1.73,0,0,1,0-.42.57.57,0,0,1,.46-.43,1.61,1.61,0,0,1,.47-.05,1.57,1.57,0,0,1,.47.05.57.57,0,0,1,.46.43A1.73,1.73,0,0,1,201.57,221.07Z" transform="translate(-11.21 -5.95)"/><path class="cls-3" d="M207.77,228.25a2.63,2.63,0,0,1,0,.3,1.12,1.12,0,0,1,0,.2.39.39,0,0,1-.05.13.45.45,0,0,1-.1.13,1.64,1.64,0,0,1-.28.19,2.34,2.34,0,0,1-.45.2,4,4,0,0,1-.55.15,4.07,4.07,0,0,1-.61,0,3.24,3.24,0,0,1-1.25-.22,2.28,2.28,0,0,1-.91-.64,2.74,2.74,0,0,1-.56-1,4.67,4.67,0,0,1-.19-1.41,5,5,0,0,1,.23-1.59,3,3,0,0,1,.64-1.1,2.55,2.55,0,0,1,1-.65,3.45,3.45,0,0,1,1.23-.21,2.47,2.47,0,0,1,.54,0,2.52,2.52,0,0,1,.49.13,2.2,2.2,0,0,1,.41.18,1.39,1.39,0,0,1,.26.18.5.5,0,0,1,.1.13.32.32,0,0,1,.05.13c0,.05,0,.12,0,.2s0,.18,0,.29a1.72,1.72,0,0,1-.07.56c-.05.11-.11.16-.18.16a.4.4,0,0,1-.25-.1l-.3-.21a1.91,1.91,0,0,0-.43-.21,1.67,1.67,0,0,0-.58-.1,1.19,1.19,0,0,0-1,.52,2.63,2.63,0,0,0-.36,1.51,3.75,3.75,0,0,0,.09.87,1.82,1.82,0,0,0,.27.63,1,1,0,0,0,.43.38,1.49,1.49,0,0,0,.62.13,1.62,1.62,0,0,0,.61-.11,3.14,3.14,0,0,0,.45-.23l.32-.24a.38.38,0,0,1,.22-.11.13.13,0,0,1,.1,0,.17.17,0,0,1,.06.12,1.33,1.33,0,0,1,0,.24C207.77,228,207.77,228.1,207.77,228.25Z" transform="translate(-11.21 -5.95)"/><path class="cls-3" d="M214.65,226a.69.69,0,0,1-.14.47.5.5,0,0,1-.39.15h-3.71a2.65,2.65,0,0,0,.09.71,1.42,1.42,0,0,0,.3.54,1.26,1.26,0,0,0,.52.33,2.13,2.13,0,0,0,.76.12,3.68,3.68,0,0,0,.79-.07,5.39,5.39,0,0,0,.6-.14l.41-.14a.67.67,0,0,1,.27-.07.17.17,0,0,1,.1,0,.19.19,0,0,1,.07.08.66.66,0,0,1,0,.18,2.27,2.27,0,0,1,0,.28v.26c0,.07,0,.13,0,.18a.83.83,0,0,1,0,.12.39.39,0,0,1-.08.1.61.61,0,0,1-.24.13,3,3,0,0,1-.5.16,5.58,5.58,0,0,1-.71.14,5.67,5.67,0,0,1-.85.06,4.38,4.38,0,0,1-1.42-.21,2.4,2.4,0,0,1-1-.62,2.62,2.62,0,0,1-.62-1.05,5.07,5.07,0,0,1-.2-1.49,4.83,4.83,0,0,1,.21-1.47,3.33,3.33,0,0,1,.62-1.11,2.73,2.73,0,0,1,1-.69,3.74,3.74,0,0,1,2.61,0,2.41,2.41,0,0,1,.89.62,2.52,2.52,0,0,1,.52.95,4.08,4.08,0,0,1,.16,1.19ZM213,225.5a1.73,1.73,0,0,0-.29-1.14,1.14,1.14,0,0,0-1-.41,1.26,1.26,0,0,0-.57.12,1.08,1.08,0,0,0-.4.33,1.56,1.56,0,0,0-.25.5,2.28,2.28,0,0,0-.1.6Z" transform="translate(-11.21 -5.95)"/><path class="cls-3" d="M220.36,227.5a2,2,0,0,1-.2.91,1.79,1.79,0,0,1-.55.67,2.52,2.52,0,0,1-.84.4,3.87,3.87,0,0,1-1.05.13,4.4,4.4,0,0,1-.65-.05,5.22,5.22,0,0,1-.56-.13,3.53,3.53,0,0,1-.41-.16,1.09,1.09,0,0,1-.24-.16.45.45,0,0,1-.12-.22,2.56,2.56,0,0,1,0-.77.88.88,0,0,1,0-.2s0-.08.07-.09a.15.15,0,0,1,.1,0,.5.5,0,0,1,.22.09l.37.19a3.25,3.25,0,0,0,.51.19,2.19,2.19,0,0,0,.66.09,1.7,1.7,0,0,0,.41-.05.89.89,0,0,0,.31-.14.63.63,0,0,0,.21-.22.79.79,0,0,0,.06-.32.55.55,0,0,0-.12-.35,1.11,1.11,0,0,0-.34-.25,2.56,2.56,0,0,0-.47-.21l-.54-.21-.54-.27a2.07,2.07,0,0,1-.47-.37,1.74,1.74,0,0,1-.34-.52,2.09,2.09,0,0,1-.12-.74,1.77,1.77,0,0,1,.17-.8,1.68,1.68,0,0,1,.49-.63,2.3,2.3,0,0,1,.78-.4,3.39,3.39,0,0,1,1-.15,5.09,5.09,0,0,1,.56,0,3.22,3.22,0,0,1,.49.11,2.12,2.12,0,0,1,.36.13l.22.12a.44.44,0,0,1,.09.11.34.34,0,0,1,0,.12s0,.1,0,.18,0,.15,0,.26,0,.22,0,.3a.6.6,0,0,1,0,.18.14.14,0,0,1-.06.1l-.1,0a.44.44,0,0,1-.19-.07l-.32-.16-.45-.15a2.17,2.17,0,0,0-.59-.07,1.22,1.22,0,0,0-.4.05.66.66,0,0,0-.28.13.56.56,0,0,0-.17.21.75.75,0,0,0,0,.26.48.48,0,0,0,.13.35,1.17,1.17,0,0,0,.34.26,3.66,3.66,0,0,0,.48.2l.55.21c.18.08.37.16.55.26a2.19,2.19,0,0,1,.48.37,1.79,1.79,0,0,1,.34.53A1.75,1.75,0,0,1,220.36,227.5Z" transform="translate(-11.21 -5.95)"/></svg>