<svg xmlns="http://www.w3.org/2000/svg" viewBox="0 0 185.79 126.34"><defs><style>.cls-1{fill:#93a18b;}.cls-2{fill:#bec6b9;}.cls-3{fill:#9fae97;}.cls-4{fill:#353634;}.cls-5{fill:#605f5f;}.cls-6{fill:#7d7d7d;}.cls-7{fill:#75747a;}.cls-8{isolation:isolate;}.cls-9{fill:#a2a0a0;}.cls-10{fill:#2e2f2f;}.cls-11{fill:#939294;}.cls-12{fill:#acaaab;}.cls-13{fill:#dcdcdc;}.cls-14{fill:#0a0b0b;}.cls-15{fill:#dce5f0;}.cls-16{opacity:0.2;}.cls-17{fill:#a7dcf6;}.cls-18{opacity:0.3;}.cls-19{fill:#fff;}.cls-20{opacity:0.4;}</style></defs><title>G03_11_02</title><g id="Livello_1" data-name="Livello 1"><polygon class="cls-1" points="185.79 68.83 185.79 73.7 96.32 126.34 96.32 121.66 185.79 68.83"/><polygon class="cls-2" points="96.32 121.59 96.32 126.34 0.22 70.61 0.22 65.86 96.32 121.59"/><polygon class="cls-3" points="96.1 121.61 0 65.88 0 65.61 90.31 13.71 185.79 68.83 96.25 121.7 96.1 121.61"/></g><g id="Livello_2" data-name="Livello 2"><path class="cls-1" d="M151.58,102.76,106.75,76.88a5.82,5.82,0,0,0-5.86,0L73.47,92.79a5.85,5.85,0,0,0,0,10.11l2.6,1.5L57.51,115.06a4.11,4.11,0,0,0,.05,7.14l15.78,8.86a4.12,4.12,0,0,0,4.08,0l22.46-12.89,18.44,10.65a5.85,5.85,0,0,0,5.85,0l27.43-15.91A5.84,5.84,0,0,0,151.58,102.76Z" transform="translate(-6.21 -39.91)"/><polygon class="cls-4" points="82.11 20.19 106.33 6.12 106.32 8.65 82.1 22.73 82.11 20.19"/><path class="cls-5" d="M93.16,40.09c-1.57-.55-3.68.31-4.34.58-5.46,2.23-22.09,8.27-22.09,8.27a2.23,2.23,0,0,1,2.22.22L88.32,60.1,112.53,46S98,41.76,93.16,40.09Z" transform="translate(-6.21 -39.91)"/><path class="cls-6" d="M123.52,86.55,123.41,123a2.16,2.16,0,0,1-.9,2l24.21-14.07a2.19,2.19,0,0,0,.91-2l.11-36.42Z" transform="translate(-6.21 -39.91)"/><polygon class="cls-5" points="82.1 22.73 106.32 8.65 138.43 27.19 114.21 41.27 82.1 22.73"/><path class="cls-6" d="M120.42,81.17,144.63,67.1a6.86,6.86,0,0,1,3.11,5.37L123.52,86.55A6.89,6.89,0,0,0,120.42,81.17Z" transform="translate(-6.21 -39.91)"/><path class="cls-7" d="M88.32,60.1v2.54l32.11,18.53a6.89,6.89,0,0,1,3.1,5.38L123.41,123c0,2-1.4,2.78-3.12,1.79L68.82,95a6.85,6.85,0,0,1-3.11-5.38l.11-38.71c0-2,1.4-2.77,3.13-1.78Z" transform="translate(-6.21 -39.91)"/><g class="cls-8"><path class="cls-4" d="M88.28,46.89v2.33a3,3,0,0,1-1.74,2.44,9.34,9.34,0,0,1-8.49,0,3,3,0,0,1-1.77-2.47V46.85a3,3,0,0,0,1.77,2.48,9.37,9.37,0,0,0,8.49,0A3,3,0,0,0,88.28,46.89Z" transform="translate(-6.21 -39.91)"/><path class="cls-6" d="M86.51,44.41c2.35,1.36,2.36,3.56,0,4.92a9.37,9.37,0,0,1-8.49,0c-2.35-1.36-2.37-3.56,0-4.92A9.34,9.34,0,0,1,86.51,44.41Z" transform="translate(-6.21 -39.91)"/></g><path class="cls-5" d="M69,73.24,81.07,67c3.08-1.79,7.35-1.54,12.07,1.18L80.81,75.55C76.1,72.83,72,71.45,69,73.24Z" transform="translate(-6.21 -39.91)"/><path class="cls-7" d="M105.09,108.29l-10.78,7.56c3-1.77,5.23-6.13,5.24-11.48,0-10.76-7.2-24.72-16.57-30.13l10.16-6.11c9.36,5.41,16.93,18.52,16.9,29.28C110,102.76,108.14,106.52,105.09,108.29Z" transform="translate(-6.21 -39.91)"/><g class="cls-8"><path class="cls-4" d="M82.36,73.88c9.73,5.61,17.6,19.24,17.57,30.42S92,120,82.25,114.38,64.65,95.13,64.69,84,72.63,68.26,82.36,73.88Z" transform="translate(-6.21 -39.91)"/></g><path class="cls-4" d="M111.27,83.39l1.21-.71a2.39,2.39,0,0,1,2.42.24l-1.21.7A2.41,2.41,0,0,0,111.27,83.39Z" transform="translate(-6.21 -39.91)"/><path class="cls-5" d="M117.31,91l-1.21.7a2.39,2.39,0,0,0,1-2.19,7.46,7.46,0,0,0-3.4-5.88l1.21-.7a7.46,7.46,0,0,1,3.4,5.88A2.4,2.4,0,0,1,117.31,91Z" transform="translate(-6.21 -39.91)"/><path class="cls-9" d="M113.69,83.62a7.46,7.46,0,0,1,3.4,5.88c0,2.17-1.54,3-3.42,2a7.46,7.46,0,0,1-3.39-5.88C110.28,83.41,111.81,82.54,113.69,83.62Z" transform="translate(-6.21 -39.91)"/><path class="cls-5" d="M72.32,54.78a9.72,9.72,0,0,1,4.42,7.64c0,2.82-2,4-4.45,2.54a9.74,9.74,0,0,1-4.41-7.65C67.89,54.5,69.88,53.37,72.32,54.78Z" transform="translate(-6.21 -39.91)"/><g class="cls-8"><path class="cls-10" d="M87.13,46.46v.4a2.43,2.43,0,0,1-1.41,2,7.56,7.56,0,0,1-6.87,0,2.44,2.44,0,0,1-1.43-2v-.4a2.44,2.44,0,0,0,1.44,2,7.54,7.54,0,0,0,6.86,0A2.41,2.41,0,0,0,87.13,46.46Z" transform="translate(-6.21 -39.91)"/><path class="cls-9" d="M85.7,44.45c1.9,1.1,1.91,2.88,0,4a7.54,7.54,0,0,1-6.86,0c-1.91-1.1-1.91-2.88,0-4A7.6,7.6,0,0,1,85.7,44.45Z" transform="translate(-6.21 -39.91)"/></g><path class="cls-6" d="M128.25,60l-16.44-3.45,0,15L128.23,62a1,1,0,0,0,.56-.78l0-2A1,1,0,0,1,128.25,60Z" transform="translate(-6.21 -39.91)"/><path class="cls-7" d="M92.54,50a1,1,0,0,1-.57-.8l0,12a1,1,0,0,0,.57.79l16.55,9.56,0-12Z" transform="translate(-6.21 -39.91)"/><path class="cls-11" d="M111.81,58.15l0,13.36a2.75,2.75,0,0,1-2.72,0l0-13.35A2.72,2.72,0,0,0,111.81,58.15Z" transform="translate(-6.21 -39.91)"/><path class="cls-9" d="M128.24,58.42a.83.83,0,0,1,0,1.57s-12.46-1.47-16.44-.45a4,4,0,0,1-2.72,0L92.54,50c-.75-.44-.84-1.32,0-1.58,4-1.23,10.87-.82,16.56-.25a6.66,6.66,0,0,1,2.6.7Z" transform="translate(-6.21 -39.91)"/><g class="cls-8"><path class="cls-5" d="M132.63,95.25l0-8.42-1.21-.7,0,8.42a1,1,0,0,0,.4.88l1.21.7A.94.94,0,0,1,132.63,95.25Z" transform="translate(-6.21 -39.91)"/><path class="cls-6" d="M141.06,79.44a1,1,0,0,0-1,.1l-7.33,4.23,1.21.7,7.33-4.23a.94.94,0,0,1,1-.09Z" transform="translate(-6.21 -39.91)"/><path class="cls-12" d="M132.6,86.83l-1.21-.7a3,3,0,0,1,1.37-2.36l1.21.7A3,3,0,0,0,132.6,86.83Z" transform="translate(-6.21 -39.91)"/><path class="cls-11" d="M141.3,80.24c.75-.43,1.36-.09,1.37.78l0,8.42a3,3,0,0,1-1.36,2.36L134,96c-.76.43-1.37.08-1.37-.79l0-8.42A3,3,0,0,1,134,84.47Z" transform="translate(-6.21 -39.91)"/></g><path class="cls-5" d="M51.84,87.71,72,76c2.67-1.55,6.37-1.33,10.45,1L62.29,88.73C58.21,86.37,54.51,86.16,51.84,87.71Z" transform="translate(-6.21 -39.91)"/><path class="cls-7" d="M92.82,111.77,72.64,123.5c2.64-1.53,4.27-4.79,4.28-9.42,0-9.32-6.52-20.67-14.63-25.35L82.47,77c8.11,4.69,14.66,16,14.64,25.35C97.09,107,95.46,110.24,92.82,111.77Z" transform="translate(-6.21 -39.91)"/><ellipse class="cls-7" cx="62.24" cy="105.6" rx="11.99" ry="20.7" transform="translate(-50.84 5.66) rotate(-30.16)"/><ellipse class="cls-4" cx="62.01" cy="105.6" rx="10.32" ry="17.81" transform="translate(-50.87 5.54) rotate(-30.16)"/><path class="cls-13" d="M62,92.48C68.35,96.12,73.45,105,73.43,112.2S68.28,122.37,62,118.73,50.56,106.26,50.58,99,55.74,88.84,62,92.48Z" transform="translate(-6.21 -39.91)"/><path class="cls-11" d="M74.64,112.9c0-8-5.61-17.78-12.59-21.81l-.46-.25c-6.29-2.81-11.19.51-11.22,8,0,8,5.62,17.79,12.6,21.81l.45.25C69.72,123.67,74.62,120.35,74.64,112.9Z" transform="translate(-6.21 -39.91)"/><path class="cls-14" d="M74.64,112.9c0-8-5.61-17.78-12.59-21.81l-.46-.25c-6.29-2.81-11.19.51-11.22,8,0,8,5.62,17.79,12.6,21.81l.45.25C69.72,123.67,74.62,120.35,74.64,112.9Z" transform="translate(-6.21 -39.91)"/><path class="cls-15" d="M74.62,113c0-7.92-5.55-17.58-12.45-21.56l-.45-.25c-6.22-2.77-11.07.51-11.09,7.88,0,7.92,5.55,17.58,12.45,21.56l.45.25C69.75,123.62,74.6,120.34,74.62,113Z" transform="translate(-6.21 -39.91)"/><g class="cls-16"><path class="cls-17" d="M64.35,92.91l-10.11,18.4a30.5,30.5,0,0,0,2,3.08L66.85,95.18A24.07,24.07,0,0,0,64.35,92.91Z" transform="translate(-6.21 -39.91)"/></g><g class="cls-16"><path class="cls-17" d="M68,96.43,57.36,115.72c.34.4.68.78,1,1.15L69,97.66C68.63,97.24,68.3,96.83,68,96.43Z" transform="translate(-6.21 -39.91)"/></g><g class="cls-16"><path class="cls-17" d="M73.36,106l-8.47,15.41a8.71,8.71,0,0,0,3.74.39l5.87-10.68A23.36,23.36,0,0,0,73.36,106Z" transform="translate(-6.21 -39.91)"/></g><g class="cls-18"><path class="cls-19" d="M66.48,107.42a13.71,13.71,0,0,0-6.2-10.74l-.23-.12c-3.1-1.38-5.51.25-5.52,3.92a13.65,13.65,0,0,0,6.2,10.74l.22.12C64.05,112.72,66.47,111.09,66.48,107.42Z" transform="translate(-6.21 -39.91)"/></g><g class="cls-20"><path class="cls-19" d="M68.18,113.17a7.07,7.07,0,0,0-3.2-5.55l-.12-.06c-1.6-.71-2.85.13-2.85,2a7.05,7.05,0,0,0,3.2,5.54l.12.07C66.93,115.91,68.17,115.07,68.18,113.17Z" transform="translate(-6.21 -39.91)"/></g><path class="cls-4" d="M139.05,100.4c.76-.44,1.37-.08,1.37.78l0,6.85a3,3,0,0,1-1.36,2.35L136.24,112c-.75.44-1.37.09-1.37-.78l0-6.84a3,3,0,0,1,1.36-2.36Z" transform="translate(-6.21 -39.91)"/><path class="cls-5" d="M140.42,101.18c0-.57-.27-.91-.67-1a1.17,1.17,0,0,1,.14.59l0,6.85a3,3,0,0,1-1.36,2.36l-2.84,1.63a1.18,1.18,0,0,1-.7.18c.22.41.69.51,1.23.19l2.84-1.64a3,3,0,0,0,1.36-2.35Z" transform="translate(-6.21 -39.91)"/><path class="cls-5" d="M112,99.93a1.93,1.93,0,0,1,.89,1.55c0,.57-.4.8-.9.51a2,2,0,0,1-.89-1.55C111.06,99.87,111.46,99.64,112,99.93Z" transform="translate(-6.21 -39.91)"/><path class="cls-5" d="M111.06,102.91a1.35,1.35,0,0,1,.6,1c0,.38-.27.53-.6.34a1.32,1.32,0,0,1-.6-1C110.46,102.88,110.73,102.72,111.06,102.91Z" transform="translate(-6.21 -39.91)"/></g></svg>