<svg xmlns="http://www.w3.org/2000/svg" xmlns:xlink="http://www.w3.org/1999/xlink" viewBox="0 0 616.66 519.5"><defs><style>.cls-1,.cls-35{fill:none;}.cls-2{isolation:isolate;}.cls-3{fill:#d5d5d4;}.cls-4{fill:#9f9f9f;}.cls-5{fill:#b8b8b8;}.cls-6{fill:#66abd1;}.cls-7{fill:#87cdd3;}.cls-8{fill:#a3b1db;}.cls-9{fill:#7a86a9;}.cls-10{fill:#946d5d;}.cls-11{fill:#705246;}.cls-12{fill:#757575;}.cls-13{fill:#fff;}.cls-14{fill:#5e6a95;}.cls-15{fill:#46506f;}.cls-16{fill:#8a8a8a;}.cls-17{fill:#5a703b;}.cls-18{fill:#5d5d5d;}.cls-19{fill:#a6ada0;}.cls-20{fill:#7d8278;}.cls-21{fill:#dde7d5;}.cls-22{fill:#f1f5ee;}.cls-23{fill:#e3e3e2;}.cls-24{fill:#e5b878;}.cls-25{fill:#ac8a5a;}.cls-26{fill:#71250d;}.cls-27{fill:#36170e;}.cls-28{fill:#3f7ec1;}.cls-29{fill:#2563a3;}.cls-30{fill:#124780;}.cls-31{fill:#17365d;}.cls-32{fill:#414142;}.cls-33{fill:#19416c;}.cls-34{fill:#f5ad1f;opacity:0.8;}.cls-35{stroke:#eaeaea;stroke-miterlimit:10;stroke-width:3px;}.cls-36{clip-path:url(#clip-path);}.cls-37{fill:#3a3762;}.cls-38{fill:#49488c;}.cls-39{fill:#dc5a55;}.cls-40{fill:#e38868;}.cls-41{fill:#c74849;}.cls-42{fill:#bb745d;}.cls-43{fill:#474473;}.cls-44{fill:#eaeaea;}.cls-45{fill:#93a18b;}.cls-46{fill:#ad1f17;}.cls-47{fill:#2c464f;}.cls-48{fill:#406774;}.cls-49{fill:#343142;}.cls-50{fill:#3f4855;}.cls-51{fill:#def0f0;}.cls-52{fill:#1d71b8;}.cls-53{fill:#6786a0;}.cls-54{fill:#648098;}.cls-55{fill:#7899b6;}.cls-56{fill:#157187;}.cls-57{fill:#808181;opacity:0.43;mix-blend-mode:multiply;}.cls-58{fill:#009fe3;}.cls-59{fill:#ece0d3;}.cls-60{fill:#0782ae;}.cls-61{fill:#323232;opacity:0.3;}.cls-62{fill:#e52629;}.cls-63{fill:#f9ef83;}.cls-64{fill:#add2e1;}.cls-65{fill:#343434;}.cls-66{fill:#b4b4b4;}</style><clipPath id="clip-path" transform="translate(12.88 -19.98)"><rect class="cls-1" x="252.01" y="110.87" width="21.13" height="32.24"/></clipPath></defs><title>G03_08</title><g class="cls-2"><g id="road"><rect class="cls-3" x="4.59" y="328.89" width="612.07" height="27.29"/><rect class="cls-4" x="4.59" y="348.87" width="612.07" height="7.32"/><rect class="cls-5" x="4.59" y="353.49" width="612.07" height="44.49"/><rect class="cls-4" x="4.59" y="397.98" width="612.07" height="44.49"/><rect class="cls-6" x="4.59" y="408.87" width="612.07" height="110.62"/><path class="cls-7" d="M154.55,494.41c33.32-1.11,66.64-1.52,100-1.69,16.66-.05,33.32.1,50,.22s33.32.35,50,.69,33.33.52,50,.39l12.49-.15,12.5-.26,25-.48q12.49-.17,25-.1c8.33,0,16.66.09,25,.2,16.67.19,33.33.55,50,1.18a.17.17,0,0,1,.17.18.18.18,0,0,1-.17.17c-16.66.63-33.32,1-50,1.18-8.33.11-16.66.16-25,.2s-16.66,0-25-.1l-25-.48L417,495.3l-12.49-.15c-16.66-.13-33.32.09-50,.39s-33.32.59-50,.69-33.32.27-50,.22c-33.33-.17-66.65-.58-100-1.69a.17.17,0,0,1-.17-.18A.18.18,0,0,1,154.55,494.41Z" transform="translate(12.88 -19.98)"/></g><g id="Houses"><polygon class="cls-8" points="438.35 176.95 438.35 325.18 575.84 325.18 575.84 176.91 507.09 119.2 438.35 176.95"/><polygon class="cls-9" points="507.09 113.3 438.35 171.15 438.35 176.95 507.09 119.2 575.84 176.91 575.84 171.1 507.09 113.3"/><polygon class="cls-10" points="507.09 106.51 433.56 168.07 433.56 175.19 507.09 113.63 507.09 106.51 507.09 106.51"/><polygon class="cls-11" points="507.09 106.51 507.09 113.63 580.63 175.19 580.63 168.07 507.09 106.51"/><rect class="cls-12" x="459.26" y="299.02" width="6.21" height="9.04"/><rect class="cls-12" x="468.06" y="299.02" width="6.2" height="9.04"/><rect class="cls-12" x="459.26" y="287.4" width="6.21" height="9.04"/><rect class="cls-12" x="468.06" y="287.4" width="6.2" height="9.04"/><path class="cls-13" d="M443.8,304.79v25.83H464V304.79Zm11.38,2.58h6.2v9.05h-6.2Zm-8.8,0h6.21v9.05h-6.21ZM452.59,328h-6.21v-9h6.21Zm8.79,0h-6.2v-9h6.2Z" transform="translate(12.88 -19.98)"/><rect class="cls-12" x="539.92" y="299.02" width="6.21" height="9.04"/><rect class="cls-12" x="548.71" y="299.02" width="6.21" height="9.04"/><rect class="cls-12" x="539.92" y="287.4" width="6.21" height="9.04"/><rect class="cls-12" x="548.71" y="287.4" width="6.21" height="9.04"/><path class="cls-13" d="M524.46,304.79v25.83h20.17V304.79Zm11.38,2.58h6.21v9.05h-6.21Zm-8.8,0h6.21v9.05H527ZM533.25,328H527v-9h6.21Zm8.8,0h-6.21v-9h6.21Z" transform="translate(12.88 -19.98)"/><rect class="cls-14" x="492.8" y="289.05" width="28.58" height="36.13"/><polygon class="cls-15" points="521.39 289.05 496.63 289.05 492.8 289.05 492.8 292.87 492.8 325.18 496.63 325.18 496.63 292.87 521.39 292.87 521.39 289.05"/><rect class="cls-12" x="499.88" y="161.02" width="6.21" height="9.03"/><rect class="cls-12" x="508.67" y="161.02" width="6.21" height="9.03"/><rect class="cls-12" x="499.88" y="149.4" width="6.21" height="9.04"/><rect class="cls-12" x="508.67" y="149.4" width="6.21" height="9.04"/><path class="cls-13" d="M484.42,166.79v25.83h20.16V166.79Zm11.37,2.58H502v9h-6.21Zm-8.79,0h6.21v9H487ZM493.21,190H487v-9h6.21Zm8.79,0h-6.21v-9H502Z" transform="translate(12.88 -19.98)"/><polygon class="cls-12" points="515.17 146.81 499.88 146.81 499.88 141.97 507.65 138.9 515.17 141.77 515.17 146.81"/><path class="cls-13" d="M494.51,156.7a10.09,10.09,0,0,0-10.09,10.09h2.83a7.26,7.26,0,1,1,14.52,0h2.83A10.09,10.09,0,0,0,494.51,156.7Z" transform="translate(12.88 -19.98)"/><polygon class="cls-9" points="519.63 164.73 494.53 164.73 494.53 172.64 500.76 178.88 528.77 178.88 528.77 173.88 519.63 164.73"/><rect class="cls-5" x="494.53" y="164.73" width="25.1" height="7.91"/><rect class="cls-12" x="459.91" y="204.37" width="6.21" height="9.03"/><rect class="cls-12" x="468.7" y="204.37" width="6.2" height="9.03"/><rect class="cls-12" x="459.91" y="192.75" width="6.21" height="9.04"/><rect class="cls-12" x="468.7" y="192.75" width="6.2" height="9.04"/><path class="cls-13" d="M444.44,210.14V236h20.17V210.14Zm11.38,2.58H462v9h-6.2Zm-8.79,0h6.2v9H447Zm6.2,20.66H447v-9h6.2Zm8.79,0h-6.2v-9H462Z" transform="translate(12.88 -19.98)"/><polygon class="cls-9" points="479.65 208.09 454.55 208.09 454.55 215.99 460.79 222.23 488.8 222.23 488.8 217.23 479.65 208.09"/><rect class="cls-5" x="454.55" y="208.09" width="25.1" height="7.91"/><rect class="cls-12" x="539.14" y="204.37" width="6.21" height="9.03"/><rect class="cls-12" x="547.93" y="204.37" width="6.21" height="9.03"/><rect class="cls-12" x="539.14" y="192.75" width="6.21" height="9.04"/><rect class="cls-12" x="547.93" y="192.75" width="6.21" height="9.04"/><path class="cls-13" d="M523.67,210.14V236h20.17V210.14Zm11.38,2.58h6.21v9h-6.21Zm-8.79,0h6.21v9h-6.21Zm6.21,20.66h-6.21v-9h6.21Zm8.79,0h-6.21v-9h6.21Z" transform="translate(12.88 -19.98)"/><polygon class="cls-9" points="558.89 208.09 533.78 208.09 533.78 215.99 540.02 222.23 568.03 222.23 568.03 217.23 558.89 208.09"/><rect class="cls-5" x="533.78" y="208.09" width="25.1" height="7.91"/><rect class="cls-12" x="499.53" y="204.37" width="6.21" height="9.03"/><rect class="cls-12" x="508.32" y="204.37" width="6.21" height="9.03"/><rect class="cls-12" x="499.53" y="192.75" width="6.21" height="9.04"/><rect class="cls-12" x="508.32" y="192.75" width="6.21" height="9.04"/><path class="cls-13" d="M484.07,210.14V236h20.16V210.14Zm11.37,2.58h6.21v9h-6.21Zm-8.79,0h6.21v9h-6.21Zm6.21,20.66h-6.21v-9h6.21Zm8.79,0h-6.21v-9h6.21Z" transform="translate(12.88 -19.98)"/><polygon class="cls-9" points="519.28 208.09 494.17 208.09 494.17 215.99 500.41 222.23 528.42 222.23 528.42 217.23 519.28 208.09"/><rect class="cls-5" x="494.17" y="208.09" width="25.1" height="7.91"/><rect class="cls-12" x="459.91" y="250.84" width="6.21" height="9.04"/><rect class="cls-12" x="468.7" y="250.84" width="6.2" height="9.04"/><rect class="cls-12" x="459.91" y="239.22" width="6.21" height="9.04"/><rect class="cls-12" x="468.7" y="239.22" width="6.2" height="9.04"/><path class="cls-13" d="M444.44,256.61v25.83h20.17V256.61Zm11.38,2.59H462v9h-6.2Zm-8.79,0h6.2v9H447Zm6.2,20.65H447v-9h6.2Zm8.79,0h-6.2v-9H462Z" transform="translate(12.88 -19.98)"/><polygon class="cls-9" points="479.65 254.55 454.55 254.55 454.55 262.46 460.79 268.7 488.8 268.7 488.8 263.7 479.65 254.55"/><rect class="cls-5" x="454.55" y="254.55" width="25.1" height="7.91"/><rect class="cls-12" x="539.14" y="250.84" width="6.21" height="9.04"/><rect class="cls-12" x="547.93" y="250.84" width="6.21" height="9.04"/><rect class="cls-12" x="539.14" y="239.22" width="6.21" height="9.04"/><rect class="cls-12" x="547.93" y="239.22" width="6.21" height="9.04"/><path class="cls-13" d="M523.67,256.61v25.83h20.17V256.61Zm11.38,2.59h6.21v9h-6.21Zm-8.79,0h6.21v9h-6.21Zm6.21,20.65h-6.21v-9h6.21Zm8.79,0h-6.21v-9h6.21Z" transform="translate(12.88 -19.98)"/><polygon class="cls-9" points="558.89 254.55 533.78 254.55 533.78 262.46 540.02 268.7 568.03 268.7 568.03 263.7 558.89 254.55"/><rect class="cls-5" x="533.78" y="254.55" width="25.1" height="7.91"/><rect class="cls-12" x="499.53" y="250.84" width="6.21" height="9.04"/><rect class="cls-12" x="508.32" y="250.84" width="6.21" height="9.04"/><rect class="cls-12" x="499.53" y="239.22" width="6.21" height="9.04"/><rect class="cls-12" x="508.32" y="239.22" width="6.21" height="9.04"/><path class="cls-13" d="M484.07,256.61v25.83h20.16V256.61Zm11.37,2.59h6.21v9h-6.21Zm-8.79,0h6.21v9h-6.21Zm6.21,20.65h-6.21v-9h6.21Zm8.79,0h-6.21v-9h6.21Z" transform="translate(12.88 -19.98)"/><polygon class="cls-9" points="519.28 254.55 494.17 254.55 494.17 262.46 500.41 268.7 528.42 268.7 528.42 263.7 519.28 254.55"/><rect class="cls-5" x="494.17" y="254.55" width="25.1" height="7.91"/><rect class="cls-5" x="575.84" y="208.09" width="8.72" height="7.91"/><rect class="cls-5" x="575.84" y="254.55" width="8.72" height="7.91"/><rect class="cls-5" x="429.63" y="208.09" width="8.72" height="7.91"/><rect class="cls-5" x="429.63" y="254.55" width="8.72" height="7.91"/><rect class="cls-16" x="397.71" y="285.38" width="5.16" height="39.8"/><rect class="cls-5" x="402.87" y="293.35" width="12.64" height="4.46"/><rect class="cls-5" x="402.87" y="312.74" width="12.64" height="4.46"/><rect class="cls-16" x="415.51" y="285.38" width="5.16" height="39.8"/><rect class="cls-5" x="420.68" y="293.35" width="12.63" height="4.46"/><rect class="cls-5" x="420.68" y="312.74" width="12.63" height="4.46"/><rect class="cls-16" x="433.31" y="285.38" width="5.16" height="39.8"/><rect class="cls-5" x="438.48" y="293.35" width="12.63" height="4.46"/><rect class="cls-5" x="438.48" y="312.74" width="12.63" height="4.46"/><rect class="cls-16" x="451.11" y="285.38" width="5.16" height="39.8"/><rect class="cls-5" x="456.28" y="293.35" width="12.64" height="4.46"/><rect class="cls-5" x="456.28" y="312.74" width="12.64" height="4.46"/><rect class="cls-16" x="468.92" y="285.38" width="5.16" height="39.8"/><rect class="cls-5" x="474.08" y="293.35" width="12.64" height="4.46"/><rect class="cls-5" x="474.08" y="312.74" width="12.64" height="4.46"/><rect class="cls-16" x="486.71" y="285.38" width="5.16" height="39.8"/><rect class="cls-5" x="491.87" y="293.35" width="12.64" height="4.46"/><rect class="cls-5" x="491.87" y="312.74" width="12.64" height="4.46"/><rect class="cls-16" x="504.51" y="285.38" width="5.16" height="39.8"/><rect class="cls-5" x="509.67" y="293.35" width="12.64" height="4.46"/><rect class="cls-5" x="509.67" y="312.74" width="12.64" height="4.46"/><rect class="cls-16" x="522.31" y="285.38" width="5.16" height="39.8"/><rect class="cls-5" x="527.48" y="293.35" width="12.63" height="4.46"/><rect class="cls-5" x="527.48" y="312.74" width="12.63" height="4.46"/><rect class="cls-16" x="540.3" y="285.38" width="5.16" height="39.8"/><rect class="cls-5" x="545.46" y="293.35" width="12.64" height="4.46"/><rect class="cls-5" x="545.46" y="312.74" width="12.64" height="4.46"/><rect class="cls-16" x="558.1" y="285.38" width="5.16" height="39.8"/><rect class="cls-5" x="563.26" y="293.35" width="12.64" height="4.46"/><rect class="cls-5" x="563.26" y="312.74" width="12.64" height="4.46"/><rect class="cls-16" x="575.89" y="285.38" width="5.16" height="39.8"/><rect class="cls-5" x="581.05" y="293.35" width="12.64" height="4.46"/><rect class="cls-5" x="581.05" y="312.74" width="12.64" height="4.46"/><rect class="cls-16" x="593.69" y="285.38" width="5.16" height="39.8"/><rect class="cls-5" x="598.86" y="293.35" width="12.64" height="4.46"/><rect class="cls-5" x="598.86" y="312.74" width="12.64" height="4.46"/><rect class="cls-16" x="611.49" y="285.38" width="5.16" height="39.8"/><rect class="cls-17" x="397.71" y="325.18" width="218.94" height="4.96"/><rect class="cls-3" x="247.01" y="23.76" width="150.7" height="294.49"/><rect class="cls-3" x="242.34" width="160.05" height="11.88"/><rect class="cls-4" x="252.67" y="11.88" width="139.39" height="11.88"/><rect class="cls-4" x="247.01" y="318.25" width="150.7" height="11.88"/><rect class="cls-18" x="304.22" y="40.35" width="36.29" height="13.03"/><path class="cls-4" d="M289.27,56.26V77.43H329.7V56.26Zm38.36,17.1H291.34v-13h36.29Z" transform="translate(12.88 -19.98)"/><rect class="cls-18" x="259.88" y="259.68" width="21.14" height="41.15"/><rect class="cls-18" x="363.54" y="259.68" width="21.13" height="41.15"/><rect class="cls-18" x="264.88" y="30.86" width="21.14" height="41.15"/><rect class="cls-19" x="262.45" y="63.08" width="13" height="8.92"/><rect class="cls-20" x="275.45" y="63.08" width="13" height="8.92"/><rect class="cls-18" x="358.54" y="30.86" width="21.13" height="41.15"/><rect class="cls-20" x="369.11" y="63.08" width="13" height="8.92"/><rect class="cls-19" x="356.11" y="63.08" width="13" height="8.92"/><rect class="cls-18" x="300.9" y="259.68" width="42.92" height="58.57"/><rect class="cls-21" x="327.41" y="277.59" width="1.64" height="4.6"/><rect class="cls-21" x="315.67" y="277.59" width="1.65" height="4.6"/><polygon class="cls-4" points="339.18 259.68 339.18 265.38 323.45 265.38 323.45 259.68 321.28 259.68 321.28 265.38 305.56 265.38 305.56 259.68 303.4 259.68 303.4 318.25 305.56 318.25 305.56 267.54 321.28 267.54 321.28 318.25 323.45 318.25 323.45 267.54 339.18 267.54 339.18 318.25 341.33 318.25 341.33 259.68 339.18 259.68"/><rect class="cls-22" x="300.9" y="318.25" width="42.92" height="5.94"/><rect class="cls-21" x="300.9" y="324.19" width="42.92" height="5.94"/><rect class="cls-18" x="358.54" y="90.89" width="21.13" height="41.15"/><rect class="cls-20" x="369.11" y="123.12" width="13" height="8.92"/><rect class="cls-19" x="356.11" y="123.12" width="13" height="8.92"/><rect class="cls-18" x="264.88" y="150.93" width="21.14" height="41.15"/><rect class="cls-19" x="262.45" y="183.16" width="13" height="8.92"/><rect class="cls-20" x="275.45" y="183.16" width="13" height="8.92"/><rect class="cls-18" x="358.54" y="150.93" width="21.13" height="41.15"/><rect class="cls-20" x="369.11" y="183.16" width="13" height="8.92"/><rect class="cls-19" x="356.11" y="183.16" width="13" height="8.92"/><rect class="cls-18" x="304.22" y="102.39" width="36.29" height="13.03"/><path class="cls-4" d="M289.27,118.3v21.17H329.7V118.3Zm38.36,17.1H291.34v-13h36.29Z" transform="translate(12.88 -19.98)"/><rect class="cls-18" x="304.22" y="162.43" width="36.29" height="13.03"/><path class="cls-4" d="M289.27,178.33v21.18H329.7V178.33Zm38.36,17.1H291.34v-13h36.29Z" transform="translate(12.88 -19.98)"/><rect class="cls-18" x="264.88" y="210.97" width="21.14" height="41.15"/><rect class="cls-19" x="262.45" y="243.19" width="13" height="8.92"/><rect class="cls-20" x="275.45" y="243.19" width="13" height="8.92"/><rect class="cls-18" x="358.54" y="210.97" width="21.13" height="41.15"/><rect class="cls-20" x="369.11" y="243.19" width="13" height="8.92"/><rect class="cls-19" x="356.11" y="243.19" width="13" height="8.92"/><rect class="cls-18" x="304.22" y="222.47" width="36.29" height="13.03"/><path class="cls-4" d="M289.27,238.37v21.17H329.7V238.37Zm38.36,17.1H291.34v-13h36.29Z" transform="translate(12.88 -19.98)"/><polygon class="cls-5" points="44.01 161.17 24.08 157.29 24.08 124.27 44.01 124.27 44.01 161.17"/><rect class="cls-23" x="21.55" y="124.27" width="24.98" height="12.46"/><polygon class="cls-16" points="44.01 136.74 24.08 136.74 29.23 141.89 44.01 141.89 44.01 136.74"/><polygon class="cls-24" points="4.9 178.63 4.9 330.11 145.4 330.11 145.4 178.59 75.15 142.72 4.9 178.63"/><polygon class="cls-25" points="75.15 136.69 4.9 172.69 4.9 178.63 75.15 142.72 145.4 178.59 145.4 172.65 75.15 136.69"/><rect class="cls-26" x="4.9" y="311.22" width="140.5" height="18.88"/><polygon class="cls-25" points="97.95 266.31 66.05 266.31 66.05 311.22 142.86 311.22 97.95 266.31"/><polygon class="cls-27" points="61.33 311.22 61.33 330.11 145.4 330.13 145.4 311.22 61.33 311.22"/><polygon class="cls-28" points="75.15 129.75 0 169.55 0 176.83 75.15 137.03 75.15 129.76 75.15 129.75"/><polygon class="cls-29" points="75.15 129.76 75.15 137.03 150.29 176.83 150.29 169.55 75.15 129.76"/><rect class="cls-12" x="26.92" y="223.35" width="15.33" height="25.66"/><path class="cls-13" d="M11.4,241.22v30.41H32V241.22ZM14,269V243.86h6.35V269Zm15.33,0H23V243.86h6.34Z" transform="translate(12.88 -19.98)"/><rect class="cls-12" x="67.48" y="223.35" width="15.33" height="25.66"/><path class="cls-13" d="M52,241.22v30.41H72.57V241.22ZM54.6,269V243.86H61V269Zm15.33,0H63.59V243.86h6.34Z" transform="translate(12.88 -19.98)"/><rect class="cls-12" x="107.89" y="223.35" width="15.33" height="25.66"/><path class="cls-13" d="M92.38,241.22v30.41H113V241.22ZM95,269V243.86h6.35V269Zm15.34,0H104V243.86h6.35Z" transform="translate(12.88 -19.98)"/><rect class="cls-12" x="67.48" y="166.47" width="15.33" height="26.12"/><path class="cls-13" d="M52,184.81v30.41H72.57V184.81Zm2.64,27.76V187.45H61v25.12Zm15.33,0H63.59V187.45h6.34Z" transform="translate(12.88 -19.98)"/><polygon class="cls-25" points="87.96 187.16 62.3 187.16 62.3 195.24 68.68 201.61 97.3 201.61 97.3 196.5 87.96 187.16"/><rect class="cls-5" x="62.3" y="187.16" width="25.66" height="8.08"/><rect class="cls-23" x="52.41" y="266.31" width="45.55" height="6.02"/><rect class="cls-30" x="57.13" y="272.33" width="4.2" height="57.78"/><rect class="cls-31" x="89.04" y="272.33" width="4.19" height="57.78"/><rect class="cls-32" x="63.63" y="272.33" width="23.12" height="57.78"/><rect class="cls-25" x="145.4" y="258.79" width="101.42" height="71.32"/><rect class="cls-28" x="145.4" y="252.8" width="105.62" height="5.98"/><rect class="cls-29" x="145.4" y="219.16" width="105.62" height="33.65"/><rect class="cls-27" x="145.4" y="311.22" width="101.42" height="18.88"/><rect class="cls-30" x="166.59" y="281.74" width="59.03" height="48.37"/><polygon class="cls-31" points="225.62 279.37 170.49 279.37 166.59 279.37 166.59 283.27 166.59 330.13 170.49 330.13 170.49 283.27 225.62 283.27 225.62 279.37"/><rect class="cls-33" x="166.59" y="287.17" width="3.9" height="3.9"/><rect class="cls-29" x="170.49" y="287.17" width="55.13" height="3.9"/><rect class="cls-33" x="166.59" y="294.98" width="3.9" height="3.9"/><rect class="cls-29" x="170.49" y="294.98" width="55.13" height="3.9"/><rect class="cls-33" x="166.59" y="302.79" width="3.9" height="3.9"/><rect class="cls-29" x="170.49" y="302.79" width="55.13" height="3.9"/><rect class="cls-29" x="170.49" y="310.59" width="55.13" height="3.9"/><rect class="cls-33" x="166.59" y="310.59" width="3.9" height="3.9"/><rect class="cls-29" x="170.49" y="318.4" width="55.13" height="3.9"/><rect class="cls-33" x="166.59" y="318.4" width="3.9" height="3.9"/><rect class="cls-29" x="170.49" y="326.2" width="55.13" height="3.9"/><rect class="cls-33" x="166.59" y="326.2" width="3.9" height="3.9"/><rect class="cls-12" x="26.92" y="273.38" width="15.33" height="25.66"/><path class="cls-13" d="M11.4,291.25v30.41H32V291.25ZM14,319V293.89h6.35V319Zm15.33,0H23V293.89h6.34Z" transform="translate(12.88 -19.98)"/><rect class="cls-12" x="107.89" y="273.38" width="15.33" height="25.66"/><path class="cls-13" d="M92.38,291.25v30.41H113V291.25ZM95,319V293.89h6.35V319Zm15.34,0H104V293.89h6.35Z" transform="translate(12.88 -19.98)"/><circle class="cls-34" cx="277.24" cy="108.9" r="49.61"/><circle class="cls-35" cx="277.24" cy="108.9" r="49.61"/><rect class="cls-18" x="264.88" y="90.89" width="21.14" height="41.15"/><rect class="cls-19" x="262.45" y="123.12" width="13" height="8.92"/><rect class="cls-20" x="275.45" y="123.12" width="13" height="8.92"/><g class="cls-36"><path class="cls-37" d="M254.29,154.4l1.4-6.8.89,0,.6,6.78h5.48c.08-3,.1-8.71,0-11.52l-13-.34c-.13,2.24-.2,8.42-.44,11.86Z" transform="translate(12.88 -19.98)"/><path class="cls-37" d="M249.21,154.4c-.52,9.59-1,21.81-1,21.81l-1.94,1.43h3l5-23.24-2.81-.45Z" transform="translate(12.88 -19.98)"/><path class="cls-37" d="M262.66,154.4l-4.05-2.23-1.43,2.23,2.4,23.24h3l-1.72-1.31A213,213,0,0,0,262.66,154.4Z" transform="translate(12.88 -19.98)"/><path class="cls-38" d="M256.18,146.8a.13.13,0,0,1-.11-.09l-.75-2.82a.1.1,0,0,1,.08-.13.11.11,0,0,1,.14.08l.75,2.81a.11.11,0,0,1-.08.14Z" transform="translate(12.88 -19.98)"/><path class="cls-39" d="M262.88,127.39,262,143.51l-12.34-1L248,143.59a40.37,40.37,0,0,1-.52-12.71c.2-1.3.84-4.39,1.1-5.69.13-.7,5.81-3.74,6.84-3.68a13,13,0,0,1,3.11.29,15.41,15.41,0,0,1,5.64,3c.66.81,1.71,11.61,1.48,12.64-.56,2.52-2,7-2,7l-1.7-.86" transform="translate(12.88 -19.98)"/><path class="cls-40" d="M262,143.51s-1.65,1.85-.83,3,2.53-2.13,2.53-2.13A14,14,0,0,0,262,143.51Z" transform="translate(12.88 -19.98)"/><path class="cls-41" d="M250,141.61h0a.11.11,0,0,1-.1-.12c.15-2,.33-3.89.5-5.73.13-1.37.26-2.8.39-4.27.14-1.78.17-5.17-.66-6.57a.11.11,0,0,1,0-.15.1.1,0,0,1,.15,0c.86,1.46.84,4.9.69,6.71-.13,1.47-.26,2.9-.39,4.27-.17,1.84-.35,3.74-.5,5.73A.11.11,0,0,1,250,141.61Z" transform="translate(12.88 -19.98)"/><path class="cls-40" d="M254.5,119.14v2.61s2.1,2.22,4,0l-.17-2.66Z" transform="translate(12.88 -19.98)"/><path class="cls-40" d="M259.64,117.32l-.21-.06c.29-1.9.17-4.25-2.94-4.16-1.85.06-2.4,1.75-2.52,3.53a.54.54,0,0,0-.42,0c-.64.19-.2,1.8.47,2,.24,1.63,1.1,2.67,2.33,2.76s2-.8,2.56-2.13C259.6,119.14,260.25,117.6,259.64,117.32Z" transform="translate(12.88 -19.98)"/><path class="cls-42" d="M256.5,121.54h-.16a2.27,2.27,0,0,1-1.64-.88.11.11,0,1,1,.17-.14,2.1,2.1,0,0,0,1.49.8,2,2,0,0,0,1.64-.72.11.11,0,1,1,.16.15A2.24,2.24,0,0,1,256.5,121.54Z" transform="translate(12.88 -19.98)"/><path class="cls-40" d="M248,143.59s1.69,3.3,2.27,1.8a3,3,0,0,0-.62-2.85h0Z" transform="translate(12.88 -19.98)"/><path class="cls-43" d="M254,116.63l.39.64h.42v-1.09a2.26,2.26,0,0,0,.59-1.15l3.16.23s-.1.78.15,1.08v1.26h.39l.36-.34s.76-2.78.45-3.48a.74.74,0,0,0-.95-.44,2.56,2.56,0,0,0-2.5-.81,4.68,4.68,0,0,0-2.85,1.92A4.93,4.93,0,0,0,254,116.63Z" transform="translate(12.88 -19.98)"/><path class="cls-40" d="M262,143.51s-1.65,1.85-.83,3,2.53-2.13,2.53-2.13A14,14,0,0,0,262,143.51Z" transform="translate(12.88 -19.98)"/><path class="cls-41" d="M262.42,143.68a6.62,6.62,0,0,1-1-.31c0-.06,1.43-18,1.49-18.26A.11.11,0,0,1,263,125a.11.11,0,0,1,.09.13C263,125.42,262.43,143.68,262.42,143.68Z" transform="translate(12.88 -19.98)"/></g><path class="cls-41" d="M263.09,143.11h-.86s.58-17.73.64-18A.11.11,0,0,1,263,125a.11.11,0,0,1,.09.13C263,125.42,263.09,143.11,263.09,143.11Z" transform="translate(12.88 -19.98)"/><rect class="cls-44" x="167.59" y="66.9" width="89.22" height="31.18" rx="12.42" ry="12.42"/><path class="cls-45" d="M186.05,104.08a4.16,4.16,0,0,1-.39,1.85,3.86,3.86,0,0,1-1.07,1.33,4.48,4.48,0,0,1-1.57.8,6.65,6.65,0,0,1-1.92.27,7.3,7.3,0,0,1-1.29-.11,7.17,7.17,0,0,1-1.05-.28,4.3,4.3,0,0,1-.76-.33,2.12,2.12,0,0,1-.44-.31.72.72,0,0,1-.19-.39,3.36,3.36,0,0,1-.06-.73,4.19,4.19,0,0,1,0-.54,1.44,1.44,0,0,1,.07-.35.35.35,0,0,1,.12-.19.28.28,0,0,1,.18-.06.9.9,0,0,1,.41.17c.18.11.4.24.68.38a6.06,6.06,0,0,0,1,.38,4.78,4.78,0,0,0,1.33.17A3.09,3.09,0,0,0,182,106a1.87,1.87,0,0,0,.66-.34,1.24,1.24,0,0,0,.42-.54,1.64,1.64,0,0,0,.15-.71,1.23,1.23,0,0,0-.25-.78,2.45,2.45,0,0,0-.65-.58,6.27,6.27,0,0,0-.9-.48l-1.05-.47a8,8,0,0,1-1-.56,4.13,4.13,0,0,1-.91-.76,3.75,3.75,0,0,1-.65-1,3.88,3.88,0,0,1-.24-1.44,3.92,3.92,0,0,1,.35-1.69,3.4,3.4,0,0,1,1-1.21,4.14,4.14,0,0,1,1.42-.72,6.22,6.22,0,0,1,1.75-.24,6.09,6.09,0,0,1,.95.08,5.82,5.82,0,0,1,.89.19,5.22,5.22,0,0,1,.74.28,2,2,0,0,1,.42.26.89.89,0,0,1,.14.18,1.08,1.08,0,0,1,.06.19,2,2,0,0,1,0,.3c0,.12,0,.27,0,.45s0,.37,0,.51a2.49,2.49,0,0,1,0,.34.38.38,0,0,1-.1.19.29.29,0,0,1-.18.07.87.87,0,0,1-.37-.15c-.16-.1-.37-.2-.61-.32a7.19,7.19,0,0,0-.84-.31,3.74,3.74,0,0,0-1-.14,2.57,2.57,0,0,0-.78.11,1.91,1.91,0,0,0-.55.3,1.15,1.15,0,0,0-.33.46,1.56,1.56,0,0,0-.11.57,1.24,1.24,0,0,0,.24.77,2.31,2.31,0,0,0,.65.58,8.06,8.06,0,0,0,.93.48c.35.15.7.3,1.06.47a10.57,10.57,0,0,1,1,.56,4.54,4.54,0,0,1,.92.76,3.64,3.64,0,0,1,.66,1A3.78,3.78,0,0,1,186.05,104.08Z" transform="translate(12.88 -19.98)"/><path class="cls-45" d="M193.44,106.83a4,4,0,0,1-.05.7.83.83,0,0,1-.15.34,1,1,0,0,1-.28.18,3,3,0,0,1-.42.13,4.18,4.18,0,0,1-.53.09,5.44,5.44,0,0,1-.57,0,4.17,4.17,0,0,1-1.35-.2,2.24,2.24,0,0,1-.94-.6,2.55,2.55,0,0,1-.55-1,5.38,5.38,0,0,1-.18-1.47v-4.73h-1.1a.31.31,0,0,1-.3-.24,2.29,2.29,0,0,1-.11-.82,3.43,3.43,0,0,1,0-.5,1.14,1.14,0,0,1,.08-.33.29.29,0,0,1,.13-.17.35.35,0,0,1,.18,0h1.09V96.1a.33.33,0,0,1,.06-.19.51.51,0,0,1,.21-.14,1.65,1.65,0,0,1,.4-.08,6.63,6.63,0,0,1,1.26,0,1.55,1.55,0,0,1,.4.08.51.51,0,0,1,.21.14.33.33,0,0,1,.06.19v2.06h2a.35.35,0,0,1,.18,0,.4.4,0,0,1,.13.17,1.59,1.59,0,0,1,.08.33c0,.13,0,.3,0,.5a2.34,2.34,0,0,1-.1.82.33.33,0,0,1-.3.24h-2v4.34a2.13,2.13,0,0,0,.24,1.13.93.93,0,0,0,.85.38,2,2,0,0,0,.37,0l.3-.08.21-.09.16,0,.12,0a.27.27,0,0,1,.09.15,2.84,2.84,0,0,1,.06.29C193.43,106.48,193.44,106.64,193.44,106.83Z" transform="translate(12.88 -19.98)"/><path class="cls-45" d="M203,107.77a.28.28,0,0,1-.1.23.74.74,0,0,1-.32.12,7.5,7.5,0,0,1-1.34,0,.6.6,0,0,1-.3-.12.3.3,0,0,1-.09-.23V107a4.31,4.31,0,0,1-1.3.95,3.7,3.7,0,0,1-1.62.34,4.45,4.45,0,0,1-1.35-.19,3.09,3.09,0,0,1-1.06-.57,2.45,2.45,0,0,1-.7-.94,3.08,3.08,0,0,1-.25-1.3,2.92,2.92,0,0,1,.32-1.4,2.54,2.54,0,0,1,.94-1,4.67,4.67,0,0,1,1.56-.57,11.41,11.41,0,0,1,2.16-.19h.9v-.56a2.88,2.88,0,0,0-.09-.76,1.28,1.28,0,0,0-.29-.54,1.2,1.2,0,0,0-.54-.32,2.81,2.81,0,0,0-.83-.1,4.1,4.1,0,0,0-1.16.14,6.35,6.35,0,0,0-.91.32l-.66.32a.92.92,0,0,1-.43.15.37.37,0,0,1-.2-.07.46.46,0,0,1-.14-.21,1.31,1.31,0,0,1-.09-.33,2.94,2.94,0,0,1,0-.44,1.71,1.71,0,0,1,.05-.5.7.7,0,0,1,.2-.34,1.77,1.77,0,0,1,.5-.33,5.78,5.78,0,0,1,.85-.34,7.5,7.5,0,0,1,1.06-.25,6.67,6.67,0,0,1,1.19-.1,7.09,7.09,0,0,1,1.85.21,3.12,3.12,0,0,1,1.27.65,2.7,2.7,0,0,1,.73,1.14,5.34,5.34,0,0,1,.22,1.64Zm-2.55-4h-1a5.45,5.45,0,0,0-1.08.09,2.14,2.14,0,0,0-.73.28,1.21,1.21,0,0,0-.4.45,1.33,1.33,0,0,0-.13.61,1.18,1.18,0,0,0,.36.91,1.49,1.49,0,0,0,1,.33,1.88,1.88,0,0,0,1-.28,4.27,4.27,0,0,0,.94-.82Z" transform="translate(12.88 -19.98)"/><path class="cls-45" d="M214.4,98.16a.8.8,0,0,1,.6.18.77.77,0,0,1,.18.54v8.86a.29.29,0,0,1-.07.18.44.44,0,0,1-.2.13,1.65,1.65,0,0,1-.4.08,5.83,5.83,0,0,1-.63,0,5.74,5.74,0,0,1-.63,0,1.55,1.55,0,0,1-.4-.08.42.42,0,0,1-.21-.13.28.28,0,0,1-.06-.18v-7.47h-4.15v4.34a2.13,2.13,0,0,0,.24,1.13.91.91,0,0,0,.84.38,2.11,2.11,0,0,0,.38,0,1.71,1.71,0,0,0,.29-.08l.22-.09.16,0,.12,0a.27.27,0,0,1,.09.15,1.55,1.55,0,0,1,0,.29,3.23,3.23,0,0,1,0,.48,3.9,3.9,0,0,1,0,.69.77.77,0,0,1-.15.34.8.8,0,0,1-.28.19,2.79,2.79,0,0,1-.43.13,3.74,3.74,0,0,1-.52.09,5.63,5.63,0,0,1-.58,0,4.11,4.11,0,0,1-1.34-.2,2.18,2.18,0,0,1-.94-.6,2.43,2.43,0,0,1-.55-1,5.38,5.38,0,0,1-.18-1.47v-4.73h-1.11a.33.33,0,0,1-.3-.24,2.34,2.34,0,0,1-.1-.82,3.43,3.43,0,0,1,0-.5,1.17,1.17,0,0,1,.07-.33.4.4,0,0,1,.13-.17.35.35,0,0,1,.18,0h1.1V96.1a.33.33,0,0,1,.06-.19.47.47,0,0,1,.2-.14,1.74,1.74,0,0,1,.41-.08,5.46,5.46,0,0,1,.62,0,5.6,5.6,0,0,1,.64,0,1.65,1.65,0,0,1,.4.08.7.7,0,0,1,.21.14.33.33,0,0,1,.06.19v2.06Zm1-2.78a1.43,1.43,0,0,1-.32,1.09,2.53,2.53,0,0,1-2.37,0,1.38,1.38,0,0,1-.31-1,1.52,1.52,0,0,1,.32-1.1,2.53,2.53,0,0,1,2.37,0A1.42,1.42,0,0,1,215.38,95.38Z" transform="translate(12.88 -19.98)"/><path class="cls-45" d="M224.78,106.27c0,.18,0,.33,0,.45a2.36,2.36,0,0,1,0,.31,1.67,1.67,0,0,1-.06.2.76.76,0,0,1-.16.2,3,3,0,0,1-.42.28,3.67,3.67,0,0,1-.69.31,5.88,5.88,0,0,1-.83.22,5.64,5.64,0,0,1-.93.08,5.06,5.06,0,0,1-1.89-.33,3.67,3.67,0,0,1-1.38-1,4.34,4.34,0,0,1-.84-1.58,7.28,7.28,0,0,1-.28-2.13,7.41,7.41,0,0,1,.34-2.39,4.67,4.67,0,0,1,1-1.68,3.77,3.77,0,0,1,1.47-1,5.3,5.3,0,0,1,1.86-.32,4.28,4.28,0,0,1,.81.07,5.11,5.11,0,0,1,.75.2,3.22,3.22,0,0,1,.62.28,1.82,1.82,0,0,1,.39.27,1.15,1.15,0,0,1,.16.19.77.77,0,0,1,.07.2,2.15,2.15,0,0,1,0,.31c0,.12,0,.26,0,.44a2.3,2.3,0,0,1-.11.84c-.07.16-.15.24-.26.24a.69.69,0,0,1-.38-.14,5.13,5.13,0,0,0-.46-.32,3.18,3.18,0,0,0-.64-.32A2.4,2.4,0,0,0,222,100a1.78,1.78,0,0,0-1.56.78,4,4,0,0,0-.53,2.29,5.78,5.78,0,0,0,.13,1.32,2.67,2.67,0,0,0,.4.95,1.6,1.6,0,0,0,.66.58,2.23,2.23,0,0,0,.93.19A2.56,2.56,0,0,0,223,106a3.91,3.91,0,0,0,.68-.36c.19-.13.36-.25.49-.36a.62.62,0,0,1,.33-.16.25.25,0,0,1,.15,0,.37.37,0,0,1,.1.2,2.28,2.28,0,0,1,.06.35C224.77,105.86,224.78,106,224.78,106.27Z" transform="translate(12.88 -19.98)"/></g><g id="Marine"><path class="cls-46" d="M424.27,441.34c.33,1.79,18.79,17.13,47.68,18.54,22.59,1.1,81.83,3.42,131.83-.21V441.34Z" transform="translate(12.88 -19.98)"/><circle class="cls-34" cx="460.42" cy="385.13" r="70.87"/><path class="cls-47" d="M603.78,427.69H556.92l-28.45-16.47H386.89l37.35,29.95s18,17.22,48.7,18.71c22.57,1.1,81.16,3.42,130.84-.19Z" transform="translate(12.88 -19.98)"/><rect class="cls-48" x="491.19" y="373.28" width="49.56" height="17.97"/><rect class="cls-48" x="487.07" y="364.67" width="58.4" height="8.61"/><rect class="cls-47" x="491.92" y="346.88" width="16.47" height="17.59"/><rect class="cls-49" x="465.66" y="376.03" width="15.47" height="8.65"/><rect class="cls-49" x="436.71" y="378.89" width="28.94" height="2.93"/><rect class="cls-49" x="470.15" y="381.38" width="6.98" height="9.86"/><rect class="cls-49" x="445.42" y="384.68" width="4.49" height="6.57"/><rect class="cls-49" x="432.69" y="387.96" width="5.99" height="3.28"/><rect class="cls-48" x="533.4" y="357.18" width="4.12" height="7.49"/><rect class="cls-48" x="528.16" y="354.18" width="14.98" height="2.99"/><rect class="cls-46" x="491.92" y="346.88" width="16.47" height="6.37"/><rect class="cls-50" x="487.07" y="368.97" width="58.4" height="4.3"/><path class="cls-51" d="M410.39,420a4.24,4.24,0,1,0,4.23-4.24A4.23,4.23,0,0,0,410.39,420Z" transform="translate(12.88 -19.98)"/><path class="cls-49" d="M435.62,430.59a2.69,2.69,0,1,0,2.69-2.69A2.68,2.68,0,0,0,435.62,430.59Z" transform="translate(12.88 -19.98)"/><path class="cls-49" d="M444.67,430.59a2.69,2.69,0,1,0,2.68-2.69A2.68,2.68,0,0,0,444.67,430.59Z" transform="translate(12.88 -19.98)"/><path class="cls-49" d="M484.6,430.59a2.68,2.68,0,1,0,2.68-2.69A2.68,2.68,0,0,0,484.6,430.59Z" transform="translate(12.88 -19.98)"/><path class="cls-49" d="M493.64,430.59a2.69,2.69,0,1,0,2.69-2.69A2.69,2.69,0,0,0,493.64,430.59Z" transform="translate(12.88 -19.98)"/><path class="cls-49" d="M533.57,430.59a2.69,2.69,0,1,0,2.69-2.69A2.68,2.68,0,0,0,533.57,430.59Z" transform="translate(12.88 -19.98)"/><path class="cls-49" d="M542.62,430.59a2.68,2.68,0,1,0,2.68-2.69A2.68,2.68,0,0,0,542.62,430.59Z" transform="translate(12.88 -19.98)"/><path class="cls-1" d="M454.93,438c0,.41,0,.82-.06,1.22h.1C454.94,438.82,454.93,438.41,454.93,438Z" transform="translate(12.88 -19.98)"/><path class="cls-1" d="M517,440.13s0,.09,0,.14h0Z" transform="translate(12.88 -19.98)"/><path class="cls-1" d="M430.44,438c0,.27,0,.54,0,.81h.09C430.47,438.55,430.44,438.28,430.44,438Z" transform="translate(12.88 -19.98)"/><path class="cls-1" d="M406,438H406c0,.13,0,.27,0,.4h0C406,438.28,406,438.14,406,438Z" transform="translate(12.88 -19.98)"/><path class="cls-6" d="M603.78,445.83a7.65,7.65,0,0,1-.7-3.21h-.25a7.68,7.68,0,0,1-15.36,0,7.68,7.68,0,1,1-15.35,0v-.79a9.27,9.27,0,1,1-18.53,0,9.27,9.27,0,1,1-18.53,0,9.27,9.27,0,0,1-9.26,9.27c-7.36,0-8.77-5.75-8.8-10.83h0a10.34,10.34,0,0,1-20.67-.14,10.34,10.34,0,0,1-20.68,0,10.33,10.33,0,0,1-10.34,10.33c-7.53,0-10-5.82-10.33-11.23h-.1a12.23,12.23,0,0,1-24.38-.41h-.09a12.23,12.23,0,0,1-24.4,0,12.23,12.23,0,0,1-24.44-.82v42H603.78Z" transform="translate(12.88 -19.98)"/><path class="cls-52" d="M406,438.42h0c0,.14,0,.28,0,.42C406,438.69,406,438.55,406,438.42Z" transform="translate(12.88 -19.98)"/><path class="cls-7" d="M603.78,443.71a6.58,6.58,0,0,1-.08-1.09h0a.61.61,0,0,0-.61-.62h-.26a.63.63,0,0,0-.63.62h0a7,7,0,0,1-7.05,7,6.95,6.95,0,0,1-6.92-7h0a.76.76,0,0,0-1.51,0,6.91,6.91,0,0,1-7.28,6.86,6.89,6.89,0,0,1-6.17-4.82l-.17-.67-.1-.69,0-.69v-.78h0a.86.86,0,1,0-1.71,0,8.36,8.36,0,0,1-8.41,8.35,8.33,8.33,0,0,1-8.29-8.35h0a1,1,0,0,0-1-1,1,1,0,0,0-1,1h0a8.24,8.24,0,0,1-14.08,5.8,8.19,8.19,0,0,1-2.37-5.8h0a1.1,1.1,0,0,0-2.19,0h0a8.16,8.16,0,0,1-8.87,8.07,7.89,7.89,0,0,1-3.21-.81,5.77,5.77,0,0,1-2.26-2.18,13.4,13.4,0,0,1-1.41-6.78h0a1.23,1.23,0,0,0-2.45,0h0a9,9,0,0,1-15.47,6.35,9,9,0,0,1-2.59-6.35h0a1.39,1.39,0,1,0-2.78,0v0a8.9,8.9,0,0,1-15.2,6.24,8.85,8.85,0,0,1-2.56-6.24v0a1.53,1.53,0,0,0-3.06,0h0a8.84,8.84,0,0,1-9.74,8.73,8.69,8.69,0,0,1-3.5-1,7.12,7.12,0,0,1-2.56-2.44,14,14,0,0,1-1.87-7.44h0a1.51,1.51,0,0,0-3,0A10.84,10.84,0,0,1,435,445.73,11,11,0,0,1,431.7,438v0h0a1.26,1.26,0,1,0-2.51,0,11.05,11.05,0,0,1-3.17,7.82,11.2,11.2,0,0,1-15.8.16,11.41,11.41,0,0,1-3.38-7.32c0-.22,0-.44,0-.66a.82.82,0,0,0-.82-.83H406a.83.83,0,0,0-.83.81v0a11,11,0,0,0,0,1.15,11.48,11.48,0,0,1-3.21,7,11.62,11.62,0,0,1-8.16,3.55,11.82,11.82,0,0,1-8.4-3.3,12.13,12.13,0,0,1-3.69-8.4.15.15,0,0,0-.14-.15.15.15,0,0,0-.16.15,12.47,12.47,0,0,0,3.48,8.91,12.77,12.77,0,0,0,21.05-4.26,13.09,13.09,0,0,0,2.93,4.68,13.27,13.27,0,0,0,21.53-3.7,13.41,13.41,0,0,0,2.69,4,13.63,13.63,0,0,0,19.29.1,13.15,13.15,0,0,0,2.21-2.87,14.27,14.27,0,0,0,1.14,2.28,10.35,10.35,0,0,0,3.64,3.47,11.67,11.67,0,0,0,4.75,1.37,11.84,11.84,0,0,0,11.54-6,11.62,11.62,0,0,0,1.95,2.57,11.78,11.78,0,0,0,18.74-2.83,11.53,11.53,0,0,0,2,2.72A11.58,11.58,0,0,0,516.63,446a12.14,12.14,0,0,0,1,2.12,8.14,8.14,0,0,0,3.21,3,10,10,0,0,0,4.16,1,10.34,10.34,0,0,0,10.12-5.78,10.19,10.19,0,0,0,1.94,2.7,10.3,10.3,0,0,0,14.57,0,10.22,10.22,0,0,0,2-2.93,10,10,0,0,0,2,2.89,10.14,10.14,0,0,0,16.4-2.94,8.26,8.26,0,0,0,1.31,2,8.46,8.46,0,0,0,12.27.6,8.34,8.34,0,0,0,1.88-2.67,8.34,8.34,0,0,0,15.48-.66,8.8,8.8,0,0,0,.8,1.63Z" transform="translate(12.88 -19.98)"/><circle class="cls-35" cx="460.42" cy="385.13" r="70.87"/><rect class="cls-44" x="362.61" y="334.98" width="105.13" height="31.18" rx="12.42" ry="12.42"/><path class="cls-45" d="M387.84,375.8a.33.33,0,0,1-.06.19.39.39,0,0,1-.2.13,2.42,2.42,0,0,1-.4.09,5.53,5.53,0,0,1-.63,0,5.22,5.22,0,0,1-.62,0,2.2,2.2,0,0,1-.4-.09.44.44,0,0,1-.2-.13.28.28,0,0,1-.07-.19V364.9h0l-3.88,10.89a.48.48,0,0,1-.13.22.59.59,0,0,1-.26.14,1.38,1.38,0,0,1-.41.07l-.6,0a5.21,5.21,0,0,1-.6,0,1.76,1.76,0,0,1-.4-.08.89.89,0,0,1-.26-.14.41.41,0,0,1-.12-.2l-3.75-10.89h0v10.9a.33.33,0,0,1-.06.19.35.35,0,0,1-.21.13,2.2,2.2,0,0,1-.4.09,6.42,6.42,0,0,1-1.24,0,2.2,2.2,0,0,1-.4-.09.42.42,0,0,1-.21-.13.33.33,0,0,1-.06-.19V363.87a1.14,1.14,0,0,1,.28-.81,1.05,1.05,0,0,1,.75-.28H375a3.86,3.86,0,0,1,.82.08,1.66,1.66,0,0,1,.59.26,1.56,1.56,0,0,1,.41.47,3.36,3.36,0,0,1,.29.73l2.9,8h0l3-7.95a5,5,0,0,1,.29-.74,1.93,1.93,0,0,1,.38-.49,1.26,1.26,0,0,1,.5-.26,2.67,2.67,0,0,1,.67-.08h1.83a1.75,1.75,0,0,1,.49.07.83.83,0,0,1,.33.22.86.86,0,0,1,.19.34,1.31,1.31,0,0,1,.07.46Z" transform="translate(12.88 -19.98)"/><path class="cls-45" d="M398.47,375.85a.27.27,0,0,1-.11.23.56.56,0,0,1-.32.12,5.63,5.63,0,0,1-1.34,0,.52.52,0,0,1-.3-.12.28.28,0,0,1-.08-.23v-.73a4.27,4.27,0,0,1-1.3.95,3.76,3.76,0,0,1-1.62.34,4.45,4.45,0,0,1-1.35-.19,3.14,3.14,0,0,1-1.07-.57,2.55,2.55,0,0,1-.7-.94,3.24,3.24,0,0,1-.25-1.3,3,3,0,0,1,.32-1.4,2.45,2.45,0,0,1,.94-1,4.84,4.84,0,0,1,1.56-.58,11.41,11.41,0,0,1,2.16-.19h.9v-.55a2.83,2.83,0,0,0-.09-.76,1.26,1.26,0,0,0-.29-.55,1.22,1.22,0,0,0-.53-.32,2.93,2.93,0,0,0-.84-.1,4.55,4.55,0,0,0-1.16.14,8.6,8.6,0,0,0-.91.32l-.65.32a1,1,0,0,1-.43.15.27.27,0,0,1-.2-.07.57.57,0,0,1-.15-.21,1.31,1.31,0,0,1-.09-.33,2.94,2.94,0,0,1,0-.44,2.14,2.14,0,0,1,0-.5.79.79,0,0,1,.2-.34,1.86,1.86,0,0,1,.51-.33,6.52,6.52,0,0,1,.85-.34,8.73,8.73,0,0,1,1.06-.25,6.48,6.48,0,0,1,1.18-.1,7.17,7.17,0,0,1,1.86.21,3.19,3.19,0,0,1,1.27.66,2.51,2.51,0,0,1,.72,1.13,5.32,5.32,0,0,1,.23,1.64Zm-2.56-4h-1a5.59,5.59,0,0,0-1.08.09,2.21,2.21,0,0,0-.72.28,1.16,1.16,0,0,0-.41.45,1.33,1.33,0,0,0-.13.61,1.16,1.16,0,0,0,.37.91,1.46,1.46,0,0,0,1,.33,1.9,1.9,0,0,0,1-.28,4.48,4.48,0,0,0,.93-.82Z" transform="translate(12.88 -19.98)"/><path class="cls-45" d="M407,367.45c0,.25,0,.45,0,.61a2,2,0,0,1-.07.37.34.34,0,0,1-.11.19.29.29,0,0,1-.17.05.45.45,0,0,1-.18,0l-.24-.07-.28-.08a1.76,1.76,0,0,0-.34,0,1.15,1.15,0,0,0-.44.09,1.91,1.91,0,0,0-.45.28,3.75,3.75,0,0,0-.48.49c-.17.21-.35.47-.55.77v5.75a.28.28,0,0,1-.06.18.36.36,0,0,1-.21.13,1.65,1.65,0,0,1-.4.08,5.41,5.41,0,0,1-.63,0,5.29,5.29,0,0,1-.63,0,1.65,1.65,0,0,1-.4-.08.36.36,0,0,1-.21-.13.28.28,0,0,1-.06-.18v-9.23a.27.27,0,0,1,.05-.18.38.38,0,0,1,.18-.13,2,2,0,0,1,.35-.08l.53,0,.55,0a1.55,1.55,0,0,1,.34.08.48.48,0,0,1,.17.13.35.35,0,0,1,.05.18v1.15a7.63,7.63,0,0,1,.68-.85,4,4,0,0,1,.61-.54,2,2,0,0,1,.58-.27,2.38,2.38,0,0,1,.58-.08l.29,0,.32.05a1.71,1.71,0,0,1,.29.08.65.65,0,0,1,.19.1.44.44,0,0,1,.08.11,1.46,1.46,0,0,1,0,.17,2.11,2.11,0,0,1,0,.33C407,367,407,367.2,407,367.45Z" transform="translate(12.88 -19.98)"/><path class="cls-45" d="M411.4,363.47a1.42,1.42,0,0,1-.32,1.08,1.76,1.76,0,0,1-1.19.3,1.72,1.72,0,0,1-1.18-.29,1.38,1.38,0,0,1-.31-1,1.48,1.48,0,0,1,.32-1.09,2.45,2.45,0,0,1,2.37,0A1.39,1.39,0,0,1,411.4,363.47Zm-.19,12.35a.28.28,0,0,1-.06.18.43.43,0,0,1-.22.13,1.66,1.66,0,0,1-.39.08,5.6,5.6,0,0,1-.64,0,5.53,5.53,0,0,1-.63,0,1.76,1.76,0,0,1-.4-.08.36.36,0,0,1-.21-.13.28.28,0,0,1-.06-.18v-9.21a.28.28,0,0,1,.06-.18.42.42,0,0,1,.21-.13,1.7,1.7,0,0,1,.4-.09,5.53,5.53,0,0,1,.63,0,5.6,5.6,0,0,1,.64,0,1.61,1.61,0,0,1,.39.09.51.51,0,0,1,.22.13.28.28,0,0,1,.06.18Z" transform="translate(12.88 -19.98)"/><path class="cls-45" d="M422.62,375.82a.28.28,0,0,1-.06.18.36.36,0,0,1-.21.13,1.55,1.55,0,0,1-.39.08,5.53,5.53,0,0,1-.63,0,5.6,5.6,0,0,1-.64,0,1.65,1.65,0,0,1-.4-.08.37.37,0,0,1-.2-.13.28.28,0,0,1-.06-.18v-5.27a4.77,4.77,0,0,0-.1-1.05,2.1,2.1,0,0,0-.29-.66,1.22,1.22,0,0,0-.48-.42,1.52,1.52,0,0,0-.69-.15,1.73,1.73,0,0,0-1,.36,5.28,5.28,0,0,0-1.06,1.06v6.13a.28.28,0,0,1-.06.18.36.36,0,0,1-.21.13,1.65,1.65,0,0,1-.4.08,5.41,5.41,0,0,1-.63,0,5.29,5.29,0,0,1-.63,0,1.65,1.65,0,0,1-.4-.08.36.36,0,0,1-.21-.13.28.28,0,0,1-.06-.18v-9.23a.27.27,0,0,1,.05-.18.38.38,0,0,1,.18-.13,2,2,0,0,1,.35-.08l.53,0,.55,0a1.55,1.55,0,0,1,.34.08.48.48,0,0,1,.17.13.35.35,0,0,1,0,.18v1.07a5.74,5.74,0,0,1,1.56-1.24,3.49,3.49,0,0,1,1.65-.42,3.61,3.61,0,0,1,1.59.31,2.8,2.8,0,0,1,1,.84,3.5,3.5,0,0,1,.58,1.25,7.75,7.75,0,0,1,.17,1.72Z" transform="translate(12.88 -19.98)"/><path class="cls-45" d="M433.71,370.94a1,1,0,0,1-.22.7.75.75,0,0,1-.58.23h-5.62a4,4,0,0,0,.14,1.07,1.87,1.87,0,0,0,1.23,1.33,3.33,3.33,0,0,0,1.16.18,7.09,7.09,0,0,0,1.2-.1,8.91,8.91,0,0,0,.89-.22c.25-.08.46-.15.63-.22a1.28,1.28,0,0,1,.4-.1.42.42,0,0,1,.16,0,.34.34,0,0,1,.1.13.77.77,0,0,1,.06.26c0,.12,0,.26,0,.43s0,.29,0,.39,0,.2,0,.28a.53.53,0,0,1-.06.19l-.11.15a1.29,1.29,0,0,1-.37.19,4.83,4.83,0,0,1-.76.25,8.56,8.56,0,0,1-1.07.2,8.67,8.67,0,0,1-1.28.09,6.74,6.74,0,0,1-2.16-.31,3.68,3.68,0,0,1-2.47-2.53,8.12,8.12,0,0,1,0-4.48,4.87,4.87,0,0,1,.93-1.68,4.19,4.19,0,0,1,1.49-1.05,5.75,5.75,0,0,1,3.95,0,3.62,3.62,0,0,1,1.35,1,3.89,3.89,0,0,1,.78,1.43,6.52,6.52,0,0,1,.25,1.8Zm-2.53-.75a2.7,2.7,0,0,0-.44-1.72,1.69,1.69,0,0,0-1.45-.63,2,2,0,0,0-.87.19,1.75,1.75,0,0,0-.61.5,2.39,2.39,0,0,0-.37.75,3.33,3.33,0,0,0-.15.91Z" transform="translate(12.88 -19.98)"/><path class="cls-7" d="M205.37,455.9c3.22-.23,6.44-.35,9.66-.53l9.66-.37c6.45-.23,12.89-.34,19.33-.45,12.88-.2,25.77.14,38.65.3l38.66.45,38.65.6v.3l-38.65.6-38.66.45c-12.88.16-25.77.5-38.65.3-6.44-.11-12.88-.22-19.33-.45l-9.66-.37c-3.22-.18-6.44-.3-9.66-.53Z" transform="translate(12.88 -19.98)"/><path class="cls-7" d="M8.4,516.79c4.44-.23,8.87-.35,13.31-.54L35,515.89c8.88-.23,17.76-.34,26.63-.45,17.75-.2,35.5.14,53.25.3l53.25.45,53.26.6v.3l-53.26.6-53.25.45c-17.75.16-35.5.5-53.25.3-8.87-.11-17.75-.22-26.63-.46l-13.31-.36c-4.44-.18-8.87-.3-13.31-.53Z" transform="translate(12.88 -19.98)"/><path class="cls-7" d="M425.65,515.62c11.91-.82,23.83-1.15,35.74-1.35s23.82.17,35.73.3l35.73.45,35.74.6v.3l-35.74.6-35.73.45c-11.91.13-23.82.52-35.73.3s-23.83-.52-35.74-1.35Z" transform="translate(12.88 -19.98)"/><path class="cls-7" d="M15.22,470.42c11.91-.83,23.82-1.15,35.73-1.35s23.82.17,35.74.3l35.73.45,35.73.6v.3l-35.73.6-35.73.45c-11.92.13-23.83.52-35.74.3s-23.82-.53-35.73-1.35Z" transform="translate(12.88 -19.98)"/><polygon class="cls-7" points="4.59 425.17 17.26 425.32 55.91 425.92 55.91 426.22 17.26 426.82 4.59 426.96 4.59 425.17"/><circle class="cls-34" cx="458.23" cy="176.05" r="49.61"/><circle class="cls-35" cx="458.23" cy="176.05" r="49.61"/><path class="cls-53" d="M431.91,201.18a56.47,56.47,0,0,1-5.53-3.59c-.12-.25.08-.36.56-.62a8.76,8.76,0,0,1,2.43-1.13,6.33,6.33,0,0,1,1.25.15c-.52.31-1.49.73-1.42,1.23a12.61,12.61,0,0,0,1.8,2.85C431.16,200.27,431.5,200.69,431.91,201.18Z" transform="translate(12.88 -19.98)"/><path class="cls-54" d="M459.42,184.85l-1.32.81c-4.6,2.83-19.65,12.1-19.77,12.2a1.48,1.48,0,0,1-1.13.13l-.12,0a17.63,17.63,0,0,0-2.5-1l-1.43-.41c-.94-.25-1.84-.44-2.53-.57a6.33,6.33,0,0,0-1.25-.15,8.76,8.76,0,0,0-2.43,1.13l24.53-14.92s.35-.21.88-.47a7.64,7.64,0,0,1,3.3-1C457.12,180.77,459.42,184.85,459.42,184.85Z" transform="translate(12.88 -19.98)"/><path class="cls-55" d="M438.7,202.4a.81.81,0,0,1-.27.35h0a16,16,0,0,1-2.21,1.18c-1.38.71-1.83.17-1.83.17l-2.47-2.93c-.41-.49-.75-.91-.91-1.11a12.61,12.61,0,0,1-1.8-2.85c-.07-.5.9-.92,1.42-1.23.69.13,1.59.32,2.53.57a1.39,1.39,0,0,0-.6.21c-.9.59-.89,2.2,0,3.6s2.38,2,3.28,1.47.88-2.2,0-3.6a4.59,4.59,0,0,0-1.25-1.27,17.63,17.63,0,0,1,2.5,1l.12,0s.57,1.12,1.17,2.43S438.83,201.89,438.7,202.4Z" transform="translate(12.88 -19.98)"/><path class="cls-54" d="M459.42,189.7l-6.55,4.07-3.77,2.35-10.67,6.63a.81.81,0,0,0,.27-.35c.13-.51.27-.67-.33-2S437.2,198,437.2,198a1.48,1.48,0,0,0,1.13-.13c.12-.1,15.17-9.37,19.77-12.2a10.72,10.72,0,0,0,.64,1.25c.21.39.43.8.6,1.18C459.67,188.81,459.82,189.45,459.42,189.7Z" transform="translate(12.88 -19.98)"/><rect class="cls-54" x="464.1" y="175.74" width="7.21" height="11.36" rx="0.71" ry="0.71"/><path class="cls-56" d="M435.86,201.84c-.9.58-2.37-.07-3.28-1.47s-.93-3,0-3.6a1.39,1.39,0,0,1,.6-.21l1.43.41a4.59,4.59,0,0,1,1.25,1.27C436.74,199.64,436.75,201.25,435.86,201.84Z" transform="translate(12.88 -19.98)"/><path class="cls-54" d="M458,192.71v5.63a2.28,2.28,0,0,1-2.27,2.28,2.25,2.25,0,0,1-1.6-.67,2,2,0,0,1-.37-.49,2.23,2.23,0,0,1-.3-1.12v-5l3.78-2.35.1.09A2.27,2.27,0,0,1,458,192.71Z" transform="translate(12.88 -19.98)"/><path class="cls-13" d="M433.43,198.41c.16.42.06.85-.23,1s-.66-.13-.82-.54-.06-.84.23-1S433.26,198,433.43,198.41Z" transform="translate(12.88 -19.98)"/><path class="cls-55" d="M453,202.48a3.75,3.75,0,0,0,2.43.54,2.18,2.18,0,0,0,2.08-1.16c.29-.8-.26-1.51.21-2.4a2.27,2.27,0,0,1-2,1.16,2.28,2.28,0,0,1-2.27-2.28v-.48a22.39,22.39,0,0,1-1,2.08A2.75,2.75,0,0,0,453,202.48Z" transform="translate(12.88 -19.98)"/><path class="cls-57" d="M438,199.66c-.37-.11-1-.28-1.7-.44a13.36,13.36,0,0,0-4.39-.51.66.66,0,0,0-.28.13c-.75.62.14,2.18.39,2.48l-.12-.14-.91-1.11a12.61,12.61,0,0,1-1.8-2.85c-.07-.5.9-.92,1.42-1.23l.46.09.37.08.67.15.33.08.15,0,.55.14,1.43.41a17.63,17.63,0,0,1,2.5,1l.12,0S437.56,198.71,438,199.66Z" transform="translate(12.88 -19.98)"/><path class="cls-57" d="M453,202.48l4.59,4.6h.12a.71.71,0,0,0,.72-.71v-7.61l-.42-.42a2.33,2.33,0,0,1-.29,1.12c-.47.89.08,1.6-.21,2.4a2.18,2.18,0,0,1-2.08,1.16A3.75,3.75,0,0,1,453,202.48Z" transform="translate(12.88 -19.98)"/><path class="cls-57" d="M458,192.71v1.09a2.34,2.34,0,0,0-2.27-.81,3,3,0,0,0-2.27,2.82v-2.45l3.78-2.35.1.09A2.27,2.27,0,0,1,458,192.71Z" transform="translate(12.88 -19.98)"/><path class="cls-57" d="M458.48,186.44l-.59,1-1.32.81L438,199.66c-.45-.95-.81-1.67-.81-1.67a1.48,1.48,0,0,0,1.13-.13c.12-.1,13.42-8.28,18.83-11.62l.94-.58A7.65,7.65,0,0,0,458.48,186.44Z" transform="translate(12.88 -19.98)"/><rect class="cls-44" x="456.75" y="115.9" width="105.13" height="31.18" rx="12.42" ry="12.42"/><path class="cls-45" d="M466.88,144.83c0,.2,0,.37,0,.51a1.31,1.31,0,0,1-.08.34.4.4,0,0,1-.13.19.27.27,0,0,1-.17.06h-3.35v10.8a.29.29,0,0,1-.07.18.52.52,0,0,1-.22.14,2.87,2.87,0,0,1-.42.08,7.28,7.28,0,0,1-1.32,0,2.87,2.87,0,0,1-.42-.08.52.52,0,0,1-.22-.14.29.29,0,0,1-.07-.18v-10.8H457a.24.24,0,0,1-.17-.06.48.48,0,0,1-.13-.19,1.9,1.9,0,0,1-.08-.34c0-.14,0-.31,0-.51s0-.39,0-.53a1.84,1.84,0,0,1,.08-.35.48.48,0,0,1,.13-.19.29.29,0,0,1,.17,0h9.44a.34.34,0,0,1,.17,0,.4.4,0,0,1,.13.19,1.3,1.3,0,0,1,.08.35C466.87,144.44,466.88,144.62,466.88,144.83Z" transform="translate(12.88 -19.98)"/><path class="cls-45" d="M475,151.86a1,1,0,0,1-.21.71.78.78,0,0,1-.59.22h-5.62a3.91,3.91,0,0,0,.14,1.07,1.87,1.87,0,0,0,.45.82,1.77,1.77,0,0,0,.78.51,3.33,3.33,0,0,0,1.16.18,6.19,6.19,0,0,0,1.2-.1,9.13,9.13,0,0,0,.89-.21l.63-.22a1.05,1.05,0,0,1,.4-.1.27.27,0,0,1,.16,0,.25.25,0,0,1,.1.12.9.9,0,0,1,.06.27c0,.11,0,.26,0,.43s0,.28,0,.39a1.06,1.06,0,0,1,0,.27.47.47,0,0,1-.06.19.72.72,0,0,1-.11.15,1.11,1.11,0,0,1-.37.2,6.34,6.34,0,0,1-.76.24,10.69,10.69,0,0,1-1.07.21,8.67,8.67,0,0,1-1.28.09,7,7,0,0,1-2.16-.31,3.82,3.82,0,0,1-1.55-.95,3.9,3.9,0,0,1-.92-1.59,7.26,7.26,0,0,1-.31-2.26,7.19,7.19,0,0,1,.32-2.21,4.87,4.87,0,0,1,.93-1.68,4,4,0,0,1,1.49-1.05,5.75,5.75,0,0,1,3.95,0,3.6,3.6,0,0,1,1.35.94,4,4,0,0,1,.78,1.44,6.42,6.42,0,0,1,.25,1.8Zm-2.53-.74a2.67,2.67,0,0,0-.44-1.73,1.71,1.71,0,0,0-1.45-.62,1.73,1.73,0,0,0-1.48.69,2.45,2.45,0,0,0-.37.74,3.85,3.85,0,0,0-.15.92Z" transform="translate(12.88 -19.98)"/><path class="cls-45" d="M484.14,155.28c0,.18,0,.33,0,.45a2,2,0,0,1,0,.3,1.24,1.24,0,0,1-.06.2.81.81,0,0,1-.16.2,2.4,2.4,0,0,1-.43.29,3.88,3.88,0,0,1-.68.31,5,5,0,0,1-.83.21,4.73,4.73,0,0,1-.93.09,5.06,5.06,0,0,1-1.89-.33,3.62,3.62,0,0,1-1.38-1,4.34,4.34,0,0,1-.84-1.58,7.27,7.27,0,0,1-.29-2.13,7.41,7.41,0,0,1,.35-2.4,4.49,4.49,0,0,1,1-1.67,3.81,3.81,0,0,1,1.46-1,5.14,5.14,0,0,1,1.87-.32,4.43,4.43,0,0,1,.81.07,4.34,4.34,0,0,1,.75.2,4.45,4.45,0,0,1,.62.27,2.26,2.26,0,0,1,.38.27.81.81,0,0,1,.16.2.46.46,0,0,1,.08.2c0,.08,0,.18,0,.3s0,.27,0,.44a2.46,2.46,0,0,1-.1.85q-.11.24-.27.24a.61.61,0,0,1-.37-.15l-.47-.32a4.23,4.23,0,0,0-.64-.32,2.6,2.6,0,0,0-.89-.14,1.76,1.76,0,0,0-1.55.78,4,4,0,0,0-.54,2.29,5.75,5.75,0,0,0,.14,1.32,2.74,2.74,0,0,0,.39.95,1.75,1.75,0,0,0,.67.57,2,2,0,0,0,.92.19,2.38,2.38,0,0,0,.93-.16,3.61,3.61,0,0,0,.68-.35,6,6,0,0,0,.48-.36.55.55,0,0,1,.33-.16.25.25,0,0,1,.16,0,.48.48,0,0,1,.1.19,2.39,2.39,0,0,1,.05.36A4.17,4.17,0,0,1,484.14,155.28Z" transform="translate(12.88 -19.98)"/><path class="cls-45" d="M494.84,156.75a.24.24,0,0,1-.07.18.53.53,0,0,1-.2.13,2.33,2.33,0,0,1-.4.08l-.63,0-.63,0a2.14,2.14,0,0,1-.4-.08.51.51,0,0,1-.21-.13.28.28,0,0,1-.06-.18v-5.27a4.26,4.26,0,0,0-.1-1.06,2.28,2.28,0,0,0-.28-.65,1.27,1.27,0,0,0-.49-.43,1.45,1.45,0,0,0-.68-.15,1.73,1.73,0,0,0-1,.36,5.54,5.54,0,0,0-1.05,1.06v6.14a.24.24,0,0,1-.07.18.51.51,0,0,1-.21.13,2.33,2.33,0,0,1-.4.08l-.63,0-.63,0a2.55,2.55,0,0,1-.4-.08.51.51,0,0,1-.21-.13.28.28,0,0,1-.06-.18V143.14a.33.33,0,0,1,.06-.19.51.51,0,0,1,.21-.14,2.42,2.42,0,0,1,.4-.09,5.53,5.53,0,0,1,.63,0,5.29,5.29,0,0,1,.63,0,2.2,2.2,0,0,1,.4.09.51.51,0,0,1,.21.14.28.28,0,0,1,.07.19v5.1a5,5,0,0,1,1.37-1,3.33,3.33,0,0,1,1.45-.32,3.61,3.61,0,0,1,1.59.31,2.75,2.75,0,0,1,1,.85,3.5,3.5,0,0,1,.57,1.25,7.3,7.3,0,0,1,.18,1.75Z" transform="translate(12.88 -19.98)"/><path class="cls-45" d="M506.21,156.75a.28.28,0,0,1-.06.18.51.51,0,0,1-.21.13,2.33,2.33,0,0,1-.4.08l-.62,0-.64,0a2.33,2.33,0,0,1-.4-.08.58.58,0,0,1-.21-.13.28.28,0,0,1-.06-.18v-5.27a4.26,4.26,0,0,0-.1-1.06,2,2,0,0,0-.28-.65,1.31,1.31,0,0,0-.48-.43,1.52,1.52,0,0,0-.69-.15,1.7,1.7,0,0,0-1,.36,5.87,5.87,0,0,0-1.06,1.06v6.14a.28.28,0,0,1-.06.18.51.51,0,0,1-.21.13,2.55,2.55,0,0,1-.4.08l-.63,0-.64,0a2.39,2.39,0,0,1-.39-.08.64.64,0,0,1-.22-.13.28.28,0,0,1-.06-.18v-9.23a.41.41,0,0,1,.05-.19.39.39,0,0,1,.19-.12,1.4,1.4,0,0,1,.35-.08,3.89,3.89,0,0,1,.53,0,4.22,4.22,0,0,1,.55,0,1.06,1.06,0,0,1,.33.08.41.41,0,0,1,.18.12.41.41,0,0,1,.05.19v1.06a6.07,6.07,0,0,1,1.55-1.24,3.49,3.49,0,0,1,1.66-.41,3.59,3.59,0,0,1,1.58.31,2.72,2.72,0,0,1,1,.84,3.41,3.41,0,0,1,.57,1.25,7.06,7.06,0,0,1,.18,1.71Z" transform="translate(12.88 -19.98)"/><path class="cls-45" d="M511.57,144.39a1.48,1.48,0,0,1-.32,1.09,1.76,1.76,0,0,1-1.19.3,1.81,1.81,0,0,1-1.19-.29,1.45,1.45,0,0,1-.3-1.05,1.5,1.5,0,0,1,.31-1.09,1.79,1.79,0,0,1,1.2-.3,1.73,1.73,0,0,1,1.18.29A1.42,1.42,0,0,1,511.57,144.39Zm-.2,12.36a.28.28,0,0,1-.06.18.51.51,0,0,1-.21.13,2.33,2.33,0,0,1-.4.08l-.63,0-.63,0a2.33,2.33,0,0,1-.4-.08.51.51,0,0,1-.21-.13.28.28,0,0,1-.06-.18v-9.21a.28.28,0,0,1,.06-.18.43.43,0,0,1,.21-.14,1.59,1.59,0,0,1,.4-.09,5.29,5.29,0,0,1,.63,0,5.41,5.41,0,0,1,.63,0,1.59,1.59,0,0,1,.4.09.43.43,0,0,1,.21.14.28.28,0,0,1,.06.18Z" transform="translate(12.88 -19.98)"/><path class="cls-45" d="M521,155.28c0,.18,0,.33,0,.45a2,2,0,0,1,0,.3,1.24,1.24,0,0,1-.06.2.81.81,0,0,1-.16.2,2.4,2.4,0,0,1-.43.29,3.88,3.88,0,0,1-.68.31,5,5,0,0,1-.83.21,4.73,4.73,0,0,1-.93.09,5.06,5.06,0,0,1-1.89-.33,3.62,3.62,0,0,1-1.38-1,4.34,4.34,0,0,1-.84-1.58,7.27,7.27,0,0,1-.29-2.13,7.41,7.41,0,0,1,.35-2.4,4.49,4.49,0,0,1,1-1.67,3.77,3.77,0,0,1,1.47-1,5,5,0,0,1,1.86-.32,4.56,4.56,0,0,1,1.56.27,4.45,4.45,0,0,1,.62.27,3,3,0,0,1,.39.27,2,2,0,0,1,.16.2.66.66,0,0,1,.07.2,2,2,0,0,1,0,.3c0,.12,0,.27,0,.44a2.4,2.4,0,0,1-.11.85q-.1.24-.27.24a.61.61,0,0,1-.37-.15l-.47-.32a4.23,4.23,0,0,0-.64-.32,2.6,2.6,0,0,0-.89-.14,1.77,1.77,0,0,0-1.55.78,4,4,0,0,0-.54,2.29,5.75,5.75,0,0,0,.14,1.32,2.75,2.75,0,0,0,.4.95,1.65,1.65,0,0,0,.66.57,2,2,0,0,0,.92.19,2.38,2.38,0,0,0,.93-.16,3.32,3.32,0,0,0,.68-.35,6,6,0,0,0,.48-.36.57.57,0,0,1,.34-.16.25.25,0,0,1,.15,0,.48.48,0,0,1,.1.19q0,.13.06.36C521,154.86,521,155.05,521,155.28Z" transform="translate(12.88 -19.98)"/><path class="cls-45" d="M530.58,156.78a.28.28,0,0,1-.1.23.75.75,0,0,1-.33.11,3.71,3.71,0,0,1-.66,0,3.62,3.62,0,0,1-.67,0,.57.57,0,0,1-.3-.11.3.3,0,0,1-.09-.23V156a4.18,4.18,0,0,1-1.3,1,3.91,3.91,0,0,1-1.62.34,4.79,4.79,0,0,1-1.35-.19,3.14,3.14,0,0,1-1.07-.57,2.58,2.58,0,0,1-.69-.94,3.11,3.11,0,0,1-.25-1.3,3,3,0,0,1,.31-1.41,2.67,2.67,0,0,1,.94-1,4.61,4.61,0,0,1,1.56-.57,10.64,10.64,0,0,1,2.16-.19h.9v-.56a2.91,2.91,0,0,0-.08-.76,1.27,1.27,0,0,0-.29-.54,1.22,1.22,0,0,0-.54-.32,2.78,2.78,0,0,0-.83-.11,4.15,4.15,0,0,0-1.17.15,5.52,5.52,0,0,0-.9.32,6.93,6.93,0,0,0-.66.32.92.92,0,0,1-.43.14.29.29,0,0,1-.2-.07.57.57,0,0,1-.15-.21,2.93,2.93,0,0,1-.09-.33,2.81,2.81,0,0,1,0-.43,1.78,1.78,0,0,1,.06-.51.79.79,0,0,1,.19-.33,2.32,2.32,0,0,1,.51-.34,5.4,5.4,0,0,1,.85-.33,7.47,7.47,0,0,1,1.06-.26,7.62,7.62,0,0,1,1.18-.09,7.11,7.11,0,0,1,1.86.21,3.18,3.18,0,0,1,1.27.65,2.51,2.51,0,0,1,.72,1.13,5.39,5.39,0,0,1,.23,1.65Zm-2.56-4h-1a5.33,5.33,0,0,0-1.07.1,2,2,0,0,0-.73.28,1.1,1.1,0,0,0-.41.45,1.43,1.43,0,0,0-.13.6,1.17,1.17,0,0,0,.37.91,1.46,1.46,0,0,0,1,.33,2,2,0,0,0,1-.27,4.24,4.24,0,0,0,.93-.82Z" transform="translate(12.88 -19.98)"/><path class="cls-45" d="M535.79,156.75a.24.24,0,0,1-.07.18.51.51,0,0,1-.21.13,2.33,2.33,0,0,1-.4.08l-.63,0-.63,0a2.55,2.55,0,0,1-.4-.08.51.51,0,0,1-.21-.13.28.28,0,0,1-.06-.18V143.14a.33.33,0,0,1,.06-.19.51.51,0,0,1,.21-.14,2.42,2.42,0,0,1,.4-.09,5.53,5.53,0,0,1,.63,0,5.29,5.29,0,0,1,.63,0,2.2,2.2,0,0,1,.4.09.51.51,0,0,1,.21.14.28.28,0,0,1,.07.19Z" transform="translate(12.88 -19.98)"/><circle class="cls-34" cx="239.21" cy="305.02" r="49.61"/><circle class="cls-35" cx="239.21" cy="305.02" r="49.61"/><path class="cls-37" d="M229.73,302c2.35-.86,4.17-2.84,4-5.4a6.58,6.58,0,0,0-3.67-5.5,6.17,6.17,0,0,0-2.42-.6c-3.51-.07-5.37,3.93-5.74,7-.2,1.6,1,2.32,2.19,3.17C225.73,301.92,227.64,302.81,229.73,302Z" transform="translate(12.88 -19.98)"/><path class="cls-40" d="M228.48,301.78l1.17-2.57a3.59,3.59,0,0,0,1.41-.32c1.34-.78,1.65-2.49,1.3-4.12a4.29,4.29,0,0,0-1.44-2.36c-1.1-1.1-5-1.33-5.54.55a5.46,5.46,0,0,0,1.44,5.52l-1.1,2.66Z" transform="translate(12.88 -19.98)"/><path class="cls-37" d="M232.18,293.19c-2,2.13-3.32,5.07-6.12,5.92-.28-1.06-1.81-3.49-1.77-4.58a3.75,3.75,0,0,1,1.31-2.89,3.83,3.83,0,0,1,2.33-.69A5,5,0,0,1,232.18,293.19Z" transform="translate(12.88 -19.98)"/><circle class="cls-40" cx="250.08" cy="288.52" r="1.77"/><path class="cls-37" d="M239.3,350.74l1,3.09a18,18,0,0,1,3.24.4L239,355.48l-1.18-4.34Z" transform="translate(12.88 -19.98)"/><polygon class="cls-37" points="228.25 335.76 225.65 335.76 223.77 334.31 226.11 330.47 227.4 331.26 225.86 334.12 226.34 335.26 228.25 335.76"/><polygon class="cls-37" points="245.68 318 251.32 333.34 252.93 333.02 250.15 316.76 250.15 316.76 245.53 302.33 233.77 302.33 231.68 317 231.68 317 225.01 332.26 226.37 333.17 235.19 319.63 235.86 318.04 240.03 308.76 245.68 318"/><path class="cls-58" d="M225.58,299a9.37,9.37,0,0,1,3.62,2.15,25.44,25.44,0,0,1,3.21,5.88c.05.45-1.42,5.35-1.42,5.35l3,11.4s-9.3,1.44-13.95,0l2.43-9s-.59-3.71-.73-4.29c-.42-1.68.3-4.26.6-6a9.45,9.45,0,0,1,2.18-4.2A9.37,9.37,0,0,0,225.58,299Z" transform="translate(12.88 -19.98)"/><polygon class="cls-59" points="231.32 298.09 247.41 295.23 248.8 304.16 232.47 306.63 231.32 298.09"/><path class="cls-58" d="M230.23,310.8l.61,2.38,5.6-2.09,1.12-.88a9.82,9.82,0,0,0,.83-1.74c0-.15-1.09-.22-1.09-.22a7.2,7.2,0,0,0-.09-.92c0-.13-.29-.67-.41-.3l-.25,1.08-.36.36a6.32,6.32,0,0,0-.4,1.34Z" transform="translate(12.88 -19.98)"/><polygon class="cls-58" points="249.8 289.68 250.51 287.05 251.1 284.95 251.85 285.23 250.46 289.75 249.8 289.68"/><path class="cls-58" d="M229.77,310.73s.64-1.8,1.84-1.07a1.79,1.79,0,0,0,2.15-.18l2,.33.65,1.28-6.16,2.6Z" transform="translate(12.88 -19.98)"/><path class="cls-58" d="M226.37,299.34c-1.12-.75-5-.88-5.5-.58s.62,1.25.51,1.88-2.4,1.44-1.63,2.82a13.14,13.14,0,0,0,3.06,3Z" transform="translate(12.88 -19.98)"/><path class="cls-38" d="M227.49,327.59l-.06,0a.11.11,0,0,1,0-.16l1.3-2a.11.11,0,1,1,.19.12l-1.3,2A.12.12,0,0,1,227.49,327.59Z" transform="translate(12.88 -19.98)"/><g id="_Gruppo_" data-name="&lt;Gruppo&gt;"><path class="cls-40" d="M231.64,322.39c-.32-.07-.53-.8-.6-1.26-.42-.09-1-.66-1.45-.79.71,2.34.76,3.56.9,3.83.3.59.5.91.89.55s.69.35,1,0,.73.39.85-.08-.65-1.14-.65-1.14S232.89,322.63,231.64,322.39Z" transform="translate(12.88 -19.98)"/></g><path class="cls-58" d="M224,304.72c-.48,1.71,5.71,18,5.71,18l2.65-.67s-1-3.73-.84-5.09a3,3,0,0,0-1-3.05c-1.1-1.18-.53-5.72-1.27-7.53S224.33,303.53,224,304.72Z" transform="translate(12.88 -19.98)"/><path class="cls-60" d="M229.77,314.13a.12.12,0,0,1-.11-.07,8.82,8.82,0,0,1-.29-3.72c0-.34,0-.67,0-1a15.79,15.79,0,0,0-.58-4.84,2.64,2.64,0,0,0-.52-1.08.93.93,0,0,0-1-.27.11.11,0,0,1-.15-.05.12.12,0,0,1,.05-.16,1.13,1.13,0,0,1,1.27.32,2.81,2.81,0,0,1,.57,1.18,16.19,16.19,0,0,1,.6,4.9l-.06,1a8.46,8.46,0,0,0,.28,3.62.12.12,0,0,1-.07.15Z" transform="translate(12.88 -19.98)"/><path class="cls-60" d="M227.8,316.89a.11.11,0,0,1-.1-.07c-.38-1-.73-1.83-1.07-2.63a27,27,0,0,1-1.88-5.7.13.13,0,0,1,.09-.14.12.12,0,0,1,.14.09,27,27,0,0,0,1.86,5.66c.34.8.69,1.63,1.07,2.63a.11.11,0,0,1-.06.15Z" transform="translate(12.88 -19.98)"/><path class="cls-60" d="M222.12,305.17h0A.11.11,0,0,1,222,305a8.61,8.61,0,0,1,2.87-4.86.11.11,0,0,1,.16,0,.12.12,0,0,1,0,.17,8.36,8.36,0,0,0-2.79,4.72A.11.11,0,0,1,222.12,305.17Z" transform="translate(12.88 -19.98)"/><circle class="cls-40" cx="244.71" cy="304.11" r="1.77"/><rect class="cls-44" x="257.7" y="296.92" width="89.22" height="31.18" rx="12.42" ry="12.42"/><path class="cls-45" d="M280.3,325.84a3.84,3.84,0,0,1,0,.52,1.31,1.31,0,0,1-.08.34.52.52,0,0,1-.13.18.26.26,0,0,1-.17.07h-4.37v3.6h4.1a.25.25,0,0,1,.17.05.4.4,0,0,1,.13.17,1.31,1.31,0,0,1,.08.34,3.58,3.58,0,0,1,0,.51,3.74,3.74,0,0,1,0,.52,1.31,1.31,0,0,1-.08.34.42.42,0,0,1-.13.19.25.25,0,0,1-.17.06h-4.1v5a.31.31,0,0,1-.07.2.41.41,0,0,1-.22.13,1.9,1.9,0,0,1-.42.09,5.86,5.86,0,0,1-.66,0,6.12,6.12,0,0,1-.66,0,1.9,1.9,0,0,1-.42-.09.51.51,0,0,1-.22-.13.37.37,0,0,1-.07-.2V325.58a.83.83,0,0,1,.24-.66.84.84,0,0,1,.57-.2h6.3a.25.25,0,0,1,.17.06.52.52,0,0,1,.13.18,1.4,1.4,0,0,1,.08.35A3.89,3.89,0,0,1,280.3,325.84Z" transform="translate(12.88 -19.98)"/><path class="cls-45" d="M291.43,333.05a6.89,6.89,0,0,1-.31,2.15,4.6,4.6,0,0,1-.94,1.68A4.26,4.26,0,0,1,288.6,338a6.82,6.82,0,0,1-4.37,0,3.81,3.81,0,0,1-1.51-1,4,4,0,0,1-.89-1.6,7.55,7.55,0,0,1-.29-2.17,7,7,0,0,1,.31-2.16,4.62,4.62,0,0,1,.95-1.68,4.36,4.36,0,0,1,1.58-1.08,6,6,0,0,1,2.22-.38,6.06,6.06,0,0,1,2.15.34,3.77,3.77,0,0,1,1.51,1,4.18,4.18,0,0,1,.88,1.61A7.24,7.24,0,0,1,291.43,333.05Zm-2.68.1a6.12,6.12,0,0,0-.11-1.25,2.88,2.88,0,0,0-.36-1,2,2,0,0,0-.69-.66,2.21,2.21,0,0,0-1.08-.24,2.32,2.32,0,0,0-1,.21,1.77,1.77,0,0,0-.71.62,2.82,2.82,0,0,0-.42,1,5.78,5.78,0,0,0-.14,1.31,7,7,0,0,0,.11,1.26,3.2,3.2,0,0,0,.37,1,1.82,1.82,0,0,0,.69.66,2.62,2.62,0,0,0,2.1,0,1.77,1.77,0,0,0,.71-.62,2.74,2.74,0,0,0,.42-1A5.75,5.75,0,0,0,288.75,333.15Z" transform="translate(12.88 -19.98)"/><path class="cls-45" d="M302.83,333.05a7.2,7.2,0,0,1-.31,2.15,4.62,4.62,0,0,1-.95,1.68A4.18,4.18,0,0,1,300,338a6.82,6.82,0,0,1-4.37,0,3.88,3.88,0,0,1-1.51-1,4.08,4.08,0,0,1-.89-1.6,7.55,7.55,0,0,1-.29-2.17,7,7,0,0,1,.32-2.16,4.48,4.48,0,0,1,.95-1.68,4.32,4.32,0,0,1,1.57-1.08,6,6,0,0,1,2.22-.38,6.12,6.12,0,0,1,2.16.34,3.8,3.8,0,0,1,1.5,1,4.2,4.2,0,0,1,.89,1.61A7.57,7.57,0,0,1,302.83,333.05Zm-2.68.1a6.92,6.92,0,0,0-.11-1.25,3.11,3.11,0,0,0-.37-1,1.82,1.82,0,0,0-.69-.66,2.16,2.16,0,0,0-1.08-.24,2.28,2.28,0,0,0-1,.21,1.87,1.87,0,0,0-.72.62,3.26,3.26,0,0,0-.42,1,5.78,5.78,0,0,0-.14,1.31,6.13,6.13,0,0,0,.12,1.26,3.19,3.19,0,0,0,.36,1,1.82,1.82,0,0,0,.69.66,2.62,2.62,0,0,0,2.1,0,1.87,1.87,0,0,0,.72-.62,2.92,2.92,0,0,0,.41-1A5.72,5.72,0,0,0,300.15,333.15Z" transform="translate(12.88 -19.98)"/><path class="cls-45" d="M310.35,336.85a3.12,3.12,0,0,1-.06.7.72.72,0,0,1-.15.34.84.84,0,0,1-.27.18,2.79,2.79,0,0,1-.43.13,3.74,3.74,0,0,1-.52.09,5.49,5.49,0,0,1-.58,0,4.11,4.11,0,0,1-1.34-.2,2.18,2.18,0,0,1-.94-.6,2.49,2.49,0,0,1-.55-1,5.38,5.38,0,0,1-.18-1.47v-4.73h-1.11c-.13,0-.23-.08-.3-.25a2.24,2.24,0,0,1-.1-.81,3.43,3.43,0,0,1,0-.5,1.17,1.17,0,0,1,.07-.33.4.4,0,0,1,.13-.17.27.27,0,0,1,.18-.05h1.1v-2.06a.33.33,0,0,1,.06-.19.47.47,0,0,1,.2-.14,1.74,1.74,0,0,1,.41-.08,5.46,5.46,0,0,1,.62,0,5.6,5.6,0,0,1,.64,0,1.65,1.65,0,0,1,.4.08.59.59,0,0,1,.21.14.33.33,0,0,1,.06.19v2.06h2a.29.29,0,0,1,.18.05.4.4,0,0,1,.13.17,1.17,1.17,0,0,1,.07.33,3.43,3.43,0,0,1,0,.5,2.24,2.24,0,0,1-.1.81c-.07.17-.17.25-.3.25h-2v4.33a2.15,2.15,0,0,0,.24,1.14.92.92,0,0,0,.85.38,2.1,2.1,0,0,0,.37,0,1.71,1.71,0,0,0,.29-.08l.22-.09.16,0,.12,0a.27.27,0,0,1,.09.15,1.55,1.55,0,0,1,.05.29A3.23,3.23,0,0,1,310.35,336.85Z" transform="translate(12.88 -19.98)"/><path class="cls-7" d="M587.18,468.54c-11.91-.13-23.83-.52-35.74-.3s-23.82.53-35.73,1.35v.3c11.91.83,23.82,1.15,35.73,1.35s23.83-.17,35.74-.3l16.6-.21v-2Z" transform="translate(12.88 -19.98)"/></g><g id="Mobile"><circle class="cls-34" cx="92.19" cy="345.11" r="70.87"/><rect class="cls-61" x="35.59" y="361.11" width="112.49" height="8.29" rx="3.55" ry="3.55"/><path class="cls-55" d="M43.29,342.54H93.44c7.74,0,13.22,15.64,17.5,15.64H121.8A10.21,10.21,0,0,1,132,368.43v6.68a3.37,3.37,0,0,1-3.54,3.39H29.62a3.37,3.37,0,0,1-3.53-3.39V359.7C26.09,351.17,37.2,342.54,43.29,342.54Z" transform="translate(12.88 -19.98)"/><path class="cls-62" d="M26.09,365.64s2.74-.21,2.74,2.24v1.37c0,1.57-1.57,1.86-2.74,1.86h0v-5.47Z" transform="translate(12.88 -19.98)"/><path class="cls-63" d="M128.12,365.14V361a3.8,3.8,0,0,1,0-.75,10.16,10.16,0,0,1,3.93,8.15v.37a.78.78,0,0,1-.31,0A3.61,3.61,0,0,1,128.12,365.14Z" transform="translate(12.88 -19.98)"/><rect class="cls-64" x="66.33" y="324.91" width="22.28" height="14.07" rx="2.47" ry="2.47"/><path class="cls-64" d="M29.31,356.44c-.3,1.33,1.11,2.52,2.47,2.52H48.22a2.18,2.18,0,0,0,2.11-2.45v-9c0-1.36-.75-2.58-2.11-2.58H41.64C36.51,344.89,30.19,352.62,29.31,356.44Z" transform="translate(12.88 -19.98)"/><path class="cls-64" d="M79.64,356.51A2.31,2.31,0,0,0,81.93,359h18.91a2.43,2.43,0,0,0,2.46-2.52c0-4.16-6.3-11.55-10.68-11.55H81.93a2.43,2.43,0,0,0-2.29,2.58Z" transform="translate(12.88 -19.98)"/><path class="cls-54" d="M128.48,378.5H29.62a3.37,3.37,0,0,1-3.53-3.39v-1.3H132v1.3A3.37,3.37,0,0,1,128.48,378.5Z" transform="translate(12.88 -19.98)"/><path class="cls-54" d="M125.22,378.5a10.44,10.44,0,0,0-20.88,0Z" transform="translate(12.88 -19.98)"/><path class="cls-65" d="M106.67,379.23a8.18,8.18,0,1,0,8.18-8.18A8.18,8.18,0,0,0,106.67,379.23Z" transform="translate(12.88 -19.98)"/><path class="cls-66" d="M109.35,379.23a5.5,5.5,0,1,0,5.5-5.5A5.5,5.5,0,0,0,109.35,379.23Z" transform="translate(12.88 -19.98)"/><path class="cls-54" d="M57,378.5a10.13,10.13,0,0,0-10.44-10.43A10.13,10.13,0,0,0,36.11,378.5Z" transform="translate(12.88 -19.98)"/><path class="cls-65" d="M38.43,379.23a8.18,8.18,0,1,0,8.18-8.18A8.18,8.18,0,0,0,38.43,379.23Z" transform="translate(12.88 -19.98)"/><path class="cls-66" d="M41.11,379.23a5.5,5.5,0,1,0,5.5-5.5A5.5,5.5,0,0,0,41.11,379.23Z" transform="translate(12.88 -19.98)"/><path class="cls-65" d="M79.57,363.85a.94.94,0,0,0,.82,1h5.79a.94.94,0,0,0,.82-1h0a1,1,0,0,0-.82-1H80.39a1,1,0,0,0-.82,1Z" transform="translate(12.88 -19.98)"/><rect class="cls-65" x="67.11" y="342.89" width="7.43" height="1.95" rx="0.82" ry="0.82"/><path class="cls-54" d="M104.27,356.56a1.86,1.86,0,0,0-1.9-1.69l-6.73,0a1.54,1.54,0,0,0-1.53,1.69v2.34a1.35,1.35,0,0,0,1.46,1.52l6.83,0a1.7,1.7,0,0,0,1.87-1.52Z" transform="translate(12.88 -19.98)"/><circle class="cls-35" cx="92.19" cy="345.11" r="70.87"/><rect class="cls-44" x="88.69" y="378.93" width="89.22" height="31.18" rx="12.42" ry="12.42"/><path class="cls-45" d="M106,419.76a.28.28,0,0,1-.06.18.43.43,0,0,1-.21.14,2.33,2.33,0,0,1-.4.08,6.53,6.53,0,0,1-1.25,0,2.18,2.18,0,0,1-.39-.08.43.43,0,0,1-.21-.14.28.28,0,0,1-.06-.18v-10.9h0l-3.88,10.89a.46.46,0,0,1-.14.22.55.55,0,0,1-.25.14,1.92,1.92,0,0,1-.41.07h-.6l-.6,0a1.8,1.8,0,0,1-.41-.09.55.55,0,0,1-.25-.14.41.41,0,0,1-.13-.19L93,408.86h0v10.9a.28.28,0,0,1-.06.18.43.43,0,0,1-.21.14,2.81,2.81,0,0,1-.4.08,6.53,6.53,0,0,1-1.25,0,2.55,2.55,0,0,1-.4-.08.36.36,0,0,1-.2-.14.28.28,0,0,1-.06-.18V407.83a1.06,1.06,0,0,1,.28-.81,1,1,0,0,1,.74-.28h1.78a3.3,3.3,0,0,1,.82.08,1.43,1.43,0,0,1,1,.73,4,4,0,0,1,.29.73l2.89,8h0l3-8a4,4,0,0,1,.29-.73,1.75,1.75,0,0,1,.37-.49,1.23,1.23,0,0,1,.51-.26,2.24,2.24,0,0,1,.67-.08H105a1.35,1.35,0,0,1,.48.07.78.78,0,0,1,.33.21,1.05,1.05,0,0,1,.2.34,1.66,1.66,0,0,1,.07.47Z" transform="translate(12.88 -19.98)"/><path class="cls-45" d="M118.13,415.07a6.94,6.94,0,0,1-.31,2.15,4.46,4.46,0,0,1-.94,1.68A4.26,4.26,0,0,1,115.3,420a6.09,6.09,0,0,1-2.23.38,6.28,6.28,0,0,1-2.14-.34,3.81,3.81,0,0,1-1.51-1,4,4,0,0,1-.89-1.6,7.55,7.55,0,0,1-.29-2.17,7,7,0,0,1,.32-2.16,4.6,4.6,0,0,1,.94-1.68,4.36,4.36,0,0,1,1.58-1.08,6,6,0,0,1,2.22-.38,6.27,6.27,0,0,1,2.15.33,3.9,3.9,0,0,1,1.51,1,4.05,4.05,0,0,1,.88,1.61A7.24,7.24,0,0,1,118.13,415.07Zm-2.68.1a6.12,6.12,0,0,0-.11-1.25,2.88,2.88,0,0,0-.36-1,1.85,1.85,0,0,0-.69-.67,2.62,2.62,0,0,0-2.1,0,1.84,1.84,0,0,0-.71.62,2.82,2.82,0,0,0-.42,1,5.78,5.78,0,0,0-.14,1.31,7,7,0,0,0,.11,1.26,3.2,3.2,0,0,0,.37,1,1.82,1.82,0,0,0,.69.66,2.62,2.62,0,0,0,2.1,0,2,2,0,0,0,.72-.62,2.92,2.92,0,0,0,.41-1A5.75,5.75,0,0,0,115.45,415.17Z" transform="translate(12.88 -19.98)"/><path class="cls-45" d="M129.49,415a8.31,8.31,0,0,1-.27,2.21,5,5,0,0,1-.78,1.68,3.47,3.47,0,0,1-1.25,1.07,3.77,3.77,0,0,1-1.68.37,4,4,0,0,1-.87-.09,3.09,3.09,0,0,1-.77-.28,5.2,5.2,0,0,1-.72-.5,6.27,6.27,0,0,1-.73-.73v1a.31.31,0,0,1-.06.19.42.42,0,0,1-.18.13,1.44,1.44,0,0,1-.35.07,4.19,4.19,0,0,1-.53,0,4.11,4.11,0,0,1-.53,0,1.26,1.26,0,0,1-.34-.07.33.33,0,0,1-.18-.13.31.31,0,0,1-.06-.19V406.17a.28.28,0,0,1,.07-.19.51.51,0,0,1,.21-.14,2.33,2.33,0,0,1,.4-.08,3.62,3.62,0,0,1,.63,0,3.77,3.77,0,0,1,.63,0,2.55,2.55,0,0,1,.4.08.51.51,0,0,1,.21.14.33.33,0,0,1,.06.19v5.1a6.29,6.29,0,0,1,.71-.6,4.56,4.56,0,0,1,.7-.41,3.56,3.56,0,0,1,.72-.23,4,4,0,0,1,.79-.07,3.25,3.25,0,0,1,2.9,1.51,4.92,4.92,0,0,1,.66,1.62A8.83,8.83,0,0,1,129.49,415Zm-2.7.18a6.9,6.9,0,0,0-.09-1.13,3.22,3.22,0,0,0-.31-1,1.85,1.85,0,0,0-.56-.67,1.44,1.44,0,0,0-.88-.26,2.08,2.08,0,0,0-.5.07,2.24,2.24,0,0,0-.52.25,4.15,4.15,0,0,0-.54.46,6.33,6.33,0,0,0-.59.69v3.06a6,6,0,0,0,1,1.08,1.8,1.8,0,0,0,1.05.36,1.35,1.35,0,0,0,.86-.26,2,2,0,0,0,.59-.67,3.26,3.26,0,0,0,.33-.94A5.37,5.37,0,0,0,126.79,415.22Z" transform="translate(12.88 -19.98)"/><path class="cls-45" d="M134.37,407.42a1.48,1.48,0,0,1-.32,1.09,2.53,2.53,0,0,1-2.37,0,1.39,1.39,0,0,1-.31-1,1.47,1.47,0,0,1,.32-1.09,2.53,2.53,0,0,1,2.37,0A1.42,1.42,0,0,1,134.37,407.42Zm-.2,12.36a.28.28,0,0,1-.06.18.42.42,0,0,1-.21.13,2.33,2.33,0,0,1-.4.08l-.63,0-.63,0a2.33,2.33,0,0,1-.4-.08.42.42,0,0,1-.21-.13.28.28,0,0,1-.06-.18v-9.21a.28.28,0,0,1,.06-.18.43.43,0,0,1,.21-.14,1.59,1.59,0,0,1,.4-.09,5.53,5.53,0,0,1,.63,0,5.29,5.29,0,0,1,.63,0,1.59,1.59,0,0,1,.4.09.43.43,0,0,1,.21.14.28.28,0,0,1,.06.18Z" transform="translate(12.88 -19.98)"/><path class="cls-45" d="M139.38,419.78a.28.28,0,0,1-.06.18.42.42,0,0,1-.21.13,2.55,2.55,0,0,1-.4.08l-.63,0-.64,0a2.39,2.39,0,0,1-.39-.08.51.51,0,0,1-.22-.13.28.28,0,0,1-.06-.18V406.17a.33.33,0,0,1,.06-.19.64.64,0,0,1,.22-.14,2.39,2.39,0,0,1,.39-.08,3.82,3.82,0,0,1,.64,0,3.77,3.77,0,0,1,.63,0,2.55,2.55,0,0,1,.4.08.51.51,0,0,1,.21.14.33.33,0,0,1,.06.19Z" transform="translate(12.88 -19.98)"/><path class="cls-45" d="M150.51,414.89a1,1,0,0,1-.22.71.75.75,0,0,1-.58.22h-5.62a4,4,0,0,0,.14,1.08,1.92,1.92,0,0,0,1.23,1.33,3.57,3.57,0,0,0,1.15.17,6,6,0,0,0,1.2-.1,6.72,6.72,0,0,0,.9-.21l.63-.22a1.05,1.05,0,0,1,.4-.1.24.24,0,0,1,.15,0,.21.21,0,0,1,.11.13,1.12,1.12,0,0,1,.06.26c0,.11,0,.26,0,.43s0,.28,0,.39,0,.2,0,.27a1.45,1.45,0,0,1-.06.19.58.58,0,0,1-.11.15,1.23,1.23,0,0,1-.37.2,6.34,6.34,0,0,1-.76.24c-.32.08-.67.15-1.07.21a8.67,8.67,0,0,1-1.28.09,7,7,0,0,1-2.16-.31,3.92,3.92,0,0,1-1.55-.94,4.08,4.08,0,0,1-.93-1.6,7.57,7.57,0,0,1-.3-2.25,7.3,7.3,0,0,1,.32-2.22,4.57,4.57,0,0,1,.93-1.68,4,4,0,0,1,1.49-1.05,5.75,5.75,0,0,1,3.95,0,3.51,3.51,0,0,1,1.35.95,3.89,3.89,0,0,1,.78,1.43,6.42,6.42,0,0,1,.25,1.8Zm-2.53-.74a2.68,2.68,0,0,0-.44-1.72,1.69,1.69,0,0,0-1.45-.63,1.86,1.86,0,0,0-.87.19,1.75,1.75,0,0,0-.61.5,2.45,2.45,0,0,0-.37.74,3.47,3.47,0,0,0-.15.92Z" transform="translate(12.88 -19.98)"/></g></g></svg>